<svg xmlns="http://www.w3.org/2000/svg" width="792" height="592" viewBox="-48 -48 396 296" preserveAspectRatio="xMidYMid meet">
<style>polygon,line{vector-effect:non-scaling-stroke}</style>
<g transform="translate(0,200) scale(1,-1)">
<g id="boundary" fill="none" stroke="#222" stroke-width="0.5">
<polygon points="0,0 300,0 300,200 0,200"/>
</g>
<g id="stalls" stroke="#1f5f1a" stroke-width="0.25">
<polygon points="-9,-30 0,-30 0,-12 -9,-12" fill="#8fc98a"/>
<polygon points="0,-30 9,-30 9,-12 0,-12" fill="#8fc98a"/>
<polygon points="9,-30 18,-30 18,-12 9,-12" fill="#8fc98a"/>
<polygon points="18,-30 27,-30 27,-12 18,-12" fill="#8fc98a"/>
<polygon points="27,-30 36,-30 36,-12 27,-12" fill="#8fc98a"/>
<polygon points="36,-30 45,-30 45,-12 36,-12" fill="#a1b885"/>
<polygon points="45,-30 54,-30 54,-12 45,-12" fill="#8fc98a"/>
<polygon points="54,-30 63,-30 63,-12 54,-12" fill="#8fc98a"/>
<polygon points="63,-30 72,-30 72,-12 63,-12" fill="#8fc98a"/>
<polygon points="72,-30 81,-30 81,-12 72,-12" fill="#8fc98a"/>
<polygon points="81,-30 90,-30 90,-12 81,-12" fill="#8fc98a"/>
<polygon points="90,-30 99,-30 99,-12 90,-12" fill="#8fc98a"/>
<polygon points="99,-30 108,-30 108,-12 99,-12" fill="#8fc98a"/>
<polygon points="108,-30 117,-30 117,-12 108,-12" fill="#a1b885"/>
<polygon points="117,-30 126,-30 126,-12 117,-12" fill="#8fc98a"/>
<polygon points="126,-30 135,-30 135,-12 126,-12" fill="#8fc98a"/>
<polygon points="135,-30 144,-30 144,-12 135,-12" fill="#8fc98a"/>
<polygon points="144,-30 153,-30 153,-12 144,-12" fill="#8fc98a"/>
<polygon points="153,-30 162,-30 162,-12 153,-12" fill="#8fc98a"/>
<polygon points="162,-30 171,-30 171,-12 162,-12" fill="#8fc98a"/>
<polygon points="171,-30 180,-30 180,-12 171,-12" fill="#8fc98a"/>
<polygon points="180,-30 189,-30 189,-12 180,-12" fill="#a1b885"/>
<polygon points="189,-30 198,-30 198,-12 189,-12" fill="#8fc98a"/>
<polygon points="198,-30 207,-30 207,-12 198,-12" fill="#8fc98a"/>
<polygon points="207,-30 216,-30 216,-12 207,-12" fill="#8fc98a"/>
<polygon points="216,-30 225,-30 225,-12 216,-12" fill="#8fc98a"/>
<polygon points="225,-30 234,-30 234,-12 225,-12" fill="#8fc98a"/>
<polygon points="234,-30 243,-30 243,-12 234,-12" fill="#8fc98a"/>
<polygon points="243,-30 252,-30 252,-12 243,-12" fill="#8fc98a"/>
<polygon points="252,-30 261,-30 261,-12 252,-12" fill="#a1b885"/>
<polygon points="261,-30 270,-30 270,-12 261,-12" fill="#8fc98a"/>
<polygon points="270,-30 279,-30 279,-12 270,-12" fill="#8fc98a"/>
<polygon points="279,-30 288,-30 288,-12 279,-12" fill="#8fc98a"/>
<polygon points="288,-30 297,-30 297,-12 288,-12" fill="#8fc98a"/>
<polygon points="297,-30 306,-30 306,-12 297,-12" fill="#8fc98a"/>
<polygon points="306,230 297,230 297,212 306,212" fill="#8fc98a"/>
<polygon points="297,230 288,230 288,212 297,212" fill="#8fc98a"/>
<polygon points="288,230 279,230 279,212 288,212" fill="#8fc98a"/>
<polygon points="279,230 270,230 270,212 279,212" fill="#8fc98a"/>
<polygon points="270,230 261,230 261,212 270,212" fill="#8fc98a"/>
<polygon points="261,230 252,230 252,212 261,212" fill="#8fc98a"/>
<polygon points="252,230 243,230 243,212 252,212" fill="#a1b885"/>
<polygon points="243,230 234,230 234,212 243,212" fill="#8fc98a"/>
<polygon points="234,230 225,230 225,212 234,212" fill="#8fc98a"/>
<polygon points="225,230 216,230 216,212 225,212" fill="#8fc98a"/>
<polygon points="216,230 207,230 207,212 216,212" fill="#8fc98a"/>
<polygon points="207,230 198,230 198,212 207,212" fill="#8fc98a"/>
<polygon points="198,230 189,230 189,212 198,212" fill="#8fc98a"/>
<polygon points="189,230 180,230 180,212 189,212" fill="#8fc98a"/>
<polygon points="180,230 171,230 171,212 180,212" fill="#a1b885"/>
<polygon points="171,230 162,230 162,212 171,212" fill="#8fc98a"/>
<polygon points="162,230 153,230 153,212 162,212" fill="#8fc98a"/>
<polygon points="153,230 144,230 144,212 153,212" fill="#8fc98a"/>
<polygon points="144,230 135,230 135,212 144,212" fill="#8fc98a"/>
<polygon points="135,230 126,230 126,212 135,212" fill="#8fc98a"/>
<polygon points="126,230 117,230 117,212 126,212" fill="#8fc98a"/>
<polygon points="117,230 108,230 108,212 117,212" fill="#8fc98a"/>
<polygon points="108,230 99,230 99,212 108,212" fill="#a1b885"/>
<polygon points="99,230 90,230 90,212 99,212" fill="#8fc98a"/>
<polygon points="90,230 81,230 81,212 90,212" fill="#8fc98a"/>
<polygon points="81,230 72,230 72,212 81,212" fill="#8fc98a"/>
<polygon points="72,230 63,230 63,212 72,212" fill="#8fc98a"/>
<polygon points="63,230 54,230 54,212 63,212" fill="#8fc98a"/>
<polygon points="54,230 45,230 45,212 54,212" fill="#8fc98a"/>
<polygon points="45,230 36,230 36,212 45,212" fill="#8fc98a"/>
<polygon points="36,230 27,230 27,212 36,212" fill="#a1b885"/>
<polygon points="27,230 18,230 18,212 27,212" fill="#8fc98a"/>
<polygon points="18,230 9,230 9,212 18,212" fill="#8fc98a"/>
<polygon points="9,230 0,230 0,212 9,212" fill="#8fc98a"/>
<polygon points="0,230 -9,230 -9,212 0,212" fill="#8fc98a"/>
<polygon points="-30,207 -30,198 -12,198 -12,207" fill="#8fc98a"/>
<polygon points="-30,198 -30,189 -12,189 -12,198" fill="#8fc98a"/>
<polygon points="-30,189 -30,180 -12,180 -12,189" fill="#8fc98a"/>
<polygon points="-30,180 -30,171 -12,171 -12,180" fill="#a1b885"/>
<polygon points="-30,171 -30,162 -12,162 -12,171" fill="#8fc98a"/>
<polygon points="-30,162 -30,153 -12,153 -12,162" fill="#8fc98a"/>
<polygon points="-30,153 -30,144 -12,144 -12,153" fill="#8fc98a"/>
<polygon points="-30,144 -30,135 -12,135 -12,144" fill="#8fc98a"/>
<polygon points="-30,135 -30,126 -12,126 -12,135" fill="#8fc98a"/>
<polygon points="-30,126 -30,117 -12,117 -12,126" fill="#8fc98a"/>
<polygon points="-30,117 -30,108 -12,108 -12,117" fill="#8fc98a"/>
<polygon points="-30,108 -30,99 -12,99 -12,108" fill="#a1b885"/>
<polygon points="-30,99 -30,90 -12,90 -12,99" fill="#8fc98a"/>
<polygon points="-30,90 -30,81 -12,81 -12,90" fill="#8fc98a"/>
<polygon points="-30,81 -30,72 -12,72 -12,81" fill="#8fc98a"/>
<polygon points="-30,72 -30,63 -12,63 -12,72" fill="#8fc98a"/>
<polygon points="-30,63 -30,54 -12,54 -12,63" fill="#8fc98a"/>
<polygon points="-30,54 -30,45 -12,45 -12,54" fill="#8fc98a"/>
<polygon points="-30,45 -30,36 -12,36 -12,45" fill="#8fc98a"/>
<polygon points="-30,36 -30,27 -12,27 -12,36" fill="#a1b885"/>
<polygon points="-30,27 -30,18 -12,18 -12,27" fill="#8fc98a"/>
<polygon points="-30,18 -30,9 -12,9 -12,18" fill="#8fc98a"/>
<polygon points="-30,9 -30,0 -12,0 -12,9" fill="#8fc98a"/>
<polygon points="-30,0 -30,-9 -12,-9 -12,0" fill="#8fc98a"/>
<polygon points="330,-9 330,0 312,0 312,-9" fill="#8fc98a"/>
<polygon points="330,0 330,9 312,9 312,0" fill="#8fc98a"/>
<polygon points="330,9 330,18 312,18 312,9" fill="#8fc98a"/>
<polygon points="330,18 330,27 312,27 312,18" fill="#8fc98a"/>
<polygon points="330,27 330,36 312,36 312,27" fill="#8fc98a"/>
<polygon points="330,36 330,45 312,45 312,36" fill="#a1b885"/>
<polygon points="330,45 330,54 312,54 312,45" fill="#8fc98a"/>
<polygon points="330,54 330,63 312,63 312,54" fill="#8fc98a"/>
<polygon points="330,63 330,72 312,72 312,63" fill="#8fc98a"/>
<polygon points="330,72 330,81 312,81 312,72" fill="#8fc98a"/>
<polygon points="330,81 330,90 312,90 312,81" fill="#8fc98a"/>
<polygon points="330,90 330,99 312,99 312,90" fill="#8fc98a"/>
<polygon points="330,99 330,108 312,108 312,99" fill="#8fc98a"/>
<polygon points="330,108 330,117 312,117 312,108" fill="#a1b885"/>
<polygon points="330,117 330,126 312,126 312,117" fill="#8fc98a"/>
<polygon points="330,126 330,135 312,135 312,126" fill="#8fc98a"/>
<polygon points="330,135 330,144 312,144 312,135" fill="#8fc98a"/>
<polygon points="330,144 330,153 312,153 312,144" fill="#8fc98a"/>
<polygon points="330,153 330,162 312,162 312,153" fill="#8fc98a"/>
<polygon points="330,162 330,171 312,171 312,162" fill="#8fc98a"/>
<polygon points="330,171 330,180 312,180 312,171" fill="#8fc98a"/>
<polygon points="330,180 330,189 312,189 312,180" fill="#a1b885"/>
<polygon points="330,189 330,198 312,198 312,189" fill="#8fc98a"/>
<polygon points="330,198 330,207 312,207 312,198" fill="#8fc98a"/>
<polygon points="30,27 30,36 12,36 12,27" fill="#8fc98a"/>
<polygon points="30,36 30,45 12,45 12,36" fill="#a1b885"/>
<polygon points="30,45 30,54 12,54 12,45" fill="#8fc98a"/>
<polygon points="30,54 30,63 12,63 12,54" fill="#8fc98a"/>
<polygon points="30,63 30,72 12,72 12,63" fill="#8fc98a"/>
<polygon points="30,72 30,81 12,81 12,72" fill="#8fc98a"/>
<polygon points="30,81 30,90 12,90 12,81" fill="#8fc98a"/>
<polygon points="30,90 30,99 12,99 12,90" fill="#8fc98a"/>
<polygon points="30,99 30,108 12,108 12,99" fill="#8fc98a"/>
<polygon points="30,108 30,99 48,99 48,108" fill="#8fc98a"/>
<polygon points="30,99 30,90 48,90 48,99" fill="#8fc98a"/>
<polygon points="30,90 30,81 48,81 48,90" fill="#8fc98a"/>
<polygon points="30,81 30,72 48,72 48,81" fill="#8fc98a"/>
<polygon points="30,72 30,63 48,63 48,72" fill="#8fc98a"/>
<polygon points="30,63 30,54 48,54 48,63" fill="#8fc98a"/>
<polygon points="30,54 30,45 48,45 48,54" fill="#8fc98a"/>
<polygon points="30,45 30,36 48,36 48,45" fill="#8fc98a"/>
<polygon points="30,36 30,27 48,27 48,36" fill="#8fc98a"/>
<polygon points="90,27 90,36 72,36 72,27" fill="#8fc98a"/>
<polygon points="90,36 90,45 72,45 72,36" fill="#a1b885"/>
<polygon points="90,45 90,54 72,54 72,45" fill="#8fc98a"/>
<polygon points="90,54 90,63 72,63 72,54" fill="#8fc98a"/>
<polygon points="90,63 90,72 72,72 72,63" fill="#8fc98a"/>
<polygon points="90,72 90,81 72,81 72,72" fill="#8fc98a"/>
<polygon points="90,81 90,90 72,90 72,81" fill="#8fc98a"/>
<polygon points="90,90 90,99 72,99 72,90" fill="#8fc98a"/>
<polygon points="90,99 90,108 72,108 72,99" fill="#8fc98a"/>
<polygon points="90,108 90,99 108,99 108,108" fill="#8fc98a"/>
<polygon points="90,99 90,90 108,90 108,99" fill="#8fc98a"/>
<polygon points="90,90 90,81 108,81 108,90" fill="#8fc98a"/>
<polygon points="90,81 90,72 108,72 108,81" fill="#8fc98a"/>
<polygon points="90,72 90,63 108,63 108,72" fill="#8fc98a"/>
<polygon points="90,63 90,54 108,54 108,63" fill="#8fc98a"/>
<polygon points="90,54 90,45 108,45 108,54" fill="#8fc98a"/>
<polygon points="90,45 90,36 108,36 108,45" fill="#8fc98a"/>
<polygon points="90,36 90,27 108,27 108,36" fill="#8fc98a"/>
<polygon points="150,27 150,36 132,36 132,27" fill="#8fc98a"/>
<polygon points="150,36 150,45 132,45 132,36" fill="#a1b885"/>
<polygon points="150,45 150,54 132,54 132,45" fill="#8fc98a"/>
<polygon points="150,54 150,63 132,63 132,54" fill="#8fc98a"/>
<polygon points="150,63 150,72 132,72 132,63" fill="#8fc98a"/>
<polygon points="150,72 150,81 132,81 132,72" fill="#8fc98a"/>
<polygon points="150,81 150,90 132,90 132,81" fill="#8fc98a"/>
<polygon points="150,90 150,99 132,99 132,90" fill="#8fc98a"/>
<polygon points="150,99 150,108 132,108 132,99" fill="#8fc98a"/>
<polygon points="150,108 150,99 168,99 168,108" fill="#8fc98a"/>
<polygon points="150,99 150,90 168,90 168,99" fill="#8fc98a"/>
<polygon points="150,90 150,81 168,81 168,90" fill="#8fc98a"/>
<polygon points="150,81 150,72 168,72 168,81" fill="#8fc98a"/>
<polygon points="150,72 150,63 168,63 168,72" fill="#8fc98a"/>
<polygon points="150,63 150,54 168,54 168,63" fill="#8fc98a"/>
<polygon points="150,54 150,45 168,45 168,54" fill="#8fc98a"/>
<polygon points="150,45 150,36 168,36 168,45" fill="#8fc98a"/>
<polygon points="150,36 150,27 168,27 168,36" fill="#8fc98a"/>
<polygon points="210,27 210,36 192,36 192,27" fill="#8fc98a"/>
<polygon points="210,36 210,45 192,45 192,36" fill="#a1b885"/>
<polygon points="210,45 210,54 192,54 192,45" fill="#8fc98a"/>
<polygon points="210,54 210,63 192,63 192,54" fill="#8fc98a"/>
<polygon points="210,63 210,72 192,72 192,63" fill="#8fc98a"/>
<polygon points="210,72 210,81 192,81 192,72" fill="#8fc98a"/>
<polygon points="210,81 210,90 192,90 192,81" fill="#8fc98a"/>
<polygon points="210,90 210,99 192,99 192,90" fill="#8fc98a"/>
<polygon points="210,99 210,108 192,108 192,99" fill="#8fc98a"/>
<polygon points="210,108 210,99 228,99 228,108" fill="#8fc98a"/>
<polygon points="210,99 210,90 228,90 228,99" fill="#8fc98a"/>
<polygon points="210,90 210,81 228,81 228,90" fill="#8fc98a"/>
<polygon points="210,81 210,72 228,72 228,81" fill="#8fc98a"/>
<polygon points="210,72 210,63 228,63 228,72" fill="#8fc98a"/>
<polygon points="210,63 210,54 228,54 228,63" fill="#8fc98a"/>
<polygon points="210,54 210,45 228,45 228,54" fill="#8fc98a"/>
<polygon points="210,45 210,36 228,36 228,45" fill="#8fc98a"/>
<polygon points="210,36 210,27 228,27 228,36" fill="#8fc98a"/>
<polygon points="270,27 270,36 252,36 252,27" fill="#8fc98a"/>
<polygon points="270,36 270,45 252,45 252,36" fill="#a1b885"/>
<polygon points="270,45 270,54 252,54 252,45" fill="#8fc98a"/>
<polygon points="270,54 270,63 252,63 252,54" fill="#8fc98a"/>
<polygon points="270,63 270,72 252,72 252,63" fill="#8fc98a"/>
<polygon points="270,72 270,81 252,81 252,72" fill="#8fc98a"/>
<polygon points="270,81 270,90 252,90 252,81" fill="#8fc98a"/>
<polygon points="270,90 270,99 252,99 252,90" fill="#8fc98a"/>
<polygon points="270,99 270,108 252,108 252,99" fill="#8fc98a"/>
<polygon points="270,108 270,99 288,99 288,108" fill="#8fc98a"/>
<polygon points="270,99 270,90 288,90 288,99" fill="#8fc98a"/>
<polygon points="270,90 270,81 288,81 288,90" fill="#8fc98a"/>
<polygon points="270,81 270,72 288,72 288,81" fill="#8fc98a"/>
<polygon points="270,72 270,63 288,63 288,72" fill="#8fc98a"/>
<polygon points="270,63 270,54 288,54 288,63" fill="#8fc98a"/>
<polygon points="270,54 270,45 288,45 288,54" fill="#8fc98a"/>
<polygon points="270,45 270,36 288,36 288,45" fill="#8fc98a"/>
<polygon points="270,36 270,27 288,27 288,36" fill="#8fc98a"/>
</g>
<g id="graph">
<line x1="0" y1="0" x2="60" y2="0" stroke="#a84a1e" stroke-width="0.6"/>
<line x1="60" y1="0" x2="0" y2="0" stroke="#a84a1e" stroke-width="0.6"/>
<line x1="60" y1="0" x2="120" y2="0" stroke="#a84a1e" stroke-width="0.6"/>
<line x1="120" y1="0" x2="60" y2="0" stroke="#a84a1e" stroke-width="0.6"/>
<line x1="120" y1="0" x2="180" y2="0" stroke="#a84a1e" stroke-width="0.6"/>
<line x1="180" y1="0" x2="120" y2="0" stroke="#a84a1e" stroke-width="0.6"/>
<line x1="180" y1="0" x2="240" y2="0" stroke="#a84a1e" stroke-width="0.6"/>
<line x1="240" y1="0" x2="180" y2="0" stroke="#a84a1e" stroke-width="0.6"/>
<line x1="240" y1="0" x2="300" y2="0" stroke="#a84a1e" stroke-width="0.6"/>
<line x1="300" y1="0" x2="240" y2="0" stroke="#a84a1e" stroke-width="0.6"/>
<line x1="300" y1="0" x2="300" y2="135" stroke="#a84a1e" stroke-width="0.6"/>
<line x1="300" y1="135" x2="300" y2="0" stroke="#a84a1e" stroke-width="0.6"/>
<line x1="300" y1="135" x2="300" y2="200" stroke="#a84a1e" stroke-width="0.6"/>
<line x1="300" y1="200" x2="300" y2="135" stroke="#a84a1e" stroke-width="0.6"/>
<line x1="300" y1="200" x2="240" y2="200" stroke="#a84a1e" stroke-width="0.6"/>
<line x1="240" y1="200" x2="300" y2="200" stroke="#a84a1e" stroke-width="0.6"/>
<line x1="240" y1="200" x2="180" y2="200" stroke="#a84a1e" stroke-width="0.6"/>
<line x1="180" y1="200" x2="240" y2="200" stroke="#a84a1e" stroke-width="0.6"/>
<line x1="180" y1="200" x2="120" y2="200" stroke="#a84a1e" stroke-width="0.6"/>
<line x1="120" y1="200" x2="180" y2="200" stroke="#a84a1e" stroke-width="0.6"/>
<line x1="120" y1="200" x2="60" y2="200" stroke="#a84a1e" stroke-width="0.6"/>
<line x1="60" y1="200" x2="120" y2="200" stroke="#a84a1e" stroke-width="0.6"/>
<line x1="60" y1="200" x2="0" y2="200" stroke="#a84a1e" stroke-width="0.6"/>
<line x1="0" y1="200" x2="60" y2="200" stroke="#a84a1e" stroke-width="0.6"/>
<line x1="0" y1="200" x2="0" y2="135" stroke="#a84a1e" stroke-width="0.6"/>
<line x1="0" y1="135" x2="0" y2="200" stroke="#a84a1e" stroke-width="0.6"/>
<line x1="0" y1="135" x2="0" y2="0" stroke="#a84a1e" stroke-width="0.6"/>
<line x1="0" y1="0" x2="0" y2="135" stroke="#a84a1e" stroke-width="0.6"/>
<line x1="240" y1="0" x2="240" y2="135" stroke="#3e68a8" stroke-width="0.6"/>
<line x1="240" y1="135" x2="240" y2="0" stroke="#3e68a8" stroke-width="0.6"/>
<line x1="240" y1="135" x2="240" y2="200" stroke="#3e68a8" stroke-width="0.6"/>
<line x1="240" y1="200" x2="240" y2="135" stroke="#3e68a8" stroke-width="0.6"/>
<line x1="180" y1="0" x2="180" y2="135" stroke="#3e68a8" stroke-width="0.6"/>
<line x1="180" y1="135" x2="180" y2="0" stroke="#3e68a8" stroke-width="0.6"/>
<line x1="180" y1="135" x2="180" y2="200" stroke="#3e68a8" stroke-width="0.6"/>
<line x1="180" y1="200" x2="180" y2="135" stroke="#3e68a8" stroke-width="0.6"/>
<line x1="120" y1="0" x2="120" y2="135" stroke="#3e68a8" stroke-width="0.6"/>
<line x1="120" y1="135" x2="120" y2="0" stroke="#3e68a8" stroke-width="0.6"/>
<line x1="120" y1="135" x2="120" y2="200" stroke="#3e68a8" stroke-width="0.6"/>
<line x1="120" y1="200" x2="120" y2="135" stroke="#3e68a8" stroke-width="0.6"/>
<line x1="60" y1="0" x2="60" y2="135" stroke="#3e68a8" stroke-width="0.6"/>
<line x1="60" y1="135" x2="60" y2="0" stroke="#3e68a8" stroke-width="0.6"/>
<line x1="60" y1="135" x2="60" y2="200" stroke="#3e68a8" stroke-width="0.6"/>
<line x1="60" y1="200" x2="60" y2="135" stroke="#3e68a8" stroke-width="0.6"/>
<line x1="300" y1="135" x2="240" y2="135" stroke="#3e68a8" stroke-width="0.6"/>
<line x1="240" y1="135" x2="300" y2="135" stroke="#3e68a8" stroke-width="0.6"/>
<line x1="240" y1="135" x2="180" y2="135" stroke="#3e68a8" stroke-width="0.6"/>
<line x1="180" y1="135" x2="240" y2="135" stroke="#3e68a8" stroke-width="0.6"/>
<line x1="180" y1="135" x2="120" y2="135" stroke="#3e68a8" stroke-width="0.6"/>
<line x1="120" y1="135" x2="180" y2="135" stroke="#3e68a8" stroke-width="0.6"/>
<line x1="120" y1="135" x2="60" y2="135" stroke="#3e68a8" stroke-width="0.6"/>
<line x1="60" y1="135" x2="120" y2="135" stroke="#3e68a8" stroke-width="0.6"/>
<line x1="60" y1="135" x2="0" y2="135" stroke="#3e68a8" stroke-width="0.6"/>
<line x1="0" y1="135" x2="60" y2="135" stroke="#3e68a8" stroke-width="0.6"/>
<circle cx="0" cy="0" r="0.8" fill="#a84a1e"/>
<circle cx="300" cy="0" r="0.8" fill="#a84a1e"/>
<circle cx="300" cy="200" r="0.8" fill="#a84a1e"/>
<circle cx="0" cy="200" r="0.8" fill="#a84a1e"/>
<circle cx="240" cy="0" r="0.8" fill="#3e68a8"/>
<circle cx="240" cy="200" r="0.8" fill="#3e68a8"/>
<circle cx="180" cy="0" r="0.8" fill="#3e68a8"/>
<circle cx="180" cy="200" r="0.8" fill="#3e68a8"/>
<circle cx="120" cy="0" r="0.8" fill="#3e68a8"/>
<circle cx="120" cy="200" r="0.8" fill="#3e68a8"/>
<circle cx="60" cy="0" r="0.8" fill="#3e68a8"/>
<circle cx="60" cy="200" r="0.8" fill="#3e68a8"/>
<circle cx="300" cy="135" r="0.8" fill="#3e68a8"/>
<circle cx="0" cy="135" r="0.8" fill="#3e68a8"/>
<circle cx="240" cy="135" r="0.8" fill="#3e68a8"/>
<circle cx="180" cy="135" r="0.8" fill="#3e68a8"/>
<circle cx="120" cy="135" r="0.8" fill="#3e68a8"/>
<circle cx="60" cy="135" r="0.8" fill="#3e68a8"/>
</g>
</g>
</svg>
