<svg xmlns="http://www.w3.org/2000/svg" width="792" height="592" viewBox="-48 -48 396 296" preserveAspectRatio="xMidYMid meet">
<style>polygon,polyline,line,path{vector-effect:non-scaling-stroke}</style>
<g transform="translate(0,200) scale(1,-1)">
<g id="islands" fill="#9fbf8a" fill-rule="evenodd" stroke="none">
<path d="M8.750 -30 L8.750 -12 L-12 -12 L-12 8.750 L-30 8.750 L-30 -30 Z"/>
<path d="M-12 27.250 L-12 35.750 L-30 35.750 L-30 27.250 Z"/>
<path d="M-12 99.250 L-12 107.750 L-30 107.750 L-30 99.250 Z"/>
<path d="M-12 171.250 L-12 179.750 L-30 179.750 L-30 171.250 Z"/>
<path d="M-12 189.250 L-12 212 L8.750 212 L8.750 230 L-30 230 L-30 189.250 Z"/>
<path d="M35.750 212 L35.750 230 L27.250 230 L27.250 212 Z"/>
<path d="M44.750 -30 L44.750 -12 L36.250 -12 L36.250 -30 Z"/>
<path d="M107.750 212 L107.750 230 L99.250 230 L99.250 212 Z"/>
<path d="M116.750 -30 L116.750 -12 L108.250 -12 L108.250 -30 Z"/>
<path d="M179.750 212 L179.750 230 L171.250 230 L171.250 212 Z"/>
<path d="M188.750 -30 L188.750 -12 L180.250 -12 L180.250 -30 Z"/>
<path d="M251.750 212 L251.750 230 L243.250 230 L243.250 212 Z"/>
<path d="M260.750 -30 L260.750 -12 L252.250 -12 L252.250 -30 Z"/>
<path d="M330 -30 L330 8.750 L312 8.750 L312 -12 L288.250 -12 L288.250 -30 Z"/>
<path d="M312 212 L312 180.250 L330 180.250 L330 230 L288.250 230 L288.250 212 Z"/>
<path d="M330 36.250 L330 44.750 L312 44.750 L312 36.250 Z"/>
<path d="M330 108.250 L330 116.750 L312 116.750 L312 108.250 Z"/>
<path d="M48 12 L48 26.750 L12 26.750 L12 12 Z"/>
<path d="M29.750 36.250 L29.750 44.750 L12 44.750 L12 36.250 Z"/>
<path d="M48 108.250 L48 123 L12 123 L12 108.250 Z"/>
<path d="M48 147 L48 188 L12 188 L12 147 Z"/>
<path d="M108 12 L108 26.750 L72 26.750 L72 12 Z"/>
<path d="M89.750 36.250 L89.750 44.750 L72 44.750 L72 36.250 Z"/>
<path d="M108 108.250 L108 123 L72 123 L72 108.250 Z"/>
<path d="M108 147 L108 188 L72 188 L72 147 Z"/>
<path d="M168 12 L168 26.750 L132 26.750 L132 12 Z"/>
<path d="M149.750 36.250 L149.750 44.750 L132 44.750 L132 36.250 Z"/>
<path d="M168 108.250 L168 123 L132 123 L132 108.250 Z"/>
<path d="M168 147 L168 188 L132 188 L132 147 Z"/>
<path d="M228 12 L228 26.750 L192 26.750 L192 12 Z"/>
<path d="M209.750 36.250 L209.750 44.750 L192 44.750 L192 36.250 Z"/>
<path d="M228 108.250 L228 123 L192 123 L192 108.250 Z"/>
<path d="M228 147 L228 188 L192 188 L192 147 Z"/>
<path d="M288 12 L288 26.750 L252 26.750 L252 12 Z"/>
<path d="M269.750 36.250 L269.750 44.750 L252 44.750 L252 36.250 Z"/>
<path d="M288 108.250 L288 123 L252 123 L252 108.250 Z"/>
<path d="M288 147 L288 188 L252 188 L252 147 Z"/>
</g>
<g id="stalls" stroke="none">
</g>
<g id="paint" fill="none" stroke="#2a2a2a" stroke-width="0.4" stroke-linecap="round" stroke-linejoin="round">
<polyline points="9,-12 9,-30 18,-30 18,-12"/>
<polyline points="18,-12 18,-30 27,-30 27,-12"/>
<polyline points="27,-12 27,-30 36,-30 36,-12"/>
<polyline points="45,-30 45,-12 36,-12 36,-30"/>
<polyline points="45,-12 45,-30 54,-30 54,-12"/>
<polyline points="54,-12 54,-30 63,-30 63,-12"/>
<polyline points="63,-12 63,-30 72,-30 72,-12"/>
<polyline points="72,-12 72,-30 81,-30 81,-12"/>
<polyline points="81,-12 81,-30 90,-30 90,-12"/>
<polyline points="90,-12 90,-30 99,-30 99,-12"/>
<polyline points="99,-12 99,-30 108,-30 108,-12"/>
<polyline points="117,-30 117,-12 108,-12 108,-30"/>
<polyline points="117,-12 117,-30 126,-30 126,-12"/>
<polyline points="126,-12 126,-30 135,-30 135,-12"/>
<polyline points="135,-12 135,-30 144,-30 144,-12"/>
<polyline points="144,-12 144,-30 153,-30 153,-12"/>
<polyline points="153,-12 153,-30 162,-30 162,-12"/>
<polyline points="162,-12 162,-30 171,-30 171,-12"/>
<polyline points="171,-12 171,-30 180,-30 180,-12"/>
<polyline points="189,-30 189,-12 180,-12 180,-30"/>
<polyline points="189,-12 189,-30 198,-30 198,-12"/>
<polyline points="198,-12 198,-30 207,-30 207,-12"/>
<polyline points="207,-12 207,-30 216,-30 216,-12"/>
<polyline points="216,-12 216,-30 225,-30 225,-12"/>
<polyline points="225,-12 225,-30 234,-30 234,-12"/>
<polyline points="234,-12 234,-30 243,-30 243,-12"/>
<polyline points="243,-12 243,-30 252,-30 252,-12"/>
<polyline points="261,-30 261,-12 252,-12 252,-30"/>
<polyline points="261,-12 261,-30 270,-30 270,-12"/>
<polyline points="270,-12 270,-30 279,-30 279,-12"/>
<polyline points="279,-12 279,-30 288,-30 288,-12"/>
<polyline points="288,212 288,230 279,230 279,212"/>
<polyline points="279,212 279,230 270,230 270,212"/>
<polyline points="270,212 270,230 261,230 261,212"/>
<polyline points="261,212 261,230 252,230 252,212"/>
<polyline points="243,230 243,212 252,212 252,230"/>
<polyline points="243,212 243,230 234,230 234,212"/>
<polyline points="234,212 234,230 225,230 225,212"/>
<polyline points="225,212 225,230 216,230 216,212"/>
<polyline points="216,212 216,230 207,230 207,212"/>
<polyline points="207,212 207,230 198,230 198,212"/>
<polyline points="198,212 198,230 189,230 189,212"/>
<polyline points="189,212 189,230 180,230 180,212"/>
<polyline points="171,230 171,212 180,212 180,230"/>
<polyline points="171,212 171,230 162,230 162,212"/>
<polyline points="162,212 162,230 153,230 153,212"/>
<polyline points="153,212 153,230 144,230 144,212"/>
<polyline points="144,212 144,230 135,230 135,212"/>
<polyline points="135,212 135,230 126,230 126,212"/>
<polyline points="126,212 126,230 117,230 117,212"/>
<polyline points="117,212 117,230 108,230 108,212"/>
<polyline points="99,230 99,212 108,212 108,230"/>
<polyline points="99,212 99,230 90,230 90,212"/>
<polyline points="90,212 90,230 81,230 81,212"/>
<polyline points="81,212 81,230 72,230 72,212"/>
<polyline points="72,212 72,230 63,230 63,212"/>
<polyline points="63,212 63,230 54,230 54,212"/>
<polyline points="54,212 54,230 45,230 45,212"/>
<polyline points="45,212 45,230 36,230 36,212"/>
<polyline points="27,230 27,212 36,212 36,230"/>
<polyline points="27,212 27,230 18,230 18,212"/>
<polyline points="18,212 18,230 9,230 9,212"/>
<polyline points="312,9 330,9 330,18 312,18"/>
<polyline points="312,18 330,18 330,27 312,27"/>
<polyline points="312,27 330,27 330,36 312,36"/>
<polyline points="330,45 312,45 312,36 330,36"/>
<polyline points="312,45 330,45 330,54 312,54"/>
<polyline points="312,54 330,54 330,63 312,63"/>
<polyline points="312,63 330,63 330,72 312,72"/>
<polyline points="312,72 330,72 330,81 312,81"/>
<polyline points="312,81 330,81 330,90 312,90"/>
<polyline points="312,90 330,90 330,99 312,99"/>
<polyline points="312,99 330,99 330,108 312,108"/>
<polyline points="330,117 312,117 312,108 330,108"/>
<polyline points="312,117 330,117 330,126 312,126"/>
<polyline points="312,126 330,126 330,135 312,135"/>
<polyline points="312,135 330,135 330,144 312,144"/>
<polyline points="312,144 330,144 330,153 312,153"/>
<polyline points="312,153 330,153 330,162 312,162"/>
<polyline points="312,162 330,162 330,171 312,171"/>
<polyline points="312,171 330,171 330,180 312,180"/>
<polyline points="330,189 312,189 312,180 330,180"/>
<polyline points="-12,189 -30,189 -30,180 -12,180"/>
<polyline points="-30,171 -12,171 -12,180 -30,180"/>
<polyline points="-12,171 -30,171 -30,162 -12,162"/>
<polyline points="-12,162 -30,162 -30,153 -12,153"/>
<polyline points="-12,153 -30,153 -30,144 -12,144"/>
<polyline points="-12,144 -30,144 -30,135 -12,135"/>
<polyline points="-12,135 -30,135 -30,126 -12,126"/>
<polyline points="-12,126 -30,126 -30,117 -12,117"/>
<polyline points="-12,117 -30,117 -30,108 -12,108"/>
<polyline points="-30,99 -12,99 -12,108 -30,108"/>
<polyline points="-12,99 -30,99 -30,90 -12,90"/>
<polyline points="-12,90 -30,90 -30,81 -12,81"/>
<polyline points="-12,81 -30,81 -30,72 -12,72"/>
<polyline points="-12,72 -30,72 -30,63 -12,63"/>
<polyline points="-12,63 -30,63 -30,54 -12,54"/>
<polyline points="-12,54 -30,54 -30,45 -12,45"/>
<polyline points="-12,45 -30,45 -30,36 -12,36"/>
<polyline points="-30,27 -12,27 -12,36 -30,36"/>
<polyline points="-12,27 -30,27 -30,18 -12,18"/>
<polyline points="-12,18 -30,18 -30,9 -12,9"/>
<polyline points="48,108 30,108 30,99 48,99"/>
<polyline points="48,99 30,99 30,90 48,90"/>
<polyline points="48,90 30,90 30,81 48,81"/>
<polyline points="48,81 30,81 30,72 48,72"/>
<polyline points="48,72 30,72 30,63 48,63"/>
<polyline points="48,63 30,63 30,54 48,54"/>
<polyline points="48,54 30,54 30,45 48,45"/>
<polyline points="48,45 30,45 30,36 48,36"/>
<polyline points="48,36 30,36 30,27 48,27"/>
<polyline points="12,27 30,27 30,36 12,36"/>
<polyline points="30,45 12,45 12,36 30,36"/>
<polyline points="12,45 30,45 30,54 12,54"/>
<polyline points="12,54 30,54 30,63 12,63"/>
<polyline points="12,63 30,63 30,72 12,72"/>
<polyline points="12,72 30,72 30,81 12,81"/>
<polyline points="12,81 30,81 30,90 12,90"/>
<polyline points="12,90 30,90 30,99 12,99"/>
<polyline points="12,99 30,99 30,108 12,108"/>
<polyline points="108,108 90,108 90,99 108,99"/>
<polyline points="108,99 90,99 90,90 108,90"/>
<polyline points="108,90 90,90 90,81 108,81"/>
<polyline points="108,81 90,81 90,72 108,72"/>
<polyline points="108,72 90,72 90,63 108,63"/>
<polyline points="108,63 90,63 90,54 108,54"/>
<polyline points="108,54 90,54 90,45 108,45"/>
<polyline points="108,45 90,45 90,36 108,36"/>
<polyline points="108,36 90,36 90,27 108,27"/>
<polyline points="72,27 90,27 90,36 72,36"/>
<polyline points="90,45 72,45 72,36 90,36"/>
<polyline points="72,45 90,45 90,54 72,54"/>
<polyline points="72,54 90,54 90,63 72,63"/>
<polyline points="72,63 90,63 90,72 72,72"/>
<polyline points="72,72 90,72 90,81 72,81"/>
<polyline points="72,81 90,81 90,90 72,90"/>
<polyline points="72,90 90,90 90,99 72,99"/>
<polyline points="72,99 90,99 90,108 72,108"/>
<polyline points="168,108 150,108 150,99 168,99"/>
<polyline points="168,99 150,99 150,90 168,90"/>
<polyline points="168,90 150,90 150,81 168,81"/>
<polyline points="168,81 150,81 150,72 168,72"/>
<polyline points="168,72 150,72 150,63 168,63"/>
<polyline points="168,63 150,63 150,54 168,54"/>
<polyline points="168,54 150,54 150,45 168,45"/>
<polyline points="168,45 150,45 150,36 168,36"/>
<polyline points="168,36 150,36 150,27 168,27"/>
<polyline points="132,27 150,27 150,36 132,36"/>
<polyline points="150,45 132,45 132,36 150,36"/>
<polyline points="132,45 150,45 150,54 132,54"/>
<polyline points="132,54 150,54 150,63 132,63"/>
<polyline points="132,63 150,63 150,72 132,72"/>
<polyline points="132,72 150,72 150,81 132,81"/>
<polyline points="132,81 150,81 150,90 132,90"/>
<polyline points="132,90 150,90 150,99 132,99"/>
<polyline points="132,99 150,99 150,108 132,108"/>
<polyline points="228,108 210,108 210,99 228,99"/>
<polyline points="228,99 210,99 210,90 228,90"/>
<polyline points="228,90 210,90 210,81 228,81"/>
<polyline points="228,81 210,81 210,72 228,72"/>
<polyline points="228,72 210,72 210,63 228,63"/>
<polyline points="228,63 210,63 210,54 228,54"/>
<polyline points="228,54 210,54 210,45 228,45"/>
<polyline points="228,45 210,45 210,36 228,36"/>
<polyline points="228,36 210,36 210,27 228,27"/>
<polyline points="192,27 210,27 210,36 192,36"/>
<polyline points="210,45 192,45 192,36 210,36"/>
<polyline points="192,45 210,45 210,54 192,54"/>
<polyline points="192,54 210,54 210,63 192,63"/>
<polyline points="192,63 210,63 210,72 192,72"/>
<polyline points="192,72 210,72 210,81 192,81"/>
<polyline points="192,81 210,81 210,90 192,90"/>
<polyline points="192,90 210,90 210,99 192,99"/>
<polyline points="192,99 210,99 210,108 192,108"/>
<polyline points="288,108 270,108 270,99 288,99"/>
<polyline points="288,99 270,99 270,90 288,90"/>
<polyline points="288,90 270,90 270,81 288,81"/>
<polyline points="288,81 270,81 270,72 288,72"/>
<polyline points="288,72 270,72 270,63 288,63"/>
<polyline points="288,63 270,63 270,54 288,54"/>
<polyline points="288,54 270,54 270,45 288,45"/>
<polyline points="288,45 270,45 270,36 288,36"/>
<polyline points="288,36 270,36 270,27 288,27"/>
<polyline points="252,27 270,27 270,36 252,36"/>
<polyline points="270,45 252,45 252,36 270,36"/>
<polyline points="252,45 270,45 270,54 252,54"/>
<polyline points="252,54 270,54 270,63 252,63"/>
<polyline points="252,63 270,63 270,72 252,72"/>
<polyline points="252,72 270,72 270,81 252,81"/>
<polyline points="252,81 270,81 270,90 252,90"/>
<polyline points="252,90 270,90 270,99 252,99"/>
<polyline points="252,99 270,99 270,108 252,108"/>
<line x1="42.125" y1="-30" x2="45" y2="-27.125"/>
<line x1="37.882" y1="-30" x2="45" y2="-22.882"/>
<line x1="36" y1="-27.640" x2="45" y2="-18.640"/>
<line x1="36" y1="-23.397" x2="45" y2="-14.397"/>
<line x1="36" y1="-19.154" x2="43.154" y2="-12"/>
<line x1="36" y1="-14.912" x2="38.912" y2="-12"/>
<line x1="114.250" y1="-30" x2="117" y2="-27.250"/>
<line x1="110.007" y1="-30" x2="117" y2="-23.007"/>
<line x1="108" y1="-27.765" x2="117" y2="-18.765"/>
<line x1="108" y1="-23.522" x2="117" y2="-14.522"/>
<line x1="108" y1="-19.279" x2="115.279" y2="-12"/>
<line x1="108" y1="-15.037" x2="111.037" y2="-12"/>
<line x1="186.375" y1="-30" x2="189" y2="-27.375"/>
<line x1="182.132" y1="-30" x2="189" y2="-23.132"/>
<line x1="180" y1="-27.889" x2="189" y2="-18.889"/>
<line x1="180" y1="-23.647" x2="189" y2="-14.647"/>
<line x1="180" y1="-19.404" x2="187.404" y2="-12"/>
<line x1="180" y1="-15.161" x2="183.161" y2="-12"/>
<line x1="258.500" y1="-30" x2="261" y2="-27.500"/>
<line x1="254.257" y1="-30" x2="261" y2="-23.257"/>
<line x1="252" y1="-28.014" x2="261" y2="-19.014"/>
<line x1="252" y1="-23.772" x2="261" y2="-14.772"/>
<line x1="252" y1="-19.529" x2="259.529" y2="-12"/>
<line x1="252" y1="-15.286" x2="255.286" y2="-12"/>
<line x1="246.971" y1="230" x2="243" y2="226.029"/>
<line x1="251.213" y1="230" x2="243" y2="221.787"/>
<line x1="252" y1="226.544" x2="243" y2="217.544"/>
<line x1="252" y1="222.302" x2="243" y2="213.302"/>
<line x1="252" y1="218.059" x2="245.941" y2="212"/>
<line x1="252" y1="213.816" x2="250.184" y2="212"/>
<line x1="174.846" y1="230" x2="171" y2="226.154"/>
<line x1="179.088" y1="230" x2="171" y2="221.912"/>
<line x1="180" y1="226.669" x2="171" y2="217.669"/>
<line x1="180" y1="222.426" x2="171" y2="213.426"/>
<line x1="180" y1="218.184" x2="173.816" y2="212"/>
<line x1="180" y1="213.941" x2="178.059" y2="212"/>
<line x1="102.721" y1="230" x2="99" y2="226.279"/>
<line x1="106.963" y1="230" x2="99" y2="222.037"/>
<line x1="108" y1="226.794" x2="99" y2="217.794"/>
<line x1="108" y1="222.551" x2="99" y2="213.551"/>
<line x1="108" y1="218.309" x2="101.691" y2="212"/>
<line x1="108" y1="214.066" x2="105.934" y2="212"/>
<line x1="30.596" y1="230" x2="27" y2="226.404"/>
<line x1="34.839" y1="230" x2="27" y2="222.161"/>
<line x1="36" y1="226.919" x2="27" y2="217.919"/>
<line x1="36" y1="222.676" x2="27" y2="213.676"/>
<line x1="36" y1="218.434" x2="29.566" y2="212"/>
<line x1="36" y1="214.191" x2="33.809" y2="212"/>
<line x1="330" y1="43.352" x2="328.352" y2="45"/>
<line x1="330" y1="39.110" x2="324.110" y2="45"/>
<line x1="328.867" y1="36" x2="319.867" y2="45"/>
<line x1="324.624" y1="36" x2="315.624" y2="45"/>
<line x1="320.382" y1="36" x2="312" y2="44.382"/>
<line x1="316.139" y1="36" x2="312" y2="40.139"/>
<line x1="330" y1="115.477" x2="328.477" y2="117"/>
<line x1="330" y1="111.235" x2="324.235" y2="117"/>
<line x1="328.992" y1="108" x2="319.992" y2="117"/>
<line x1="324.749" y1="108" x2="315.749" y2="117"/>
<line x1="320.507" y1="108" x2="312" y2="116.507"/>
<line x1="316.264" y1="108" x2="312" y2="112.264"/>
<line x1="312.021" y1="108" x2="312" y2="108.021"/>
<line x1="330" y1="187.602" x2="328.602" y2="189"/>
<line x1="330" y1="183.360" x2="324.360" y2="189"/>
<line x1="329.117" y1="180" x2="320.117" y2="189"/>
<line x1="324.874" y1="180" x2="315.874" y2="189"/>
<line x1="320.632" y1="180" x2="312" y2="188.632"/>
<line x1="316.389" y1="180" x2="312" y2="184.389"/>
<line x1="312.146" y1="180" x2="312" y2="180.146"/>
<line x1="-30" y1="174.250" x2="-26.750" y2="171"/>
<line x1="-30" y1="178.492" x2="-22.508" y2="171"/>
<line x1="-27.265" y1="180" x2="-18.265" y2="171"/>
<line x1="-23.022" y1="180" x2="-14.022" y2="171"/>
<line x1="-18.780" y1="180" x2="-12" y2="173.220"/>
<line x1="-14.537" y1="180" x2="-12" y2="177.463"/>
<line x1="-30" y1="102.125" x2="-26.875" y2="99"/>
<line x1="-30" y1="106.368" x2="-22.632" y2="99"/>
<line x1="-27.390" y1="108" x2="-18.390" y2="99"/>
<line x1="-23.147" y1="108" x2="-14.147" y2="99"/>
<line x1="-18.905" y1="108" x2="-12" y2="101.095"/>
<line x1="-14.662" y1="108" x2="-12" y2="105.338"/>
<line x1="-30" y1="30" x2="-27" y2="27"/>
<line x1="-30" y1="34.243" x2="-22.757" y2="27"/>
<line x1="-27.515" y1="36" x2="-18.515" y2="27"/>
<line x1="-23.272" y1="36" x2="-14.272" y2="27"/>
<line x1="-19.029" y1="36" x2="-12" y2="28.971"/>
<line x1="-14.787" y1="36" x2="-12" y2="33.213"/>
<line x1="30" y1="42.125" x2="27.125" y2="45"/>
<line x1="30" y1="37.882" x2="22.882" y2="45"/>
<line x1="27.640" y1="36" x2="18.640" y2="45"/>
<line x1="23.397" y1="36" x2="14.397" y2="45"/>
<line x1="19.154" y1="36" x2="12" y2="43.154"/>
<line x1="14.912" y1="36" x2="12" y2="38.912"/>
<line x1="90" y1="41.522" x2="86.522" y2="45"/>
<line x1="90" y1="37.279" x2="82.279" y2="45"/>
<line x1="87.037" y1="36" x2="78.037" y2="45"/>
<line x1="82.794" y1="36" x2="73.794" y2="45"/>
<line x1="78.551" y1="36" x2="72" y2="42.551"/>
<line x1="74.309" y1="36" x2="72" y2="38.309"/>
<line x1="150" y1="40.919" x2="145.919" y2="45"/>
<line x1="150" y1="36.676" x2="141.676" y2="45"/>
<line x1="146.434" y1="36" x2="137.434" y2="45"/>
<line x1="142.191" y1="36" x2="133.191" y2="45"/>
<line x1="137.948" y1="36" x2="132" y2="41.948"/>
<line x1="133.706" y1="36" x2="132" y2="37.706"/>
<line x1="210" y1="44.558" x2="209.558" y2="45"/>
<line x1="210" y1="40.316" x2="205.316" y2="45"/>
<line x1="210" y1="36.073" x2="201.073" y2="45"/>
<line x1="205.831" y1="36" x2="196.831" y2="45"/>
<line x1="201.588" y1="36" x2="192.588" y2="45"/>
<line x1="197.345" y1="36" x2="192" y2="41.345"/>
<line x1="193.103" y1="36" x2="192" y2="37.103"/>
<line x1="270" y1="43.955" x2="268.955" y2="45"/>
<line x1="270" y1="39.713" x2="264.713" y2="45"/>
<line x1="269.470" y1="36" x2="260.470" y2="45"/>
<line x1="265.227" y1="36" x2="256.227" y2="45"/>
<line x1="260.985" y1="36" x2="252" y2="44.985"/>
<line x1="256.742" y1="36" x2="252" y2="40.742"/>
<line x1="252.500" y1="36" x2="252" y2="36.500"/>
<path d="M8.750 -30 L8.750 -12 L-12 -12 L-12 8.750 L-30 8.750 L-30 -30 Z"/>
<path d="M-12 27.250 L-12 35.750 L-30 35.750 L-30 27.250 Z"/>
<path d="M-12 99.250 L-12 107.750 L-30 107.750 L-30 99.250 Z"/>
<path d="M-12 171.250 L-12 179.750 L-30 179.750 L-30 171.250 Z"/>
<path d="M-12 189.250 L-12 212 L8.750 212 L8.750 230 L-30 230 L-30 189.250 Z"/>
<path d="M35.750 212 L35.750 230 L27.250 230 L27.250 212 Z"/>
<path d="M44.750 -30 L44.750 -12 L36.250 -12 L36.250 -30 Z"/>
<path d="M107.750 212 L107.750 230 L99.250 230 L99.250 212 Z"/>
<path d="M116.750 -30 L116.750 -12 L108.250 -12 L108.250 -30 Z"/>
<path d="M179.750 212 L179.750 230 L171.250 230 L171.250 212 Z"/>
<path d="M188.750 -30 L188.750 -12 L180.250 -12 L180.250 -30 Z"/>
<path d="M251.750 212 L251.750 230 L243.250 230 L243.250 212 Z"/>
<path d="M260.750 -30 L260.750 -12 L252.250 -12 L252.250 -30 Z"/>
<path d="M330 -30 L330 8.750 L312 8.750 L312 -12 L288.250 -12 L288.250 -30 Z"/>
<path d="M312 212 L312 180.250 L330 180.250 L330 230 L288.250 230 L288.250 212 Z"/>
<path d="M330 36.250 L330 44.750 L312 44.750 L312 36.250 Z"/>
<path d="M330 108.250 L330 116.750 L312 116.750 L312 108.250 Z"/>
<path d="M48 12 L48 26.750 L12 26.750 L12 12 Z"/>
<path d="M29.750 36.250 L29.750 44.750 L12 44.750 L12 36.250 Z"/>
<path d="M48 108.250 L48 123 L12 123 L12 108.250 Z"/>
<path d="M48 147 L48 188 L12 188 L12 147 Z"/>
<path d="M108 12 L108 26.750 L72 26.750 L72 12 Z"/>
<path d="M89.750 36.250 L89.750 44.750 L72 44.750 L72 36.250 Z"/>
<path d="M108 108.250 L108 123 L72 123 L72 108.250 Z"/>
<path d="M108 147 L108 188 L72 188 L72 147 Z"/>
<path d="M168 12 L168 26.750 L132 26.750 L132 12 Z"/>
<path d="M149.750 36.250 L149.750 44.750 L132 44.750 L132 36.250 Z"/>
<path d="M168 108.250 L168 123 L132 123 L132 108.250 Z"/>
<path d="M168 147 L168 188 L132 188 L132 147 Z"/>
<path d="M228 12 L228 26.750 L192 26.750 L192 12 Z"/>
<path d="M209.750 36.250 L209.750 44.750 L192 44.750 L192 36.250 Z"/>
<path d="M228 108.250 L228 123 L192 123 L192 108.250 Z"/>
<path d="M228 147 L228 188 L192 188 L192 147 Z"/>
<path d="M288 12 L288 26.750 L252 26.750 L252 12 Z"/>
<path d="M269.750 36.250 L269.750 44.750 L252 44.750 L252 36.250 Z"/>
<path d="M288 108.250 L288 123 L252 123 L252 108.250 Z"/>
<path d="M288 147 L288 188 L252 188 L252 147 Z"/>
</g>
<g id="graph">
<line x1="0" y1="0" x2="60" y2="0" stroke="#a84a1e" stroke-width="0.6" stroke-dasharray="8 5"/>
<line x1="120" y1="0" x2="60" y2="0" stroke="#a84a1e" stroke-width="0.6" stroke-dasharray="8 5"/>
<line x1="180" y1="0" x2="120" y2="0" stroke="#a84a1e" stroke-width="0.6" stroke-dasharray="8 5"/>
<line x1="240" y1="0" x2="180" y2="0" stroke="#a84a1e" stroke-width="0.6" stroke-dasharray="8 5"/>
<line x1="300" y1="0" x2="240" y2="0" stroke="#a84a1e" stroke-width="0.6" stroke-dasharray="8 5"/>
<line x1="300" y1="0" x2="300" y2="135" stroke="#a84a1e" stroke-width="0.6" stroke-dasharray="8 5"/>
<line x1="300" y1="200" x2="300" y2="135" stroke="#a84a1e" stroke-width="0.6" stroke-dasharray="8 5"/>
<line x1="300" y1="200" x2="240" y2="200" stroke="#a84a1e" stroke-width="0.6" stroke-dasharray="8 5"/>
<line x1="240" y1="200" x2="180" y2="200" stroke="#a84a1e" stroke-width="0.6" stroke-dasharray="8 5"/>
<line x1="180" y1="200" x2="120" y2="200" stroke="#a84a1e" stroke-width="0.6" stroke-dasharray="8 5"/>
<line x1="120" y1="200" x2="60" y2="200" stroke="#a84a1e" stroke-width="0.6" stroke-dasharray="8 5"/>
<line x1="0" y1="200" x2="60" y2="200" stroke="#a84a1e" stroke-width="0.6" stroke-dasharray="8 5"/>
<line x1="0" y1="200" x2="0" y2="135" stroke="#a84a1e" stroke-width="0.6" stroke-dasharray="8 5"/>
<line x1="0" y1="0" x2="0" y2="135" stroke="#a84a1e" stroke-width="0.6" stroke-dasharray="8 5"/>
<line x1="240" y1="0" x2="240" y2="135" stroke="#3e68a8" stroke-width="0.6" stroke-dasharray="8 5"/>
<line x1="240" y1="200" x2="240" y2="135" stroke="#3e68a8" stroke-width="0.6" stroke-dasharray="8 5"/>
<line x1="180" y1="0" x2="180" y2="135" stroke="#3e68a8" stroke-width="0.6" stroke-dasharray="8 5"/>
<line x1="180" y1="200" x2="180" y2="135" stroke="#3e68a8" stroke-width="0.6" stroke-dasharray="8 5"/>
<line x1="120" y1="0" x2="120" y2="135" stroke="#3e68a8" stroke-width="0.6" stroke-dasharray="8 5"/>
<line x1="120" y1="200" x2="120" y2="135" stroke="#3e68a8" stroke-width="0.6" stroke-dasharray="8 5"/>
<line x1="60" y1="0" x2="60" y2="135" stroke="#3e68a8" stroke-width="0.6" stroke-dasharray="8 5"/>
<line x1="60" y1="200" x2="60" y2="135" stroke="#3e68a8" stroke-width="0.6" stroke-dasharray="8 5"/>
<line x1="300" y1="135" x2="240" y2="135" stroke="#3e68a8" stroke-width="0.6" stroke-dasharray="8 5"/>
<line x1="240" y1="135" x2="180" y2="135" stroke="#3e68a8" stroke-width="0.6" stroke-dasharray="8 5"/>
<line x1="180" y1="135" x2="120" y2="135" stroke="#3e68a8" stroke-width="0.6" stroke-dasharray="8 5"/>
<line x1="120" y1="135" x2="60" y2="135" stroke="#3e68a8" stroke-width="0.6" stroke-dasharray="8 5"/>
<line x1="0" y1="135" x2="60" y2="135" stroke="#3e68a8" stroke-width="0.6" stroke-dasharray="8 5"/>
<circle cx="0" cy="0" r="0.8" fill="#a84a1e"/>
<circle cx="300" cy="0" r="0.8" fill="#a84a1e"/>
<circle cx="300" cy="200" r="0.8" fill="#a84a1e"/>
<circle cx="0" cy="200" r="0.8" fill="#a84a1e"/>
<circle cx="240" cy="0" r="0.8" fill="#3e68a8"/>
<circle cx="240" cy="200" r="0.8" fill="#3e68a8"/>
<circle cx="180" cy="0" r="0.8" fill="#3e68a8"/>
<circle cx="180" cy="200" r="0.8" fill="#3e68a8"/>
<circle cx="120" cy="0" r="0.8" fill="#3e68a8"/>
<circle cx="120" cy="200" r="0.8" fill="#3e68a8"/>
<circle cx="60" cy="0" r="0.8" fill="#3e68a8"/>
<circle cx="60" cy="200" r="0.8" fill="#3e68a8"/>
<circle cx="300" cy="135" r="0.8" fill="#3e68a8"/>
<circle cx="0" cy="135" r="0.8" fill="#3e68a8"/>
<circle cx="240" cy="135" r="0.8" fill="#3e68a8"/>
<circle cx="180" cy="135" r="0.8" fill="#3e68a8"/>
<circle cx="120" cy="135" r="0.8" fill="#3e68a8"/>
<circle cx="60" cy="135" r="0.8" fill="#3e68a8"/>
</g>
</g>
</svg>
