<svg xmlns="http://www.w3.org/2000/svg" width="696.319" height="1165.876" viewBox="458.093 -69.391 348.159 582.938" preserveAspectRatio="xMidYMid meet">
<style>polygon,line{vector-effect:non-scaling-stroke}</style>
<g transform="translate(0,444.156) scale(1,-1)">
<g id="boundary" fill="none" stroke="#222" stroke-width="0.5">
<polygon points="566.270,188.010 750,0 718.580,459.190 513.490,459.190"/>
</g>
<g id="aisles" fill="#bcd5f0" fill-opacity="0.6" stroke="#4a7bb7" stroke-width="0.4">
<polygon points="498.929,471.190 729.787,471.190 764.197,-31.697 555.177,182.192"/>
</g>
<g id="stalls" stroke="#1f5f1a" stroke-width="0.25">
<polygon points="779.755,-26.747 779.141,-17.768 763.268,-18.854 763.882,-27.833" fill="#8fc98a"/>
<polygon points="779.141,-17.768 778.526,-8.789 762.654,-9.875 763.268,-18.854" fill="#8fc98a"/>
<polygon points="778.526,-8.789 777.912,0.190 762.039,-0.896 762.654,-9.875" fill="#8fc98a"/>
<polygon points="777.912,0.190 777.298,9.169 761.425,8.083 762.039,-0.896" fill="#8fc98a"/>
<polygon points="777.298,9.169 776.683,18.148 760.810,17.062 761.425,8.083" fill="#8fc98a"/>
<polygon points="776.683,18.148 776.069,27.127 760.196,26.041 760.810,17.062" fill="#a1b885"/>
<polygon points="776.069,27.127 775.454,36.106 759.582,35.020 760.196,26.041" fill="#8fc98a"/>
<polygon points="775.454,36.106 774.840,45.085 758.967,43.999 759.582,35.020" fill="#8fc98a"/>
<polygon points="774.840,45.085 774.226,54.064 758.353,52.978 758.967,43.999" fill="#8fc98a"/>
<polygon points="774.226,54.064 773.611,63.043 757.739,61.957 758.353,52.978" fill="#8fc98a"/>
<polygon points="773.611,63.043 772.997,72.022 757.124,70.936 757.739,61.957" fill="#8fc98a"/>
<polygon points="772.997,72.022 772.383,81.001 756.510,79.915 757.124,70.936" fill="#8fc98a"/>
<polygon points="772.383,81.001 771.768,89.980 755.895,88.894 756.510,79.915" fill="#8fc98a"/>
<polygon points="771.768,89.980 771.154,98.959 755.281,97.873 755.895,88.894" fill="#a1b885"/>
<polygon points="771.154,98.959 770.539,107.938 754.667,106.852 755.281,97.873" fill="#8fc98a"/>
<polygon points="770.539,107.938 769.925,116.917 754.052,115.831 754.667,106.852" fill="#8fc98a"/>
<polygon points="769.925,116.917 769.311,125.896 753.438,124.810 754.052,115.831" fill="#8fc98a"/>
<polygon points="769.311,125.896 768.696,134.875 752.823,133.789 753.438,124.810" fill="#8fc98a"/>
<polygon points="768.696,134.875 768.082,143.854 752.209,142.768 752.823,133.789" fill="#8fc98a"/>
<polygon points="768.082,143.854 767.467,152.833 751.595,151.747 752.209,142.768" fill="#8fc98a"/>
<polygon points="767.467,152.833 766.853,161.812 750.980,160.726 751.595,151.747" fill="#8fc98a"/>
<polygon points="766.853,161.812 766.239,170.791 750.366,169.705 750.980,160.726" fill="#a1b885"/>
<polygon points="766.239,170.791 765.624,179.770 749.752,178.684 750.366,169.705" fill="#8fc98a"/>
<polygon points="765.624,179.770 765.010,188.749 749.137,187.663 749.752,178.684" fill="#8fc98a"/>
<polygon points="765.010,188.749 764.396,197.728 748.523,196.642 749.137,187.663" fill="#8fc98a"/>
<polygon points="764.396,197.728 763.781,206.707 747.908,205.621 748.523,196.642" fill="#8fc98a"/>
<polygon points="763.781,206.707 763.167,215.686 747.294,214.600 747.908,205.621" fill="#8fc98a"/>
<polygon points="763.167,215.686 762.552,224.665 746.680,223.579 747.294,214.600" fill="#8fc98a"/>
<polygon points="762.552,224.665 761.938,233.644 746.065,232.558 746.680,223.579" fill="#8fc98a"/>
<polygon points="761.938,233.644 761.324,242.623 745.451,241.537 746.065,232.558" fill="#a1b885"/>
<polygon points="761.324,242.623 760.709,251.602 744.836,250.516 745.451,241.537" fill="#8fc98a"/>
<polygon points="760.709,251.602 760.095,260.581 744.222,259.495 744.836,250.516" fill="#8fc98a"/>
<polygon points="760.095,260.581 759.480,269.560 743.608,268.474 744.222,259.495" fill="#8fc98a"/>
<polygon points="759.480,269.560 758.866,278.539 742.993,277.453 743.608,268.474" fill="#8fc98a"/>
<polygon points="758.866,278.539 758.252,287.518 742.379,286.432 742.993,277.453" fill="#8fc98a"/>
<polygon points="758.252,287.518 757.637,296.497 741.764,295.411 742.379,286.432" fill="#8fc98a"/>
<polygon points="757.637,296.497 757.023,305.476 741.150,304.390 741.764,295.411" fill="#8fc98a"/>
<polygon points="757.023,305.476 756.408,314.455 740.536,313.369 741.150,304.390" fill="#a1b885"/>
<polygon points="756.408,314.455 755.794,323.434 739.921,322.348 740.536,313.369" fill="#8fc98a"/>
<polygon points="755.794,323.434 755.180,332.413 739.307,331.327 739.921,322.348" fill="#8fc98a"/>
<polygon points="755.180,332.413 754.565,341.392 738.693,340.306 739.307,331.327" fill="#8fc98a"/>
<polygon points="754.565,341.392 753.951,350.371 738.078,349.285 738.693,340.306" fill="#8fc98a"/>
<polygon points="753.951,350.371 753.337,359.350 737.464,358.264 738.078,349.285" fill="#8fc98a"/>
<polygon points="753.337,359.350 752.722,368.329 736.849,367.243 737.464,358.264" fill="#8fc98a"/>
<polygon points="752.722,368.329 752.108,377.308 736.235,376.222 736.849,367.243" fill="#8fc98a"/>
<polygon points="752.108,377.308 751.493,386.287 735.621,385.201 736.235,376.222" fill="#a1b885"/>
<polygon points="751.493,386.287 750.879,395.266 735.006,394.180 735.621,385.201" fill="#8fc98a"/>
<polygon points="750.879,395.266 750.265,404.245 734.392,403.159 735.006,394.180" fill="#8fc98a"/>
<polygon points="750.265,404.245 749.650,413.224 733.777,412.138 734.392,403.159" fill="#8fc98a"/>
<polygon points="749.650,413.224 749.036,422.203 733.163,421.117 733.777,412.138" fill="#8fc98a"/>
<polygon points="749.036,422.203 748.421,431.182 732.549,430.096 733.163,421.117" fill="#8fc98a"/>
<polygon points="748.421,431.182 747.807,440.161 731.934,439.075 732.549,430.096" fill="#8fc98a"/>
<polygon points="747.807,440.161 747.193,449.140 731.320,448.054 731.934,439.075" fill="#8fc98a"/>
<polygon points="747.193,449.140 746.578,458.119 730.706,457.033 731.320,448.054" fill="#a1b885"/>
<polygon points="746.578,458.119 745.964,467.098 730.091,466.012 730.706,457.033" fill="#8fc98a"/>
<polygon points="545.384,169.521 551.675,163.084 563.053,174.204 556.763,180.641" fill="#8fc98a"/>
<polygon points="551.675,163.084 557.965,156.647 569.344,167.767 563.053,174.204" fill="#8fc98a"/>
<polygon points="557.965,156.647 564.255,150.210 575.634,161.330 569.344,167.767" fill="#8fc98a"/>
<polygon points="564.255,150.210 570.545,143.774 581.924,154.893 575.634,161.330" fill="#8fc98a"/>
<polygon points="570.545,143.774 576.836,137.337 588.214,148.456 581.924,154.893" fill="#8fc98a"/>
<polygon points="576.836,137.337 583.126,130.900 594.505,142.020 588.214,148.456" fill="#8fc98a"/>
<polygon points="583.126,130.900 589.416,124.463 600.795,135.583 594.505,142.020" fill="#8fc98a"/>
<polygon points="589.416,124.463 595.707,118.026 607.085,129.146 600.795,135.583" fill="#a1b885"/>
<polygon points="595.707,118.026 601.997,111.590 613.376,122.709 607.085,129.146" fill="#8fc98a"/>
<polygon points="601.997,111.590 608.287,105.153 619.666,116.272 613.376,122.709" fill="#8fc98a"/>
<polygon points="608.287,105.153 614.577,98.716 625.956,109.836 619.666,116.272" fill="#8fc98a"/>
<polygon points="614.577,98.716 620.868,92.279 632.246,103.399 625.956,109.836" fill="#8fc98a"/>
<polygon points="620.868,92.279 627.158,85.842 638.537,96.962 632.246,103.399" fill="#8fc98a"/>
<polygon points="627.158,85.842 633.448,79.405 644.827,90.525 638.537,96.962" fill="#8fc98a"/>
<polygon points="633.448,79.405 639.738,72.969 651.117,84.088 644.827,90.525" fill="#8fc98a"/>
<polygon points="639.738,72.969 646.029,66.532 657.408,77.652 651.117,84.088" fill="#a1b885"/>
<polygon points="646.029,66.532 652.319,60.095 663.698,71.215 657.408,77.652" fill="#8fc98a"/>
<polygon points="652.319,60.095 658.609,53.658 669.988,64.778 663.698,71.215" fill="#8fc98a"/>
<polygon points="658.609,53.658 664.900,47.221 676.278,58.341 669.988,64.778" fill="#8fc98a"/>
<polygon points="664.900,47.221 671.190,40.785 682.569,51.904 676.278,58.341" fill="#8fc98a"/>
<polygon points="671.190,40.785 677.480,34.348 688.859,45.468 682.569,51.904" fill="#8fc98a"/>
<polygon points="677.480,34.348 683.770,27.911 695.149,39.031 688.859,45.468" fill="#8fc98a"/>
<polygon points="683.770,27.911 690.061,21.474 701.439,32.594 695.149,39.031" fill="#8fc98a"/>
<polygon points="690.061,21.474 696.351,15.037 707.730,26.157 701.439,32.594" fill="#a1b885"/>
<polygon points="696.351,15.037 702.641,8.601 714.020,19.720 707.730,26.157" fill="#8fc98a"/>
<polygon points="702.641,8.601 708.931,2.164 720.310,13.284 714.020,19.720" fill="#8fc98a"/>
<polygon points="708.931,2.164 715.222,-4.273 726.601,6.847 720.310,13.284" fill="#8fc98a"/>
<polygon points="715.222,-4.273 721.512,-10.710 732.891,0.410 726.601,6.847" fill="#8fc98a"/>
<polygon points="721.512,-10.710 727.802,-17.147 739.181,-6.027 732.891,0.410" fill="#8fc98a"/>
<polygon points="727.802,-17.147 734.093,-23.583 745.471,-12.464 739.181,-6.027" fill="#8fc98a"/>
<polygon points="734.093,-23.583 740.383,-30.020 751.762,-18.900 745.471,-12.464" fill="#8fc98a"/>
<polygon points="740.383,-30.020 746.673,-36.457 758.052,-25.337 751.762,-18.900" fill="#a1b885"/>
<polygon points="746.673,-36.457 752.963,-42.894 764.342,-31.774 758.052,-25.337" fill="#8fc98a"/>
<polygon points="484.590,461.847 486.310,453.013 501.926,456.053 500.207,464.887" fill="#8fc98a"/>
<polygon points="486.310,453.013 488.029,444.179 503.646,447.218 501.926,456.053" fill="#8fc98a"/>
<polygon points="488.029,444.179 489.748,435.345 505.365,438.384 503.646,447.218" fill="#8fc98a"/>
<polygon points="489.748,435.345 491.468,426.510 507.085,429.550 505.365,438.384" fill="#8fc98a"/>
<polygon points="491.468,426.510 493.187,417.676 508.804,420.716 507.085,429.550" fill="#a1b885"/>
<polygon points="493.187,417.676 494.907,408.842 510.523,411.881 508.804,420.716" fill="#8fc98a"/>
<polygon points="494.907,408.842 496.626,400.008 512.243,403.047 510.523,411.881" fill="#8fc98a"/>
<polygon points="496.626,400.008 498.345,391.173 513.962,394.213 512.243,403.047" fill="#8fc98a"/>
<polygon points="498.345,391.173 500.065,382.339 515.682,385.379 513.962,394.213" fill="#8fc98a"/>
<polygon points="500.065,382.339 501.784,373.505 517.401,376.544 515.682,385.379" fill="#8fc98a"/>
<polygon points="501.784,373.505 503.504,364.671 519.121,367.710 517.401,376.544" fill="#8fc98a"/>
<polygon points="503.504,364.671 505.223,355.837 520.840,358.876 519.121,367.710" fill="#8fc98a"/>
<polygon points="505.223,355.837 506.943,347.002 522.559,350.042 520.840,358.876" fill="#a1b885"/>
<polygon points="506.943,347.002 508.662,338.168 524.279,341.208 522.559,350.042" fill="#8fc98a"/>
<polygon points="508.662,338.168 510.381,329.334 525.998,332.373 524.279,341.208" fill="#8fc98a"/>
<polygon points="510.381,329.334 512.101,320.500 527.718,323.539 525.998,332.373" fill="#8fc98a"/>
<polygon points="512.101,320.500 513.820,311.665 529.437,314.705 527.718,323.539" fill="#8fc98a"/>
<polygon points="513.820,311.665 515.540,302.831 531.156,305.871 529.437,314.705" fill="#8fc98a"/>
<polygon points="515.540,302.831 517.259,293.997 532.876,297.036 531.156,305.871" fill="#8fc98a"/>
<polygon points="517.259,293.997 518.978,285.163 534.595,288.202 532.876,297.036" fill="#8fc98a"/>
<polygon points="518.978,285.163 520.698,276.328 536.315,279.368 534.595,288.202" fill="#a1b885"/>
<polygon points="520.698,276.328 522.417,267.494 538.034,270.534 536.315,279.368" fill="#8fc98a"/>
<polygon points="522.417,267.494 524.137,258.660 539.754,261.699 538.034,270.534" fill="#8fc98a"/>
<polygon points="524.137,258.660 525.856,249.826 541.473,252.865 539.754,261.699" fill="#8fc98a"/>
<polygon points="525.856,249.826 527.575,240.992 543.192,244.031 541.473,252.865" fill="#8fc98a"/>
<polygon points="527.575,240.992 529.295,232.157 544.912,235.197 543.192,244.031" fill="#8fc98a"/>
<polygon points="529.295,232.157 531.014,223.323 546.631,226.363 544.912,235.197" fill="#8fc98a"/>
<polygon points="531.014,223.323 532.734,214.489 548.351,217.528 546.631,226.363" fill="#8fc98a"/>
<polygon points="532.734,214.489 534.453,205.655 550.070,208.694 548.351,217.528" fill="#a1b885"/>
<polygon points="534.453,205.655 536.173,196.820 551.789,199.860 550.070,208.694" fill="#8fc98a"/>
<polygon points="536.173,196.820 537.892,187.986 553.509,191.026 551.789,199.860" fill="#8fc98a"/>
<polygon points="537.892,187.986 539.611,179.152 555.228,182.191 553.509,191.026" fill="#8fc98a"/>
<polygon points="721.611,487.050 712.611,487.050 712.611,471.140 721.611,471.140" fill="#8fc98a"/>
<polygon points="712.611,487.050 703.611,487.050 703.611,471.140 712.611,471.140" fill="#8fc98a"/>
<polygon points="703.611,487.050 694.611,487.050 694.611,471.140 703.611,471.140" fill="#8fc98a"/>
<polygon points="694.611,487.050 685.611,487.050 685.611,471.140 694.611,471.140" fill="#8fc98a"/>
<polygon points="685.611,487.050 676.611,487.050 676.611,471.140 685.611,471.140" fill="#a1b885"/>
<polygon points="676.611,487.050 667.611,487.050 667.611,471.140 676.611,471.140" fill="#8fc98a"/>
<polygon points="667.611,487.050 658.611,487.050 658.611,471.140 667.611,471.140" fill="#8fc98a"/>
<polygon points="658.611,487.050 649.611,487.050 649.611,471.140 658.611,471.140" fill="#8fc98a"/>
<polygon points="649.611,487.050 640.611,487.050 640.611,471.140 649.611,471.140" fill="#8fc98a"/>
<polygon points="640.611,487.050 631.611,487.050 631.611,471.140 640.611,471.140" fill="#8fc98a"/>
<polygon points="631.611,487.050 622.611,487.050 622.611,471.140 631.611,471.140" fill="#8fc98a"/>
<polygon points="622.611,487.050 613.611,487.050 613.611,471.140 622.611,471.140" fill="#8fc98a"/>
<polygon points="613.611,487.050 604.611,487.050 604.611,471.140 613.611,471.140" fill="#a1b885"/>
<polygon points="604.611,487.050 595.611,487.050 595.611,471.140 604.611,471.140" fill="#8fc98a"/>
<polygon points="595.611,487.050 586.611,487.050 586.611,471.140 595.611,471.140" fill="#8fc98a"/>
<polygon points="586.611,487.050 577.611,487.050 577.611,471.140 586.611,471.140" fill="#8fc98a"/>
<polygon points="577.611,487.050 568.611,487.050 568.611,471.140 577.611,471.140" fill="#8fc98a"/>
<polygon points="568.611,487.050 559.611,487.050 559.611,471.140 568.611,471.140" fill="#8fc98a"/>
<polygon points="559.611,487.050 550.611,487.050 550.611,471.140 559.611,471.140" fill="#8fc98a"/>
<polygon points="550.611,487.050 541.611,487.050 541.611,471.140 550.611,471.140" fill="#8fc98a"/>
<polygon points="541.611,487.050 532.611,487.050 532.611,471.140 541.611,471.140" fill="#a1b885"/>
<polygon points="532.611,487.050 523.611,487.050 523.611,471.140 532.611,471.140" fill="#8fc98a"/>
<polygon points="523.611,487.050 514.611,487.050 514.611,471.140 523.611,471.140" fill="#8fc98a"/>
<polygon points="514.611,487.050 505.611,487.050 505.611,471.140 514.611,471.140" fill="#8fc98a"/>
</g>
<g id="graph">
<line x1="566.270" y1="188.010" x2="600.742" y2="152.735" stroke="#a84a1e" stroke-width="0.6"/>
<line x1="600.742" y1="152.735" x2="566.270" y2="188.010" stroke="#a84a1e" stroke-width="0.6"/>
<line x1="600.742" y1="152.735" x2="614.018" y2="139.150" stroke="#a84a1e" stroke-width="0.6"/>
<line x1="614.018" y1="139.150" x2="600.742" y2="152.735" stroke="#a84a1e" stroke-width="0.6"/>
<line x1="614.018" y1="139.150" x2="638.056" y2="114.551" stroke="#a84a1e" stroke-width="0.6"/>
<line x1="638.056" y1="114.551" x2="614.018" y2="139.150" stroke="#a84a1e" stroke-width="0.6"/>
<line x1="638.056" y1="114.551" x2="669.838" y2="82.030" stroke="#a84a1e" stroke-width="0.6"/>
<line x1="669.838" y1="82.030" x2="638.056" y2="114.551" stroke="#a84a1e" stroke-width="0.6"/>
<line x1="669.838" y1="82.030" x2="675.371" y2="76.368" stroke="#a84a1e" stroke-width="0.6"/>
<line x1="675.371" y1="76.368" x2="669.838" y2="82.030" stroke="#a84a1e" stroke-width="0.6"/>
<line x1="675.371" y1="76.368" x2="712.685" y2="38.184" stroke="#a84a1e" stroke-width="0.6"/>
<line x1="712.685" y1="38.184" x2="675.371" y2="76.368" stroke="#a84a1e" stroke-width="0.6"/>
<line x1="712.685" y1="38.184" x2="725.657" y2="24.910" stroke="#a84a1e" stroke-width="0.6"/>
<line x1="725.657" y1="24.910" x2="712.685" y2="38.184" stroke="#a84a1e" stroke-width="0.6"/>
<line x1="725.657" y1="24.910" x2="750" y2="0" stroke="#a84a1e" stroke-width="0.6"/>
<line x1="750" y1="0" x2="725.657" y2="24.910" stroke="#a84a1e" stroke-width="0.6"/>
<line x1="750" y1="0" x2="747.387" y2="38.184" stroke="#a84a1e" stroke-width="0.6"/>
<line x1="747.387" y1="38.184" x2="750" y2="0" stroke="#a84a1e" stroke-width="0.6"/>
<line x1="747.387" y1="38.184" x2="744.775" y2="76.368" stroke="#a84a1e" stroke-width="0.6"/>
<line x1="744.775" y1="76.368" x2="747.387" y2="38.184" stroke="#a84a1e" stroke-width="0.6"/>
<line x1="744.775" y1="76.368" x2="742.162" y2="114.551" stroke="#a84a1e" stroke-width="0.6"/>
<line x1="742.162" y1="114.551" x2="744.775" y2="76.368" stroke="#a84a1e" stroke-width="0.6"/>
<line x1="742.162" y1="114.551" x2="739.549" y2="152.735" stroke="#a84a1e" stroke-width="0.6"/>
<line x1="739.549" y1="152.735" x2="742.162" y2="114.551" stroke="#a84a1e" stroke-width="0.6"/>
<line x1="739.549" y1="152.735" x2="736.936" y2="190.919" stroke="#a84a1e" stroke-width="0.6"/>
<line x1="736.936" y1="190.919" x2="739.549" y2="152.735" stroke="#a84a1e" stroke-width="0.6"/>
<line x1="736.936" y1="190.919" x2="734.324" y2="229.103" stroke="#a84a1e" stroke-width="0.6"/>
<line x1="734.324" y1="229.103" x2="736.936" y2="190.919" stroke="#a84a1e" stroke-width="0.6"/>
<line x1="734.324" y1="229.103" x2="731.711" y2="267.286" stroke="#a84a1e" stroke-width="0.6"/>
<line x1="731.711" y1="267.286" x2="734.324" y2="229.103" stroke="#a84a1e" stroke-width="0.6"/>
<line x1="731.711" y1="267.286" x2="729.098" y2="305.470" stroke="#a84a1e" stroke-width="0.6"/>
<line x1="729.098" y1="305.470" x2="731.711" y2="267.286" stroke="#a84a1e" stroke-width="0.6"/>
<line x1="729.098" y1="305.470" x2="726.486" y2="343.654" stroke="#a84a1e" stroke-width="0.6"/>
<line x1="726.486" y1="343.654" x2="729.098" y2="305.470" stroke="#a84a1e" stroke-width="0.6"/>
<line x1="726.486" y1="343.654" x2="725.657" y2="355.756" stroke="#a84a1e" stroke-width="0.6"/>
<line x1="725.657" y1="355.756" x2="726.486" y2="343.654" stroke="#a84a1e" stroke-width="0.6"/>
<line x1="725.657" y1="355.756" x2="723.873" y2="381.838" stroke="#a84a1e" stroke-width="0.6"/>
<line x1="723.873" y1="381.838" x2="725.657" y2="355.756" stroke="#a84a1e" stroke-width="0.6"/>
<line x1="723.873" y1="381.838" x2="721.260" y2="420.021" stroke="#a84a1e" stroke-width="0.6"/>
<line x1="721.260" y1="420.021" x2="723.873" y2="381.838" stroke="#a84a1e" stroke-width="0.6"/>
<line x1="721.260" y1="420.021" x2="718.647" y2="458.205" stroke="#a84a1e" stroke-width="0.6"/>
<line x1="718.647" y1="458.205" x2="721.260" y2="420.021" stroke="#a84a1e" stroke-width="0.6"/>
<line x1="718.647" y1="458.205" x2="718.580" y2="459.190" stroke="#a84a1e" stroke-width="0.6"/>
<line x1="718.580" y1="459.190" x2="718.647" y2="458.205" stroke="#a84a1e" stroke-width="0.6"/>
<line x1="718.580" y1="459.190" x2="669.838" y2="459.190" stroke="#a84a1e" stroke-width="0.6"/>
<line x1="669.838" y1="459.190" x2="718.580" y2="459.190" stroke="#a84a1e" stroke-width="0.6"/>
<line x1="669.838" y1="459.190" x2="614.018" y2="459.190" stroke="#a84a1e" stroke-width="0.6"/>
<line x1="614.018" y1="459.190" x2="669.838" y2="459.190" stroke="#a84a1e" stroke-width="0.6"/>
<line x1="614.018" y1="459.190" x2="558.198" y2="459.190" stroke="#a84a1e" stroke-width="0.6"/>
<line x1="558.198" y1="459.190" x2="614.018" y2="459.190" stroke="#a84a1e" stroke-width="0.6"/>
<line x1="558.198" y1="459.190" x2="513.490" y2="459.190" stroke="#a84a1e" stroke-width="0.6"/>
<line x1="513.490" y1="459.190" x2="558.198" y2="459.190" stroke="#a84a1e" stroke-width="0.6"/>
<line x1="513.490" y1="459.190" x2="513.682" y2="458.205" stroke="#a84a1e" stroke-width="0.6"/>
<line x1="513.682" y1="458.205" x2="513.490" y2="459.190" stroke="#a84a1e" stroke-width="0.6"/>
<line x1="513.682" y1="458.205" x2="521.113" y2="420.021" stroke="#a84a1e" stroke-width="0.6"/>
<line x1="521.113" y1="420.021" x2="513.682" y2="458.205" stroke="#a84a1e" stroke-width="0.6"/>
<line x1="521.113" y1="420.021" x2="528.545" y2="381.838" stroke="#a84a1e" stroke-width="0.6"/>
<line x1="528.545" y1="381.838" x2="521.113" y2="420.021" stroke="#a84a1e" stroke-width="0.6"/>
<line x1="528.545" y1="381.838" x2="535.977" y2="343.654" stroke="#a84a1e" stroke-width="0.6"/>
<line x1="535.977" y1="343.654" x2="528.545" y2="381.838" stroke="#a84a1e" stroke-width="0.6"/>
<line x1="535.977" y1="343.654" x2="543.409" y2="305.470" stroke="#a84a1e" stroke-width="0.6"/>
<line x1="543.409" y1="305.470" x2="535.977" y2="343.654" stroke="#a84a1e" stroke-width="0.6"/>
<line x1="543.409" y1="305.470" x2="550.840" y2="267.286" stroke="#a84a1e" stroke-width="0.6"/>
<line x1="550.840" y1="267.286" x2="543.409" y2="305.470" stroke="#a84a1e" stroke-width="0.6"/>
<line x1="550.840" y1="267.286" x2="558.198" y2="229.483" stroke="#a84a1e" stroke-width="0.6"/>
<line x1="558.198" y1="229.483" x2="550.840" y2="267.286" stroke="#a84a1e" stroke-width="0.6"/>
<line x1="558.198" y1="229.483" x2="558.198" y2="229.483" stroke="#a84a1e" stroke-width="0.6"/>
<line x1="558.198" y1="229.483" x2="558.198" y2="229.483" stroke="#a84a1e" stroke-width="0.6"/>
<line x1="558.198" y1="229.483" x2="565.704" y2="190.919" stroke="#a84a1e" stroke-width="0.6"/>
<line x1="565.704" y1="190.919" x2="558.198" y2="229.483" stroke="#a84a1e" stroke-width="0.6"/>
<line x1="565.704" y1="190.919" x2="566.270" y2="188.010" stroke="#a84a1e" stroke-width="0.6"/>
<line x1="566.270" y1="188.010" x2="565.704" y2="190.919" stroke="#a84a1e" stroke-width="0.6"/>
<line x1="725.657" y1="24.910" x2="725.657" y2="38.184" stroke="#3e68a8" stroke-width="0.6"/>
<line x1="725.657" y1="38.184" x2="725.657" y2="24.910" stroke="#3e68a8" stroke-width="0.6"/>
<line x1="725.657" y1="38.184" x2="725.657" y2="76.368" stroke="#3e68a8" stroke-width="0.6"/>
<line x1="725.657" y1="76.368" x2="725.657" y2="38.184" stroke="#3e68a8" stroke-width="0.6"/>
<line x1="725.657" y1="76.368" x2="725.657" y2="114.551" stroke="#3e68a8" stroke-width="0.6"/>
<line x1="725.657" y1="114.551" x2="725.657" y2="76.368" stroke="#3e68a8" stroke-width="0.6"/>
<line x1="725.657" y1="114.551" x2="725.657" y2="152.735" stroke="#3e68a8" stroke-width="0.6"/>
<line x1="725.657" y1="152.735" x2="725.657" y2="114.551" stroke="#3e68a8" stroke-width="0.6"/>
<line x1="725.657" y1="152.735" x2="725.657" y2="190.919" stroke="#3e68a8" stroke-width="0.6"/>
<line x1="725.657" y1="190.919" x2="725.657" y2="152.735" stroke="#3e68a8" stroke-width="0.6"/>
<line x1="725.657" y1="190.919" x2="725.657" y2="229.103" stroke="#3e68a8" stroke-width="0.6"/>
<line x1="725.657" y1="229.103" x2="725.657" y2="190.919" stroke="#3e68a8" stroke-width="0.6"/>
<line x1="725.657" y1="229.103" x2="725.657" y2="267.286" stroke="#3e68a8" stroke-width="0.6"/>
<line x1="725.657" y1="267.286" x2="725.657" y2="229.103" stroke="#3e68a8" stroke-width="0.6"/>
<line x1="725.657" y1="267.286" x2="725.657" y2="305.470" stroke="#3e68a8" stroke-width="0.6"/>
<line x1="725.657" y1="305.470" x2="725.657" y2="267.286" stroke="#3e68a8" stroke-width="0.6"/>
<line x1="725.657" y1="305.470" x2="725.657" y2="343.654" stroke="#3e68a8" stroke-width="0.6"/>
<line x1="725.657" y1="343.654" x2="725.657" y2="305.470" stroke="#3e68a8" stroke-width="0.6"/>
<line x1="725.657" y1="343.654" x2="725.657" y2="355.756" stroke="#3e68a8" stroke-width="0.6"/>
<line x1="725.657" y1="355.756" x2="725.657" y2="343.654" stroke="#3e68a8" stroke-width="0.6"/>
<line x1="669.838" y1="82.030" x2="669.838" y2="114.551" stroke="#3e68a8" stroke-width="0.6"/>
<line x1="669.838" y1="114.551" x2="669.838" y2="82.030" stroke="#3e68a8" stroke-width="0.6"/>
<line x1="669.838" y1="114.551" x2="669.838" y2="152.735" stroke="#3e68a8" stroke-width="0.6"/>
<line x1="669.838" y1="152.735" x2="669.838" y2="114.551" stroke="#3e68a8" stroke-width="0.6"/>
<line x1="669.838" y1="152.735" x2="669.838" y2="190.919" stroke="#3e68a8" stroke-width="0.6"/>
<line x1="669.838" y1="190.919" x2="669.838" y2="152.735" stroke="#3e68a8" stroke-width="0.6"/>
<line x1="669.838" y1="190.919" x2="669.838" y2="229.103" stroke="#3e68a8" stroke-width="0.6"/>
<line x1="669.838" y1="229.103" x2="669.838" y2="190.919" stroke="#3e68a8" stroke-width="0.6"/>
<line x1="669.838" y1="229.103" x2="669.838" y2="267.286" stroke="#3e68a8" stroke-width="0.6"/>
<line x1="669.838" y1="267.286" x2="669.838" y2="229.103" stroke="#3e68a8" stroke-width="0.6"/>
<line x1="669.838" y1="267.286" x2="669.838" y2="305.470" stroke="#3e68a8" stroke-width="0.6"/>
<line x1="669.838" y1="305.470" x2="669.838" y2="267.286" stroke="#3e68a8" stroke-width="0.6"/>
<line x1="669.838" y1="305.470" x2="669.838" y2="343.654" stroke="#3e68a8" stroke-width="0.6"/>
<line x1="669.838" y1="343.654" x2="669.838" y2="305.470" stroke="#3e68a8" stroke-width="0.6"/>
<line x1="669.838" y1="343.654" x2="669.838" y2="381.838" stroke="#3e68a8" stroke-width="0.6"/>
<line x1="669.838" y1="381.838" x2="669.838" y2="343.654" stroke="#3e68a8" stroke-width="0.6"/>
<line x1="669.838" y1="381.838" x2="669.838" y2="420.021" stroke="#3e68a8" stroke-width="0.6"/>
<line x1="669.838" y1="420.021" x2="669.838" y2="381.838" stroke="#3e68a8" stroke-width="0.6"/>
<line x1="669.838" y1="420.021" x2="669.838" y2="458.205" stroke="#3e68a8" stroke-width="0.6"/>
<line x1="669.838" y1="458.205" x2="669.838" y2="420.021" stroke="#3e68a8" stroke-width="0.6"/>
<line x1="669.838" y1="458.205" x2="669.838" y2="459.190" stroke="#3e68a8" stroke-width="0.6"/>
<line x1="669.838" y1="459.190" x2="669.838" y2="458.205" stroke="#3e68a8" stroke-width="0.6"/>
<line x1="614.018" y1="139.150" x2="614.018" y2="152.735" stroke="#3e68a8" stroke-width="0.6"/>
<line x1="614.018" y1="152.735" x2="614.018" y2="139.150" stroke="#3e68a8" stroke-width="0.6"/>
<line x1="614.018" y1="152.735" x2="614.018" y2="190.919" stroke="#3e68a8" stroke-width="0.6"/>
<line x1="614.018" y1="190.919" x2="614.018" y2="152.735" stroke="#3e68a8" stroke-width="0.6"/>
<line x1="614.018" y1="190.919" x2="614.018" y2="229.103" stroke="#3e68a8" stroke-width="0.6"/>
<line x1="614.018" y1="229.103" x2="614.018" y2="190.919" stroke="#3e68a8" stroke-width="0.6"/>
<line x1="614.018" y1="229.103" x2="614.018" y2="267.286" stroke="#3e68a8" stroke-width="0.6"/>
<line x1="614.018" y1="267.286" x2="614.018" y2="229.103" stroke="#3e68a8" stroke-width="0.6"/>
<line x1="614.018" y1="267.286" x2="614.018" y2="305.470" stroke="#3e68a8" stroke-width="0.6"/>
<line x1="614.018" y1="305.470" x2="614.018" y2="267.286" stroke="#3e68a8" stroke-width="0.6"/>
<line x1="614.018" y1="305.470" x2="614.018" y2="343.654" stroke="#3e68a8" stroke-width="0.6"/>
<line x1="614.018" y1="343.654" x2="614.018" y2="305.470" stroke="#3e68a8" stroke-width="0.6"/>
<line x1="614.018" y1="343.654" x2="614.018" y2="381.838" stroke="#3e68a8" stroke-width="0.6"/>
<line x1="614.018" y1="381.838" x2="614.018" y2="343.654" stroke="#3e68a8" stroke-width="0.6"/>
<line x1="614.018" y1="381.838" x2="614.018" y2="420.021" stroke="#3e68a8" stroke-width="0.6"/>
<line x1="614.018" y1="420.021" x2="614.018" y2="381.838" stroke="#3e68a8" stroke-width="0.6"/>
<line x1="614.018" y1="420.021" x2="614.018" y2="458.205" stroke="#3e68a8" stroke-width="0.6"/>
<line x1="614.018" y1="458.205" x2="614.018" y2="420.021" stroke="#3e68a8" stroke-width="0.6"/>
<line x1="614.018" y1="458.205" x2="614.018" y2="459.190" stroke="#3e68a8" stroke-width="0.6"/>
<line x1="614.018" y1="459.190" x2="614.018" y2="458.205" stroke="#3e68a8" stroke-width="0.6"/>
<line x1="558.198" y1="229.483" x2="558.198" y2="267.286" stroke="#3e68a8" stroke-width="0.6"/>
<line x1="558.198" y1="267.286" x2="558.198" y2="229.483" stroke="#3e68a8" stroke-width="0.6"/>
<line x1="558.198" y1="267.286" x2="558.198" y2="305.470" stroke="#3e68a8" stroke-width="0.6"/>
<line x1="558.198" y1="305.470" x2="558.198" y2="267.286" stroke="#3e68a8" stroke-width="0.6"/>
<line x1="558.198" y1="305.470" x2="558.198" y2="343.654" stroke="#3e68a8" stroke-width="0.6"/>
<line x1="558.198" y1="343.654" x2="558.198" y2="305.470" stroke="#3e68a8" stroke-width="0.6"/>
<line x1="558.198" y1="343.654" x2="558.198" y2="381.838" stroke="#3e68a8" stroke-width="0.6"/>
<line x1="558.198" y1="381.838" x2="558.198" y2="343.654" stroke="#3e68a8" stroke-width="0.6"/>
<line x1="558.198" y1="381.838" x2="558.198" y2="420.021" stroke="#3e68a8" stroke-width="0.6"/>
<line x1="558.198" y1="420.021" x2="558.198" y2="381.838" stroke="#3e68a8" stroke-width="0.6"/>
<line x1="558.198" y1="420.021" x2="558.198" y2="458.205" stroke="#3e68a8" stroke-width="0.6"/>
<line x1="558.198" y1="458.205" x2="558.198" y2="420.021" stroke="#3e68a8" stroke-width="0.6"/>
<line x1="558.198" y1="458.205" x2="558.198" y2="459.190" stroke="#3e68a8" stroke-width="0.6"/>
<line x1="558.198" y1="459.190" x2="558.198" y2="458.205" stroke="#3e68a8" stroke-width="0.6"/>
<line x1="747.387" y1="38.184" x2="725.657" y2="38.184" stroke="#3e68a8" stroke-width="0.6"/>
<line x1="725.657" y1="38.184" x2="747.387" y2="38.184" stroke="#3e68a8" stroke-width="0.6"/>
<line x1="725.657" y1="38.184" x2="712.685" y2="38.184" stroke="#3e68a8" stroke-width="0.6"/>
<line x1="712.685" y1="38.184" x2="725.657" y2="38.184" stroke="#3e68a8" stroke-width="0.6"/>
<line x1="744.775" y1="76.368" x2="725.657" y2="76.368" stroke="#3e68a8" stroke-width="0.6"/>
<line x1="725.657" y1="76.368" x2="744.775" y2="76.368" stroke="#3e68a8" stroke-width="0.6"/>
<line x1="725.657" y1="76.368" x2="675.371" y2="76.368" stroke="#3e68a8" stroke-width="0.6"/>
<line x1="675.371" y1="76.368" x2="725.657" y2="76.368" stroke="#3e68a8" stroke-width="0.6"/>
<line x1="742.162" y1="114.551" x2="725.657" y2="114.551" stroke="#3e68a8" stroke-width="0.6"/>
<line x1="725.657" y1="114.551" x2="742.162" y2="114.551" stroke="#3e68a8" stroke-width="0.6"/>
<line x1="725.657" y1="114.551" x2="669.838" y2="114.551" stroke="#3e68a8" stroke-width="0.6"/>
<line x1="669.838" y1="114.551" x2="725.657" y2="114.551" stroke="#3e68a8" stroke-width="0.6"/>
<line x1="669.838" y1="114.551" x2="638.056" y2="114.551" stroke="#3e68a8" stroke-width="0.6"/>
<line x1="638.056" y1="114.551" x2="669.838" y2="114.551" stroke="#3e68a8" stroke-width="0.6"/>
<line x1="739.549" y1="152.735" x2="725.657" y2="152.735" stroke="#3e68a8" stroke-width="0.6"/>
<line x1="725.657" y1="152.735" x2="739.549" y2="152.735" stroke="#3e68a8" stroke-width="0.6"/>
<line x1="725.657" y1="152.735" x2="669.838" y2="152.735" stroke="#3e68a8" stroke-width="0.6"/>
<line x1="669.838" y1="152.735" x2="725.657" y2="152.735" stroke="#3e68a8" stroke-width="0.6"/>
<line x1="669.838" y1="152.735" x2="614.018" y2="152.735" stroke="#3e68a8" stroke-width="0.6"/>
<line x1="614.018" y1="152.735" x2="669.838" y2="152.735" stroke="#3e68a8" stroke-width="0.6"/>
<line x1="614.018" y1="152.735" x2="600.742" y2="152.735" stroke="#3e68a8" stroke-width="0.6"/>
<line x1="600.742" y1="152.735" x2="614.018" y2="152.735" stroke="#3e68a8" stroke-width="0.6"/>
<line x1="736.936" y1="190.919" x2="725.657" y2="190.919" stroke="#3e68a8" stroke-width="0.6"/>
<line x1="725.657" y1="190.919" x2="736.936" y2="190.919" stroke="#3e68a8" stroke-width="0.6"/>
<line x1="725.657" y1="190.919" x2="669.838" y2="190.919" stroke="#3e68a8" stroke-width="0.6"/>
<line x1="669.838" y1="190.919" x2="725.657" y2="190.919" stroke="#3e68a8" stroke-width="0.6"/>
<line x1="669.838" y1="190.919" x2="614.018" y2="190.919" stroke="#3e68a8" stroke-width="0.6"/>
<line x1="614.018" y1="190.919" x2="669.838" y2="190.919" stroke="#3e68a8" stroke-width="0.6"/>
<line x1="614.018" y1="190.919" x2="565.704" y2="190.919" stroke="#3e68a8" stroke-width="0.6"/>
<line x1="565.704" y1="190.919" x2="614.018" y2="190.919" stroke="#3e68a8" stroke-width="0.6"/>
<line x1="734.324" y1="229.103" x2="725.657" y2="229.103" stroke="#3e68a8" stroke-width="0.6"/>
<line x1="725.657" y1="229.103" x2="734.324" y2="229.103" stroke="#3e68a8" stroke-width="0.6"/>
<line x1="725.657" y1="229.103" x2="669.838" y2="229.103" stroke="#3e68a8" stroke-width="0.6"/>
<line x1="669.838" y1="229.103" x2="725.657" y2="229.103" stroke="#3e68a8" stroke-width="0.6"/>
<line x1="669.838" y1="229.103" x2="614.018" y2="229.103" stroke="#3e68a8" stroke-width="0.6"/>
<line x1="614.018" y1="229.103" x2="669.838" y2="229.103" stroke="#3e68a8" stroke-width="0.6"/>
<line x1="614.018" y1="229.103" x2="558.272" y2="229.103" stroke="#3e68a8" stroke-width="0.6"/>
<line x1="558.272" y1="229.103" x2="614.018" y2="229.103" stroke="#3e68a8" stroke-width="0.6"/>
<line x1="731.711" y1="267.286" x2="725.657" y2="267.286" stroke="#3e68a8" stroke-width="0.6"/>
<line x1="725.657" y1="267.286" x2="731.711" y2="267.286" stroke="#3e68a8" stroke-width="0.6"/>
<line x1="725.657" y1="267.286" x2="669.838" y2="267.286" stroke="#3e68a8" stroke-width="0.6"/>
<line x1="669.838" y1="267.286" x2="725.657" y2="267.286" stroke="#3e68a8" stroke-width="0.6"/>
<line x1="669.838" y1="267.286" x2="614.018" y2="267.286" stroke="#3e68a8" stroke-width="0.6"/>
<line x1="614.018" y1="267.286" x2="669.838" y2="267.286" stroke="#3e68a8" stroke-width="0.6"/>
<line x1="614.018" y1="267.286" x2="558.198" y2="267.286" stroke="#3e68a8" stroke-width="0.6"/>
<line x1="558.198" y1="267.286" x2="614.018" y2="267.286" stroke="#3e68a8" stroke-width="0.6"/>
<line x1="558.198" y1="267.286" x2="550.840" y2="267.286" stroke="#3e68a8" stroke-width="0.6"/>
<line x1="550.840" y1="267.286" x2="558.198" y2="267.286" stroke="#3e68a8" stroke-width="0.6"/>
<line x1="729.098" y1="305.470" x2="725.657" y2="305.470" stroke="#3e68a8" stroke-width="0.6"/>
<line x1="725.657" y1="305.470" x2="729.098" y2="305.470" stroke="#3e68a8" stroke-width="0.6"/>
<line x1="725.657" y1="305.470" x2="669.838" y2="305.470" stroke="#3e68a8" stroke-width="0.6"/>
<line x1="669.838" y1="305.470" x2="725.657" y2="305.470" stroke="#3e68a8" stroke-width="0.6"/>
<line x1="669.838" y1="305.470" x2="614.018" y2="305.470" stroke="#3e68a8" stroke-width="0.6"/>
<line x1="614.018" y1="305.470" x2="669.838" y2="305.470" stroke="#3e68a8" stroke-width="0.6"/>
<line x1="614.018" y1="305.470" x2="558.198" y2="305.470" stroke="#3e68a8" stroke-width="0.6"/>
<line x1="558.198" y1="305.470" x2="614.018" y2="305.470" stroke="#3e68a8" stroke-width="0.6"/>
<line x1="558.198" y1="305.470" x2="543.409" y2="305.470" stroke="#3e68a8" stroke-width="0.6"/>
<line x1="543.409" y1="305.470" x2="558.198" y2="305.470" stroke="#3e68a8" stroke-width="0.6"/>
<line x1="726.486" y1="343.654" x2="725.657" y2="343.654" stroke="#3e68a8" stroke-width="0.6"/>
<line x1="725.657" y1="343.654" x2="726.486" y2="343.654" stroke="#3e68a8" stroke-width="0.6"/>
<line x1="725.657" y1="343.654" x2="669.838" y2="343.654" stroke="#3e68a8" stroke-width="0.6"/>
<line x1="669.838" y1="343.654" x2="725.657" y2="343.654" stroke="#3e68a8" stroke-width="0.6"/>
<line x1="669.838" y1="343.654" x2="614.018" y2="343.654" stroke="#3e68a8" stroke-width="0.6"/>
<line x1="614.018" y1="343.654" x2="669.838" y2="343.654" stroke="#3e68a8" stroke-width="0.6"/>
<line x1="614.018" y1="343.654" x2="558.198" y2="343.654" stroke="#3e68a8" stroke-width="0.6"/>
<line x1="558.198" y1="343.654" x2="614.018" y2="343.654" stroke="#3e68a8" stroke-width="0.6"/>
<line x1="558.198" y1="343.654" x2="535.977" y2="343.654" stroke="#3e68a8" stroke-width="0.6"/>
<line x1="535.977" y1="343.654" x2="558.198" y2="343.654" stroke="#3e68a8" stroke-width="0.6"/>
<line x1="723.873" y1="381.838" x2="669.838" y2="381.838" stroke="#3e68a8" stroke-width="0.6"/>
<line x1="669.838" y1="381.838" x2="723.873" y2="381.838" stroke="#3e68a8" stroke-width="0.6"/>
<line x1="669.838" y1="381.838" x2="614.018" y2="381.838" stroke="#3e68a8" stroke-width="0.6"/>
<line x1="614.018" y1="381.838" x2="669.838" y2="381.838" stroke="#3e68a8" stroke-width="0.6"/>
<line x1="614.018" y1="381.838" x2="558.198" y2="381.838" stroke="#3e68a8" stroke-width="0.6"/>
<line x1="558.198" y1="381.838" x2="614.018" y2="381.838" stroke="#3e68a8" stroke-width="0.6"/>
<line x1="558.198" y1="381.838" x2="528.545" y2="381.838" stroke="#3e68a8" stroke-width="0.6"/>
<line x1="528.545" y1="381.838" x2="558.198" y2="381.838" stroke="#3e68a8" stroke-width="0.6"/>
<line x1="721.260" y1="420.021" x2="669.838" y2="420.021" stroke="#3e68a8" stroke-width="0.6"/>
<line x1="669.838" y1="420.021" x2="721.260" y2="420.021" stroke="#3e68a8" stroke-width="0.6"/>
<line x1="669.838" y1="420.021" x2="614.018" y2="420.021" stroke="#3e68a8" stroke-width="0.6"/>
<line x1="614.018" y1="420.021" x2="669.838" y2="420.021" stroke="#3e68a8" stroke-width="0.6"/>
<line x1="614.018" y1="420.021" x2="558.198" y2="420.021" stroke="#3e68a8" stroke-width="0.6"/>
<line x1="558.198" y1="420.021" x2="614.018" y2="420.021" stroke="#3e68a8" stroke-width="0.6"/>
<line x1="558.198" y1="420.021" x2="521.113" y2="420.021" stroke="#3e68a8" stroke-width="0.6"/>
<line x1="521.113" y1="420.021" x2="558.198" y2="420.021" stroke="#3e68a8" stroke-width="0.6"/>
<line x1="718.647" y1="458.205" x2="669.838" y2="458.205" stroke="#3e68a8" stroke-width="0.6"/>
<line x1="669.838" y1="458.205" x2="718.647" y2="458.205" stroke="#3e68a8" stroke-width="0.6"/>
<line x1="669.838" y1="458.205" x2="614.018" y2="458.205" stroke="#3e68a8" stroke-width="0.6"/>
<line x1="614.018" y1="458.205" x2="669.838" y2="458.205" stroke="#3e68a8" stroke-width="0.6"/>
<line x1="614.018" y1="458.205" x2="558.198" y2="458.205" stroke="#3e68a8" stroke-width="0.6"/>
<line x1="558.198" y1="458.205" x2="614.018" y2="458.205" stroke="#3e68a8" stroke-width="0.6"/>
<line x1="558.198" y1="458.205" x2="513.682" y2="458.205" stroke="#3e68a8" stroke-width="0.6"/>
<line x1="513.682" y1="458.205" x2="558.198" y2="458.205" stroke="#3e68a8" stroke-width="0.6"/>
<circle cx="566.270" cy="188.010" r="0.8" fill="#a84a1e"/>
<circle cx="750" cy="0" r="0.8" fill="#a84a1e"/>
<circle cx="718.580" cy="459.190" r="0.8" fill="#a84a1e"/>
<circle cx="513.490" cy="459.190" r="0.8" fill="#a84a1e"/>
<circle cx="725.657" cy="24.910" r="0.8" fill="#3e68a8"/>
<circle cx="725.657" cy="355.756" r="0.8" fill="#3e68a8"/>
<circle cx="669.838" cy="82.030" r="0.8" fill="#3e68a8"/>
<circle cx="669.838" cy="459.190" r="0.8" fill="#3e68a8"/>
<circle cx="614.018" cy="139.150" r="0.8" fill="#3e68a8"/>
<circle cx="614.018" cy="459.190" r="0.8" fill="#3e68a8"/>
<circle cx="558.198" cy="229.483" r="0.8" fill="#3e68a8"/>
<circle cx="558.198" cy="459.190" r="0.8" fill="#3e68a8"/>
<circle cx="747.387" cy="38.184" r="0.8" fill="#3e68a8"/>
<circle cx="712.685" cy="38.184" r="0.8" fill="#3e68a8"/>
<circle cx="744.775" cy="76.368" r="0.8" fill="#3e68a8"/>
<circle cx="675.371" cy="76.368" r="0.8" fill="#3e68a8"/>
<circle cx="742.162" cy="114.551" r="0.8" fill="#3e68a8"/>
<circle cx="638.056" cy="114.551" r="0.8" fill="#3e68a8"/>
<circle cx="739.549" cy="152.735" r="0.8" fill="#3e68a8"/>
<circle cx="600.742" cy="152.735" r="0.8" fill="#3e68a8"/>
<circle cx="736.936" cy="190.919" r="0.8" fill="#3e68a8"/>
<circle cx="565.704" cy="190.919" r="0.8" fill="#3e68a8"/>
<circle cx="734.324" cy="229.103" r="0.8" fill="#3e68a8"/>
<circle cx="558.272" cy="229.103" r="0.8" fill="#3e68a8"/>
<circle cx="731.711" cy="267.286" r="0.8" fill="#3e68a8"/>
<circle cx="550.840" cy="267.286" r="0.8" fill="#3e68a8"/>
<circle cx="729.098" cy="305.470" r="0.8" fill="#3e68a8"/>
<circle cx="543.409" cy="305.470" r="0.8" fill="#3e68a8"/>
<circle cx="726.486" cy="343.654" r="0.8" fill="#3e68a8"/>
<circle cx="535.977" cy="343.654" r="0.8" fill="#3e68a8"/>
<circle cx="723.873" cy="381.838" r="0.8" fill="#3e68a8"/>
<circle cx="528.545" cy="381.838" r="0.8" fill="#3e68a8"/>
<circle cx="721.260" cy="420.021" r="0.8" fill="#3e68a8"/>
<circle cx="521.113" cy="420.021" r="0.8" fill="#3e68a8"/>
<circle cx="718.647" cy="458.205" r="0.8" fill="#3e68a8"/>
<circle cx="513.682" cy="458.205" r="0.8" fill="#3e68a8"/>
<circle cx="725.657" cy="38.184" r="0.8" fill="#3e68a8"/>
<circle cx="725.657" cy="76.368" r="0.8" fill="#3e68a8"/>
<circle cx="725.657" cy="114.551" r="0.8" fill="#3e68a8"/>
<circle cx="725.657" cy="152.735" r="0.8" fill="#3e68a8"/>
<circle cx="725.657" cy="190.919" r="0.8" fill="#3e68a8"/>
<circle cx="725.657" cy="229.103" r="0.8" fill="#3e68a8"/>
<circle cx="725.657" cy="267.286" r="0.8" fill="#3e68a8"/>
<circle cx="725.657" cy="305.470" r="0.8" fill="#3e68a8"/>
<circle cx="725.657" cy="343.654" r="0.8" fill="#3e68a8"/>
<circle cx="669.838" cy="114.551" r="0.8" fill="#3e68a8"/>
<circle cx="669.838" cy="152.735" r="0.8" fill="#3e68a8"/>
<circle cx="669.838" cy="190.919" r="0.8" fill="#3e68a8"/>
<circle cx="669.838" cy="229.103" r="0.8" fill="#3e68a8"/>
<circle cx="669.838" cy="267.286" r="0.8" fill="#3e68a8"/>
<circle cx="669.838" cy="305.470" r="0.8" fill="#3e68a8"/>
<circle cx="669.838" cy="343.654" r="0.8" fill="#3e68a8"/>
<circle cx="669.838" cy="381.838" r="0.8" fill="#3e68a8"/>
<circle cx="669.838" cy="420.021" r="0.8" fill="#3e68a8"/>
<circle cx="669.838" cy="458.205" r="0.8" fill="#3e68a8"/>
<circle cx="614.018" cy="152.735" r="0.8" fill="#3e68a8"/>
<circle cx="614.018" cy="190.919" r="0.8" fill="#3e68a8"/>
<circle cx="614.018" cy="229.103" r="0.8" fill="#3e68a8"/>
<circle cx="614.018" cy="267.286" r="0.8" fill="#3e68a8"/>
<circle cx="614.018" cy="305.470" r="0.8" fill="#3e68a8"/>
<circle cx="614.018" cy="343.654" r="0.8" fill="#3e68a8"/>
<circle cx="614.018" cy="381.838" r="0.8" fill="#3e68a8"/>
<circle cx="614.018" cy="420.021" r="0.8" fill="#3e68a8"/>
<circle cx="614.018" cy="458.205" r="0.8" fill="#3e68a8"/>
<circle cx="558.198" cy="267.286" r="0.8" fill="#3e68a8"/>
<circle cx="558.198" cy="305.470" r="0.8" fill="#3e68a8"/>
<circle cx="558.198" cy="343.654" r="0.8" fill="#3e68a8"/>
<circle cx="558.198" cy="381.838" r="0.8" fill="#3e68a8"/>
<circle cx="558.198" cy="420.021" r="0.8" fill="#3e68a8"/>
<circle cx="558.198" cy="458.205" r="0.8" fill="#3e68a8"/>
</g>
</g>
</svg>
