<svg xmlns="http://www.w3.org/2000/svg" width="557.761" height="418.706" viewBox="-24.676 -24.676 278.881 209.353" preserveAspectRatio="xMidYMid meet">
<style>polygon,line{vector-effect:non-scaling-stroke}</style>
<g transform="translate(0,160) scale(1,-1)">
<g id="boundary" fill="none" stroke="#222" stroke-width="0.5">
<polygon points="0,0 200,0 206.080,7.555 211.539,15.570 216.343,23.994 220.460,32.774 223.865,41.854 226.536,51.176 228.457,60.682 229.614,70.310 230,80 229.614,89.690 228.457,99.318 226.536,108.824 223.865,118.146 220.460,127.226 216.343,136.006 211.539,144.430 206.080,152.445 200,160 0,160"/>
</g>
<g id="aisles" fill="#bcd5f0" fill-opacity="0.6" stroke="#4a7bb7" stroke-width="0.4">
<polygon points="-12,-12 -12,172 205.746,172 215.998,159.201 227.680,140.095 238.299,111.200 241.528,68.879 231.325,27.679 205.746,-12"/>
</g>
<g id="stalls" stroke="#1f5f1a" stroke-width="0.25">
<polygon points="29.950,36 29.950,45 11.950,45 11.950,36" fill="#8fc98a"/>
<polygon points="29.950,45 29.950,54 11.950,54 11.950,45" fill="#8fc98a"/>
<polygon points="29.950,54 29.950,63 11.950,63 11.950,54" fill="#8fc98a"/>
<polygon points="29.950,63 29.950,72 11.950,72 11.950,63" fill="#8fc98a"/>
<polygon points="29.950,72 29.950,81 11.950,81 11.950,72" fill="#8fc98a"/>
<polygon points="29.950,81 29.950,90 11.950,90 11.950,81" fill="#8fc98a"/>
<polygon points="29.950,90 29.950,99 11.950,99 11.950,90" fill="#8fc98a"/>
<polygon points="30.050,99 30.050,90 48.050,90 48.050,99" fill="#8fc98a"/>
<polygon points="30.050,90 30.050,81 48.050,81 48.050,90" fill="#8fc98a"/>
<polygon points="30.050,81 30.050,72 48.050,72 48.050,81" fill="#8fc98a"/>
<polygon points="30.050,72 30.050,63 48.050,63 48.050,72" fill="#8fc98a"/>
<polygon points="30.050,63 30.050,54 48.050,54 48.050,63" fill="#8fc98a"/>
<polygon points="30.050,54 30.050,45 48.050,45 48.050,54" fill="#8fc98a"/>
<polygon points="30.050,45 30.050,36 48.050,36 48.050,45" fill="#8fc98a"/>
<polygon points="89.950,36 89.950,45 71.950,45 71.950,36" fill="#8fc98a"/>
<polygon points="89.950,45 89.950,54 71.950,54 71.950,45" fill="#8fc98a"/>
<polygon points="89.950,54 89.950,63 71.950,63 71.950,54" fill="#8fc98a"/>
<polygon points="89.950,63 89.950,72 71.950,72 71.950,63" fill="#8fc98a"/>
<polygon points="89.950,72 89.950,81 71.950,81 71.950,72" fill="#8fc98a"/>
<polygon points="89.950,81 89.950,90 71.950,90 71.950,81" fill="#8fc98a"/>
<polygon points="89.950,90 89.950,99 71.950,99 71.950,90" fill="#8fc98a"/>
<polygon points="90.050,99 90.050,90 108.050,90 108.050,99" fill="#8fc98a"/>
<polygon points="90.050,90 90.050,81 108.050,81 108.050,90" fill="#8fc98a"/>
<polygon points="90.050,81 90.050,72 108.050,72 108.050,81" fill="#8fc98a"/>
<polygon points="90.050,72 90.050,63 108.050,63 108.050,72" fill="#8fc98a"/>
<polygon points="90.050,63 90.050,54 108.050,54 108.050,63" fill="#8fc98a"/>
<polygon points="90.050,54 90.050,45 108.050,45 108.050,54" fill="#8fc98a"/>
<polygon points="90.050,45 90.050,36 108.050,36 108.050,45" fill="#8fc98a"/>
<polygon points="149.950,36 149.950,45 131.950,45 131.950,36" fill="#8fc98a"/>
<polygon points="149.950,45 149.950,54 131.950,54 131.950,45" fill="#8fc98a"/>
<polygon points="149.950,54 149.950,63 131.950,63 131.950,54" fill="#8fc98a"/>
<polygon points="149.950,63 149.950,72 131.950,72 131.950,63" fill="#8fc98a"/>
<polygon points="149.950,72 149.950,81 131.950,81 131.950,72" fill="#8fc98a"/>
<polygon points="149.950,81 149.950,90 131.950,90 131.950,81" fill="#8fc98a"/>
<polygon points="149.950,90 149.950,99 131.950,99 131.950,90" fill="#8fc98a"/>
<polygon points="150.050,99 150.050,90 168.050,90 168.050,99" fill="#8fc98a"/>
<polygon points="150.050,90 150.050,81 168.050,81 168.050,90" fill="#8fc98a"/>
<polygon points="150.050,81 150.050,72 168.050,72 168.050,81" fill="#8fc98a"/>
<polygon points="150.050,72 150.050,63 168.050,63 168.050,72" fill="#8fc98a"/>
<polygon points="150.050,63 150.050,54 168.050,54 168.050,63" fill="#8fc98a"/>
<polygon points="150.050,54 150.050,45 168.050,45 168.050,54" fill="#8fc98a"/>
<polygon points="150.050,45 150.050,36 168.050,36 168.050,45" fill="#8fc98a"/>
<polygon points="29.950,99 29.950,108 11.950,108 11.950,99" fill="#d4b86a"/>
<polygon points="30.050,36 30.050,27 48.050,27 48.050,36" fill="#d4b86a"/>
<polygon points="89.950,99 89.950,108 71.950,108 71.950,99" fill="#d4b86a"/>
<polygon points="90.050,36 90.050,27 108.050,27 108.050,36" fill="#d4b86a"/>
<polygon points="149.950,99 149.950,108 131.950,108 131.950,99" fill="#d4b86a"/>
<polygon points="150.050,36 150.050,27 168.050,27 168.050,36" fill="#d4b86a"/>
<polygon points="29.950,27 29.950,36 11.950,36 11.950,27" fill="#d4b86a"/>
<polygon points="30.050,108 30.050,99 48.050,99 48.050,108" fill="#d4b86a"/>
<polygon points="89.950,27 89.950,36 71.950,36 71.950,27" fill="#d4b86a"/>
<polygon points="90.050,108 90.050,99 108.050,99 108.050,108" fill="#d4b86a"/>
<polygon points="149.950,27 149.950,36 131.950,36 131.950,27" fill="#d4b86a"/>
<polygon points="150.050,108 150.050,99 168.050,99 168.050,108" fill="#d4b86a"/>
</g>
<g id="graph">
<line x1="0" y1="0" x2="60" y2="0" stroke="#a84a1e" stroke-width="0.6"/>
<line x1="60" y1="0" x2="0" y2="0" stroke="#a84a1e" stroke-width="0.6"/>
<line x1="60" y1="0" x2="120" y2="0" stroke="#a84a1e" stroke-width="0.6"/>
<line x1="120" y1="0" x2="60" y2="0" stroke="#a84a1e" stroke-width="0.6"/>
<line x1="120" y1="0" x2="180" y2="0" stroke="#a84a1e" stroke-width="0.6"/>
<line x1="180" y1="0" x2="120" y2="0" stroke="#a84a1e" stroke-width="0.6"/>
<line x1="180" y1="0" x2="200" y2="0" stroke="#a84a1e" stroke-width="0.6"/>
<line x1="200" y1="0" x2="180" y2="0" stroke="#a84a1e" stroke-width="0.6"/>
<line x1="200" y1="0" x2="206.080" y2="7.555" stroke="#a84a1e" stroke-width="0.6"/>
<line x1="206.080" y1="7.555" x2="200" y2="0" stroke="#a84a1e" stroke-width="0.6"/>
<line x1="206.080" y1="7.555" x2="211.539" y2="15.570" stroke="#a84a1e" stroke-width="0.6"/>
<line x1="211.539" y1="15.570" x2="206.080" y2="7.555" stroke="#a84a1e" stroke-width="0.6"/>
<line x1="211.539" y1="15.570" x2="216.343" y2="23.994" stroke="#a84a1e" stroke-width="0.6"/>
<line x1="216.343" y1="23.994" x2="211.539" y2="15.570" stroke="#a84a1e" stroke-width="0.6"/>
<line x1="216.343" y1="23.994" x2="220.460" y2="32.774" stroke="#a84a1e" stroke-width="0.6"/>
<line x1="220.460" y1="32.774" x2="216.343" y2="23.994" stroke="#a84a1e" stroke-width="0.6"/>
<line x1="220.460" y1="32.774" x2="223.865" y2="41.854" stroke="#a84a1e" stroke-width="0.6"/>
<line x1="223.865" y1="41.854" x2="220.460" y2="32.774" stroke="#a84a1e" stroke-width="0.6"/>
<line x1="223.865" y1="41.854" x2="226.536" y2="51.176" stroke="#a84a1e" stroke-width="0.6"/>
<line x1="226.536" y1="51.176" x2="223.865" y2="41.854" stroke="#a84a1e" stroke-width="0.6"/>
<line x1="226.536" y1="51.176" x2="228.457" y2="60.682" stroke="#a84a1e" stroke-width="0.6"/>
<line x1="228.457" y1="60.682" x2="226.536" y2="51.176" stroke="#a84a1e" stroke-width="0.6"/>
<line x1="228.457" y1="60.682" x2="229.614" y2="70.310" stroke="#a84a1e" stroke-width="0.6"/>
<line x1="229.614" y1="70.310" x2="228.457" y2="60.682" stroke="#a84a1e" stroke-width="0.6"/>
<line x1="229.614" y1="70.310" x2="230" y2="80" stroke="#a84a1e" stroke-width="0.6"/>
<line x1="230" y1="80" x2="229.614" y2="70.310" stroke="#a84a1e" stroke-width="0.6"/>
<line x1="230" y1="80" x2="229.614" y2="89.690" stroke="#a84a1e" stroke-width="0.6"/>
<line x1="229.614" y1="89.690" x2="230" y2="80" stroke="#a84a1e" stroke-width="0.6"/>
<line x1="229.614" y1="89.690" x2="228.457" y2="99.318" stroke="#a84a1e" stroke-width="0.6"/>
<line x1="228.457" y1="99.318" x2="229.614" y2="89.690" stroke="#a84a1e" stroke-width="0.6"/>
<line x1="228.457" y1="99.318" x2="226.536" y2="108.824" stroke="#a84a1e" stroke-width="0.6"/>
<line x1="226.536" y1="108.824" x2="228.457" y2="99.318" stroke="#a84a1e" stroke-width="0.6"/>
<line x1="226.536" y1="108.824" x2="223.865" y2="118.146" stroke="#a84a1e" stroke-width="0.6"/>
<line x1="223.865" y1="118.146" x2="226.536" y2="108.824" stroke="#a84a1e" stroke-width="0.6"/>
<line x1="223.865" y1="118.146" x2="220.460" y2="127.226" stroke="#a84a1e" stroke-width="0.6"/>
<line x1="220.460" y1="127.226" x2="223.865" y2="118.146" stroke="#a84a1e" stroke-width="0.6"/>
<line x1="220.460" y1="127.226" x2="216.815" y2="135" stroke="#a84a1e" stroke-width="0.6"/>
<line x1="216.815" y1="135" x2="220.460" y2="127.226" stroke="#a84a1e" stroke-width="0.6"/>
<line x1="216.815" y1="135" x2="216.343" y2="136.006" stroke="#a84a1e" stroke-width="0.6"/>
<line x1="216.343" y1="136.006" x2="216.815" y2="135" stroke="#a84a1e" stroke-width="0.6"/>
<line x1="216.343" y1="136.006" x2="211.539" y2="144.430" stroke="#a84a1e" stroke-width="0.6"/>
<line x1="211.539" y1="144.430" x2="216.343" y2="136.006" stroke="#a84a1e" stroke-width="0.6"/>
<line x1="211.539" y1="144.430" x2="206.080" y2="152.445" stroke="#a84a1e" stroke-width="0.6"/>
<line x1="206.080" y1="152.445" x2="211.539" y2="144.430" stroke="#a84a1e" stroke-width="0.6"/>
<line x1="206.080" y1="152.445" x2="200" y2="160" stroke="#a84a1e" stroke-width="0.6"/>
<line x1="200" y1="160" x2="206.080" y2="152.445" stroke="#a84a1e" stroke-width="0.6"/>
<line x1="200" y1="160" x2="180" y2="160" stroke="#a84a1e" stroke-width="0.6"/>
<line x1="180" y1="160" x2="200" y2="160" stroke="#a84a1e" stroke-width="0.6"/>
<line x1="180" y1="160" x2="120" y2="160" stroke="#a84a1e" stroke-width="0.6"/>
<line x1="120" y1="160" x2="180" y2="160" stroke="#a84a1e" stroke-width="0.6"/>
<line x1="120" y1="160" x2="60" y2="160" stroke="#a84a1e" stroke-width="0.6"/>
<line x1="60" y1="160" x2="120" y2="160" stroke="#a84a1e" stroke-width="0.6"/>
<line x1="60" y1="160" x2="0" y2="160" stroke="#a84a1e" stroke-width="0.6"/>
<line x1="0" y1="160" x2="60" y2="160" stroke="#a84a1e" stroke-width="0.6"/>
<line x1="0" y1="160" x2="0" y2="135" stroke="#a84a1e" stroke-width="0.6"/>
<line x1="0" y1="135" x2="0" y2="160" stroke="#a84a1e" stroke-width="0.6"/>
<line x1="0" y1="135" x2="0" y2="0" stroke="#a84a1e" stroke-width="0.6"/>
<line x1="0" y1="0" x2="0" y2="135" stroke="#a84a1e" stroke-width="0.6"/>
<line x1="180" y1="0" x2="180" y2="135" stroke="#3e68a8" stroke-width="0.6"/>
<line x1="180" y1="135" x2="180" y2="0" stroke="#3e68a8" stroke-width="0.6"/>
<line x1="180" y1="135" x2="180" y2="160" stroke="#3e68a8" stroke-width="0.6"/>
<line x1="180" y1="160" x2="180" y2="135" stroke="#3e68a8" stroke-width="0.6"/>
<line x1="120" y1="0" x2="120" y2="135" stroke="#3e68a8" stroke-width="0.6"/>
<line x1="120" y1="135" x2="120" y2="0" stroke="#3e68a8" stroke-width="0.6"/>
<line x1="120" y1="135" x2="120" y2="160" stroke="#3e68a8" stroke-width="0.6"/>
<line x1="120" y1="160" x2="120" y2="135" stroke="#3e68a8" stroke-width="0.6"/>
<line x1="60" y1="0" x2="60" y2="135" stroke="#3e68a8" stroke-width="0.6"/>
<line x1="60" y1="135" x2="60" y2="0" stroke="#3e68a8" stroke-width="0.6"/>
<line x1="60" y1="135" x2="60" y2="160" stroke="#3e68a8" stroke-width="0.6"/>
<line x1="60" y1="160" x2="60" y2="135" stroke="#3e68a8" stroke-width="0.6"/>
<line x1="216.815" y1="135" x2="180" y2="135" stroke="#3e68a8" stroke-width="0.6"/>
<line x1="180" y1="135" x2="216.815" y2="135" stroke="#3e68a8" stroke-width="0.6"/>
<line x1="180" y1="135" x2="120" y2="135" stroke="#3e68a8" stroke-width="0.6"/>
<line x1="120" y1="135" x2="180" y2="135" stroke="#3e68a8" stroke-width="0.6"/>
<line x1="120" y1="135" x2="60" y2="135" stroke="#3e68a8" stroke-width="0.6"/>
<line x1="60" y1="135" x2="120" y2="135" stroke="#3e68a8" stroke-width="0.6"/>
<line x1="60" y1="135" x2="0" y2="135" stroke="#3e68a8" stroke-width="0.6"/>
<line x1="0" y1="135" x2="60" y2="135" stroke="#3e68a8" stroke-width="0.6"/>
<circle cx="0" cy="0" r="0.8" fill="#a84a1e"/>
<circle cx="200" cy="0" r="0.8" fill="#a84a1e"/>
<circle cx="206.080" cy="7.555" r="0.8" fill="#a84a1e"/>
<circle cx="211.539" cy="15.570" r="0.8" fill="#a84a1e"/>
<circle cx="216.343" cy="23.994" r="0.8" fill="#a84a1e"/>
<circle cx="220.460" cy="32.774" r="0.8" fill="#a84a1e"/>
<circle cx="223.865" cy="41.854" r="0.8" fill="#a84a1e"/>
<circle cx="226.536" cy="51.176" r="0.8" fill="#a84a1e"/>
<circle cx="228.457" cy="60.682" r="0.8" fill="#a84a1e"/>
<circle cx="229.614" cy="70.310" r="0.8" fill="#a84a1e"/>
<circle cx="230" cy="80" r="0.8" fill="#a84a1e"/>
<circle cx="229.614" cy="89.690" r="0.8" fill="#a84a1e"/>
<circle cx="228.457" cy="99.318" r="0.8" fill="#a84a1e"/>
<circle cx="226.536" cy="108.824" r="0.8" fill="#a84a1e"/>
<circle cx="223.865" cy="118.146" r="0.8" fill="#a84a1e"/>
<circle cx="220.460" cy="127.226" r="0.8" fill="#a84a1e"/>
<circle cx="216.343" cy="136.006" r="0.8" fill="#a84a1e"/>
<circle cx="211.539" cy="144.430" r="0.8" fill="#a84a1e"/>
<circle cx="206.080" cy="152.445" r="0.8" fill="#a84a1e"/>
<circle cx="200" cy="160" r="0.8" fill="#a84a1e"/>
<circle cx="0" cy="160" r="0.8" fill="#a84a1e"/>
<circle cx="180" cy="0" r="0.8" fill="#3e68a8"/>
<circle cx="180" cy="160" r="0.8" fill="#3e68a8"/>
<circle cx="120" cy="0" r="0.8" fill="#3e68a8"/>
<circle cx="120" cy="160" r="0.8" fill="#3e68a8"/>
<circle cx="60" cy="0" r="0.8" fill="#3e68a8"/>
<circle cx="60" cy="160" r="0.8" fill="#3e68a8"/>
<circle cx="216.815" cy="135" r="0.8" fill="#3e68a8"/>
<circle cx="0" cy="135" r="0.8" fill="#3e68a8"/>
<circle cx="180" cy="135" r="0.8" fill="#3e68a8"/>
<circle cx="120" cy="135" r="0.8" fill="#3e68a8"/>
<circle cx="60" cy="135" r="0.8" fill="#3e68a8"/>
</g>
</g>
</svg>
