<svg xmlns="http://www.w3.org/2000/svg" width="660" height="460" viewBox="-15 -15 330 230" preserveAspectRatio="xMidYMid meet">
<style>polygon,polyline,line,path{vector-effect:non-scaling-stroke}</style>
<defs><marker id="arrow-i" viewBox="0 0 10 10" refX="10" refY="5" markerWidth="6" markerHeight="6" orient="auto-start-reverse"><path d="M0 0L10 5L0 10z" fill="#3e68a8"/></marker><marker id="arrow-p" viewBox="0 0 10 10" refX="10" refY="5" markerWidth="6" markerHeight="6" orient="auto-start-reverse"><path d="M0 0L10 5L0 10z" fill="#a84a1e"/></marker></defs>
<g transform="translate(0,200) scale(1,-1)">
<g id="islands" fill="#9fbf8a" fill-rule="evenodd" stroke="none">
<path d="M0 35.500 L0 6 L0.029 5.412 L0.115 4.829 L0.258 4.258 L0.457 3.704 L0.708 3.172 L1.011 2.667 L1.362 2.194 L1.757 1.757 L2.194 1.362 L2.667 1.011 L3.172 0.708 L3.704 0.457 L4.258 0.258 L4.829 0.115 L5.412 0.029 L6 0 L35.500 0 L35.500 15.910 L16.057 15.910 L15.917 15.917 L15.910 16.057 L15.910 35.500 Z"/>
<path d="M0 194 L0 162.500 L15.910 162.500 L15.910 183.943 L15.917 184.083 L16.057 184.090 L35.500 184.090 L35.500 200 L6 200 L5.412 199.971 L4.829 199.885 L4.258 199.742 L3.704 199.543 L3.172 199.292 L2.667 198.989 L2.194 198.638 L1.757 198.243 L1.362 197.806 L1.011 197.333 L0.708 196.828 L0.457 196.296 L0.258 195.742 L0.115 195.171 L0.029 194.588 Z"/>
<path d="M261.500 15.910 L261.500 0 L294 0 L294.588 0.029 L295.171 0.115 L295.742 0.258 L296.296 0.457 L296.828 0.708 L297.333 1.011 L297.806 1.362 L298.243 1.757 L298.638 2.194 L298.989 2.667 L299.292 3.172 L299.543 3.704 L299.742 4.258 L299.885 4.829 L299.971 5.412 L300 6 L300 35.500 L284.090 35.500 L284.090 16.057 L284.083 15.917 L283.943 15.910 Z"/>
<path d="M261.500 200 L261.500 184.090 L283.943 184.090 L284.083 184.083 L284.090 183.943 L284.090 162.500 L300 162.500 L300 194 L299.971 194.588 L299.885 195.171 L299.742 195.742 L299.543 196.296 L299.292 196.828 L298.989 197.333 L298.638 197.806 L298.243 198.243 L297.806 198.638 L297.333 198.989 L296.828 199.292 L296.296 199.543 L295.742 199.742 L295.171 199.885 L294.588 199.971 L294 200 Z"/>
<path d="M67.820 82 L67.820 45.910 L67.849 45.322 L67.935 44.739 L68.078 44.168 L68.277 43.614 L68.528 43.082 L68.831 42.576 L69.182 42.104 L69.577 41.667 L70.013 41.272 L70.486 40.921 L70.991 40.618 L71.524 40.367 L72.078 40.168 L72.649 40.025 L73.232 39.939 L73.820 39.910 L93.640 39.910 L94.228 39.939 L94.810 40.025 L95.381 40.168 L95.936 40.367 L96.468 40.618 L96.973 40.921 L97.446 41.272 L97.882 41.667 L98.278 42.104 L98.628 42.576 L98.931 43.082 L99.183 43.614 L99.381 44.168 L99.524 44.739 L99.611 45.322 L99.640 45.910 L99.640 82 L99.611 82.588 L99.524 83.171 L99.381 83.742 L99.183 84.296 L98.931 84.828 L98.628 85.333 L98.278 85.806 L97.882 86.243 L97.446 86.638 L96.973 86.989 L96.468 87.292 L95.936 87.543 L95.381 87.742 L94.810 87.885 L94.228 87.971 L93.640 88 L73.820 88 L73.232 87.971 L72.649 87.885 L72.078 87.742 L71.524 87.543 L70.991 87.292 L70.486 86.989 L70.013 86.638 L69.577 86.243 L69.182 85.806 L68.831 85.333 L68.528 84.828 L68.277 84.296 L68.078 83.742 L67.935 83.171 L67.849 82.588 Z"/>
<path d="M67.820 154.090 L67.820 118 L67.849 117.412 L67.935 116.829 L68.078 116.258 L68.277 115.704 L68.528 115.172 L68.831 114.667 L69.182 114.194 L69.577 113.757 L70.013 113.362 L70.486 113.011 L70.991 112.708 L71.524 112.457 L72.078 112.258 L72.649 112.115 L73.232 112.029 L73.820 112 L93.640 112 L94.228 112.029 L94.810 112.115 L95.381 112.258 L95.936 112.457 L96.468 112.708 L96.973 113.011 L97.446 113.362 L97.882 113.757 L98.278 114.194 L98.628 114.667 L98.931 115.172 L99.183 115.704 L99.381 116.258 L99.524 116.829 L99.611 117.412 L99.640 118 L99.640 154.090 L99.611 154.678 L99.524 155.261 L99.381 155.832 L99.183 156.386 L98.931 156.918 L98.628 157.424 L98.278 157.896 L97.882 158.333 L97.446 158.728 L96.973 159.079 L96.468 159.382 L95.936 159.633 L95.381 159.832 L94.810 159.975 L94.228 160.061 L93.640 160.090 L73.820 160.090 L73.232 160.061 L72.649 159.975 L72.078 159.832 L71.524 159.633 L70.991 159.382 L70.486 159.079 L70.013 158.728 L69.577 158.333 L69.182 157.896 L68.831 157.424 L68.528 156.918 L68.277 156.386 L68.078 155.832 L67.935 155.261 L67.849 154.678 Z"/>
<path d="M123.640 82 L123.640 45.910 L123.669 45.322 L123.755 44.739 L123.898 44.168 L124.096 43.614 L124.348 43.082 L124.651 42.576 L125.002 42.104 L125.397 41.667 L125.833 41.272 L126.306 40.921 L126.811 40.618 L127.344 40.367 L127.898 40.168 L128.469 40.025 L129.052 39.939 L129.640 39.910 L149.459 39.910 L150.048 39.939 L150.630 40.025 L151.201 40.168 L151.756 40.367 L152.288 40.618 L152.793 40.921 L153.266 41.272 L153.702 41.667 L154.097 42.104 L154.448 42.576 L154.751 43.082 L155.003 43.614 L155.201 44.168 L155.344 44.739 L155.431 45.322 L155.459 45.910 L155.459 47.023 L135.660 66.822 L142.024 73.186 L135.660 79.550 L142.731 86.621 L155.459 73.893 L155.459 97.934 L135.660 117.733 L142.024 124.097 L135.660 130.461 L142.731 137.532 L155.459 124.804 L155.459 154.090 L155.431 154.678 L155.344 155.261 L155.201 155.832 L155.003 156.386 L154.751 156.918 L154.448 157.424 L154.097 157.896 L153.702 158.333 L153.266 158.728 L152.793 159.079 L152.288 159.382 L151.756 159.633 L151.201 159.832 L150.630 159.975 L150.048 160.061 L149.459 160.090 L129.640 160.090 L129.052 160.061 L128.469 159.975 L127.898 159.832 L127.344 159.633 L126.811 159.382 L126.306 159.079 L125.833 158.728 L125.397 158.333 L125.002 157.896 L124.651 157.424 L124.348 156.918 L124.096 156.386 L123.898 155.832 L123.755 155.261 L123.669 154.678 L123.640 154.090 L123.640 118 L123.669 117.412 L123.755 116.829 L123.898 116.258 L124.096 115.704 L124.348 115.172 L124.651 114.667 L125.002 114.194 L125.397 113.757 L125.833 113.362 L126.306 113.011 L126.811 112.708 L127.344 112.457 L127.898 112.258 L128.469 112.115 L129.052 112.029 L129.640 112 L129.853 112 L130.147 111.986 L132.195 111.784 L132.340 111.762 L132.482 111.727 L134.451 111.129 L134.589 111.080 L134.722 111.017 L136.537 110.047 L136.663 109.972 L136.781 109.884 L138.371 108.579 L138.480 108.480 L138.579 108.371 L139.884 106.781 L139.972 106.663 L140.047 106.537 L141.017 104.722 L141.080 104.589 L141.129 104.451 L141.727 102.482 L141.762 102.340 L141.784 102.195 L141.986 100.147 L141.993 100 L141.986 99.853 L141.784 97.805 L141.762 97.660 L141.727 97.518 L141.129 95.549 L141.080 95.411 L141.017 95.278 L140.047 93.463 L139.972 93.337 L139.884 93.219 L138.579 91.629 L138.480 91.520 L138.371 91.421 L136.781 90.116 L136.663 90.028 L136.537 89.953 L134.722 88.983 L134.589 88.920 L134.451 88.871 L132.482 88.273 L132.340 88.238 L132.195 88.216 L130.147 88.014 L129.853 88 L129.640 88 L129.052 87.971 L128.469 87.885 L127.898 87.742 L127.344 87.543 L126.811 87.292 L126.306 86.989 L125.833 86.638 L125.397 86.243 L125.002 85.806 L124.651 85.333 L124.348 84.828 L124.096 84.296 L123.898 83.742 L123.755 83.171 L123.669 82.588 Z"/>
<path d="M179.459 78.842 L179.459 45.910 L179.488 45.322 L179.575 44.739 L179.718 44.168 L179.916 43.614 L180.168 43.082 L180.471 42.576 L180.821 42.104 L181.217 41.667 L181.653 41.272 L182.126 40.921 L182.631 40.618 L183.163 40.367 L183.718 40.168 L184.289 40.025 L184.871 39.939 L185.459 39.910 L205.279 39.910 L205.867 39.939 L206.450 40.025 L207.021 40.168 L207.575 40.367 L208.108 40.618 L208.613 40.921 L209.086 41.272 L209.522 41.667 L209.917 42.104 L210.268 42.576 L210.571 43.082 L210.822 43.614 L211.021 44.168 L211.164 44.739 L211.250 45.322 L211.279 45.910 L211.279 47.023 L191.480 66.822 Z"/>
<path d="M179.916 156.386 L179.858 156.225 L199.258 136.825 L199.258 136.825 L211.279 124.804 L211.279 154.090 L211.250 154.678 L211.164 155.261 L211.021 155.832 L210.822 156.386 L210.571 156.918 L210.268 157.424 L209.917 157.896 L209.522 158.333 L209.086 158.728 L208.613 159.079 L208.108 159.382 L207.575 159.633 L207.021 159.832 L206.450 159.975 L205.867 160.061 L205.279 160.090 L185.459 160.090 L184.871 160.061 L184.289 159.975 L183.718 159.832 L183.163 159.633 L182.631 159.382 L182.126 159.079 L181.653 158.728 L181.217 158.333 L180.821 157.896 L180.471 157.424 L180.168 156.918 Z"/>
<path d="M235.279 78.842 L235.279 45.910 L235.308 45.322 L235.395 44.739 L235.538 44.168 L235.736 43.614 L235.988 43.082 L236.290 42.576 L236.641 42.104 L237.037 41.667 L237.473 41.272 L237.946 40.921 L238.451 40.618 L238.983 40.367 L239.538 40.168 L240.109 40.025 L240.691 39.939 L241.279 39.910 L254.090 39.910 L254.678 39.939 L255.261 40.025 L255.832 40.168 L256.386 40.367 L256.918 40.618 L257.424 40.921 L257.896 41.272 L258.333 41.667 L258.728 42.104 L259.079 42.576 L259.382 43.082 L259.633 43.614 L259.832 44.168 L259.975 44.739 L260.061 45.322 L260.090 45.910 L260.090 154.090 L260.061 154.678 L259.975 155.261 L259.832 155.832 L259.633 156.386 L259.382 156.918 L259.079 157.424 L258.728 157.896 L258.333 158.333 L257.896 158.728 L257.424 159.079 L256.918 159.382 L256.386 159.633 L255.832 159.832 L255.261 159.975 L254.678 160.061 L254.090 160.090 L241.279 160.090 L240.691 160.061 L240.109 159.975 L239.538 159.832 L238.983 159.633 L238.451 159.382 L237.946 159.079 L237.473 158.728 L237.037 158.333 L236.641 157.896 L236.290 157.424 L235.988 156.918 L235.736 156.386 L235.678 156.225 L255.078 136.825 L248.714 130.461 L255.078 124.097 L248.714 117.733 L255.078 111.369 L248.714 105.005 L255.078 98.641 L248.714 92.277 L255.078 85.913 L248.714 79.550 L255.078 73.186 L248.007 66.114 Z"/>
</g>
<g id="stalls" stroke="none">
</g>
<g id="paint" fill="none" stroke="#2a2a2a" stroke-width="0.4" stroke-linecap="round" stroke-linejoin="round">
<polyline points="261,184.090 261,200 252,200 252,184.090"/>
<polyline points="243,200 243,184.090 252,184.090 252,200"/>
<polyline points="243,184.090 243,200 234,200 234,184.090"/>
<polyline points="234,184.090 234,200 225,200 225,184.090"/>
<polyline points="225,184.090 225,200 216,200 216,184.090"/>
<polyline points="216,184.090 216,200 207,200 207,184.090"/>
<polyline points="207,184.090 207,200 198,200 198,184.090"/>
<polyline points="198,184.090 198,200 189,200 189,184.090"/>
<polyline points="189,184.090 189,200 180,200 180,184.090"/>
<polyline points="171,200 171,184.090 180,184.090 180,200"/>
<polyline points="171,184.090 171,200 162,200 162,184.090"/>
<polyline points="162,184.090 162,200 153,200 153,184.090"/>
<polyline points="153,184.090 153,200 144,200 144,184.090"/>
<polyline points="144,184.090 144,200 135,200 135,184.090"/>
<polyline points="135,184.090 135,200 126,200 126,184.090"/>
<polyline points="126,184.090 126,200 117,200 117,184.090"/>
<polyline points="117,184.090 117,200 108,200 108,184.090"/>
<polyline points="99,200 99,184.090 108,184.090 108,200"/>
<polyline points="99,184.090 99,200 90,200 90,184.090"/>
<polyline points="90,184.090 90,200 81,200 81,184.090"/>
<polyline points="81,184.090 81,200 72,200 72,184.090"/>
<polyline points="72,184.090 72,200 63,200 63,184.090"/>
<polyline points="63,184.090 63,200 54,200 54,184.090"/>
<polyline points="54,184.090 54,200 45,200 45,184.090"/>
<polyline points="45,184.090 45,200 36,200 36,184.090"/>
<polyline points="45,0 45,15.910 36,15.910 36,0"/>
<polyline points="45,15.910 45,0 54,0 54,15.910"/>
<polyline points="54,15.910 54,0 63,0 63,15.910"/>
<polyline points="63,15.910 63,0 72,0 72,15.910"/>
<polyline points="72,15.910 72,0 81,0 81,15.910"/>
<polyline points="81,15.910 81,0 90,0 90,15.910"/>
<polyline points="90,15.910 90,0 99,0 99,15.910"/>
<polyline points="99,15.910 99,0 108,0 108,15.910"/>
<polyline points="117,0 117,15.910 108,15.910 108,0"/>
<polyline points="117,15.910 117,0 126,0 126,15.910"/>
<polyline points="126,15.910 126,0 135,0 135,15.910"/>
<polyline points="135,15.910 135,0 144,0 144,15.910"/>
<polyline points="144,15.910 144,0 153,0 153,15.910"/>
<polyline points="153,15.910 153,0 162,0 162,15.910"/>
<polyline points="162,15.910 162,0 171,0 171,15.910"/>
<polyline points="171,15.910 171,0 180,0 180,15.910"/>
<polyline points="189,0 189,15.910 180,15.910 180,0"/>
<polyline points="189,15.910 189,0 198,0 198,15.910"/>
<polyline points="198,15.910 198,0 207,0 207,15.910"/>
<polyline points="207,15.910 207,0 216,0 216,15.910"/>
<polyline points="216,15.910 216,0 225,0 225,15.910"/>
<polyline points="225,15.910 225,0 234,0 234,15.910"/>
<polyline points="234,15.910 234,0 243,0 243,15.910"/>
<polyline points="243,15.910 243,0 252,0 252,15.910"/>
<polyline points="261,0 261,15.910 252,15.910 252,0"/>
<polyline points="15.910,162 0,162 0,153 15.910,153"/>
<polyline points="15.910,153 0,153 0,144 15.910,144"/>
<polyline points="15.910,144 0,144 0,135 15.910,135"/>
<polyline points="15.910,135 0,135 0,126 15.910,126"/>
<polyline points="15.910,126 0,126 0,117 15.910,117"/>
<polyline points="15.910,117 0,117 0,108 15.910,108"/>
<polyline points="0,99 15.910,99 15.910,108 0,108"/>
<polyline points="15.910,99 0,99 0,90 15.910,90"/>
<polyline points="15.910,90 0,90 0,81 15.910,81"/>
<polyline points="15.910,81 0,81 0,72 15.910,72"/>
<polyline points="15.910,72 0,72 0,63 15.910,63"/>
<polyline points="15.910,63 0,63 0,54 15.910,54"/>
<polyline points="15.910,54 0,54 0,45 15.910,45"/>
<polyline points="15.910,45 0,45 0,36 15.910,36"/>
<polyline points="300,45 284.090,45 284.090,36 300,36"/>
<polyline points="284.090,45 300,45 300,54 284.090,54"/>
<polyline points="284.090,54 300,54 300,63 284.090,63"/>
<polyline points="284.090,63 300,63 300,72 284.090,72"/>
<polyline points="284.090,72 300,72 300,81 284.090,81"/>
<polyline points="284.090,81 300,81 300,90 284.090,90"/>
<polyline points="284.090,90 300,90 300,99 284.090,99"/>
<polyline points="284.090,99 300,99 300,108 284.090,108"/>
<polyline points="300,117 284.090,117 284.090,108 300,108"/>
<polyline points="284.090,117 300,117 300,126 284.090,126"/>
<polyline points="284.090,126 300,126 300,135 284.090,135"/>
<polyline points="284.090,135 300,135 300,144 284.090,144"/>
<polyline points="284.090,144 300,144 300,153 284.090,153"/>
<polyline points="284.090,153 300,153 300,162 284.090,162"/>
<polyline points="155.459,124.097 142.731,136.825 136.368,130.461 155.459,111.369"/>
<polyline points="155.459,111.369 142.731,124.097 136.368,117.733 155.459,98.641"/>
<polyline points="155.459,73.186 142.731,85.913 136.368,79.550 155.459,60.458"/>
<polyline points="155.459,60.458 142.731,73.186 136.368,66.822 155.459,47.730"/>
<polyline points="179.459,79.550 192.187,66.822 198.551,73.186 179.459,92.277"/>
<polyline points="179.459,92.277 192.187,79.550 198.551,85.913 179.459,105.005"/>
<polyline points="179.459,105.005 192.187,92.277 198.551,98.641 179.459,117.733"/>
<polyline points="179.459,117.733 192.187,105.005 198.551,111.369 179.459,130.461"/>
<polyline points="179.459,130.461 192.187,117.733 198.551,124.097 179.459,143.189"/>
<polyline points="179.459,143.189 192.187,130.461 198.551,136.825 179.459,155.917"/>
<polyline points="211.279,124.097 198.551,136.825 192.187,130.461 211.279,111.369"/>
<polyline points="211.279,111.369 198.551,124.097 192.187,117.733 211.279,98.641"/>
<polyline points="211.279,98.641 198.551,111.369 192.187,105.005 211.279,85.913"/>
<polyline points="211.279,85.913 198.551,98.641 192.187,92.277 211.279,73.186"/>
<polyline points="211.279,73.186 198.551,85.913 192.187,79.550 211.279,60.458"/>
<polyline points="211.279,60.458 198.551,73.186 192.187,66.822 211.279,47.730"/>
<polyline points="235.279,79.550 248.007,66.822 254.371,73.186 235.279,92.277"/>
<polyline points="235.279,92.277 248.007,79.550 254.371,85.913 235.279,105.005"/>
<polyline points="235.279,105.005 248.007,92.277 254.371,98.641 235.279,117.733"/>
<polyline points="235.279,117.733 248.007,105.005 254.371,111.369 235.279,130.461"/>
<polyline points="235.279,130.461 248.007,117.733 254.371,124.097 235.279,143.189"/>
<polyline points="235.279,143.189 248.007,130.461 254.371,136.825 235.279,155.917"/>
<line x1="246.669" y1="200" x2="243" y2="196.331"/>
<line x1="250.912" y1="200" x2="243" y2="192.088"/>
<line x1="252" y1="196.846" x2="243" y2="187.846"/>
<line x1="252" y1="192.603" x2="243.487" y2="184.090"/>
<line x1="252" y1="188.360" x2="247.730" y2="184.090"/>
<line x1="252" y1="184.118" x2="251.972" y2="184.090"/>
<line x1="174.544" y1="200" x2="171" y2="196.456"/>
<line x1="178.787" y1="200" x2="171" y2="192.213"/>
<line x1="180" y1="196.971" x2="171" y2="187.971"/>
<line x1="180" y1="192.728" x2="171.362" y2="184.090"/>
<line x1="180" y1="188.485" x2="175.605" y2="184.090"/>
<line x1="180" y1="184.243" x2="179.847" y2="184.090"/>
<line x1="102.419" y1="200" x2="99" y2="196.581"/>
<line x1="106.662" y1="200" x2="99" y2="192.338"/>
<line x1="108" y1="197.095" x2="99" y2="188.095"/>
<line x1="108" y1="192.853" x2="99.237" y2="184.090"/>
<line x1="108" y1="188.610" x2="103.480" y2="184.090"/>
<line x1="108" y1="184.368" x2="107.723" y2="184.090"/>
<line x1="42.426" y1="0" x2="45" y2="2.574"/>
<line x1="38.184" y1="0" x2="45" y2="6.816"/>
<line x1="36" y1="2.059" x2="45" y2="11.059"/>
<line x1="36" y1="6.302" x2="45" y2="15.302"/>
<line x1="36" y1="10.544" x2="41.366" y2="15.910"/>
<line x1="36" y1="14.787" x2="37.123" y2="15.910"/>
<line x1="114.551" y1="0" x2="117" y2="2.449"/>
<line x1="110.309" y1="0" x2="117" y2="6.691"/>
<line x1="108" y1="1.934" x2="117" y2="10.934"/>
<line x1="108" y1="6.177" x2="117" y2="15.177"/>
<line x1="108" y1="10.419" x2="113.491" y2="15.910"/>
<line x1="108" y1="14.662" x2="109.248" y2="15.910"/>
<line x1="186.676" y1="0" x2="189" y2="2.324"/>
<line x1="182.434" y1="0" x2="189" y2="6.566"/>
<line x1="180" y1="1.809" x2="189" y2="10.809"/>
<line x1="180" y1="6.052" x2="189" y2="15.052"/>
<line x1="180" y1="10.294" x2="185.616" y2="15.910"/>
<line x1="180" y1="14.537" x2="181.373" y2="15.910"/>
<line x1="258.801" y1="0" x2="261" y2="2.199"/>
<line x1="254.558" y1="0" x2="261" y2="6.442"/>
<line x1="252" y1="1.684" x2="261" y2="10.684"/>
<line x1="252" y1="5.927" x2="261" y2="14.927"/>
<line x1="252" y1="10.169" x2="257.740" y2="15.910"/>
<line x1="252" y1="14.412" x2="253.498" y2="15.910"/>
<line x1="0" y1="101.823" x2="2.823" y2="99"/>
<line x1="0" y1="106.066" x2="7.066" y2="99"/>
<line x1="2.309" y1="108" x2="11.309" y2="99"/>
<line x1="6.551" y1="108" x2="15.551" y2="99"/>
<line x1="10.794" y1="108" x2="15.910" y2="102.884"/>
<line x1="15.037" y1="108" x2="15.910" y2="107.127"/>
<line x1="300" y1="43.654" x2="298.654" y2="45"/>
<line x1="300" y1="39.411" x2="294.411" y2="45"/>
<line x1="299.169" y1="36" x2="290.169" y2="45"/>
<line x1="294.926" y1="36" x2="285.926" y2="45"/>
<line x1="290.683" y1="36" x2="284.090" y2="42.593"/>
<line x1="286.441" y1="36" x2="284.090" y2="38.351"/>
<line x1="300" y1="115.779" x2="298.779" y2="117"/>
<line x1="300" y1="111.536" x2="294.536" y2="117"/>
<line x1="299.294" y1="108" x2="290.294" y2="117"/>
<line x1="295.051" y1="108" x2="286.051" y2="117"/>
<line x1="290.808" y1="108" x2="284.090" y2="114.718"/>
<line x1="286.566" y1="108" x2="284.090" y2="110.475"/>
<path d="M0 35.500 L0 6 L0.029 5.412 L0.115 4.829 L0.258 4.258 L0.457 3.704 L0.708 3.172 L1.011 2.667 L1.362 2.194 L1.757 1.757 L2.194 1.362 L2.667 1.011 L3.172 0.708 L3.704 0.457 L4.258 0.258 L4.829 0.115 L5.412 0.029 L6 0 L35.500 0 L35.500 15.910 L16.057 15.910 L15.917 15.917 L15.910 16.057 L15.910 35.500 Z"/>
<path d="M0 194 L0 162.500 L15.910 162.500 L15.910 183.943 L15.917 184.083 L16.057 184.090 L35.500 184.090 L35.500 200 L6 200 L5.412 199.971 L4.829 199.885 L4.258 199.742 L3.704 199.543 L3.172 199.292 L2.667 198.989 L2.194 198.638 L1.757 198.243 L1.362 197.806 L1.011 197.333 L0.708 196.828 L0.457 196.296 L0.258 195.742 L0.115 195.171 L0.029 194.588 Z"/>
<path d="M261.500 15.910 L261.500 0 L294 0 L294.588 0.029 L295.171 0.115 L295.742 0.258 L296.296 0.457 L296.828 0.708 L297.333 1.011 L297.806 1.362 L298.243 1.757 L298.638 2.194 L298.989 2.667 L299.292 3.172 L299.543 3.704 L299.742 4.258 L299.885 4.829 L299.971 5.412 L300 6 L300 35.500 L284.090 35.500 L284.090 16.057 L284.083 15.917 L283.943 15.910 Z"/>
<path d="M261.500 200 L261.500 184.090 L283.943 184.090 L284.083 184.083 L284.090 183.943 L284.090 162.500 L300 162.500 L300 194 L299.971 194.588 L299.885 195.171 L299.742 195.742 L299.543 196.296 L299.292 196.828 L298.989 197.333 L298.638 197.806 L298.243 198.243 L297.806 198.638 L297.333 198.989 L296.828 199.292 L296.296 199.543 L295.742 199.742 L295.171 199.885 L294.588 199.971 L294 200 Z"/>
<path d="M67.820 82 L67.820 45.910 L67.849 45.322 L67.935 44.739 L68.078 44.168 L68.277 43.614 L68.528 43.082 L68.831 42.576 L69.182 42.104 L69.577 41.667 L70.013 41.272 L70.486 40.921 L70.991 40.618 L71.524 40.367 L72.078 40.168 L72.649 40.025 L73.232 39.939 L73.820 39.910 L93.640 39.910 L94.228 39.939 L94.810 40.025 L95.381 40.168 L95.936 40.367 L96.468 40.618 L96.973 40.921 L97.446 41.272 L97.882 41.667 L98.278 42.104 L98.628 42.576 L98.931 43.082 L99.183 43.614 L99.381 44.168 L99.524 44.739 L99.611 45.322 L99.640 45.910 L99.640 82 L99.611 82.588 L99.524 83.171 L99.381 83.742 L99.183 84.296 L98.931 84.828 L98.628 85.333 L98.278 85.806 L97.882 86.243 L97.446 86.638 L96.973 86.989 L96.468 87.292 L95.936 87.543 L95.381 87.742 L94.810 87.885 L94.228 87.971 L93.640 88 L73.820 88 L73.232 87.971 L72.649 87.885 L72.078 87.742 L71.524 87.543 L70.991 87.292 L70.486 86.989 L70.013 86.638 L69.577 86.243 L69.182 85.806 L68.831 85.333 L68.528 84.828 L68.277 84.296 L68.078 83.742 L67.935 83.171 L67.849 82.588 Z"/>
<path d="M67.820 154.090 L67.820 118 L67.849 117.412 L67.935 116.829 L68.078 116.258 L68.277 115.704 L68.528 115.172 L68.831 114.667 L69.182 114.194 L69.577 113.757 L70.013 113.362 L70.486 113.011 L70.991 112.708 L71.524 112.457 L72.078 112.258 L72.649 112.115 L73.232 112.029 L73.820 112 L93.640 112 L94.228 112.029 L94.810 112.115 L95.381 112.258 L95.936 112.457 L96.468 112.708 L96.973 113.011 L97.446 113.362 L97.882 113.757 L98.278 114.194 L98.628 114.667 L98.931 115.172 L99.183 115.704 L99.381 116.258 L99.524 116.829 L99.611 117.412 L99.640 118 L99.640 154.090 L99.611 154.678 L99.524 155.261 L99.381 155.832 L99.183 156.386 L98.931 156.918 L98.628 157.424 L98.278 157.896 L97.882 158.333 L97.446 158.728 L96.973 159.079 L96.468 159.382 L95.936 159.633 L95.381 159.832 L94.810 159.975 L94.228 160.061 L93.640 160.090 L73.820 160.090 L73.232 160.061 L72.649 159.975 L72.078 159.832 L71.524 159.633 L70.991 159.382 L70.486 159.079 L70.013 158.728 L69.577 158.333 L69.182 157.896 L68.831 157.424 L68.528 156.918 L68.277 156.386 L68.078 155.832 L67.935 155.261 L67.849 154.678 Z"/>
<path d="M123.640 82 L123.640 45.910 L123.669 45.322 L123.755 44.739 L123.898 44.168 L124.096 43.614 L124.348 43.082 L124.651 42.576 L125.002 42.104 L125.397 41.667 L125.833 41.272 L126.306 40.921 L126.811 40.618 L127.344 40.367 L127.898 40.168 L128.469 40.025 L129.052 39.939 L129.640 39.910 L149.459 39.910 L150.048 39.939 L150.630 40.025 L151.201 40.168 L151.756 40.367 L152.288 40.618 L152.793 40.921 L153.266 41.272 L153.702 41.667 L154.097 42.104 L154.448 42.576 L154.751 43.082 L155.003 43.614 L155.201 44.168 L155.344 44.739 L155.431 45.322 L155.459 45.910 L155.459 47.023 L135.660 66.822 L142.024 73.186 L135.660 79.550 L142.731 86.621 L155.459 73.893 L155.459 97.934 L135.660 117.733 L142.024 124.097 L135.660 130.461 L142.731 137.532 L155.459 124.804 L155.459 154.090 L155.431 154.678 L155.344 155.261 L155.201 155.832 L155.003 156.386 L154.751 156.918 L154.448 157.424 L154.097 157.896 L153.702 158.333 L153.266 158.728 L152.793 159.079 L152.288 159.382 L151.756 159.633 L151.201 159.832 L150.630 159.975 L150.048 160.061 L149.459 160.090 L129.640 160.090 L129.052 160.061 L128.469 159.975 L127.898 159.832 L127.344 159.633 L126.811 159.382 L126.306 159.079 L125.833 158.728 L125.397 158.333 L125.002 157.896 L124.651 157.424 L124.348 156.918 L124.096 156.386 L123.898 155.832 L123.755 155.261 L123.669 154.678 L123.640 154.090 L123.640 118 L123.669 117.412 L123.755 116.829 L123.898 116.258 L124.096 115.704 L124.348 115.172 L124.651 114.667 L125.002 114.194 L125.397 113.757 L125.833 113.362 L126.306 113.011 L126.811 112.708 L127.344 112.457 L127.898 112.258 L128.469 112.115 L129.052 112.029 L129.640 112 L129.853 112 L130.147 111.986 L132.195 111.784 L132.340 111.762 L132.482 111.727 L134.451 111.129 L134.589 111.080 L134.722 111.017 L136.537 110.047 L136.663 109.972 L136.781 109.884 L138.371 108.579 L138.480 108.480 L138.579 108.371 L139.884 106.781 L139.972 106.663 L140.047 106.537 L141.017 104.722 L141.080 104.589 L141.129 104.451 L141.727 102.482 L141.762 102.340 L141.784 102.195 L141.986 100.147 L141.993 100 L141.986 99.853 L141.784 97.805 L141.762 97.660 L141.727 97.518 L141.129 95.549 L141.080 95.411 L141.017 95.278 L140.047 93.463 L139.972 93.337 L139.884 93.219 L138.579 91.629 L138.480 91.520 L138.371 91.421 L136.781 90.116 L136.663 90.028 L136.537 89.953 L134.722 88.983 L134.589 88.920 L134.451 88.871 L132.482 88.273 L132.340 88.238 L132.195 88.216 L130.147 88.014 L129.853 88 L129.640 88 L129.052 87.971 L128.469 87.885 L127.898 87.742 L127.344 87.543 L126.811 87.292 L126.306 86.989 L125.833 86.638 L125.397 86.243 L125.002 85.806 L124.651 85.333 L124.348 84.828 L124.096 84.296 L123.898 83.742 L123.755 83.171 L123.669 82.588 Z"/>
<path d="M179.459 78.842 L179.459 45.910 L179.488 45.322 L179.575 44.739 L179.718 44.168 L179.916 43.614 L180.168 43.082 L180.471 42.576 L180.821 42.104 L181.217 41.667 L181.653 41.272 L182.126 40.921 L182.631 40.618 L183.163 40.367 L183.718 40.168 L184.289 40.025 L184.871 39.939 L185.459 39.910 L205.279 39.910 L205.867 39.939 L206.450 40.025 L207.021 40.168 L207.575 40.367 L208.108 40.618 L208.613 40.921 L209.086 41.272 L209.522 41.667 L209.917 42.104 L210.268 42.576 L210.571 43.082 L210.822 43.614 L211.021 44.168 L211.164 44.739 L211.250 45.322 L211.279 45.910 L211.279 47.023 L191.480 66.822 Z"/>
<path d="M179.916 156.386 L179.858 156.225 L199.258 136.825 L199.258 136.825 L211.279 124.804 L211.279 154.090 L211.250 154.678 L211.164 155.261 L211.021 155.832 L210.822 156.386 L210.571 156.918 L210.268 157.424 L209.917 157.896 L209.522 158.333 L209.086 158.728 L208.613 159.079 L208.108 159.382 L207.575 159.633 L207.021 159.832 L206.450 159.975 L205.867 160.061 L205.279 160.090 L185.459 160.090 L184.871 160.061 L184.289 159.975 L183.718 159.832 L183.163 159.633 L182.631 159.382 L182.126 159.079 L181.653 158.728 L181.217 158.333 L180.821 157.896 L180.471 157.424 L180.168 156.918 Z"/>
<path d="M235.279 78.842 L235.279 45.910 L235.308 45.322 L235.395 44.739 L235.538 44.168 L235.736 43.614 L235.988 43.082 L236.290 42.576 L236.641 42.104 L237.037 41.667 L237.473 41.272 L237.946 40.921 L238.451 40.618 L238.983 40.367 L239.538 40.168 L240.109 40.025 L240.691 39.939 L241.279 39.910 L254.090 39.910 L254.678 39.939 L255.261 40.025 L255.832 40.168 L256.386 40.367 L256.918 40.618 L257.424 40.921 L257.896 41.272 L258.333 41.667 L258.728 42.104 L259.079 42.576 L259.382 43.082 L259.633 43.614 L259.832 44.168 L259.975 44.739 L260.061 45.322 L260.090 45.910 L260.090 154.090 L260.061 154.678 L259.975 155.261 L259.832 155.832 L259.633 156.386 L259.382 156.918 L259.079 157.424 L258.728 157.896 L258.333 158.333 L257.896 158.728 L257.424 159.079 L256.918 159.382 L256.386 159.633 L255.832 159.832 L255.261 159.975 L254.678 160.061 L254.090 160.090 L241.279 160.090 L240.691 160.061 L240.109 159.975 L239.538 159.832 L238.983 159.633 L238.451 159.382 L237.946 159.079 L237.473 158.728 L237.037 158.333 L236.641 157.896 L236.290 157.424 L235.988 156.918 L235.736 156.386 L235.678 156.225 L255.078 136.825 L248.714 130.461 L255.078 124.097 L248.714 117.733 L255.078 111.369 L248.714 105.005 L255.078 98.641 L248.714 92.277 L255.078 85.913 L248.714 79.550 L255.078 73.186 L248.007 66.114 Z"/>
</g>
<g id="graph">
<line x1="27.910" y1="172.090" x2="27.910" y2="27.910" stroke="#a84a1e" stroke-width="0.6" stroke-dasharray="8 5"/>
<line x1="27.910" y1="27.910" x2="55.820" y2="27.910" stroke="#a84a1e" stroke-width="0.6" stroke-dasharray="8 5"/>
<line x1="55.820" y1="27.910" x2="111.640" y2="27.910" stroke="#a84a1e" stroke-width="0.6" stroke-dasharray="8 5"/>
<line x1="111.640" y1="27.910" x2="167.459" y2="27.910" stroke="#a84a1e" stroke-width="0.6" stroke-dasharray="8 5"/>
<line x1="167.459" y1="27.910" x2="223.279" y2="27.910" stroke="#a84a1e" stroke-width="0.6" stroke-dasharray="8 5"/>
<line x1="223.279" y1="27.910" x2="272.090" y2="27.910" stroke="#a84a1e" stroke-width="0.6" stroke-dasharray="8 5"/>
<line x1="272.090" y1="27.910" x2="272.090" y2="172.090" stroke="#a84a1e" stroke-width="0.6" stroke-dasharray="8 5"/>
<line x1="272.090" y1="172.090" x2="223.279" y2="172.090" stroke="#a84a1e" stroke-width="0.6" stroke-dasharray="8 5"/>
<line x1="223.279" y1="172.090" x2="167.459" y2="172.090" stroke="#a84a1e" stroke-width="0.6" stroke-dasharray="8 5"/>
<line x1="167.459" y1="172.090" x2="111.640" y2="172.090" stroke="#a84a1e" stroke-width="0.6" stroke-dasharray="8 5"/>
<line x1="111.640" y1="172.090" x2="55.820" y2="172.090" stroke="#a84a1e" stroke-width="0.6" stroke-dasharray="8 5"/>
<line x1="55.820" y1="172.090" x2="27.910" y2="172.090" stroke="#a84a1e" stroke-width="0.6" stroke-dasharray="8 5"/>
<line x1="223.279" y1="27.910" x2="223.279" y2="172.090" stroke="#3e68a8" stroke-width="0.6" stroke-dasharray="8 5"/>
<line x1="167.459" y1="27.910" x2="167.459" y2="172.090" stroke="#3e68a8" stroke-width="0.6" stroke-dasharray="8 5"/>
<line x1="111.640" y1="27.910" x2="111.640" y2="100" stroke="#3e68a8" stroke-width="0.6" stroke-dasharray="8 5"/>
<line x1="55.820" y1="27.910" x2="55.820" y2="100" stroke="#3e68a8" stroke-width="0.6" stroke-dasharray="8 5"/>
<line x1="55.820" y1="100" x2="55.820" y2="172.090" stroke="#3e68a8" stroke-width="0.6" stroke-dasharray="8 5"/>
<line x1="111.640" y1="100" x2="111.640" y2="172.090" stroke="#3e68a8" stroke-width="0.6" stroke-dasharray="8 5"/>
<line x1="50" y1="100" x2="55.820" y2="100" stroke="#3e68a8" stroke-width="0.6" stroke-dasharray="8 5"/>
<line x1="55.820" y1="100" x2="111.640" y2="100" stroke="#3e68a8" stroke-width="0.6" stroke-dasharray="8 5"/>
<line x1="111.640" y1="100" x2="130" y2="100" stroke="#3e68a8" stroke-width="0.6" stroke-dasharray="8 5"/>
<circle cx="27.910" cy="172.090" r="0.8" fill="#a84a1e"/>
<circle cx="27.910" cy="27.910" r="0.8" fill="#a84a1e"/>
<circle cx="272.090" cy="27.910" r="0.8" fill="#a84a1e"/>
<circle cx="272.090" cy="172.090" r="0.8" fill="#a84a1e"/>
<circle cx="223.279" cy="27.910" r="0.8" fill="#3e68a8"/>
<circle cx="223.279" cy="172.090" r="0.8" fill="#3e68a8"/>
<circle cx="167.459" cy="27.910" r="0.8" fill="#3e68a8"/>
<circle cx="167.459" cy="172.090" r="0.8" fill="#3e68a8"/>
<circle cx="111.640" cy="27.910" r="0.8" fill="#3e68a8"/>
<circle cx="111.640" cy="172.090" r="0.8" fill="#3e68a8"/>
<circle cx="55.820" cy="27.910" r="0.8" fill="#3e68a8"/>
<circle cx="55.820" cy="172.090" r="0.8" fill="#3e68a8"/>
<circle cx="50" cy="100" r="0.8" fill="#3e68a8"/>
<circle cx="55.820" cy="100" r="0.8" fill="#3e68a8"/>
<circle cx="111.640" cy="100" r="0.8" fill="#3e68a8"/>
<circle cx="130" cy="100" r="0.8" fill="#3e68a8"/>
</g>
</g>
</svg>
