<svg xmlns="http://www.w3.org/2000/svg" width="782.804" height="582.804" viewBox="-45.701 -45.701 391.402 291.402" preserveAspectRatio="xMidYMid meet">
<style>polygon,line{vector-effect:non-scaling-stroke}</style>
<g transform="translate(0,200) scale(1,-1)">
<g id="boundary" fill="none" stroke="#222" stroke-width="0.5">
<polygon points="0,0 300,0 300,200 0,200"/>
</g>
<g id="stalls" stroke="#1f5f1a" stroke-width="0.25">
<polygon points="-9,-27.910 0,-27.910 0,-12 -9,-12" fill="#8fc98a"/>
<polygon points="0,-27.910 9,-27.910 9,-12 0,-12" fill="#8fc98a"/>
<polygon points="9,-27.910 18,-27.910 18,-12 9,-12" fill="#8fc98a"/>
<polygon points="18,-27.910 27,-27.910 27,-12 18,-12" fill="#8fc98a"/>
<polygon points="27,-27.910 36,-27.910 36,-12 27,-12" fill="#8fc98a"/>
<polygon points="36,-27.910 45,-27.910 45,-12 36,-12" fill="#a1b885"/>
<polygon points="45,-27.910 54,-27.910 54,-12 45,-12" fill="#8fc98a"/>
<polygon points="54,-27.910 63,-27.910 63,-12 54,-12" fill="#8fc98a"/>
<polygon points="63,-27.910 72,-27.910 72,-12 63,-12" fill="#8fc98a"/>
<polygon points="72,-27.910 81,-27.910 81,-12 72,-12" fill="#8fc98a"/>
<polygon points="81,-27.910 90,-27.910 90,-12 81,-12" fill="#8fc98a"/>
<polygon points="90,-27.910 99,-27.910 99,-12 90,-12" fill="#8fc98a"/>
<polygon points="99,-27.910 108,-27.910 108,-12 99,-12" fill="#8fc98a"/>
<polygon points="108,-27.910 117,-27.910 117,-12 108,-12" fill="#a1b885"/>
<polygon points="117,-27.910 126,-27.910 126,-12 117,-12" fill="#8fc98a"/>
<polygon points="126,-27.910 135,-27.910 135,-12 126,-12" fill="#8fc98a"/>
<polygon points="135,-27.910 144,-27.910 144,-12 135,-12" fill="#8fc98a"/>
<polygon points="144,-27.910 153,-27.910 153,-12 144,-12" fill="#8fc98a"/>
<polygon points="153,-27.910 162,-27.910 162,-12 153,-12" fill="#8fc98a"/>
<polygon points="162,-27.910 171,-27.910 171,-12 162,-12" fill="#8fc98a"/>
<polygon points="171,-27.910 180,-27.910 180,-12 171,-12" fill="#8fc98a"/>
<polygon points="180,-27.910 189,-27.910 189,-12 180,-12" fill="#a1b885"/>
<polygon points="189,-27.910 198,-27.910 198,-12 189,-12" fill="#8fc98a"/>
<polygon points="198,-27.910 207,-27.910 207,-12 198,-12" fill="#8fc98a"/>
<polygon points="207,-27.910 216,-27.910 216,-12 207,-12" fill="#8fc98a"/>
<polygon points="216,-27.910 225,-27.910 225,-12 216,-12" fill="#8fc98a"/>
<polygon points="225,-27.910 234,-27.910 234,-12 225,-12" fill="#8fc98a"/>
<polygon points="234,-27.910 243,-27.910 243,-12 234,-12" fill="#8fc98a"/>
<polygon points="243,-27.910 252,-27.910 252,-12 243,-12" fill="#8fc98a"/>
<polygon points="252,-27.910 261,-27.910 261,-12 252,-12" fill="#a1b885"/>
<polygon points="261,-27.910 270,-27.910 270,-12 261,-12" fill="#8fc98a"/>
<polygon points="270,-27.910 279,-27.910 279,-12 270,-12" fill="#8fc98a"/>
<polygon points="279,-27.910 288,-27.910 288,-12 279,-12" fill="#8fc98a"/>
<polygon points="288,-27.910 297,-27.910 297,-12 288,-12" fill="#8fc98a"/>
<polygon points="297,-27.910 306,-27.910 306,-12 297,-12" fill="#8fc98a"/>
<polygon points="306,227.910 297,227.910 297,212 306,212" fill="#8fc98a"/>
<polygon points="297,227.910 288,227.910 288,212 297,212" fill="#8fc98a"/>
<polygon points="288,227.910 279,227.910 279,212 288,212" fill="#8fc98a"/>
<polygon points="279,227.910 270,227.910 270,212 279,212" fill="#8fc98a"/>
<polygon points="270,227.910 261,227.910 261,212 270,212" fill="#8fc98a"/>
<polygon points="261,227.910 252,227.910 252,212 261,212" fill="#8fc98a"/>
<polygon points="252,227.910 243,227.910 243,212 252,212" fill="#a1b885"/>
<polygon points="243,227.910 234,227.910 234,212 243,212" fill="#8fc98a"/>
<polygon points="234,227.910 225,227.910 225,212 234,212" fill="#8fc98a"/>
<polygon points="225,227.910 216,227.910 216,212 225,212" fill="#8fc98a"/>
<polygon points="216,227.910 207,227.910 207,212 216,212" fill="#8fc98a"/>
<polygon points="207,227.910 198,227.910 198,212 207,212" fill="#8fc98a"/>
<polygon points="198,227.910 189,227.910 189,212 198,212" fill="#8fc98a"/>
<polygon points="189,227.910 180,227.910 180,212 189,212" fill="#8fc98a"/>
<polygon points="180,227.910 171,227.910 171,212 180,212" fill="#a1b885"/>
<polygon points="171,227.910 162,227.910 162,212 171,212" fill="#8fc98a"/>
<polygon points="162,227.910 153,227.910 153,212 162,212" fill="#8fc98a"/>
<polygon points="153,227.910 144,227.910 144,212 153,212" fill="#8fc98a"/>
<polygon points="144,227.910 135,227.910 135,212 144,212" fill="#8fc98a"/>
<polygon points="135,227.910 126,227.910 126,212 135,212" fill="#8fc98a"/>
<polygon points="126,227.910 117,227.910 117,212 126,212" fill="#8fc98a"/>
<polygon points="117,227.910 108,227.910 108,212 117,212" fill="#8fc98a"/>
<polygon points="108,227.910 99,227.910 99,212 108,212" fill="#a1b885"/>
<polygon points="99,227.910 90,227.910 90,212 99,212" fill="#8fc98a"/>
<polygon points="90,227.910 81,227.910 81,212 90,212" fill="#8fc98a"/>
<polygon points="81,227.910 72,227.910 72,212 81,212" fill="#8fc98a"/>
<polygon points="72,227.910 63,227.910 63,212 72,212" fill="#8fc98a"/>
<polygon points="63,227.910 54,227.910 54,212 63,212" fill="#8fc98a"/>
<polygon points="54,227.910 45,227.910 45,212 54,212" fill="#8fc98a"/>
<polygon points="45,227.910 36,227.910 36,212 45,212" fill="#8fc98a"/>
<polygon points="36,227.910 27,227.910 27,212 36,212" fill="#a1b885"/>
<polygon points="27,227.910 18,227.910 18,212 27,212" fill="#8fc98a"/>
<polygon points="18,227.910 9,227.910 9,212 18,212" fill="#8fc98a"/>
<polygon points="9,227.910 0,227.910 0,212 9,212" fill="#8fc98a"/>
<polygon points="0,227.910 -9,227.910 -9,212 0,212" fill="#8fc98a"/>
<polygon points="-27.910,207 -27.910,198 -12,198 -12,207" fill="#8fc98a"/>
<polygon points="-27.910,198 -27.910,189 -12,189 -12,198" fill="#8fc98a"/>
<polygon points="-27.910,189 -27.910,180 -12,180 -12,189" fill="#8fc98a"/>
<polygon points="-27.910,180 -27.910,171 -12,171 -12,180" fill="#a1b885"/>
<polygon points="-27.910,171 -27.910,162 -12,162 -12,171" fill="#8fc98a"/>
<polygon points="-27.910,162 -27.910,153 -12,153 -12,162" fill="#8fc98a"/>
<polygon points="-27.910,153 -27.910,144 -12,144 -12,153" fill="#8fc98a"/>
<polygon points="-27.910,144 -27.910,135 -12,135 -12,144" fill="#8fc98a"/>
<polygon points="-27.910,135 -27.910,126 -12,126 -12,135" fill="#8fc98a"/>
<polygon points="-27.910,126 -27.910,117 -12,117 -12,126" fill="#8fc98a"/>
<polygon points="-27.910,117 -27.910,108 -12,108 -12,117" fill="#8fc98a"/>
<polygon points="-27.910,108 -27.910,99 -12,99 -12,108" fill="#a1b885"/>
<polygon points="-27.910,99 -27.910,90 -12,90 -12,99" fill="#8fc98a"/>
<polygon points="-27.910,90 -27.910,81 -12,81 -12,90" fill="#8fc98a"/>
<polygon points="-27.910,81 -27.910,72 -12,72 -12,81" fill="#8fc98a"/>
<polygon points="-27.910,72 -27.910,63 -12,63 -12,72" fill="#8fc98a"/>
<polygon points="-27.910,63 -27.910,54 -12,54 -12,63" fill="#8fc98a"/>
<polygon points="-27.910,54 -27.910,45 -12,45 -12,54" fill="#8fc98a"/>
<polygon points="-27.910,45 -27.910,36 -12,36 -12,45" fill="#8fc98a"/>
<polygon points="-27.910,36 -27.910,27 -12,27 -12,36" fill="#a1b885"/>
<polygon points="-27.910,27 -27.910,18 -12,18 -12,27" fill="#8fc98a"/>
<polygon points="-27.910,18 -27.910,9 -12,9 -12,18" fill="#8fc98a"/>
<polygon points="-27.910,9 -27.910,0 -12,0 -12,9" fill="#8fc98a"/>
<polygon points="-27.910,0 -27.910,-9 -12,-9 -12,0" fill="#8fc98a"/>
<polygon points="327.910,-9 327.910,0 312,0 312,-9" fill="#8fc98a"/>
<polygon points="327.910,0 327.910,9 312,9 312,0" fill="#8fc98a"/>
<polygon points="327.910,9 327.910,18 312,18 312,9" fill="#8fc98a"/>
<polygon points="327.910,18 327.910,27 312,27 312,18" fill="#8fc98a"/>
<polygon points="327.910,27 327.910,36 312,36 312,27" fill="#8fc98a"/>
<polygon points="327.910,36 327.910,45 312,45 312,36" fill="#a1b885"/>
<polygon points="327.910,45 327.910,54 312,54 312,45" fill="#8fc98a"/>
<polygon points="327.910,54 327.910,63 312,63 312,54" fill="#8fc98a"/>
<polygon points="327.910,63 327.910,72 312,72 312,63" fill="#8fc98a"/>
<polygon points="327.910,72 327.910,81 312,81 312,72" fill="#8fc98a"/>
<polygon points="327.910,81 327.910,90 312,90 312,81" fill="#8fc98a"/>
<polygon points="327.910,90 327.910,99 312,99 312,90" fill="#8fc98a"/>
<polygon points="327.910,99 327.910,108 312,108 312,99" fill="#8fc98a"/>
<polygon points="327.910,108 327.910,117 312,117 312,108" fill="#a1b885"/>
<polygon points="327.910,117 327.910,126 312,126 312,117" fill="#8fc98a"/>
<polygon points="327.910,126 327.910,135 312,135 312,126" fill="#8fc98a"/>
<polygon points="327.910,135 327.910,144 312,144 312,135" fill="#8fc98a"/>
<polygon points="327.910,144 327.910,153 312,153 312,144" fill="#8fc98a"/>
<polygon points="327.910,153 327.910,162 312,162 312,153" fill="#8fc98a"/>
<polygon points="327.910,162 327.910,171 312,171 312,162" fill="#8fc98a"/>
<polygon points="327.910,171 327.910,180 312,180 312,171" fill="#8fc98a"/>
<polygon points="327.910,180 327.910,189 312,189 312,180" fill="#a1b885"/>
<polygon points="327.910,189 327.910,198 312,198 312,189" fill="#8fc98a"/>
<polygon points="327.910,198 327.910,207 312,207 312,198" fill="#8fc98a"/>
</g>
<g id="graph">
<line x1="0" y1="0" x2="55.820" y2="0" stroke="#a84a1e" stroke-width="0.6"/>
<line x1="55.820" y1="0" x2="0" y2="0" stroke="#a84a1e" stroke-width="0.6"/>
<line x1="55.820" y1="0" x2="111.640" y2="0" stroke="#a84a1e" stroke-width="0.6"/>
<line x1="111.640" y1="0" x2="55.820" y2="0" stroke="#a84a1e" stroke-width="0.6"/>
<line x1="111.640" y1="0" x2="167.459" y2="0" stroke="#a84a1e" stroke-width="0.6"/>
<line x1="167.459" y1="0" x2="111.640" y2="0" stroke="#a84a1e" stroke-width="0.6"/>
<line x1="167.459" y1="0" x2="223.279" y2="0" stroke="#a84a1e" stroke-width="0.6"/>
<line x1="223.279" y1="0" x2="167.459" y2="0" stroke="#a84a1e" stroke-width="0.6"/>
<line x1="223.279" y1="0" x2="279.099" y2="0" stroke="#a84a1e" stroke-width="0.6"/>
<line x1="279.099" y1="0" x2="223.279" y2="0" stroke="#a84a1e" stroke-width="0.6"/>
<line x1="279.099" y1="0" x2="300" y2="0" stroke="#a84a1e" stroke-width="0.6"/>
<line x1="300" y1="0" x2="279.099" y2="0" stroke="#a84a1e" stroke-width="0.6"/>
<line x1="300" y1="0" x2="300" y2="190.919" stroke="#a84a1e" stroke-width="0.6"/>
<line x1="300" y1="190.919" x2="300" y2="0" stroke="#a84a1e" stroke-width="0.6"/>
<line x1="300" y1="190.919" x2="300" y2="200" stroke="#a84a1e" stroke-width="0.6"/>
<line x1="300" y1="200" x2="300" y2="190.919" stroke="#a84a1e" stroke-width="0.6"/>
<line x1="300" y1="200" x2="279.099" y2="200" stroke="#a84a1e" stroke-width="0.6"/>
<line x1="279.099" y1="200" x2="300" y2="200" stroke="#a84a1e" stroke-width="0.6"/>
<line x1="279.099" y1="200" x2="223.279" y2="200" stroke="#a84a1e" stroke-width="0.6"/>
<line x1="223.279" y1="200" x2="279.099" y2="200" stroke="#a84a1e" stroke-width="0.6"/>
<line x1="223.279" y1="200" x2="167.459" y2="200" stroke="#a84a1e" stroke-width="0.6"/>
<line x1="167.459" y1="200" x2="223.279" y2="200" stroke="#a84a1e" stroke-width="0.6"/>
<line x1="167.459" y1="200" x2="111.640" y2="200" stroke="#a84a1e" stroke-width="0.6"/>
<line x1="111.640" y1="200" x2="167.459" y2="200" stroke="#a84a1e" stroke-width="0.6"/>
<line x1="111.640" y1="200" x2="55.820" y2="200" stroke="#a84a1e" stroke-width="0.6"/>
<line x1="55.820" y1="200" x2="111.640" y2="200" stroke="#a84a1e" stroke-width="0.6"/>
<line x1="55.820" y1="200" x2="0" y2="200" stroke="#a84a1e" stroke-width="0.6"/>
<line x1="0" y1="200" x2="55.820" y2="200" stroke="#a84a1e" stroke-width="0.6"/>
<line x1="0" y1="200" x2="0" y2="190.919" stroke="#a84a1e" stroke-width="0.6"/>
<line x1="0" y1="190.919" x2="0" y2="200" stroke="#a84a1e" stroke-width="0.6"/>
<line x1="0" y1="190.919" x2="0" y2="100" stroke="#a84a1e" stroke-width="0.6"/>
<line x1="0" y1="0" x2="0" y2="100" stroke="#a84a1e" stroke-width="0.6"/>
<line x1="279.099" y1="0" x2="279.099" y2="100" stroke="#3e68a8" stroke-width="0.6"/>
<line x1="279.099" y1="190.919" x2="279.099" y2="100" stroke="#3e68a8" stroke-width="0.6"/>
<line x1="279.099" y1="190.919" x2="279.099" y2="200" stroke="#3e68a8" stroke-width="0.6"/>
<line x1="279.099" y1="200" x2="279.099" y2="190.919" stroke="#3e68a8" stroke-width="0.6"/>
<line x1="223.279" y1="0" x2="223.279" y2="100" stroke="#3e68a8" stroke-width="0.6"/>
<line x1="223.279" y1="190.919" x2="223.279" y2="100" stroke="#3e68a8" stroke-width="0.6"/>
<line x1="223.279" y1="190.919" x2="223.279" y2="200" stroke="#3e68a8" stroke-width="0.6"/>
<line x1="223.279" y1="200" x2="223.279" y2="190.919" stroke="#3e68a8" stroke-width="0.6"/>
<line x1="167.459" y1="0" x2="167.459" y2="100" stroke="#3e68a8" stroke-width="0.6"/>
<line x1="167.459" y1="190.919" x2="167.459" y2="100" stroke="#3e68a8" stroke-width="0.6"/>
<line x1="167.459" y1="190.919" x2="167.459" y2="200" stroke="#3e68a8" stroke-width="0.6"/>
<line x1="167.459" y1="200" x2="167.459" y2="190.919" stroke="#3e68a8" stroke-width="0.6"/>
<line x1="111.640" y1="0" x2="111.640" y2="100" stroke="#3e68a8" stroke-width="0.6"/>
<line x1="111.640" y1="190.919" x2="111.640" y2="100" stroke="#3e68a8" stroke-width="0.6"/>
<line x1="111.640" y1="190.919" x2="111.640" y2="200" stroke="#3e68a8" stroke-width="0.6"/>
<line x1="111.640" y1="200" x2="111.640" y2="190.919" stroke="#3e68a8" stroke-width="0.6"/>
<line x1="55.820" y1="0" x2="55.820" y2="100" stroke="#3e68a8" stroke-width="0.6"/>
<line x1="55.820" y1="190.919" x2="55.820" y2="100" stroke="#3e68a8" stroke-width="0.6"/>
<line x1="55.820" y1="190.919" x2="55.820" y2="200" stroke="#3e68a8" stroke-width="0.6"/>
<line x1="55.820" y1="200" x2="55.820" y2="190.919" stroke="#3e68a8" stroke-width="0.6"/>
<line x1="300" y1="190.919" x2="279.099" y2="190.919" stroke="#3e68a8" stroke-width="0.6"/>
<line x1="279.099" y1="190.919" x2="300" y2="190.919" stroke="#3e68a8" stroke-width="0.6"/>
<line x1="279.099" y1="190.919" x2="223.279" y2="190.919" stroke="#3e68a8" stroke-width="0.6"/>
<line x1="223.279" y1="190.919" x2="279.099" y2="190.919" stroke="#3e68a8" stroke-width="0.6"/>
<line x1="223.279" y1="190.919" x2="167.459" y2="190.919" stroke="#3e68a8" stroke-width="0.6"/>
<line x1="167.459" y1="190.919" x2="223.279" y2="190.919" stroke="#3e68a8" stroke-width="0.6"/>
<line x1="167.459" y1="190.919" x2="111.640" y2="190.919" stroke="#3e68a8" stroke-width="0.6"/>
<line x1="111.640" y1="190.919" x2="167.459" y2="190.919" stroke="#3e68a8" stroke-width="0.6"/>
<line x1="111.640" y1="190.919" x2="55.820" y2="190.919" stroke="#3e68a8" stroke-width="0.6"/>
<line x1="55.820" y1="190.919" x2="111.640" y2="190.919" stroke="#3e68a8" stroke-width="0.6"/>
<line x1="55.820" y1="190.919" x2="0" y2="190.919" stroke="#3e68a8" stroke-width="0.6"/>
<line x1="0" y1="190.919" x2="55.820" y2="190.919" stroke="#3e68a8" stroke-width="0.6"/>
<line x1="0" y1="100" x2="0" y2="0" stroke="#a84a1e" stroke-width="0.6"/>
<line x1="0" y1="100" x2="0" y2="190.919" stroke="#a84a1e" stroke-width="0.6"/>
<line x1="55.820" y1="100" x2="55.820" y2="0" stroke="#3e68a8" stroke-width="0.6"/>
<line x1="55.820" y1="100" x2="55.820" y2="190.919" stroke="#3e68a8" stroke-width="0.6"/>
<line x1="111.640" y1="100" x2="111.640" y2="0" stroke="#3e68a8" stroke-width="0.6"/>
<line x1="111.640" y1="100" x2="111.640" y2="190.919" stroke="#3e68a8" stroke-width="0.6"/>
<line x1="167.459" y1="100" x2="167.459" y2="0" stroke="#3e68a8" stroke-width="0.6"/>
<line x1="167.459" y1="100" x2="167.459" y2="190.919" stroke="#3e68a8" stroke-width="0.6"/>
<line x1="223.279" y1="100" x2="223.279" y2="190.919" stroke="#3e68a8" stroke-width="0.6"/>
<line x1="223.279" y1="100" x2="223.279" y2="0" stroke="#3e68a8" stroke-width="0.6"/>
<line x1="279.099" y1="100" x2="279.099" y2="190.919" stroke="#3e68a8" stroke-width="0.6"/>
<line x1="279.099" y1="100" x2="279.099" y2="0" stroke="#3e68a8" stroke-width="0.6"/>
<line x1="0" y1="100" x2="55.820" y2="100" stroke="#3e68a8" stroke-width="0.6"/>
<line x1="55.820" y1="100" x2="0" y2="100" stroke="#3e68a8" stroke-width="0.6"/>
<line x1="55.820" y1="100" x2="111.640" y2="100" stroke="#3e68a8" stroke-width="0.6"/>
<line x1="111.640" y1="100" x2="55.820" y2="100" stroke="#3e68a8" stroke-width="0.6"/>
<line x1="111.640" y1="100" x2="167.459" y2="100" stroke="#3e68a8" stroke-width="0.6"/>
<line x1="167.459" y1="100" x2="111.640" y2="100" stroke="#3e68a8" stroke-width="0.6"/>
<line x1="167.459" y1="100" x2="223.279" y2="100" stroke="#3e68a8" stroke-width="0.6"/>
<line x1="223.279" y1="100" x2="167.459" y2="100" stroke="#3e68a8" stroke-width="0.6"/>
<line x1="223.279" y1="100" x2="279.099" y2="100" stroke="#3e68a8" stroke-width="0.6"/>
<line x1="279.099" y1="100" x2="223.279" y2="100" stroke="#3e68a8" stroke-width="0.6"/>
<circle cx="0" cy="0" r="0.8" fill="#a84a1e"/>
<circle cx="300" cy="0" r="0.8" fill="#a84a1e"/>
<circle cx="300" cy="200" r="0.8" fill="#a84a1e"/>
<circle cx="0" cy="200" r="0.8" fill="#a84a1e"/>
<circle cx="279.099" cy="0" r="0.8" fill="#3e68a8"/>
<circle cx="279.099" cy="200" r="0.8" fill="#3e68a8"/>
<circle cx="223.279" cy="0" r="0.8" fill="#3e68a8"/>
<circle cx="223.279" cy="200" r="0.8" fill="#3e68a8"/>
<circle cx="167.459" cy="0" r="0.8" fill="#3e68a8"/>
<circle cx="167.459" cy="200" r="0.8" fill="#3e68a8"/>
<circle cx="111.640" cy="0" r="0.8" fill="#3e68a8"/>
<circle cx="111.640" cy="200" r="0.8" fill="#3e68a8"/>
<circle cx="55.820" cy="0" r="0.8" fill="#3e68a8"/>
<circle cx="55.820" cy="200" r="0.8" fill="#3e68a8"/>
<circle cx="300" cy="190.919" r="0.8" fill="#3e68a8"/>
<circle cx="0" cy="190.919" r="0.8" fill="#3e68a8"/>
<circle cx="279.099" cy="190.919" r="0.8" fill="#3e68a8"/>
<circle cx="223.279" cy="190.919" r="0.8" fill="#3e68a8"/>
<circle cx="167.459" cy="190.919" r="0.8" fill="#3e68a8"/>
<circle cx="111.640" cy="190.919" r="0.8" fill="#3e68a8"/>
<circle cx="55.820" cy="190.919" r="0.8" fill="#3e68a8"/>
<circle cx="0" cy="100" r="0.8" fill="#3e68a8"/>
<circle cx="55.820" cy="100" r="0.8" fill="#3e68a8"/>
<circle cx="111.640" cy="100" r="0.8" fill="#3e68a8"/>
<circle cx="167.459" cy="100" r="0.8" fill="#3e68a8"/>
<circle cx="223.279" cy="100" r="0.8" fill="#3e68a8"/>
<circle cx="279.099" cy="100" r="0.8" fill="#3e68a8"/>
</g>
</g>
</svg>
