<svg xmlns="http://www.w3.org/2000/svg" width="1012" height="532" viewBox="-53 -53 506 266" preserveAspectRatio="xMidYMid meet">
<style>polygon,line{vector-effect:non-scaling-stroke}</style>
<g transform="translate(0,160) scale(1,-1)">
<g id="boundary" fill="none" stroke="#222" stroke-width="0.5">
<polygon points="0,0 400,0 400,160 0,160"/>
</g>
<g id="stalls" stroke="#1f5f1a" stroke-width="0.25">
<polygon points="9,-30 18,-30 18,-12 9,-12" fill="#8fc98a"/>
<polygon points="18,-30 27,-30 27,-12 18,-12" fill="#8fc98a"/>
<polygon points="27,-30 36,-30 36,-12 27,-12" fill="#8fc98a"/>
<polygon points="36,-30 45,-30 45,-12 36,-12" fill="#a1b885"/>
<polygon points="45,-30 54,-30 54,-12 45,-12" fill="#8fc98a"/>
<polygon points="54,-30 63,-30 63,-12 54,-12" fill="#8fc98a"/>
<polygon points="63,-30 72,-30 72,-12 63,-12" fill="#8fc98a"/>
<polygon points="72,-30 81,-30 81,-12 72,-12" fill="#8fc98a"/>
<polygon points="81,-30 90,-30 90,-12 81,-12" fill="#8fc98a"/>
<polygon points="90,-30 99,-30 99,-12 90,-12" fill="#8fc98a"/>
<polygon points="99,-30 108,-30 108,-12 99,-12" fill="#8fc98a"/>
<polygon points="108,-30 117,-30 117,-12 108,-12" fill="#a1b885"/>
<polygon points="117,-30 126,-30 126,-12 117,-12" fill="#8fc98a"/>
<polygon points="126,-30 135,-30 135,-12 126,-12" fill="#8fc98a"/>
<polygon points="135,-30 144,-30 144,-12 135,-12" fill="#8fc98a"/>
<polygon points="144,-30 153,-30 153,-12 144,-12" fill="#8fc98a"/>
<polygon points="153,-30 162,-30 162,-12 153,-12" fill="#8fc98a"/>
<polygon points="162,-30 171,-30 171,-12 162,-12" fill="#8fc98a"/>
<polygon points="171,-30 180,-30 180,-12 171,-12" fill="#8fc98a"/>
<polygon points="180,-30 189,-30 189,-12 180,-12" fill="#a1b885"/>
<polygon points="189,-30 198,-30 198,-12 189,-12" fill="#8fc98a"/>
<polygon points="198,-30 207,-30 207,-12 198,-12" fill="#8fc98a"/>
<polygon points="207,-30 216,-30 216,-12 207,-12" fill="#8fc98a"/>
<polygon points="216,-30 225,-30 225,-12 216,-12" fill="#8fc98a"/>
<polygon points="225,-30 234,-30 234,-12 225,-12" fill="#8fc98a"/>
<polygon points="234,-30 243,-30 243,-12 234,-12" fill="#8fc98a"/>
<polygon points="243,-30 252,-30 252,-12 243,-12" fill="#8fc98a"/>
<polygon points="252,-30 261,-30 261,-12 252,-12" fill="#a1b885"/>
<polygon points="261,-30 270,-30 270,-12 261,-12" fill="#8fc98a"/>
<polygon points="270,-30 279,-30 279,-12 270,-12" fill="#8fc98a"/>
<polygon points="279,-30 288,-30 288,-12 279,-12" fill="#8fc98a"/>
<polygon points="288,-30 297,-30 297,-12 288,-12" fill="#8fc98a"/>
<polygon points="297,-30 306,-30 306,-12 297,-12" fill="#8fc98a"/>
<polygon points="306,-30 315,-30 315,-12 306,-12" fill="#8fc98a"/>
<polygon points="315,-30 324,-30 324,-12 315,-12" fill="#8fc98a"/>
<polygon points="324,-30 333,-30 333,-12 324,-12" fill="#a1b885"/>
<polygon points="333,-30 342,-30 342,-12 333,-12" fill="#8fc98a"/>
<polygon points="342,-30 351,-30 351,-12 342,-12" fill="#8fc98a"/>
<polygon points="351,-30 360,-30 360,-12 351,-12" fill="#8fc98a"/>
<polygon points="360,-30 369,-30 369,-12 360,-12" fill="#8fc98a"/>
<polygon points="369,-30 378,-30 378,-12 369,-12" fill="#8fc98a"/>
<polygon points="378,-30 387,-30 387,-12 378,-12" fill="#8fc98a"/>
<polygon points="387,190 378,190 378,172 387,172" fill="#8fc98a"/>
<polygon points="378,190 369,190 369,172 378,172" fill="#8fc98a"/>
<polygon points="369,190 360,190 360,172 369,172" fill="#8fc98a"/>
<polygon points="360,190 351,190 351,172 360,172" fill="#8fc98a"/>
<polygon points="351,190 342,190 342,172 351,172" fill="#8fc98a"/>
<polygon points="342,190 333,190 333,172 342,172" fill="#8fc98a"/>
<polygon points="333,190 324,190 324,172 333,172" fill="#8fc98a"/>
<polygon points="324,190 315,190 315,172 324,172" fill="#a1b885"/>
<polygon points="315,190 306,190 306,172 315,172" fill="#8fc98a"/>
<polygon points="306,190 297,190 297,172 306,172" fill="#8fc98a"/>
<polygon points="297,190 288,190 288,172 297,172" fill="#8fc98a"/>
<polygon points="288,190 279,190 279,172 288,172" fill="#8fc98a"/>
<polygon points="279,190 270,190 270,172 279,172" fill="#8fc98a"/>
<polygon points="270,190 261,190 261,172 270,172" fill="#8fc98a"/>
<polygon points="261,190 252,190 252,172 261,172" fill="#8fc98a"/>
<polygon points="252,190 243,190 243,172 252,172" fill="#a1b885"/>
<polygon points="243,190 234,190 234,172 243,172" fill="#8fc98a"/>
<polygon points="234,190 225,190 225,172 234,172" fill="#8fc98a"/>
<polygon points="225,190 216,190 216,172 225,172" fill="#8fc98a"/>
<polygon points="216,190 207,190 207,172 216,172" fill="#8fc98a"/>
<polygon points="207,190 198,190 198,172 207,172" fill="#8fc98a"/>
<polygon points="198,190 189,190 189,172 198,172" fill="#8fc98a"/>
<polygon points="189,190 180,190 180,172 189,172" fill="#8fc98a"/>
<polygon points="180,190 171,190 171,172 180,172" fill="#a1b885"/>
<polygon points="171,190 162,190 162,172 171,172" fill="#8fc98a"/>
<polygon points="162,190 153,190 153,172 162,172" fill="#8fc98a"/>
<polygon points="153,190 144,190 144,172 153,172" fill="#8fc98a"/>
<polygon points="144,190 135,190 135,172 144,172" fill="#8fc98a"/>
<polygon points="135,190 126,190 126,172 135,172" fill="#8fc98a"/>
<polygon points="126,190 117,190 117,172 126,172" fill="#8fc98a"/>
<polygon points="117,190 108,190 108,172 117,172" fill="#8fc98a"/>
<polygon points="108,190 99,190 99,172 108,172" fill="#a1b885"/>
<polygon points="99,190 90,190 90,172 99,172" fill="#8fc98a"/>
<polygon points="90,190 81,190 81,172 90,172" fill="#8fc98a"/>
<polygon points="81,190 72,190 72,172 81,172" fill="#8fc98a"/>
<polygon points="72,190 63,190 63,172 72,172" fill="#8fc98a"/>
<polygon points="63,190 54,190 54,172 63,172" fill="#8fc98a"/>
<polygon points="54,190 45,190 45,172 54,172" fill="#8fc98a"/>
<polygon points="45,190 36,190 36,172 45,172" fill="#8fc98a"/>
<polygon points="36,190 27,190 27,172 36,172" fill="#a1b885"/>
<polygon points="27,190 18,190 18,172 27,172" fill="#8fc98a"/>
<polygon points="18,190 9,190 9,172 18,172" fill="#8fc98a"/>
<polygon points="430,9 430,18 412,18 412,9" fill="#8fc98a"/>
<polygon points="430,18 430,27 412,27 412,18" fill="#8fc98a"/>
<polygon points="430,27 430,36 412,36 412,27" fill="#8fc98a"/>
<polygon points="430,36 430,45 412,45 412,36" fill="#a1b885"/>
<polygon points="430,45 430,54 412,54 412,45" fill="#8fc98a"/>
<polygon points="430,54 430,63 412,63 412,54" fill="#8fc98a"/>
<polygon points="430,63 430,72 412,72 412,63" fill="#8fc98a"/>
<polygon points="430,72 430,81 412,81 412,72" fill="#8fc98a"/>
<polygon points="430,81 430,90 412,90 412,81" fill="#8fc98a"/>
<polygon points="430,90 430,99 412,99 412,90" fill="#8fc98a"/>
<polygon points="430,99 430,108 412,108 412,99" fill="#8fc98a"/>
<polygon points="430,108 430,117 412,117 412,108" fill="#a1b885"/>
<polygon points="430,117 430,126 412,126 412,117" fill="#8fc98a"/>
<polygon points="430,126 430,135 412,135 412,126" fill="#8fc98a"/>
<polygon points="430,135 430,144 412,144 412,135" fill="#8fc98a"/>
<polygon points="430,144 430,153 412,153 412,144" fill="#8fc98a"/>
<polygon points="-30,153 -30,144 -12,144 -12,153" fill="#8fc98a"/>
<polygon points="-30,144 -30,135 -12,135 -12,144" fill="#8fc98a"/>
<polygon points="-30,135 -30,126 -12,126 -12,135" fill="#8fc98a"/>
<polygon points="-30,126 -30,117 -12,117 -12,126" fill="#8fc98a"/>
<polygon points="-30,117 -30,108 -12,108 -12,117" fill="#8fc98a"/>
<polygon points="-30,108 -30,99 -12,99 -12,108" fill="#a1b885"/>
<polygon points="-30,99 -30,90 -12,90 -12,99" fill="#8fc98a"/>
<polygon points="-30,90 -30,81 -12,81 -12,90" fill="#8fc98a"/>
<polygon points="-30,81 -30,72 -12,72 -12,81" fill="#8fc98a"/>
<polygon points="-30,72 -30,63 -12,63 -12,72" fill="#8fc98a"/>
<polygon points="-30,63 -30,54 -12,54 -12,63" fill="#8fc98a"/>
<polygon points="-30,54 -30,45 -12,45 -12,54" fill="#8fc98a"/>
<polygon points="-30,45 -30,36 -12,36 -12,45" fill="#8fc98a"/>
<polygon points="-30,36 -30,27 -12,27 -12,36" fill="#a1b885"/>
<polygon points="-30,27 -30,18 -12,18 -12,27" fill="#8fc98a"/>
<polygon points="-30,18 -30,9 -12,9 -12,18" fill="#8fc98a"/>
<polygon points="30,63 30,54 48,54 48,63" fill="#8fc98a"/>
<polygon points="30,54 30,45 48,45 48,54" fill="#8fc98a"/>
<polygon points="30,45 30,36 48,36 48,45" fill="#8fc98a"/>
<polygon points="30,36 30,27 48,27 48,36" fill="#8fc98a"/>
<polygon points="30,27 30,36 12,36 12,27" fill="#8fc98a"/>
<polygon points="30,36 30,45 12,45 12,36" fill="#8fc98a"/>
<polygon points="30,45 30,54 12,54 12,45" fill="#8fc98a"/>
<polygon points="30,54 30,63 12,63 12,54" fill="#8fc98a"/>
<polygon points="90,63 90,54 108,54 108,63" fill="#8fc98a"/>
<polygon points="90,54 90,45 108,45 108,54" fill="#8fc98a"/>
<polygon points="90,45 90,36 108,36 108,45" fill="#8fc98a"/>
<polygon points="90,36 90,27 108,27 108,36" fill="#8fc98a"/>
<polygon points="90,27 90,36 72,36 72,27" fill="#8fc98a"/>
<polygon points="90,36 90,45 72,45 72,36" fill="#8fc98a"/>
<polygon points="90,45 90,54 72,54 72,45" fill="#8fc98a"/>
<polygon points="90,54 90,63 72,63 72,54" fill="#8fc98a"/>
<polygon points="150,63 150,54 168,54 168,63" fill="#8fc98a"/>
<polygon points="150,54 150,45 168,45 168,54" fill="#8fc98a"/>
<polygon points="150,45 150,36 168,36 168,45" fill="#8fc98a"/>
<polygon points="150,36 150,27 168,27 168,36" fill="#8fc98a"/>
<polygon points="150,27 150,36 132,36 132,27" fill="#8fc98a"/>
<polygon points="150,36 150,45 132,45 132,36" fill="#8fc98a"/>
<polygon points="150,45 150,54 132,54 132,45" fill="#8fc98a"/>
<polygon points="150,54 150,63 132,63 132,54" fill="#8fc98a"/>
<polygon points="210,63 210,54 228,54 228,63" fill="#8fc98a"/>
<polygon points="210,54 210,45 228,45 228,54" fill="#8fc98a"/>
<polygon points="210,45 210,36 228,36 228,45" fill="#8fc98a"/>
<polygon points="210,36 210,27 228,27 228,36" fill="#8fc98a"/>
<polygon points="210,27 210,36 192,36 192,27" fill="#8fc98a"/>
<polygon points="210,36 210,45 192,45 192,36" fill="#8fc98a"/>
<polygon points="210,45 210,54 192,54 192,45" fill="#8fc98a"/>
<polygon points="210,54 210,63 192,63 192,54" fill="#8fc98a"/>
<polygon points="270,63 270,54 288,54 288,63" fill="#8fc98a"/>
<polygon points="270,54 270,45 288,45 288,54" fill="#8fc98a"/>
<polygon points="270,45 270,36 288,36 288,45" fill="#8fc98a"/>
<polygon points="270,36 270,27 288,27 288,36" fill="#8fc98a"/>
<polygon points="270,27 270,36 252,36 252,27" fill="#8fc98a"/>
<polygon points="270,36 270,45 252,45 252,36" fill="#8fc98a"/>
<polygon points="270,45 270,54 252,54 252,45" fill="#8fc98a"/>
<polygon points="270,54 270,63 252,63 252,54" fill="#8fc98a"/>
<polygon points="330,63 330,54 348,54 348,63" fill="#8fc98a"/>
<polygon points="330,54 330,45 348,45 348,54" fill="#8fc98a"/>
<polygon points="330,45 330,36 348,36 348,45" fill="#8fc98a"/>
<polygon points="330,36 330,27 348,27 348,36" fill="#8fc98a"/>
<polygon points="330,27 330,36 312,36 312,27" fill="#8fc98a"/>
<polygon points="330,36 330,45 312,45 312,36" fill="#8fc98a"/>
<polygon points="330,45 330,54 312,54 312,45" fill="#8fc98a"/>
<polygon points="330,54 330,63 312,63 312,54" fill="#8fc98a"/>
</g>
<g id="graph">
<line x1="0" y1="0" x2="60" y2="0" stroke="#a84a1e" stroke-width="0.6"/>
<line x1="60" y1="0" x2="0" y2="0" stroke="#a84a1e" stroke-width="0.6"/>
<line x1="60" y1="0" x2="120" y2="0" stroke="#a84a1e" stroke-width="0.6"/>
<line x1="120" y1="0" x2="60" y2="0" stroke="#a84a1e" stroke-width="0.6"/>
<line x1="120" y1="0" x2="180" y2="0" stroke="#a84a1e" stroke-width="0.6"/>
<line x1="180" y1="0" x2="120" y2="0" stroke="#a84a1e" stroke-width="0.6"/>
<line x1="180" y1="0" x2="240" y2="0" stroke="#a84a1e" stroke-width="0.6"/>
<line x1="240" y1="0" x2="180" y2="0" stroke="#a84a1e" stroke-width="0.6"/>
<line x1="240" y1="0" x2="300" y2="0" stroke="#a84a1e" stroke-width="0.6"/>
<line x1="300" y1="0" x2="240" y2="0" stroke="#a84a1e" stroke-width="0.6"/>
<line x1="300" y1="0" x2="360" y2="0" stroke="#a84a1e" stroke-width="0.6"/>
<line x1="360" y1="0" x2="300" y2="0" stroke="#a84a1e" stroke-width="0.6"/>
<line x1="360" y1="0" x2="400" y2="0" stroke="#a84a1e" stroke-width="0.6"/>
<line x1="400" y1="0" x2="360" y2="0" stroke="#a84a1e" stroke-width="0.6"/>
<line x1="400" y1="0" x2="400" y2="90" stroke="#a84a1e" stroke-width="0.6"/>
<line x1="400" y1="90" x2="400" y2="0" stroke="#a84a1e" stroke-width="0.6"/>
<line x1="400" y1="90" x2="400" y2="160" stroke="#a84a1e" stroke-width="0.6"/>
<line x1="400" y1="160" x2="400" y2="90" stroke="#a84a1e" stroke-width="0.6"/>
<line x1="400" y1="160" x2="360" y2="160" stroke="#a84a1e" stroke-width="0.6"/>
<line x1="360" y1="160" x2="400" y2="160" stroke="#a84a1e" stroke-width="0.6"/>
<line x1="360" y1="160" x2="300" y2="160" stroke="#a84a1e" stroke-width="0.6"/>
<line x1="300" y1="160" x2="360" y2="160" stroke="#a84a1e" stroke-width="0.6"/>
<line x1="300" y1="160" x2="240" y2="160" stroke="#a84a1e" stroke-width="0.6"/>
<line x1="240" y1="160" x2="300" y2="160" stroke="#a84a1e" stroke-width="0.6"/>
<line x1="240" y1="160" x2="180" y2="160" stroke="#a84a1e" stroke-width="0.6"/>
<line x1="180" y1="160" x2="240" y2="160" stroke="#a84a1e" stroke-width="0.6"/>
<line x1="180" y1="160" x2="120" y2="160" stroke="#a84a1e" stroke-width="0.6"/>
<line x1="120" y1="160" x2="180" y2="160" stroke="#a84a1e" stroke-width="0.6"/>
<line x1="120" y1="160" x2="60" y2="160" stroke="#a84a1e" stroke-width="0.6"/>
<line x1="60" y1="160" x2="120" y2="160" stroke="#a84a1e" stroke-width="0.6"/>
<line x1="60" y1="160" x2="0" y2="160" stroke="#a84a1e" stroke-width="0.6"/>
<line x1="0" y1="160" x2="60" y2="160" stroke="#a84a1e" stroke-width="0.6"/>
<line x1="0" y1="160" x2="0" y2="90" stroke="#a84a1e" stroke-width="0.6"/>
<line x1="0" y1="90" x2="0" y2="160" stroke="#a84a1e" stroke-width="0.6"/>
<line x1="0" y1="90" x2="0" y2="0" stroke="#a84a1e" stroke-width="0.6"/>
<line x1="0" y1="0" x2="0" y2="90" stroke="#a84a1e" stroke-width="0.6"/>
<line x1="360" y1="0" x2="360" y2="90" stroke="#3e68a8" stroke-width="0.6"/>
<line x1="360" y1="90" x2="360" y2="0" stroke="#3e68a8" stroke-width="0.6"/>
<line x1="360" y1="90" x2="360" y2="160" stroke="#3e68a8" stroke-width="0.6"/>
<line x1="360" y1="160" x2="360" y2="90" stroke="#3e68a8" stroke-width="0.6"/>
<line x1="300" y1="0" x2="300" y2="90" stroke="#3e68a8" stroke-width="0.6"/>
<line x1="300" y1="90" x2="300" y2="0" stroke="#3e68a8" stroke-width="0.6"/>
<line x1="300" y1="90" x2="300" y2="160" stroke="#3e68a8" stroke-width="0.6"/>
<line x1="300" y1="160" x2="300" y2="90" stroke="#3e68a8" stroke-width="0.6"/>
<line x1="240" y1="0" x2="240" y2="90" stroke="#3e68a8" stroke-width="0.6"/>
<line x1="240" y1="90" x2="240" y2="0" stroke="#3e68a8" stroke-width="0.6"/>
<line x1="240" y1="90" x2="240" y2="160" stroke="#3e68a8" stroke-width="0.6"/>
<line x1="240" y1="160" x2="240" y2="90" stroke="#3e68a8" stroke-width="0.6"/>
<line x1="180" y1="0" x2="180" y2="90" stroke="#3e68a8" stroke-width="0.6"/>
<line x1="180" y1="90" x2="180" y2="0" stroke="#3e68a8" stroke-width="0.6"/>
<line x1="180" y1="90" x2="180" y2="160" stroke="#3e68a8" stroke-width="0.6"/>
<line x1="180" y1="160" x2="180" y2="90" stroke="#3e68a8" stroke-width="0.6"/>
<line x1="120" y1="0" x2="120" y2="90" stroke="#3e68a8" stroke-width="0.6"/>
<line x1="120" y1="90" x2="120" y2="0" stroke="#3e68a8" stroke-width="0.6"/>
<line x1="120" y1="90" x2="120" y2="160" stroke="#3e68a8" stroke-width="0.6"/>
<line x1="120" y1="160" x2="120" y2="90" stroke="#3e68a8" stroke-width="0.6"/>
<line x1="60" y1="0" x2="60" y2="90" stroke="#3e68a8" stroke-width="0.6"/>
<line x1="60" y1="90" x2="60" y2="0" stroke="#3e68a8" stroke-width="0.6"/>
<line x1="60" y1="90" x2="60" y2="160" stroke="#3e68a8" stroke-width="0.6"/>
<line x1="60" y1="160" x2="60" y2="90" stroke="#3e68a8" stroke-width="0.6"/>
<line x1="400" y1="90" x2="360" y2="90" stroke="#3e68a8" stroke-width="0.6"/>
<line x1="360" y1="90" x2="400" y2="90" stroke="#3e68a8" stroke-width="0.6"/>
<line x1="360" y1="90" x2="300" y2="90" stroke="#3e68a8" stroke-width="0.6"/>
<line x1="300" y1="90" x2="360" y2="90" stroke="#3e68a8" stroke-width="0.6"/>
<line x1="300" y1="90" x2="240" y2="90" stroke="#3e68a8" stroke-width="0.6"/>
<line x1="240" y1="90" x2="300" y2="90" stroke="#3e68a8" stroke-width="0.6"/>
<line x1="240" y1="90" x2="180" y2="90" stroke="#3e68a8" stroke-width="0.6"/>
<line x1="180" y1="90" x2="240" y2="90" stroke="#3e68a8" stroke-width="0.6"/>
<line x1="180" y1="90" x2="120" y2="90" stroke="#3e68a8" stroke-width="0.6"/>
<line x1="120" y1="90" x2="180" y2="90" stroke="#3e68a8" stroke-width="0.6"/>
<line x1="120" y1="90" x2="60" y2="90" stroke="#3e68a8" stroke-width="0.6"/>
<line x1="60" y1="90" x2="120" y2="90" stroke="#3e68a8" stroke-width="0.6"/>
<line x1="60" y1="90" x2="0" y2="90" stroke="#3e68a8" stroke-width="0.6"/>
<line x1="0" y1="90" x2="60" y2="90" stroke="#3e68a8" stroke-width="0.6"/>
<circle cx="0" cy="0" r="0.8" fill="#a84a1e"/>
<circle cx="400" cy="0" r="0.8" fill="#a84a1e"/>
<circle cx="400" cy="160" r="0.8" fill="#a84a1e"/>
<circle cx="0" cy="160" r="0.8" fill="#a84a1e"/>
<circle cx="360" cy="0" r="0.8" fill="#3e68a8"/>
<circle cx="360" cy="160" r="0.8" fill="#3e68a8"/>
<circle cx="300" cy="0" r="0.8" fill="#3e68a8"/>
<circle cx="300" cy="160" r="0.8" fill="#3e68a8"/>
<circle cx="240" cy="0" r="0.8" fill="#3e68a8"/>
<circle cx="240" cy="160" r="0.8" fill="#3e68a8"/>
<circle cx="180" cy="0" r="0.8" fill="#3e68a8"/>
<circle cx="180" cy="160" r="0.8" fill="#3e68a8"/>
<circle cx="120" cy="0" r="0.8" fill="#3e68a8"/>
<circle cx="120" cy="160" r="0.8" fill="#3e68a8"/>
<circle cx="60" cy="0" r="0.8" fill="#3e68a8"/>
<circle cx="60" cy="160" r="0.8" fill="#3e68a8"/>
<circle cx="400" cy="90" r="0.8" fill="#3e68a8"/>
<circle cx="0" cy="90" r="0.8" fill="#3e68a8"/>
<circle cx="360" cy="90" r="0.8" fill="#3e68a8"/>
<circle cx="300" cy="90" r="0.8" fill="#3e68a8"/>
<circle cx="240" cy="90" r="0.8" fill="#3e68a8"/>
<circle cx="180" cy="90" r="0.8" fill="#3e68a8"/>
<circle cx="120" cy="90" r="0.8" fill="#3e68a8"/>
<circle cx="60" cy="90" r="0.8" fill="#3e68a8"/>
</g>
</g>
</svg>
