<svg xmlns="http://www.w3.org/2000/svg" width="630.380" height="497.307" viewBox="-44.327 -44.327 315.190 248.654" preserveAspectRatio="xMidYMid meet">
<style>polygon,polyline,line,path{vector-effect:non-scaling-stroke}</style>
<defs><marker id="arrow-i" viewBox="0 0 10 10" refX="10" refY="5" markerWidth="6" markerHeight="6" orient="auto-start-reverse"><path d="M0 0L10 5L0 10z" fill="#3e68a8"/></marker><marker id="arrow-p" viewBox="0 0 10 10" refX="10" refY="5" markerWidth="6" markerHeight="6" orient="auto-start-reverse"><path d="M0 0L10 5L0 10z" fill="#a84a1e"/></marker></defs>
<g transform="translate(0,160) scale(1,-1)">
<g id="islands" fill="#9fbf8a" fill-rule="evenodd" stroke="none">
<path d="M-30 8.500 L-30 -24 L-29.971 -24.588 L-29.885 -25.171 L-29.742 -25.742 L-29.543 -26.296 L-29.292 -26.828 L-28.989 -27.333 L-28.638 -27.806 L-28.243 -28.243 L-27.806 -28.638 L-27.333 -28.989 L-26.828 -29.292 L-26.296 -29.543 L-25.742 -29.742 L-25.171 -29.885 L-24.588 -29.971 L-24 -30 L8.500 -30 L8.500 -12 L-11.853 -12 L-11.993 -11.993 L-12 -11.853 L-12 8.500 Z"/>
<path d="M-30 184 L-30 153.500 L-12 153.500 L-12 171.853 L-11.993 171.993 L-11.853 172 L8.500 172 L8.500 190 L-24 190 L-24.588 189.971 L-25.171 189.885 L-25.742 189.742 L-26.296 189.543 L-26.828 189.292 L-27.333 188.989 L-27.806 188.638 L-28.243 188.243 L-28.638 187.806 L-28.989 187.333 L-29.292 186.828 L-29.543 186.296 L-29.742 185.742 L-29.885 185.171 L-29.971 184.588 Z"/>
<path d="M189.500 -12 L189.500 -30 L214.590 -30 L215.185 -29.970 L215.774 -29.882 L216.351 -29.736 L216.911 -29.533 L217.448 -29.275 L217.957 -28.966 L218.433 -28.608 L218.871 -28.204 L219.267 -27.759 L219.616 -27.276 L219.916 -26.762 L225.452 -16.087 L209.472 -7.801 L207.364 -11.868 L207.291 -11.993 L207.146 -12 Z"/>
<path d="M189.500 190 L189.500 172 L207.146 172 L207.291 171.993 L207.364 171.868 L210.653 165.524 L212.713 161.551 L228.693 169.837 L219.916 186.762 L219.616 187.276 L219.267 187.759 L218.871 188.204 L218.433 188.608 L217.957 188.966 L217.448 189.275 L216.911 189.533 L216.351 189.736 L215.774 189.882 L215.185 189.970 L214.590 190 Z"/>
<path d="M237.189 45.652 L234.790 41.025 L250.770 32.740 L255.863 42.562 L256.102 43.084 L256.291 43.625 L256.427 44.183 L256.509 44.751 L256.536 45.324 L256.536 53.500 L238.536 53.500 L238.536 48.394 L238.530 48.252 L238.470 48.123 Z"/>
<path d="M254.010 121.011 L238.031 112.725 L238.470 111.877 L238.530 111.748 L238.536 111.606 L238.536 99.500 L256.536 99.500 L256.536 114.676 L256.509 115.249 L256.427 115.817 L256.291 116.375 L256.102 116.916 L255.863 117.438 Z"/>
<path d="M12 35.500 L12 18 L12.029 17.412 L12.115 16.829 L12.258 16.258 L12.457 15.704 L12.708 15.172 L13.011 14.667 L13.362 14.194 L13.757 13.757 L14.194 13.362 L14.667 13.011 L15.172 12.708 L15.704 12.457 L16.258 12.258 L16.829 12.115 L17.412 12.029 L18 12 L42 12 L42.588 12.029 L43.171 12.115 L43.742 12.258 L44.296 12.457 L44.828 12.708 L45.333 13.011 L45.806 13.362 L46.243 13.757 L46.638 14.194 L46.989 14.667 L47.292 15.172 L47.543 15.704 L47.742 16.258 L47.885 16.829 L47.971 17.412 L48 18 L48 35.500 Z"/>
<path d="M12 117 L12 99.500 L48 99.500 L48 117 L47.971 117.588 L47.885 118.171 L47.742 118.742 L47.543 119.296 L47.292 119.828 L46.989 120.333 L46.638 120.806 L46.243 121.243 L45.806 121.638 L45.333 121.989 L44.828 122.292 L44.296 122.543 L43.742 122.742 L43.171 122.885 L42.588 122.971 L42 123 L18 123 L17.412 122.971 L16.829 122.885 L16.258 122.742 L15.704 122.543 L15.172 122.292 L14.667 121.989 L14.194 121.638 L13.757 121.243 L13.362 120.806 L13.011 120.333 L12.708 119.828 L12.457 119.296 L12.258 118.742 L12.115 118.171 L12.029 117.588 Z"/>
<path d="M72 35.500 L72 18 L72.029 17.412 L72.115 16.829 L72.258 16.258 L72.457 15.704 L72.708 15.172 L73.011 14.667 L73.362 14.194 L73.757 13.757 L74.194 13.362 L74.667 13.011 L75.172 12.708 L75.704 12.457 L76.258 12.258 L76.829 12.115 L77.412 12.029 L78 12 L102 12 L102.588 12.029 L103.171 12.115 L103.742 12.258 L104.296 12.457 L104.828 12.708 L105.333 13.011 L105.806 13.362 L106.243 13.757 L106.638 14.194 L106.989 14.667 L107.292 15.172 L107.543 15.704 L107.742 16.258 L107.885 16.829 L107.971 17.412 L108 18 L108 35.500 Z"/>
<path d="M72 117 L72 99.500 L108 99.500 L108 117 L107.971 117.588 L107.885 118.171 L107.742 118.742 L107.543 119.296 L107.292 119.828 L106.989 120.333 L106.638 120.806 L106.243 121.243 L105.806 121.638 L105.333 121.989 L104.828 122.292 L104.296 122.543 L103.742 122.742 L103.171 122.885 L102.588 122.971 L102 123 L78 123 L77.412 122.971 L76.829 122.885 L76.258 122.742 L75.704 122.543 L75.172 122.292 L74.667 121.989 L74.194 121.638 L73.757 121.243 L73.362 120.806 L73.011 120.333 L72.708 119.828 L72.457 119.296 L72.258 118.742 L72.115 118.171 L72.029 117.588 Z"/>
<path d="M132 35.500 L132 18 L132.029 17.412 L132.115 16.829 L132.258 16.258 L132.457 15.704 L132.708 15.172 L133.011 14.667 L133.362 14.194 L133.757 13.757 L134.194 13.362 L134.667 13.011 L135.172 12.708 L135.704 12.457 L136.258 12.258 L136.829 12.115 L137.412 12.029 L138 12 L162 12 L162.588 12.029 L163.171 12.115 L163.742 12.258 L164.296 12.457 L164.828 12.708 L165.333 13.011 L165.806 13.362 L166.243 13.757 L166.638 14.194 L166.989 14.667 L167.292 15.172 L167.543 15.704 L167.742 16.258 L167.885 16.829 L167.971 17.412 L168 18 L168 35.500 Z"/>
<path d="M132 117 L132 99.500 L168 99.500 L168 117 L167.971 117.588 L167.885 118.171 L167.742 118.742 L167.543 119.296 L167.292 119.828 L166.989 120.333 L166.638 120.806 L166.243 121.243 L165.806 121.638 L165.333 121.989 L164.828 122.292 L164.296 122.543 L163.742 122.742 L163.171 122.885 L162.588 122.971 L162 123 L138 123 L137.412 122.971 L136.829 122.885 L136.258 122.742 L135.704 122.543 L135.172 122.292 L134.667 121.989 L134.194 121.638 L133.757 121.243 L133.362 120.806 L133.011 120.333 L132.708 119.828 L132.457 119.296 L132.258 118.742 L132.115 118.171 L132.029 117.588 Z"/>
<path d="M192 44.500 L192 35.246 L192.029 34.655 L192.116 34.070 L192.261 33.496 L192.461 32.939 L192.715 32.405 L193.020 31.898 L193.374 31.424 L193.773 30.987 L194.213 30.592 L194.690 30.242 L195.199 29.940 L195.735 29.690 L196.293 29.494 L196.868 29.354 L197.453 29.271 L198.044 29.246 L198.635 29.279 L199.220 29.371 L199.792 29.520 L200.347 29.724 L200.880 29.982 L201.384 30.291 L201.856 30.649 L202.290 31.051 L202.682 31.493 L203.029 31.973 L203.327 32.484 L209.557 44.500 Z"/>
<path d="M192 117 L192 99.500 L210.500 99.500 L210.500 46.318 L213.863 52.804 L214.102 53.325 L214.291 53.867 L214.427 54.425 L214.509 54.992 L214.536 55.566 L214.536 104.434 L214.509 105.008 L214.427 105.575 L214.291 106.133 L214.102 106.675 L213.863 107.196 L207.347 119.762 L207.047 120.276 L206.698 120.759 L206.302 121.204 L205.864 121.608 L205.388 121.966 L204.879 122.275 L204.342 122.533 L203.782 122.736 L203.205 122.882 L202.616 122.970 L202.021 123 L198 123 L197.412 122.971 L196.829 122.885 L196.258 122.742 L195.704 122.543 L195.172 122.292 L194.667 121.989 L194.194 121.638 L193.757 121.243 L193.362 120.806 L193.011 120.333 L192.708 119.828 L192.457 119.296 L192.258 118.742 L192.115 118.171 L192.029 117.588 Z"/>
</g>
<g id="stalls" stroke="none">
</g>
<g id="paint" fill="none" stroke="#2a2a2a" stroke-width="0.4" stroke-linecap="round" stroke-linejoin="round">
<polyline points="189,172 189,190 180,190 180,172"/>
<polyline points="171,190 171,172 180,172 180,190"/>
<polyline points="171,172 171,190 162,190 162,172"/>
<polyline points="162,172 162,190 153,190 153,172"/>
<polyline points="153,172 153,190 144,190 144,172"/>
<polyline points="144,172 144,190 135,190 135,172"/>
<polyline points="135,172 135,190 126,190 126,172"/>
<polyline points="126,172 126,190 117,190 117,172"/>
<polyline points="117,172 117,190 108,190 108,172"/>
<polyline points="99,190 99,172 108,172 108,190"/>
<polyline points="99,172 99,190 90,190 90,172"/>
<polyline points="90,172 90,190 81,190 81,172"/>
<polyline points="81,172 81,190 72,190 72,172"/>
<polyline points="72,172 72,190 63,190 63,172"/>
<polyline points="63,172 63,190 54,190 54,172"/>
<polyline points="54,172 54,190 45,190 45,172"/>
<polyline points="45,172 45,190 36,190 36,172"/>
<polyline points="27,190 27,172 36,172 36,190"/>
<polyline points="27,172 27,190 18,190 18,172"/>
<polyline points="18,172 18,190 9,190 9,172"/>
<polyline points="9,-12 9,-30 18,-30 18,-12"/>
<polyline points="18,-12 18,-30 27,-30 27,-12"/>
<polyline points="27,-12 27,-30 36,-30 36,-12"/>
<polyline points="45,-30 45,-12 36,-12 36,-30"/>
<polyline points="45,-12 45,-30 54,-30 54,-12"/>
<polyline points="54,-12 54,-30 63,-30 63,-12"/>
<polyline points="63,-12 63,-30 72,-30 72,-12"/>
<polyline points="72,-12 72,-30 81,-30 81,-12"/>
<polyline points="81,-12 81,-30 90,-30 90,-12"/>
<polyline points="90,-12 90,-30 99,-30 99,-12"/>
<polyline points="99,-12 99,-30 108,-30 108,-12"/>
<polyline points="117,-30 117,-12 108,-12 108,-30"/>
<polyline points="117,-12 117,-30 126,-30 126,-12"/>
<polyline points="126,-12 126,-30 135,-30 135,-12"/>
<polyline points="135,-12 135,-30 144,-30 144,-12"/>
<polyline points="144,-12 144,-30 153,-30 153,-12"/>
<polyline points="153,-12 153,-30 162,-30 162,-12"/>
<polyline points="162,-12 162,-30 171,-30 171,-12"/>
<polyline points="171,-12 171,-30 180,-30 180,-12"/>
<polyline points="189,-30 189,-12 180,-12 180,-30"/>
<polyline points="-12,153 -30,153 -30,144 -12,144"/>
<polyline points="-12,144 -30,144 -30,135 -12,135"/>
<polyline points="-12,135 -30,135 -30,126 -12,126"/>
<polyline points="-12,126 -30,126 -30,117 -12,117"/>
<polyline points="-12,117 -30,117 -30,108 -12,108"/>
<polyline points="-30,99 -12,99 -12,108 -30,108"/>
<polyline points="-12,99 -30,99 -30,90 -12,90"/>
<polyline points="-12,90 -30,90 -30,81 -12,81"/>
<polyline points="-12,81 -30,81 -30,72 -12,72"/>
<polyline points="-12,72 -30,72 -30,63 -12,63"/>
<polyline points="-12,63 -30,63 -30,54 -12,54"/>
<polyline points="-12,54 -30,54 -30,45 -12,45"/>
<polyline points="-12,45 -30,45 -30,36 -12,36"/>
<polyline points="-30,27 -12,27 -12,36 -30,36"/>
<polyline points="-12,27 -30,27 -30,18 -12,18"/>
<polyline points="-12,18 -30,18 -30,9 -12,9"/>
<polyline points="12,36 30,36 30,45 12,45"/>
<polyline points="12,45 30,45 30,54 12,54"/>
<polyline points="12,54 30,54 30,63 12,63"/>
<polyline points="12,63 30,63 30,72 12,72"/>
<polyline points="12,72 30,72 30,81 12,81"/>
<polyline points="12,81 30,81 30,90 12,90"/>
<polyline points="12,90 30,90 30,99 12,99"/>
<polyline points="48,99 30,99 30,90 48,90"/>
<polyline points="48,90 30,90 30,81 48,81"/>
<polyline points="48,81 30,81 30,72 48,72"/>
<polyline points="48,72 30,72 30,63 48,63"/>
<polyline points="48,63 30,63 30,54 48,54"/>
<polyline points="48,54 30,54 30,45 48,45"/>
<polyline points="48,45 30,45 30,36 48,36"/>
<polyline points="72,36 90,36 90,45 72,45"/>
<polyline points="72,45 90,45 90,54 72,54"/>
<polyline points="72,54 90,54 90,63 72,63"/>
<polyline points="72,63 90,63 90,72 72,72"/>
<polyline points="72,72 90,72 90,81 72,81"/>
<polyline points="72,81 90,81 90,90 72,90"/>
<polyline points="72,90 90,90 90,99 72,99"/>
<polyline points="108,99 90,99 90,90 108,90"/>
<polyline points="108,90 90,90 90,81 108,81"/>
<polyline points="108,81 90,81 90,72 108,72"/>
<polyline points="108,72 90,72 90,63 108,63"/>
<polyline points="108,63 90,63 90,54 108,54"/>
<polyline points="108,54 90,54 90,45 108,45"/>
<polyline points="108,45 90,45 90,36 108,36"/>
<polyline points="132,36 150,36 150,45 132,45"/>
<polyline points="132,45 150,45 150,54 132,54"/>
<polyline points="132,54 150,54 150,63 132,63"/>
<polyline points="132,63 150,63 150,72 132,72"/>
<polyline points="132,72 150,72 150,81 132,81"/>
<polyline points="132,81 150,81 150,90 132,90"/>
<polyline points="132,90 150,90 150,99 132,99"/>
<polyline points="168,99 150,99 150,90 168,90"/>
<polyline points="168,90 150,90 150,81 168,81"/>
<polyline points="168,81 150,81 150,72 168,72"/>
<polyline points="168,72 150,72 150,63 168,63"/>
<polyline points="168,63 150,63 150,54 168,54"/>
<polyline points="168,54 150,54 150,45 168,45"/>
<polyline points="168,45 150,45 150,36 168,36"/>
<polyline points="192,45 210,45 210,54 192,54"/>
<polyline points="192,54 210,54 210,63 192,63"/>
<polyline points="192,63 210,63 210,72 192,72"/>
<polyline points="192,72 210,72 210,81 192,81"/>
<polyline points="192,81 210,81 210,90 192,90"/>
<polyline points="192,90 210,90 210,99 192,99"/>
<polyline points="209.702,-7.357 225.682,-15.643 229.825,-7.653 213.845,0.633"/>
<polyline points="213.845,0.633 229.825,-7.653 233.968,0.337 217.988,8.622"/>
<polyline points="217.988,8.622 233.968,0.337 238.111,8.326 222.131,16.612"/>
<polyline points="222.131,16.612 238.111,8.326 242.254,16.316 226.274,24.602"/>
<polyline points="226.274,24.602 242.254,16.316 246.397,24.306 230.417,32.592"/>
<polyline points="230.417,32.592 246.397,24.306 250.540,32.296 234.560,40.581"/>
<polyline points="237.801,113.169 253.780,121.455 249.637,129.444 233.658,121.158"/>
<polyline points="233.658,121.158 249.637,129.444 245.494,137.434 229.515,129.148"/>
<polyline points="229.515,129.148 245.494,137.434 241.351,145.424 225.372,137.138"/>
<polyline points="225.372,137.138 241.351,145.424 237.209,153.414 221.229,145.128"/>
<polyline points="221.229,145.128 237.209,153.414 233.066,161.403 217.086,153.117"/>
<polyline points="217.086,153.117 233.066,161.403 228.923,169.393 212.943,161.107"/>
<polyline points="238.536,54 256.536,54 256.536,63 238.536,63"/>
<polyline points="238.536,63 256.536,63 256.536,72 238.536,72"/>
<polyline points="238.536,72 256.536,72 256.536,81 238.536,81"/>
<polyline points="238.536,81 256.536,81 256.536,90 238.536,90"/>
<polyline points="238.536,90 256.536,90 256.536,99 238.536,99"/>
<line x1="173.029" y1="190" x2="171" y2="187.971"/>
<line x1="177.272" y1="190" x2="171" y2="183.728"/>
<line x1="180" y1="188.485" x2="171" y2="179.485"/>
<line x1="180" y1="184.243" x2="171" y2="175.243"/>
<line x1="180" y1="180" x2="172" y2="172"/>
<line x1="180" y1="175.757" x2="176.243" y2="172"/>
<line x1="100.905" y1="190" x2="99" y2="188.095"/>
<line x1="105.147" y1="190" x2="99" y2="183.853"/>
<line x1="108" y1="188.610" x2="99" y2="179.610"/>
<line x1="108" y1="184.368" x2="99" y2="175.368"/>
<line x1="108" y1="180.125" x2="99.875" y2="172"/>
<line x1="108" y1="175.882" x2="104.118" y2="172"/>
<line x1="28.780" y1="190" x2="27" y2="188.220"/>
<line x1="33.022" y1="190" x2="27" y2="183.978"/>
<line x1="36" y1="188.735" x2="27" y2="179.735"/>
<line x1="36" y1="184.492" x2="27" y2="175.492"/>
<line x1="36" y1="180.250" x2="27.750" y2="172"/>
<line x1="36" y1="176.007" x2="31.993" y2="172"/>
<line x1="42.125" y1="-30" x2="45" y2="-27.125"/>
<line x1="37.882" y1="-30" x2="45" y2="-22.882"/>
<line x1="36" y1="-27.640" x2="45" y2="-18.640"/>
<line x1="36" y1="-23.397" x2="45" y2="-14.397"/>
<line x1="36" y1="-19.154" x2="43.154" y2="-12"/>
<line x1="36" y1="-14.912" x2="38.912" y2="-12"/>
<line x1="114.250" y1="-30" x2="117" y2="-27.250"/>
<line x1="110.007" y1="-30" x2="117" y2="-23.007"/>
<line x1="108" y1="-27.765" x2="117" y2="-18.765"/>
<line x1="108" y1="-23.522" x2="117" y2="-14.522"/>
<line x1="108" y1="-19.279" x2="115.279" y2="-12"/>
<line x1="108" y1="-15.037" x2="111.037" y2="-12"/>
<line x1="186.375" y1="-30" x2="189" y2="-27.375"/>
<line x1="182.132" y1="-30" x2="189" y2="-23.132"/>
<line x1="180" y1="-27.889" x2="189" y2="-18.889"/>
<line x1="180" y1="-23.647" x2="189" y2="-14.647"/>
<line x1="180" y1="-19.404" x2="187.404" y2="-12"/>
<line x1="180" y1="-15.161" x2="183.161" y2="-12"/>
<line x1="-30" y1="102.125" x2="-26.875" y2="99"/>
<line x1="-30" y1="106.368" x2="-22.632" y2="99"/>
<line x1="-27.390" y1="108" x2="-18.390" y2="99"/>
<line x1="-23.147" y1="108" x2="-14.147" y2="99"/>
<line x1="-18.905" y1="108" x2="-12" y2="101.095"/>
<line x1="-14.662" y1="108" x2="-12" y2="105.338"/>
<line x1="-30" y1="30" x2="-27" y2="27"/>
<line x1="-30" y1="34.243" x2="-22.757" y2="27"/>
<line x1="-27.515" y1="36" x2="-18.515" y2="27"/>
<line x1="-23.272" y1="36" x2="-14.272" y2="27"/>
<line x1="-19.029" y1="36" x2="-12" y2="28.971"/>
<line x1="-14.787" y1="36" x2="-12" y2="33.213"/>
<path d="M-30 8.500 L-30 -24 L-29.971 -24.588 L-29.885 -25.171 L-29.742 -25.742 L-29.543 -26.296 L-29.292 -26.828 L-28.989 -27.333 L-28.638 -27.806 L-28.243 -28.243 L-27.806 -28.638 L-27.333 -28.989 L-26.828 -29.292 L-26.296 -29.543 L-25.742 -29.742 L-25.171 -29.885 L-24.588 -29.971 L-24 -30 L8.500 -30 L8.500 -12 L-11.853 -12 L-11.993 -11.993 L-12 -11.853 L-12 8.500 Z"/>
<path d="M-30 184 L-30 153.500 L-12 153.500 L-12 171.853 L-11.993 171.993 L-11.853 172 L8.500 172 L8.500 190 L-24 190 L-24.588 189.971 L-25.171 189.885 L-25.742 189.742 L-26.296 189.543 L-26.828 189.292 L-27.333 188.989 L-27.806 188.638 L-28.243 188.243 L-28.638 187.806 L-28.989 187.333 L-29.292 186.828 L-29.543 186.296 L-29.742 185.742 L-29.885 185.171 L-29.971 184.588 Z"/>
<path d="M189.500 -12 L189.500 -30 L214.590 -30 L215.185 -29.970 L215.774 -29.882 L216.351 -29.736 L216.911 -29.533 L217.448 -29.275 L217.957 -28.966 L218.433 -28.608 L218.871 -28.204 L219.267 -27.759 L219.616 -27.276 L219.916 -26.762 L225.452 -16.087 L209.472 -7.801 L207.364 -11.868 L207.291 -11.993 L207.146 -12 Z"/>
<path d="M189.500 190 L189.500 172 L207.146 172 L207.291 171.993 L207.364 171.868 L210.653 165.524 L212.713 161.551 L228.693 169.837 L219.916 186.762 L219.616 187.276 L219.267 187.759 L218.871 188.204 L218.433 188.608 L217.957 188.966 L217.448 189.275 L216.911 189.533 L216.351 189.736 L215.774 189.882 L215.185 189.970 L214.590 190 Z"/>
<path d="M237.189 45.652 L234.790 41.025 L250.770 32.740 L255.863 42.562 L256.102 43.084 L256.291 43.625 L256.427 44.183 L256.509 44.751 L256.536 45.324 L256.536 53.500 L238.536 53.500 L238.536 48.394 L238.530 48.252 L238.470 48.123 Z"/>
<path d="M254.010 121.011 L238.031 112.725 L238.470 111.877 L238.530 111.748 L238.536 111.606 L238.536 99.500 L256.536 99.500 L256.536 114.676 L256.509 115.249 L256.427 115.817 L256.291 116.375 L256.102 116.916 L255.863 117.438 Z"/>
<path d="M12 35.500 L12 18 L12.029 17.412 L12.115 16.829 L12.258 16.258 L12.457 15.704 L12.708 15.172 L13.011 14.667 L13.362 14.194 L13.757 13.757 L14.194 13.362 L14.667 13.011 L15.172 12.708 L15.704 12.457 L16.258 12.258 L16.829 12.115 L17.412 12.029 L18 12 L42 12 L42.588 12.029 L43.171 12.115 L43.742 12.258 L44.296 12.457 L44.828 12.708 L45.333 13.011 L45.806 13.362 L46.243 13.757 L46.638 14.194 L46.989 14.667 L47.292 15.172 L47.543 15.704 L47.742 16.258 L47.885 16.829 L47.971 17.412 L48 18 L48 35.500 Z"/>
<path d="M12 117 L12 99.500 L48 99.500 L48 117 L47.971 117.588 L47.885 118.171 L47.742 118.742 L47.543 119.296 L47.292 119.828 L46.989 120.333 L46.638 120.806 L46.243 121.243 L45.806 121.638 L45.333 121.989 L44.828 122.292 L44.296 122.543 L43.742 122.742 L43.171 122.885 L42.588 122.971 L42 123 L18 123 L17.412 122.971 L16.829 122.885 L16.258 122.742 L15.704 122.543 L15.172 122.292 L14.667 121.989 L14.194 121.638 L13.757 121.243 L13.362 120.806 L13.011 120.333 L12.708 119.828 L12.457 119.296 L12.258 118.742 L12.115 118.171 L12.029 117.588 Z"/>
<path d="M72 35.500 L72 18 L72.029 17.412 L72.115 16.829 L72.258 16.258 L72.457 15.704 L72.708 15.172 L73.011 14.667 L73.362 14.194 L73.757 13.757 L74.194 13.362 L74.667 13.011 L75.172 12.708 L75.704 12.457 L76.258 12.258 L76.829 12.115 L77.412 12.029 L78 12 L102 12 L102.588 12.029 L103.171 12.115 L103.742 12.258 L104.296 12.457 L104.828 12.708 L105.333 13.011 L105.806 13.362 L106.243 13.757 L106.638 14.194 L106.989 14.667 L107.292 15.172 L107.543 15.704 L107.742 16.258 L107.885 16.829 L107.971 17.412 L108 18 L108 35.500 Z"/>
<path d="M72 117 L72 99.500 L108 99.500 L108 117 L107.971 117.588 L107.885 118.171 L107.742 118.742 L107.543 119.296 L107.292 119.828 L106.989 120.333 L106.638 120.806 L106.243 121.243 L105.806 121.638 L105.333 121.989 L104.828 122.292 L104.296 122.543 L103.742 122.742 L103.171 122.885 L102.588 122.971 L102 123 L78 123 L77.412 122.971 L76.829 122.885 L76.258 122.742 L75.704 122.543 L75.172 122.292 L74.667 121.989 L74.194 121.638 L73.757 121.243 L73.362 120.806 L73.011 120.333 L72.708 119.828 L72.457 119.296 L72.258 118.742 L72.115 118.171 L72.029 117.588 Z"/>
<path d="M132 35.500 L132 18 L132.029 17.412 L132.115 16.829 L132.258 16.258 L132.457 15.704 L132.708 15.172 L133.011 14.667 L133.362 14.194 L133.757 13.757 L134.194 13.362 L134.667 13.011 L135.172 12.708 L135.704 12.457 L136.258 12.258 L136.829 12.115 L137.412 12.029 L138 12 L162 12 L162.588 12.029 L163.171 12.115 L163.742 12.258 L164.296 12.457 L164.828 12.708 L165.333 13.011 L165.806 13.362 L166.243 13.757 L166.638 14.194 L166.989 14.667 L167.292 15.172 L167.543 15.704 L167.742 16.258 L167.885 16.829 L167.971 17.412 L168 18 L168 35.500 Z"/>
<path d="M132 117 L132 99.500 L168 99.500 L168 117 L167.971 117.588 L167.885 118.171 L167.742 118.742 L167.543 119.296 L167.292 119.828 L166.989 120.333 L166.638 120.806 L166.243 121.243 L165.806 121.638 L165.333 121.989 L164.828 122.292 L164.296 122.543 L163.742 122.742 L163.171 122.885 L162.588 122.971 L162 123 L138 123 L137.412 122.971 L136.829 122.885 L136.258 122.742 L135.704 122.543 L135.172 122.292 L134.667 121.989 L134.194 121.638 L133.757 121.243 L133.362 120.806 L133.011 120.333 L132.708 119.828 L132.457 119.296 L132.258 118.742 L132.115 118.171 L132.029 117.588 Z"/>
<path d="M192 44.500 L192 35.246 L192.029 34.655 L192.116 34.070 L192.261 33.496 L192.461 32.939 L192.715 32.405 L193.020 31.898 L193.374 31.424 L193.773 30.987 L194.213 30.592 L194.690 30.242 L195.199 29.940 L195.735 29.690 L196.293 29.494 L196.868 29.354 L197.453 29.271 L198.044 29.246 L198.635 29.279 L199.220 29.371 L199.792 29.520 L200.347 29.724 L200.880 29.982 L201.384 30.291 L201.856 30.649 L202.290 31.051 L202.682 31.493 L203.029 31.973 L203.327 32.484 L209.557 44.500 Z"/>
<path d="M192 117 L192 99.500 L210.500 99.500 L210.500 46.318 L213.863 52.804 L214.102 53.325 L214.291 53.867 L214.427 54.425 L214.509 54.992 L214.536 55.566 L214.536 104.434 L214.509 105.008 L214.427 105.575 L214.291 106.133 L214.102 106.675 L213.863 107.196 L207.347 119.762 L207.047 120.276 L206.698 120.759 L206.302 121.204 L205.864 121.608 L205.388 121.966 L204.879 122.275 L204.342 122.533 L203.782 122.736 L203.205 122.882 L202.616 122.970 L202.021 123 L198 123 L197.412 122.971 L196.829 122.885 L196.258 122.742 L195.704 122.543 L195.172 122.292 L194.667 121.989 L194.194 121.638 L193.757 121.243 L193.362 120.806 L193.011 120.333 L192.708 119.828 L192.457 119.296 L192.258 118.742 L192.115 118.171 L192.029 117.588 Z"/>
</g>
<g id="graph">
<line x1="0" y1="0" x2="60" y2="0" stroke="#a84a1e" stroke-width="0.6" stroke-dasharray="8 5"/>
<line x1="60" y1="0" x2="120" y2="0" stroke="#a84a1e" stroke-width="0.6" stroke-dasharray="8 5"/>
<line x1="120" y1="0" x2="180" y2="0" stroke="#a84a1e" stroke-width="0.6" stroke-dasharray="8 5"/>
<line x1="180" y1="0" x2="200" y2="0" stroke="#a84a1e" stroke-width="0.6" stroke-dasharray="8 5"/>
<line x1="200" y1="0" x2="226.536" y2="51.176" stroke="#a84a1e" stroke-width="0.6" stroke-dasharray="8 5"/>
<line x1="226.536" y1="51.176" x2="226.536" y2="108.824" stroke="#a84a1e" stroke-width="0.6" stroke-dasharray="8 5"/>
<line x1="226.536" y1="108.824" x2="212.963" y2="135" stroke="#a84a1e" stroke-width="0.6" stroke-dasharray="8 5"/>
<line x1="212.963" y1="135" x2="200" y2="160" stroke="#a84a1e" stroke-width="0.6" stroke-dasharray="8 5"/>
<line x1="200" y1="160" x2="180" y2="160" stroke="#a84a1e" stroke-width="0.6" stroke-dasharray="8 5"/>
<line x1="180" y1="160" x2="120" y2="160" stroke="#a84a1e" stroke-width="0.6" stroke-dasharray="8 5"/>
<line x1="120" y1="160" x2="60" y2="160" stroke="#a84a1e" stroke-width="0.6" stroke-dasharray="8 5"/>
<line x1="60" y1="160" x2="0" y2="160" stroke="#a84a1e" stroke-width="0.6" stroke-dasharray="8 5"/>
<line x1="0" y1="160" x2="0" y2="135" stroke="#a84a1e" stroke-width="0.6" stroke-dasharray="8 5"/>
<line x1="0" y1="135" x2="0" y2="0" stroke="#a84a1e" stroke-width="0.6" stroke-dasharray="8 5"/>
<line x1="180" y1="0" x2="180" y2="135" stroke="#3e68a8" stroke-width="0.6" stroke-dasharray="8 5"/>
<line x1="180" y1="135" x2="180" y2="160" stroke="#3e68a8" stroke-width="0.6" stroke-dasharray="8 5"/>
<line x1="120" y1="0" x2="120" y2="135" stroke="#3e68a8" stroke-width="0.6" stroke-dasharray="8 5"/>
<line x1="120" y1="135" x2="120" y2="160" stroke="#3e68a8" stroke-width="0.6" stroke-dasharray="8 5"/>
<line x1="60" y1="0" x2="60" y2="135" stroke="#3e68a8" stroke-width="0.6" stroke-dasharray="8 5"/>
<line x1="60" y1="135" x2="60" y2="160" stroke="#3e68a8" stroke-width="0.6" stroke-dasharray="8 5"/>
<line x1="212.963" y1="135" x2="180" y2="135" stroke="#3e68a8" stroke-width="0.6" stroke-dasharray="8 5"/>
<line x1="180" y1="135" x2="120" y2="135" stroke="#3e68a8" stroke-width="0.6" stroke-dasharray="8 5"/>
<line x1="120" y1="135" x2="60" y2="135" stroke="#3e68a8" stroke-width="0.6" stroke-dasharray="8 5"/>
<line x1="60" y1="135" x2="0" y2="135" stroke="#3e68a8" stroke-width="0.6" stroke-dasharray="8 5"/>
<circle cx="0" cy="0" r="0.8" fill="#a84a1e"/>
<circle cx="200" cy="0" r="0.8" fill="#a84a1e"/>
<circle cx="226.536" cy="51.176" r="0.8" fill="#a84a1e"/>
<circle cx="226.536" cy="108.824" r="0.8" fill="#a84a1e"/>
<circle cx="200" cy="160" r="0.8" fill="#a84a1e"/>
<circle cx="0" cy="160" r="0.8" fill="#a84a1e"/>
<circle cx="180" cy="0" r="0.8" fill="#3e68a8"/>
<circle cx="180" cy="160" r="0.8" fill="#3e68a8"/>
<circle cx="120" cy="0" r="0.8" fill="#3e68a8"/>
<circle cx="120" cy="160" r="0.8" fill="#3e68a8"/>
<circle cx="60" cy="0" r="0.8" fill="#3e68a8"/>
<circle cx="60" cy="160" r="0.8" fill="#3e68a8"/>
<circle cx="212.963" cy="135" r="0.8" fill="#3e68a8"/>
<circle cx="0" cy="135" r="0.8" fill="#3e68a8"/>
<circle cx="180" cy="135" r="0.8" fill="#3e68a8"/>
<circle cx="120" cy="135" r="0.8" fill="#3e68a8"/>
<circle cx="60" cy="135" r="0.8" fill="#3e68a8"/>
</g>
</g>
</svg>
