<svg xmlns="http://www.w3.org/2000/svg" width="636.346" height="497.850" viewBox="-44.462 -44.462 318.173 248.925" preserveAspectRatio="xMidYMid meet">
<style>polygon,line{vector-effect:non-scaling-stroke}</style>
<g transform="translate(0,160) scale(1,-1)">
<g id="boundary" fill="none" stroke="#222" stroke-width="0.5">
<polygon points="0,0 200,0 206.080,7.555 211.539,15.570 216.343,23.994 220.460,32.774 223.865,41.854 226.536,51.176 228.457,60.682 229.614,70.310 230,80 229.614,89.690 228.457,99.318 226.536,108.824 223.865,118.146 220.460,127.226 216.343,136.006 211.539,144.430 206.080,152.445 200,160 0,160"/>
</g>
<g id="stalls" stroke="#1f5f1a" stroke-width="0.25">
<polygon points="189,190 180,190 180,172 189,172" fill="#8fc98a"/>
<polygon points="180,190 171,190 171,172 180,172" fill="#a1b885"/>
<polygon points="171,190 162,190 162,172 171,172" fill="#8fc98a"/>
<polygon points="162,190 153,190 153,172 162,172" fill="#8fc98a"/>
<polygon points="153,190 144,190 144,172 153,172" fill="#8fc98a"/>
<polygon points="144,190 135,190 135,172 144,172" fill="#8fc98a"/>
<polygon points="135,190 126,190 126,172 135,172" fill="#8fc98a"/>
<polygon points="126,190 117,190 117,172 126,172" fill="#8fc98a"/>
<polygon points="117,190 108,190 108,172 117,172" fill="#8fc98a"/>
<polygon points="108,190 99,190 99,172 108,172" fill="#a1b885"/>
<polygon points="99,190 90,190 90,172 99,172" fill="#8fc98a"/>
<polygon points="90,190 81,190 81,172 90,172" fill="#8fc98a"/>
<polygon points="81,190 72,190 72,172 81,172" fill="#8fc98a"/>
<polygon points="72,190 63,190 63,172 72,172" fill="#8fc98a"/>
<polygon points="63,190 54,190 54,172 63,172" fill="#8fc98a"/>
<polygon points="54,190 45,190 45,172 54,172" fill="#8fc98a"/>
<polygon points="45,190 36,190 36,172 45,172" fill="#8fc98a"/>
<polygon points="36,190 27,190 27,172 36,172" fill="#a1b885"/>
<polygon points="27,190 18,190 18,172 27,172" fill="#8fc98a"/>
<polygon points="18,190 9,190 9,172 18,172" fill="#8fc98a"/>
<polygon points="9,-30 18,-30 18,-12 9,-12" fill="#8fc98a"/>
<polygon points="18,-30 27,-30 27,-12 18,-12" fill="#8fc98a"/>
<polygon points="27,-30 36,-30 36,-12 27,-12" fill="#8fc98a"/>
<polygon points="36,-30 45,-30 45,-12 36,-12" fill="#a1b885"/>
<polygon points="45,-30 54,-30 54,-12 45,-12" fill="#8fc98a"/>
<polygon points="54,-30 63,-30 63,-12 54,-12" fill="#8fc98a"/>
<polygon points="63,-30 72,-30 72,-12 63,-12" fill="#8fc98a"/>
<polygon points="72,-30 81,-30 81,-12 72,-12" fill="#8fc98a"/>
<polygon points="81,-30 90,-30 90,-12 81,-12" fill="#8fc98a"/>
<polygon points="90,-30 99,-30 99,-12 90,-12" fill="#8fc98a"/>
<polygon points="99,-30 108,-30 108,-12 99,-12" fill="#8fc98a"/>
<polygon points="108,-30 117,-30 117,-12 108,-12" fill="#a1b885"/>
<polygon points="117,-30 126,-30 126,-12 117,-12" fill="#8fc98a"/>
<polygon points="126,-30 135,-30 135,-12 126,-12" fill="#8fc98a"/>
<polygon points="135,-30 144,-30 144,-12 135,-12" fill="#8fc98a"/>
<polygon points="144,-30 153,-30 153,-12 144,-12" fill="#8fc98a"/>
<polygon points="153,-30 162,-30 162,-12 153,-12" fill="#8fc98a"/>
<polygon points="162,-30 171,-30 171,-12 162,-12" fill="#8fc98a"/>
<polygon points="171,-30 180,-30 180,-12 171,-12" fill="#8fc98a"/>
<polygon points="180,-30 189,-30 189,-12 180,-12" fill="#a1b885"/>
<polygon points="-30,153 -30,144 -12,144 -12,153" fill="#8fc98a"/>
<polygon points="-30,144 -30,135 -12,135 -12,144" fill="#8fc98a"/>
<polygon points="-30,135 -30,126 -12,126 -12,135" fill="#8fc98a"/>
<polygon points="-30,126 -30,117 -12,117 -12,126" fill="#8fc98a"/>
<polygon points="-30,117 -30,108 -12,108 -12,117" fill="#8fc98a"/>
<polygon points="-30,108 -30,99 -12,99 -12,108" fill="#a1b885"/>
<polygon points="-30,99 -30,90 -12,90 -12,99" fill="#8fc98a"/>
<polygon points="-30,90 -30,81 -12,81 -12,90" fill="#8fc98a"/>
<polygon points="-30,81 -30,72 -12,72 -12,81" fill="#8fc98a"/>
<polygon points="-30,72 -30,63 -12,63 -12,72" fill="#8fc98a"/>
<polygon points="-30,63 -30,54 -12,54 -12,63" fill="#8fc98a"/>
<polygon points="-30,54 -30,45 -12,45 -12,54" fill="#8fc98a"/>
<polygon points="-30,45 -30,36 -12,36 -12,45" fill="#8fc98a"/>
<polygon points="-30,36 -30,27 -12,27 -12,36" fill="#a1b885"/>
<polygon points="-30,27 -30,18 -12,18 -12,27" fill="#8fc98a"/>
<polygon points="-30,18 -30,9 -12,9 -12,18" fill="#8fc98a"/>
<polygon points="30,27 30,36 12,36 12,27" fill="#8fc98a"/>
<polygon points="30,36 30,45 12,45 12,36" fill="#a1b885"/>
<polygon points="30,45 30,54 12,54 12,45" fill="#8fc98a"/>
<polygon points="30,54 30,63 12,63 12,54" fill="#8fc98a"/>
<polygon points="30,63 30,72 12,72 12,63" fill="#8fc98a"/>
<polygon points="30,72 30,81 12,81 12,72" fill="#8fc98a"/>
<polygon points="30,81 30,90 12,90 12,81" fill="#8fc98a"/>
<polygon points="30,90 30,99 12,99 12,90" fill="#8fc98a"/>
<polygon points="30,99 30,108 12,108 12,99" fill="#8fc98a"/>
<polygon points="30,108 30,99 48,99 48,108" fill="#8fc98a"/>
<polygon points="30,99 30,90 48,90 48,99" fill="#8fc98a"/>
<polygon points="30,90 30,81 48,81 48,90" fill="#8fc98a"/>
<polygon points="30,81 30,72 48,72 48,81" fill="#8fc98a"/>
<polygon points="30,72 30,63 48,63 48,72" fill="#8fc98a"/>
<polygon points="30,63 30,54 48,54 48,63" fill="#8fc98a"/>
<polygon points="30,54 30,45 48,45 48,54" fill="#8fc98a"/>
<polygon points="30,45 30,36 48,36 48,45" fill="#8fc98a"/>
<polygon points="30,36 30,27 48,27 48,36" fill="#8fc98a"/>
<polygon points="90,27 90,36 72,36 72,27" fill="#8fc98a"/>
<polygon points="90,36 90,45 72,45 72,36" fill="#a1b885"/>
<polygon points="90,45 90,54 72,54 72,45" fill="#8fc98a"/>
<polygon points="90,54 90,63 72,63 72,54" fill="#8fc98a"/>
<polygon points="90,63 90,72 72,72 72,63" fill="#8fc98a"/>
<polygon points="90,72 90,81 72,81 72,72" fill="#8fc98a"/>
<polygon points="90,81 90,90 72,90 72,81" fill="#8fc98a"/>
<polygon points="90,90 90,99 72,99 72,90" fill="#8fc98a"/>
<polygon points="90,99 90,108 72,108 72,99" fill="#8fc98a"/>
<polygon points="90,108 90,99 108,99 108,108" fill="#8fc98a"/>
<polygon points="90,99 90,90 108,90 108,99" fill="#8fc98a"/>
<polygon points="90,90 90,81 108,81 108,90" fill="#8fc98a"/>
<polygon points="90,81 90,72 108,72 108,81" fill="#8fc98a"/>
<polygon points="90,72 90,63 108,63 108,72" fill="#8fc98a"/>
<polygon points="90,63 90,54 108,54 108,63" fill="#8fc98a"/>
<polygon points="90,54 90,45 108,45 108,54" fill="#8fc98a"/>
<polygon points="90,45 90,36 108,36 108,45" fill="#8fc98a"/>
<polygon points="90,36 90,27 108,27 108,36" fill="#8fc98a"/>
<polygon points="150,27 150,36 132,36 132,27" fill="#8fc98a"/>
<polygon points="150,36 150,45 132,45 132,36" fill="#a1b885"/>
<polygon points="150,45 150,54 132,54 132,45" fill="#8fc98a"/>
<polygon points="150,54 150,63 132,63 132,54" fill="#8fc98a"/>
<polygon points="150,63 150,72 132,72 132,63" fill="#8fc98a"/>
<polygon points="150,72 150,81 132,81 132,72" fill="#8fc98a"/>
<polygon points="150,81 150,90 132,90 132,81" fill="#8fc98a"/>
<polygon points="150,90 150,99 132,99 132,90" fill="#8fc98a"/>
<polygon points="150,99 150,108 132,108 132,99" fill="#8fc98a"/>
<polygon points="150,108 150,99 168,99 168,108" fill="#8fc98a"/>
<polygon points="150,99 150,90 168,90 168,99" fill="#8fc98a"/>
<polygon points="150,90 150,81 168,81 168,90" fill="#8fc98a"/>
<polygon points="150,81 150,72 168,72 168,81" fill="#8fc98a"/>
<polygon points="150,72 150,63 168,63 168,72" fill="#8fc98a"/>
<polygon points="150,63 150,54 168,54 168,63" fill="#8fc98a"/>
<polygon points="150,54 150,45 168,45 168,54" fill="#8fc98a"/>
<polygon points="150,45 150,36 168,36 168,45" fill="#8fc98a"/>
<polygon points="150,36 150,27 168,27 168,36" fill="#8fc98a"/>
<polygon points="259.248,73.230 258.563,82.204 240.616,80.834 241.300,71.861" fill="#8fc98a"/>
<polygon points="258.563,82.204 257.879,91.178 239.931,89.808 240.616,80.834" fill="#8fc98a"/>
<polygon points="257.879,91.178 257.194,100.152 239.246,98.782 239.931,89.808" fill="#8fc98a"/>
<polygon points="257.194,100.152 256.509,109.126 238.562,107.756 239.246,98.782" fill="#8fc98a"/>
<polygon points="248.902,23.774 251.065,32.510 233.593,36.837 231.430,28.101" fill="#8fc98a"/>
<polygon points="251.065,32.510 253.229,41.246 235.756,45.573 233.593,36.837" fill="#8fc98a"/>
<polygon points="253.229,41.246 255.392,49.982 237.920,54.309 235.756,45.573" fill="#8fc98a"/>
<polygon points="255.392,49.982 257.556,58.719 240.083,63.045 237.920,54.309" fill="#8fc98a"/>
<polygon points="227.184,-11.966 232.060,-4.402 216.931,5.351 212.055,-2.213" fill="#8fc98a"/>
<polygon points="232.060,-4.402 236.937,3.163 221.808,12.916 216.931,5.351" fill="#8fc98a"/>
<polygon points="236.937,3.163 241.813,10.727 226.684,20.480 221.808,12.916" fill="#8fc98a"/>
</g>
<g id="graph">
<line x1="0" y1="0" x2="60" y2="0" stroke="#a84a1e" stroke-width="0.6"/>
<line x1="60" y1="0" x2="0" y2="0" stroke="#a84a1e" stroke-width="0.6"/>
<line x1="60" y1="0" x2="120" y2="0" stroke="#a84a1e" stroke-width="0.6"/>
<line x1="120" y1="0" x2="60" y2="0" stroke="#a84a1e" stroke-width="0.6"/>
<line x1="120" y1="0" x2="180" y2="0" stroke="#a84a1e" stroke-width="0.6"/>
<line x1="180" y1="0" x2="120" y2="0" stroke="#a84a1e" stroke-width="0.6"/>
<line x1="180" y1="0" x2="200" y2="0" stroke="#a84a1e" stroke-width="0.6"/>
<line x1="200" y1="0" x2="180" y2="0" stroke="#a84a1e" stroke-width="0.6"/>
<line x1="200" y1="0" x2="206.080" y2="7.555" stroke="#a84a1e" stroke-width="0.6"/>
<line x1="206.080" y1="7.555" x2="200" y2="0" stroke="#a84a1e" stroke-width="0.6"/>
<line x1="206.080" y1="7.555" x2="211.539" y2="15.570" stroke="#a84a1e" stroke-width="0.6"/>
<line x1="211.539" y1="15.570" x2="206.080" y2="7.555" stroke="#a84a1e" stroke-width="0.6"/>
<line x1="211.539" y1="15.570" x2="216.343" y2="23.994" stroke="#a84a1e" stroke-width="0.6"/>
<line x1="216.343" y1="23.994" x2="211.539" y2="15.570" stroke="#a84a1e" stroke-width="0.6"/>
<line x1="216.343" y1="23.994" x2="220.460" y2="32.774" stroke="#a84a1e" stroke-width="0.6"/>
<line x1="220.460" y1="32.774" x2="216.343" y2="23.994" stroke="#a84a1e" stroke-width="0.6"/>
<line x1="220.460" y1="32.774" x2="223.865" y2="41.854" stroke="#a84a1e" stroke-width="0.6"/>
<line x1="223.865" y1="41.854" x2="220.460" y2="32.774" stroke="#a84a1e" stroke-width="0.6"/>
<line x1="223.865" y1="41.854" x2="226.536" y2="51.176" stroke="#a84a1e" stroke-width="0.6"/>
<line x1="226.536" y1="51.176" x2="223.865" y2="41.854" stroke="#a84a1e" stroke-width="0.6"/>
<line x1="226.536" y1="51.176" x2="228.457" y2="60.682" stroke="#a84a1e" stroke-width="0.6"/>
<line x1="228.457" y1="60.682" x2="226.536" y2="51.176" stroke="#a84a1e" stroke-width="0.6"/>
<line x1="228.457" y1="60.682" x2="229.614" y2="70.310" stroke="#a84a1e" stroke-width="0.6"/>
<line x1="229.614" y1="70.310" x2="228.457" y2="60.682" stroke="#a84a1e" stroke-width="0.6"/>
<line x1="229.614" y1="70.310" x2="230" y2="80" stroke="#a84a1e" stroke-width="0.6"/>
<line x1="230" y1="80" x2="229.614" y2="70.310" stroke="#a84a1e" stroke-width="0.6"/>
<line x1="230" y1="80" x2="229.614" y2="89.690" stroke="#a84a1e" stroke-width="0.6"/>
<line x1="229.614" y1="89.690" x2="230" y2="80" stroke="#a84a1e" stroke-width="0.6"/>
<line x1="229.614" y1="89.690" x2="228.457" y2="99.318" stroke="#a84a1e" stroke-width="0.6"/>
<line x1="228.457" y1="99.318" x2="229.614" y2="89.690" stroke="#a84a1e" stroke-width="0.6"/>
<line x1="228.457" y1="99.318" x2="226.536" y2="108.824" stroke="#a84a1e" stroke-width="0.6"/>
<line x1="226.536" y1="108.824" x2="228.457" y2="99.318" stroke="#a84a1e" stroke-width="0.6"/>
<line x1="226.536" y1="108.824" x2="223.865" y2="118.146" stroke="#a84a1e" stroke-width="0.6"/>
<line x1="223.865" y1="118.146" x2="226.536" y2="108.824" stroke="#a84a1e" stroke-width="0.6"/>
<line x1="223.865" y1="118.146" x2="220.460" y2="127.226" stroke="#a84a1e" stroke-width="0.6"/>
<line x1="220.460" y1="127.226" x2="223.865" y2="118.146" stroke="#a84a1e" stroke-width="0.6"/>
<line x1="220.460" y1="127.226" x2="216.815" y2="135" stroke="#a84a1e" stroke-width="0.6"/>
<line x1="216.815" y1="135" x2="220.460" y2="127.226" stroke="#a84a1e" stroke-width="0.6"/>
<line x1="216.815" y1="135" x2="216.343" y2="136.006" stroke="#a84a1e" stroke-width="0.6"/>
<line x1="216.343" y1="136.006" x2="216.815" y2="135" stroke="#a84a1e" stroke-width="0.6"/>
<line x1="216.343" y1="136.006" x2="211.539" y2="144.430" stroke="#a84a1e" stroke-width="0.6"/>
<line x1="211.539" y1="144.430" x2="216.343" y2="136.006" stroke="#a84a1e" stroke-width="0.6"/>
<line x1="211.539" y1="144.430" x2="206.080" y2="152.445" stroke="#a84a1e" stroke-width="0.6"/>
<line x1="206.080" y1="152.445" x2="211.539" y2="144.430" stroke="#a84a1e" stroke-width="0.6"/>
<line x1="206.080" y1="152.445" x2="200" y2="160" stroke="#a84a1e" stroke-width="0.6"/>
<line x1="200" y1="160" x2="206.080" y2="152.445" stroke="#a84a1e" stroke-width="0.6"/>
<line x1="200" y1="160" x2="180" y2="160" stroke="#a84a1e" stroke-width="0.6"/>
<line x1="180" y1="160" x2="200" y2="160" stroke="#a84a1e" stroke-width="0.6"/>
<line x1="180" y1="160" x2="120" y2="160" stroke="#a84a1e" stroke-width="0.6"/>
<line x1="120" y1="160" x2="180" y2="160" stroke="#a84a1e" stroke-width="0.6"/>
<line x1="120" y1="160" x2="60" y2="160" stroke="#a84a1e" stroke-width="0.6"/>
<line x1="60" y1="160" x2="120" y2="160" stroke="#a84a1e" stroke-width="0.6"/>
<line x1="60" y1="160" x2="0" y2="160" stroke="#a84a1e" stroke-width="0.6"/>
<line x1="0" y1="160" x2="60" y2="160" stroke="#a84a1e" stroke-width="0.6"/>
<line x1="0" y1="160" x2="0" y2="135" stroke="#a84a1e" stroke-width="0.6"/>
<line x1="0" y1="135" x2="0" y2="160" stroke="#a84a1e" stroke-width="0.6"/>
<line x1="0" y1="135" x2="0" y2="0" stroke="#a84a1e" stroke-width="0.6"/>
<line x1="0" y1="0" x2="0" y2="135" stroke="#a84a1e" stroke-width="0.6"/>
<line x1="180" y1="0" x2="180" y2="135" stroke="#3e68a8" stroke-width="0.6"/>
<line x1="180" y1="135" x2="180" y2="0" stroke="#3e68a8" stroke-width="0.6"/>
<line x1="180" y1="135" x2="180" y2="160" stroke="#3e68a8" stroke-width="0.6"/>
<line x1="180" y1="160" x2="180" y2="135" stroke="#3e68a8" stroke-width="0.6"/>
<line x1="120" y1="0" x2="120" y2="135" stroke="#3e68a8" stroke-width="0.6"/>
<line x1="120" y1="135" x2="120" y2="0" stroke="#3e68a8" stroke-width="0.6"/>
<line x1="120" y1="135" x2="120" y2="160" stroke="#3e68a8" stroke-width="0.6"/>
<line x1="120" y1="160" x2="120" y2="135" stroke="#3e68a8" stroke-width="0.6"/>
<line x1="60" y1="0" x2="60" y2="135" stroke="#3e68a8" stroke-width="0.6"/>
<line x1="60" y1="135" x2="60" y2="0" stroke="#3e68a8" stroke-width="0.6"/>
<line x1="60" y1="135" x2="60" y2="160" stroke="#3e68a8" stroke-width="0.6"/>
<line x1="60" y1="160" x2="60" y2="135" stroke="#3e68a8" stroke-width="0.6"/>
<line x1="216.815" y1="135" x2="180" y2="135" stroke="#3e68a8" stroke-width="0.6"/>
<line x1="180" y1="135" x2="216.815" y2="135" stroke="#3e68a8" stroke-width="0.6"/>
<line x1="180" y1="135" x2="120" y2="135" stroke="#3e68a8" stroke-width="0.6"/>
<line x1="120" y1="135" x2="180" y2="135" stroke="#3e68a8" stroke-width="0.6"/>
<line x1="120" y1="135" x2="60" y2="135" stroke="#3e68a8" stroke-width="0.6"/>
<line x1="60" y1="135" x2="120" y2="135" stroke="#3e68a8" stroke-width="0.6"/>
<line x1="60" y1="135" x2="0" y2="135" stroke="#3e68a8" stroke-width="0.6"/>
<line x1="0" y1="135" x2="60" y2="135" stroke="#3e68a8" stroke-width="0.6"/>
<circle cx="0" cy="0" r="0.8" fill="#a84a1e"/>
<circle cx="200" cy="0" r="0.8" fill="#a84a1e"/>
<circle cx="206.080" cy="7.555" r="0.8" fill="#a84a1e"/>
<circle cx="211.539" cy="15.570" r="0.8" fill="#a84a1e"/>
<circle cx="216.343" cy="23.994" r="0.8" fill="#a84a1e"/>
<circle cx="220.460" cy="32.774" r="0.8" fill="#a84a1e"/>
<circle cx="223.865" cy="41.854" r="0.8" fill="#a84a1e"/>
<circle cx="226.536" cy="51.176" r="0.8" fill="#a84a1e"/>
<circle cx="228.457" cy="60.682" r="0.8" fill="#a84a1e"/>
<circle cx="229.614" cy="70.310" r="0.8" fill="#a84a1e"/>
<circle cx="230" cy="80" r="0.8" fill="#a84a1e"/>
<circle cx="229.614" cy="89.690" r="0.8" fill="#a84a1e"/>
<circle cx="228.457" cy="99.318" r="0.8" fill="#a84a1e"/>
<circle cx="226.536" cy="108.824" r="0.8" fill="#a84a1e"/>
<circle cx="223.865" cy="118.146" r="0.8" fill="#a84a1e"/>
<circle cx="220.460" cy="127.226" r="0.8" fill="#a84a1e"/>
<circle cx="216.343" cy="136.006" r="0.8" fill="#a84a1e"/>
<circle cx="211.539" cy="144.430" r="0.8" fill="#a84a1e"/>
<circle cx="206.080" cy="152.445" r="0.8" fill="#a84a1e"/>
<circle cx="200" cy="160" r="0.8" fill="#a84a1e"/>
<circle cx="0" cy="160" r="0.8" fill="#a84a1e"/>
<circle cx="180" cy="0" r="0.8" fill="#3e68a8"/>
<circle cx="180" cy="160" r="0.8" fill="#3e68a8"/>
<circle cx="120" cy="0" r="0.8" fill="#3e68a8"/>
<circle cx="120" cy="160" r="0.8" fill="#3e68a8"/>
<circle cx="60" cy="0" r="0.8" fill="#3e68a8"/>
<circle cx="60" cy="160" r="0.8" fill="#3e68a8"/>
<circle cx="216.815" cy="135" r="0.8" fill="#3e68a8"/>
<circle cx="0" cy="135" r="0.8" fill="#3e68a8"/>
<circle cx="180" cy="135" r="0.8" fill="#3e68a8"/>
<circle cx="120" cy="135" r="0.8" fill="#3e68a8"/>
<circle cx="60" cy="135" r="0.8" fill="#3e68a8"/>
</g>
</g>
</svg>
