<svg xmlns="http://www.w3.org/2000/svg" width="790.929" height="591.550" viewBox="-47.976 -47.943 395.464 295.775" preserveAspectRatio="xMidYMid meet">
<style>polygon,line{vector-effect:non-scaling-stroke}</style>
<g transform="translate(0,199.889) scale(1,-1)">
<g id="boundary" fill="none" stroke="#222" stroke-width="0.5">
<polygon points="0,0 200,0 208.716,0.381 217.365,1.519 225.882,3.407 234.202,6.031 242.262,9.369 250,13.397 257.358,18.085 264.279,23.396 270.711,29.289 276.604,35.721 281.915,42.642 286.603,50 290.631,57.738 293.969,65.798 296.593,74.118 298.481,82.635 299.619,91.284 300,100 299.619,108.716 298.481,117.365 296.593,125.882 293.969,134.202 290.631,142.262 286.603,150 281.915,157.358 276.604,164.279 270.711,170.711 264.279,176.604 257.358,181.915 250,186.603 242.262,190.631 234.202,193.969 225.882,196.593 217.365,198.481 208.716,199.619 200,200 0,200"/>
</g>
<g id="stalls" stroke="#1f5f1a" stroke-width="0.25">
<polygon points="213.574,228.247 204.574,228.317 204.434,210.317 213.434,210.247" fill="#8fc98a"/>
<polygon points="204.574,228.317 195.575,228.387 195.435,210.387 204.434,210.317" fill="#8fc98a"/>
<polygon points="195.575,228.387 186.575,228.456 186.435,210.457 195.435,210.387" fill="#8fc98a"/>
<polygon points="186.575,228.456 177.575,228.526 177.435,210.527 186.435,210.457" fill="#8fc98a"/>
<polygon points="177.575,228.526 168.575,228.596 168.435,210.597 177.435,210.527" fill="#a1b885"/>
<polygon points="168.575,228.596 159.576,228.666 159.436,210.667 168.435,210.597" fill="#8fc98a"/>
<polygon points="159.576,228.666 150.576,228.736 150.436,210.737 159.436,210.667" fill="#8fc98a"/>
<polygon points="150.576,228.736 141.576,228.806 141.436,210.807 150.436,210.737" fill="#8fc98a"/>
<polygon points="141.576,228.806 132.577,228.876 132.437,210.877 141.436,210.807" fill="#8fc98a"/>
<polygon points="132.577,228.876 123.577,228.946 123.437,210.947 132.437,210.877" fill="#8fc98a"/>
<polygon points="123.577,228.946 114.577,229.016 114.437,211.017 123.437,210.947" fill="#8fc98a"/>
<polygon points="114.577,229.016 105.577,229.086 105.437,211.087 114.437,211.017" fill="#8fc98a"/>
<polygon points="105.577,229.086 96.578,229.156 96.438,211.157 105.437,211.087" fill="#a1b885"/>
<polygon points="96.578,229.156 87.578,229.226 87.438,211.227 96.438,211.157" fill="#8fc98a"/>
<polygon points="87.578,229.226 78.578,229.296 78.438,211.297 87.438,211.227" fill="#8fc98a"/>
<polygon points="78.578,229.296 69.578,229.366 69.438,211.367 78.438,211.297" fill="#8fc98a"/>
<polygon points="69.578,229.366 60.579,229.436 60.439,211.437 69.438,211.367" fill="#8fc98a"/>
<polygon points="60.579,229.436 51.579,229.506 51.439,211.507 60.439,211.437" fill="#8fc98a"/>
<polygon points="51.579,229.506 42.579,229.576 42.439,211.577 51.439,211.507" fill="#8fc98a"/>
<polygon points="42.579,229.576 33.580,229.646 33.440,211.647 42.439,211.577" fill="#8fc98a"/>
<polygon points="33.580,229.646 24.580,229.716 24.440,211.717 33.440,211.647" fill="#a1b885"/>
<polygon points="24.580,229.716 15.580,229.786 15.440,211.787 24.440,211.717" fill="#8fc98a"/>
<polygon points="15.580,229.786 6.580,229.856 6.440,211.857 15.440,211.787" fill="#8fc98a"/>
<polygon points="6.364,-29.967 15.364,-29.952 15.332,-11.952 6.332,-11.968" fill="#8fc98a"/>
<polygon points="15.364,-29.952 24.364,-29.936 24.332,-11.936 15.332,-11.952" fill="#8fc98a"/>
<polygon points="24.364,-29.936 33.364,-29.920 33.332,-11.920 24.332,-11.936" fill="#8fc98a"/>
<polygon points="33.364,-29.920 42.364,-29.904 42.332,-11.904 33.332,-11.920" fill="#a1b885"/>
<polygon points="42.364,-29.904 51.364,-29.888 51.332,-11.888 42.332,-11.904" fill="#8fc98a"/>
<polygon points="51.364,-29.888 60.364,-29.872 60.332,-11.872 51.332,-11.888" fill="#8fc98a"/>
<polygon points="60.364,-29.872 69.364,-29.856 69.332,-11.856 60.332,-11.872" fill="#8fc98a"/>
<polygon points="69.364,-29.856 78.364,-29.840 78.332,-11.840 69.332,-11.856" fill="#8fc98a"/>
<polygon points="78.364,-29.840 87.364,-29.824 87.332,-11.824 78.332,-11.840" fill="#8fc98a"/>
<polygon points="87.364,-29.824 96.364,-29.808 96.332,-11.808 87.332,-11.824" fill="#8fc98a"/>
<polygon points="96.364,-29.808 105.364,-29.792 105.332,-11.792 96.332,-11.808" fill="#8fc98a"/>
<polygon points="105.364,-29.792 114.364,-29.776 114.332,-11.776 105.332,-11.792" fill="#a1b885"/>
<polygon points="114.364,-29.776 123.364,-29.760 123.332,-11.760 114.332,-11.776" fill="#8fc98a"/>
<polygon points="123.364,-29.760 132.364,-29.744 132.332,-11.744 123.332,-11.760" fill="#8fc98a"/>
<polygon points="132.364,-29.744 141.364,-29.728 141.332,-11.728 132.332,-11.744" fill="#8fc98a"/>
<polygon points="141.364,-29.728 150.364,-29.712 150.332,-11.712 141.332,-11.728" fill="#8fc98a"/>
<polygon points="150.364,-29.712 159.364,-29.696 159.332,-11.696 150.332,-11.712" fill="#8fc98a"/>
<polygon points="159.364,-29.696 168.364,-29.680 168.332,-11.681 159.332,-11.696" fill="#8fc98a"/>
<polygon points="168.364,-29.680 177.364,-29.665 177.332,-11.665 168.332,-11.681" fill="#8fc98a"/>
<polygon points="177.364,-29.665 186.364,-29.649 186.332,-11.649 177.332,-11.665" fill="#a1b885"/>
<polygon points="186.364,-29.649 195.364,-29.633 195.332,-11.633 186.332,-11.649" fill="#8fc98a"/>
<polygon points="195.364,-29.633 204.364,-29.617 204.332,-11.617 195.332,-11.633" fill="#8fc98a"/>
<polygon points="-30,189 -30,180 -12,180 -12,189" fill="#8fc98a"/>
<polygon points="-30,180 -30,171 -12,171 -12,180" fill="#a1b885"/>
<polygon points="-30,171 -30,162 -12,162 -12,171" fill="#8fc98a"/>
<polygon points="-30,135 -30,126 -12,126 -12,135" fill="#8fc98a"/>
<polygon points="-30,126 -30,117 -12,117 -12,126" fill="#8fc98a"/>
<polygon points="-30,117 -30,108 -12,108 -12,117" fill="#8fc98a"/>
<polygon points="-30,108 -30,99 -12,99 -12,108" fill="#a1b885"/>
<polygon points="-30,99 -30,90 -12,90 -12,99" fill="#8fc98a"/>
<polygon points="-30,90 -30,81 -12,81 -12,90" fill="#8fc98a"/>
<polygon points="-30,81 -30,72 -12,72 -12,81" fill="#8fc98a"/>
<polygon points="-30,72 -30,63 -12,63 -12,72" fill="#8fc98a"/>
<polygon points="-30,36 -30,27 -12,27 -12,36" fill="#a1b885"/>
<polygon points="-30,27 -30,18 -12,18 -12,27" fill="#8fc98a"/>
<polygon points="-30,18 -30,9 -12,9 -12,18" fill="#8fc98a"/>
<polygon points="326.208,71.532 327.034,80.494 309.110,82.147 308.284,73.185" fill="#8fc98a"/>
<polygon points="327.034,80.494 327.860,89.456 309.936,91.109 309.110,82.147" fill="#8fc98a"/>
<polygon points="327.860,89.456 328.687,98.418 310.763,100.071 309.936,91.109" fill="#8fc98a"/>
<polygon points="328.687,98.418 329.513,107.380 311.589,109.033 310.763,100.071" fill="#8fc98a"/>
<polygon points="30,81 30,90 12,90 12,81" fill="#8fc98a"/>
<polygon points="30,90 30,99 12,99 12,90" fill="#8fc98a"/>
<polygon points="30,99 30,108 12,108 12,99" fill="#8fc98a"/>
<polygon points="30,108 30,99 48,99 48,108" fill="#8fc98a"/>
<polygon points="30,99 30,90 48,90 48,99" fill="#8fc98a"/>
<polygon points="30,90 30,81 48,81 48,90" fill="#8fc98a"/>
<polygon points="90,81 90,90 72,90 72,81" fill="#8fc98a"/>
<polygon points="90,90 90,99 72,99 72,90" fill="#8fc98a"/>
<polygon points="90,99 90,108 72,108 72,99" fill="#8fc98a"/>
<polygon points="90,108 90,99 108,99 108,108" fill="#8fc98a"/>
<polygon points="90,99 90,90 108,90 108,99" fill="#8fc98a"/>
<polygon points="90,90 90,81 108,81 108,90" fill="#8fc98a"/>
<polygon points="150,81 150,90 132,90 132,81" fill="#8fc98a"/>
<polygon points="150,90 150,99 132,99 132,90" fill="#8fc98a"/>
<polygon points="150,99 150,108 132,108 132,99" fill="#8fc98a"/>
<polygon points="150,108 150,99 168,99 168,108" fill="#8fc98a"/>
<polygon points="150,99 150,90 168,90 168,99" fill="#8fc98a"/>
<polygon points="150,90 150,81 168,81 168,90" fill="#8fc98a"/>
<polygon points="210,81 210,90 192,90 192,81" fill="#8fc98a"/>
<polygon points="210,90 210,99 192,99 192,90" fill="#8fc98a"/>
<polygon points="210,99 210,108 192,108 192,99" fill="#8fc98a"/>
<polygon points="210,108 210,99 228,99 228,108" fill="#8fc98a"/>
<polygon points="210,99 210,90 228,90 228,99" fill="#8fc98a"/>
<polygon points="210,90 210,81 228,81 228,90" fill="#8fc98a"/>
<polygon points="270,81 270,90 252,90 252,81" fill="#8fc98a"/>
<polygon points="270,90 270,99 252,99 252,90" fill="#8fc98a"/>
<polygon points="270,99 270,108 252,108 252,99" fill="#8fc98a"/>
<polygon points="270,81 270,90 252,90 252,81" fill="#8fc98a"/>
<polygon points="270,90 270,99 252,99 252,90" fill="#8fc98a"/>
<polygon points="270,99 270,108 252,108 252,99" fill="#8fc98a"/>
</g>
<g id="graph">
<line x1="0" y1="0" x2="60" y2="0" stroke="#a84a1e" stroke-width="0.6"/>
<line x1="60" y1="0" x2="0" y2="0" stroke="#a84a1e" stroke-width="0.6"/>
<line x1="60" y1="0" x2="120" y2="0" stroke="#a84a1e" stroke-width="0.6"/>
<line x1="120" y1="0" x2="60" y2="0" stroke="#a84a1e" stroke-width="0.6"/>
<line x1="120" y1="0" x2="180" y2="0" stroke="#a84a1e" stroke-width="0.6"/>
<line x1="180" y1="0" x2="120" y2="0" stroke="#a84a1e" stroke-width="0.6"/>
<line x1="180" y1="0" x2="200" y2="0" stroke="#a84a1e" stroke-width="0.6"/>
<line x1="200" y1="0" x2="180" y2="0" stroke="#a84a1e" stroke-width="0.6"/>
<line x1="200" y1="0" x2="208.716" y2="0.381" stroke="#a84a1e" stroke-width="0.6"/>
<line x1="208.716" y1="0.381" x2="200" y2="0" stroke="#a84a1e" stroke-width="0.6"/>
<line x1="208.716" y1="0.381" x2="217.365" y2="1.519" stroke="#a84a1e" stroke-width="0.6"/>
<line x1="217.365" y1="1.519" x2="208.716" y2="0.381" stroke="#a84a1e" stroke-width="0.6"/>
<line x1="217.365" y1="1.519" x2="225.882" y2="3.407" stroke="#a84a1e" stroke-width="0.6"/>
<line x1="225.882" y1="3.407" x2="217.365" y2="1.519" stroke="#a84a1e" stroke-width="0.6"/>
<line x1="225.882" y1="3.407" x2="234.202" y2="6.031" stroke="#a84a1e" stroke-width="0.6"/>
<line x1="234.202" y1="6.031" x2="225.882" y2="3.407" stroke="#a84a1e" stroke-width="0.6"/>
<line x1="234.202" y1="6.031" x2="240" y2="8.432" stroke="#a84a1e" stroke-width="0.6"/>
<line x1="240" y1="8.432" x2="234.202" y2="6.031" stroke="#a84a1e" stroke-width="0.6"/>
<line x1="240" y1="8.432" x2="242.262" y2="9.369" stroke="#a84a1e" stroke-width="0.6"/>
<line x1="242.262" y1="9.369" x2="240" y2="8.432" stroke="#a84a1e" stroke-width="0.6"/>
<line x1="242.262" y1="9.369" x2="250" y2="13.397" stroke="#a84a1e" stroke-width="0.6"/>
<line x1="250" y1="13.397" x2="242.262" y2="9.369" stroke="#a84a1e" stroke-width="0.6"/>
<line x1="250" y1="13.397" x2="257.358" y2="18.085" stroke="#a84a1e" stroke-width="0.6"/>
<line x1="257.358" y1="18.085" x2="250" y2="13.397" stroke="#a84a1e" stroke-width="0.6"/>
<line x1="257.358" y1="18.085" x2="264.279" y2="23.396" stroke="#a84a1e" stroke-width="0.6"/>
<line x1="264.279" y1="23.396" x2="257.358" y2="18.085" stroke="#a84a1e" stroke-width="0.6"/>
<line x1="264.279" y1="23.396" x2="270.711" y2="29.289" stroke="#a84a1e" stroke-width="0.6"/>
<line x1="270.711" y1="29.289" x2="264.279" y2="23.396" stroke="#a84a1e" stroke-width="0.6"/>
<line x1="270.711" y1="29.289" x2="276.604" y2="35.721" stroke="#a84a1e" stroke-width="0.6"/>
<line x1="276.604" y1="35.721" x2="270.711" y2="29.289" stroke="#a84a1e" stroke-width="0.6"/>
<line x1="276.604" y1="35.721" x2="281.915" y2="42.642" stroke="#a84a1e" stroke-width="0.6"/>
<line x1="281.915" y1="42.642" x2="276.604" y2="35.721" stroke="#a84a1e" stroke-width="0.6"/>
<line x1="281.915" y1="42.642" x2="286.603" y2="50" stroke="#a84a1e" stroke-width="0.6"/>
<line x1="286.603" y1="50" x2="281.915" y2="42.642" stroke="#a84a1e" stroke-width="0.6"/>
<line x1="286.603" y1="50" x2="290.631" y2="57.738" stroke="#a84a1e" stroke-width="0.6"/>
<line x1="290.631" y1="57.738" x2="286.603" y2="50" stroke="#a84a1e" stroke-width="0.6"/>
<line x1="290.631" y1="57.738" x2="293.969" y2="65.798" stroke="#a84a1e" stroke-width="0.6"/>
<line x1="293.969" y1="65.798" x2="290.631" y2="57.738" stroke="#a84a1e" stroke-width="0.6"/>
<line x1="293.969" y1="65.798" x2="296.593" y2="74.118" stroke="#a84a1e" stroke-width="0.6"/>
<line x1="296.593" y1="74.118" x2="293.969" y2="65.798" stroke="#a84a1e" stroke-width="0.6"/>
<line x1="296.593" y1="74.118" x2="298.481" y2="82.635" stroke="#a84a1e" stroke-width="0.6"/>
<line x1="298.481" y1="82.635" x2="296.593" y2="74.118" stroke="#a84a1e" stroke-width="0.6"/>
<line x1="298.481" y1="82.635" x2="299.619" y2="91.284" stroke="#a84a1e" stroke-width="0.6"/>
<line x1="299.619" y1="91.284" x2="298.481" y2="82.635" stroke="#a84a1e" stroke-width="0.6"/>
<line x1="299.619" y1="91.284" x2="300" y2="100" stroke="#a84a1e" stroke-width="0.6"/>
<line x1="300" y1="100" x2="299.619" y2="91.284" stroke="#a84a1e" stroke-width="0.6"/>
<line x1="300" y1="100" x2="299.619" y2="108.716" stroke="#a84a1e" stroke-width="0.6"/>
<line x1="299.619" y1="108.716" x2="300" y2="100" stroke="#a84a1e" stroke-width="0.6"/>
<line x1="299.619" y1="108.716" x2="298.481" y2="117.365" stroke="#a84a1e" stroke-width="0.6"/>
<line x1="298.481" y1="117.365" x2="299.619" y2="108.716" stroke="#a84a1e" stroke-width="0.6"/>
<line x1="298.481" y1="117.365" x2="296.593" y2="125.882" stroke="#a84a1e" stroke-width="0.6"/>
<line x1="296.593" y1="125.882" x2="298.481" y2="117.365" stroke="#a84a1e" stroke-width="0.6"/>
<line x1="296.593" y1="125.882" x2="293.969" y2="134.202" stroke="#a84a1e" stroke-width="0.6"/>
<line x1="293.969" y1="134.202" x2="296.593" y2="125.882" stroke="#a84a1e" stroke-width="0.6"/>
<line x1="293.969" y1="134.202" x2="293.639" y2="135" stroke="#a84a1e" stroke-width="0.6"/>
<line x1="293.639" y1="135" x2="293.969" y2="134.202" stroke="#a84a1e" stroke-width="0.6"/>
<line x1="293.639" y1="135" x2="290.631" y2="142.262" stroke="#a84a1e" stroke-width="0.6"/>
<line x1="290.631" y1="142.262" x2="293.639" y2="135" stroke="#a84a1e" stroke-width="0.6"/>
<line x1="290.631" y1="142.262" x2="286.603" y2="150" stroke="#a84a1e" stroke-width="0.6"/>
<line x1="286.603" y1="150" x2="290.631" y2="142.262" stroke="#a84a1e" stroke-width="0.6"/>
<line x1="286.603" y1="150" x2="281.915" y2="157.358" stroke="#a84a1e" stroke-width="0.6"/>
<line x1="281.915" y1="157.358" x2="286.603" y2="150" stroke="#a84a1e" stroke-width="0.6"/>
<line x1="281.915" y1="157.358" x2="276.604" y2="164.279" stroke="#a84a1e" stroke-width="0.6"/>
<line x1="276.604" y1="164.279" x2="281.915" y2="157.358" stroke="#a84a1e" stroke-width="0.6"/>
<line x1="276.604" y1="164.279" x2="270.711" y2="170.711" stroke="#a84a1e" stroke-width="0.6"/>
<line x1="270.711" y1="170.711" x2="276.604" y2="164.279" stroke="#a84a1e" stroke-width="0.6"/>
<line x1="270.711" y1="170.711" x2="264.279" y2="176.604" stroke="#a84a1e" stroke-width="0.6"/>
<line x1="264.279" y1="176.604" x2="270.711" y2="170.711" stroke="#a84a1e" stroke-width="0.6"/>
<line x1="264.279" y1="176.604" x2="257.358" y2="181.915" stroke="#a84a1e" stroke-width="0.6"/>
<line x1="257.358" y1="181.915" x2="264.279" y2="176.604" stroke="#a84a1e" stroke-width="0.6"/>
<line x1="257.358" y1="181.915" x2="250" y2="186.603" stroke="#a84a1e" stroke-width="0.6"/>
<line x1="250" y1="186.603" x2="257.358" y2="181.915" stroke="#a84a1e" stroke-width="0.6"/>
<line x1="250" y1="186.603" x2="242.262" y2="190.631" stroke="#a84a1e" stroke-width="0.6"/>
<line x1="242.262" y1="190.631" x2="250" y2="186.603" stroke="#a84a1e" stroke-width="0.6"/>
<line x1="242.262" y1="190.631" x2="240" y2="191.568" stroke="#a84a1e" stroke-width="0.6"/>
<line x1="240" y1="191.568" x2="242.262" y2="190.631" stroke="#a84a1e" stroke-width="0.6"/>
<line x1="240" y1="191.568" x2="234.202" y2="193.969" stroke="#a84a1e" stroke-width="0.6"/>
<line x1="234.202" y1="193.969" x2="240" y2="191.568" stroke="#a84a1e" stroke-width="0.6"/>
<line x1="234.202" y1="193.969" x2="225.882" y2="196.593" stroke="#a84a1e" stroke-width="0.6"/>
<line x1="225.882" y1="196.593" x2="234.202" y2="193.969" stroke="#a84a1e" stroke-width="0.6"/>
<line x1="225.882" y1="196.593" x2="217.365" y2="198.481" stroke="#a84a1e" stroke-width="0.6"/>
<line x1="217.365" y1="198.481" x2="225.882" y2="196.593" stroke="#a84a1e" stroke-width="0.6"/>
<line x1="217.365" y1="198.481" x2="208.716" y2="199.619" stroke="#a84a1e" stroke-width="0.6"/>
<line x1="208.716" y1="199.619" x2="217.365" y2="198.481" stroke="#a84a1e" stroke-width="0.6"/>
<line x1="208.716" y1="199.619" x2="200" y2="200" stroke="#a84a1e" stroke-width="0.6"/>
<line x1="200" y1="200" x2="208.716" y2="199.619" stroke="#a84a1e" stroke-width="0.6"/>
<line x1="200" y1="200" x2="180" y2="200" stroke="#a84a1e" stroke-width="0.6"/>
<line x1="180" y1="200" x2="200" y2="200" stroke="#a84a1e" stroke-width="0.6"/>
<line x1="180" y1="200" x2="120" y2="200" stroke="#a84a1e" stroke-width="0.6"/>
<line x1="120" y1="200" x2="180" y2="200" stroke="#a84a1e" stroke-width="0.6"/>
<line x1="120" y1="200" x2="60" y2="200" stroke="#a84a1e" stroke-width="0.6"/>
<line x1="60" y1="200" x2="120" y2="200" stroke="#a84a1e" stroke-width="0.6"/>
<line x1="60" y1="200" x2="0" y2="200" stroke="#a84a1e" stroke-width="0.6"/>
<line x1="0" y1="200" x2="60" y2="200" stroke="#a84a1e" stroke-width="0.6"/>
<line x1="0" y1="200" x2="0" y2="150" stroke="#a84a1e" stroke-width="0.6"/>
<line x1="0" y1="135" x2="0" y2="150" stroke="#a84a1e" stroke-width="0.6"/>
<line x1="0" y1="135" x2="0" y2="50" stroke="#a84a1e" stroke-width="0.6"/>
<line x1="0" y1="0" x2="0" y2="50" stroke="#a84a1e" stroke-width="0.6"/>
<line x1="240" y1="8.432" x2="240" y2="50" stroke="#3e68a8" stroke-width="0.6"/>
<line x1="240" y1="135" x2="240" y2="50" stroke="#3e68a8" stroke-width="0.6"/>
<line x1="240" y1="135" x2="240" y2="150" stroke="#3e68a8" stroke-width="0.6"/>
<line x1="240" y1="191.568" x2="240" y2="150" stroke="#3e68a8" stroke-width="0.6"/>
<line x1="180" y1="0" x2="180" y2="50" stroke="#3e68a8" stroke-width="0.6"/>
<line x1="180" y1="135" x2="180" y2="50" stroke="#3e68a8" stroke-width="0.6"/>
<line x1="180" y1="135" x2="180" y2="150" stroke="#3e68a8" stroke-width="0.6"/>
<line x1="180" y1="200" x2="180" y2="150" stroke="#3e68a8" stroke-width="0.6"/>
<line x1="120" y1="0" x2="120" y2="50" stroke="#3e68a8" stroke-width="0.6"/>
<line x1="120" y1="135" x2="120" y2="50" stroke="#3e68a8" stroke-width="0.6"/>
<line x1="120" y1="135" x2="120" y2="150" stroke="#3e68a8" stroke-width="0.6"/>
<line x1="120" y1="200" x2="120" y2="150" stroke="#3e68a8" stroke-width="0.6"/>
<line x1="60" y1="0" x2="60" y2="50" stroke="#3e68a8" stroke-width="0.6"/>
<line x1="60" y1="135" x2="60" y2="50" stroke="#3e68a8" stroke-width="0.6"/>
<line x1="60" y1="135" x2="60" y2="150" stroke="#3e68a8" stroke-width="0.6"/>
<line x1="60" y1="200" x2="60" y2="150" stroke="#3e68a8" stroke-width="0.6"/>
<line x1="293.639" y1="135" x2="240" y2="135" stroke="#3e68a8" stroke-width="0.6"/>
<line x1="240" y1="135" x2="293.639" y2="135" stroke="#3e68a8" stroke-width="0.6"/>
<line x1="240" y1="135" x2="180" y2="135" stroke="#3e68a8" stroke-width="0.6"/>
<line x1="180" y1="135" x2="240" y2="135" stroke="#3e68a8" stroke-width="0.6"/>
<line x1="180" y1="135" x2="120" y2="135" stroke="#3e68a8" stroke-width="0.6"/>
<line x1="120" y1="135" x2="180" y2="135" stroke="#3e68a8" stroke-width="0.6"/>
<line x1="120" y1="135" x2="60" y2="135" stroke="#3e68a8" stroke-width="0.6"/>
<line x1="60" y1="135" x2="120" y2="135" stroke="#3e68a8" stroke-width="0.6"/>
<line x1="60" y1="135" x2="0" y2="135" stroke="#3e68a8" stroke-width="0.6"/>
<line x1="0" y1="135" x2="60" y2="135" stroke="#3e68a8" stroke-width="0.6"/>
<line x1="0" y1="50" x2="0" y2="0" stroke="#a84a1e" stroke-width="0.6"/>
<line x1="0" y1="50" x2="0" y2="135" stroke="#a84a1e" stroke-width="0.6"/>
<line x1="60" y1="50" x2="60" y2="135" stroke="#3e68a8" stroke-width="0.6"/>
<line x1="60" y1="50" x2="60" y2="0" stroke="#3e68a8" stroke-width="0.6"/>
<line x1="120" y1="50" x2="120" y2="135" stroke="#3e68a8" stroke-width="0.6"/>
<line x1="120" y1="50" x2="120" y2="0" stroke="#3e68a8" stroke-width="0.6"/>
<line x1="180" y1="50" x2="180" y2="0" stroke="#3e68a8" stroke-width="0.6"/>
<line x1="180" y1="50" x2="180" y2="135" stroke="#3e68a8" stroke-width="0.6"/>
<line x1="240" y1="50" x2="240" y2="135" stroke="#3e68a8" stroke-width="0.6"/>
<line x1="240" y1="50" x2="240" y2="8.432" stroke="#3e68a8" stroke-width="0.6"/>
<line x1="0" y1="150" x2="0" y2="135" stroke="#a84a1e" stroke-width="0.6"/>
<line x1="0" y1="150" x2="0" y2="200" stroke="#a84a1e" stroke-width="0.6"/>
<line x1="60" y1="150" x2="60" y2="200" stroke="#3e68a8" stroke-width="0.6"/>
<line x1="60" y1="150" x2="60" y2="135" stroke="#3e68a8" stroke-width="0.6"/>
<line x1="120" y1="150" x2="120" y2="200" stroke="#3e68a8" stroke-width="0.6"/>
<line x1="120" y1="150" x2="120" y2="135" stroke="#3e68a8" stroke-width="0.6"/>
<line x1="180" y1="150" x2="180" y2="200" stroke="#3e68a8" stroke-width="0.6"/>
<line x1="180" y1="150" x2="180" y2="135" stroke="#3e68a8" stroke-width="0.6"/>
<line x1="240" y1="150" x2="240" y2="191.568" stroke="#3e68a8" stroke-width="0.6"/>
<line x1="240" y1="150" x2="240" y2="135" stroke="#3e68a8" stroke-width="0.6"/>
<line x1="0" y1="50" x2="60" y2="50" stroke="#3e68a8" stroke-width="0.6"/>
<line x1="60" y1="50" x2="0" y2="50" stroke="#3e68a8" stroke-width="0.6"/>
<line x1="60" y1="50" x2="120" y2="50" stroke="#3e68a8" stroke-width="0.6"/>
<line x1="120" y1="50" x2="60" y2="50" stroke="#3e68a8" stroke-width="0.6"/>
<line x1="120" y1="50" x2="180" y2="50" stroke="#3e68a8" stroke-width="0.6"/>
<line x1="180" y1="50" x2="120" y2="50" stroke="#3e68a8" stroke-width="0.6"/>
<line x1="180" y1="50" x2="240" y2="50" stroke="#3e68a8" stroke-width="0.6"/>
<line x1="240" y1="50" x2="180" y2="50" stroke="#3e68a8" stroke-width="0.6"/>
<line x1="240" y1="50" x2="286.603" y2="50" stroke="#3e68a8" stroke-width="0.6"/>
<line x1="286.603" y1="50" x2="240" y2="50" stroke="#3e68a8" stroke-width="0.6"/>
<line x1="0" y1="150" x2="60" y2="150" stroke="#3e68a8" stroke-width="0.6"/>
<line x1="60" y1="150" x2="0" y2="150" stroke="#3e68a8" stroke-width="0.6"/>
<line x1="60" y1="150" x2="120" y2="150" stroke="#3e68a8" stroke-width="0.6"/>
<line x1="120" y1="150" x2="60" y2="150" stroke="#3e68a8" stroke-width="0.6"/>
<line x1="120" y1="150" x2="180" y2="150" stroke="#3e68a8" stroke-width="0.6"/>
<line x1="180" y1="150" x2="120" y2="150" stroke="#3e68a8" stroke-width="0.6"/>
<line x1="180" y1="150" x2="240" y2="150" stroke="#3e68a8" stroke-width="0.6"/>
<line x1="240" y1="150" x2="180" y2="150" stroke="#3e68a8" stroke-width="0.6"/>
<line x1="240" y1="150" x2="286.603" y2="150" stroke="#3e68a8" stroke-width="0.6"/>
<line x1="286.603" y1="150" x2="240" y2="150" stroke="#3e68a8" stroke-width="0.6"/>
<circle cx="0" cy="0" r="0.8" fill="#a84a1e"/>
<circle cx="200" cy="0" r="0.8" fill="#a84a1e"/>
<circle cx="208.716" cy="0.381" r="0.8" fill="#a84a1e"/>
<circle cx="217.365" cy="1.519" r="0.8" fill="#a84a1e"/>
<circle cx="225.882" cy="3.407" r="0.8" fill="#a84a1e"/>
<circle cx="234.202" cy="6.031" r="0.8" fill="#a84a1e"/>
<circle cx="242.262" cy="9.369" r="0.8" fill="#a84a1e"/>
<circle cx="250" cy="13.397" r="0.8" fill="#a84a1e"/>
<circle cx="257.358" cy="18.085" r="0.8" fill="#a84a1e"/>
<circle cx="264.279" cy="23.396" r="0.8" fill="#a84a1e"/>
<circle cx="270.711" cy="29.289" r="0.8" fill="#a84a1e"/>
<circle cx="276.604" cy="35.721" r="0.8" fill="#a84a1e"/>
<circle cx="281.915" cy="42.642" r="0.8" fill="#a84a1e"/>
<circle cx="286.603" cy="50" r="0.8" fill="#a84a1e"/>
<circle cx="290.631" cy="57.738" r="0.8" fill="#a84a1e"/>
<circle cx="293.969" cy="65.798" r="0.8" fill="#a84a1e"/>
<circle cx="296.593" cy="74.118" r="0.8" fill="#a84a1e"/>
<circle cx="298.481" cy="82.635" r="0.8" fill="#a84a1e"/>
<circle cx="299.619" cy="91.284" r="0.8" fill="#a84a1e"/>
<circle cx="300" cy="100" r="0.8" fill="#a84a1e"/>
<circle cx="299.619" cy="108.716" r="0.8" fill="#a84a1e"/>
<circle cx="298.481" cy="117.365" r="0.8" fill="#a84a1e"/>
<circle cx="296.593" cy="125.882" r="0.8" fill="#a84a1e"/>
<circle cx="293.969" cy="134.202" r="0.8" fill="#a84a1e"/>
<circle cx="290.631" cy="142.262" r="0.8" fill="#a84a1e"/>
<circle cx="286.603" cy="150" r="0.8" fill="#a84a1e"/>
<circle cx="281.915" cy="157.358" r="0.8" fill="#a84a1e"/>
<circle cx="276.604" cy="164.279" r="0.8" fill="#a84a1e"/>
<circle cx="270.711" cy="170.711" r="0.8" fill="#a84a1e"/>
<circle cx="264.279" cy="176.604" r="0.8" fill="#a84a1e"/>
<circle cx="257.358" cy="181.915" r="0.8" fill="#a84a1e"/>
<circle cx="250" cy="186.603" r="0.8" fill="#a84a1e"/>
<circle cx="242.262" cy="190.631" r="0.8" fill="#a84a1e"/>
<circle cx="234.202" cy="193.969" r="0.8" fill="#a84a1e"/>
<circle cx="225.882" cy="196.593" r="0.8" fill="#a84a1e"/>
<circle cx="217.365" cy="198.481" r="0.8" fill="#a84a1e"/>
<circle cx="208.716" cy="199.619" r="0.8" fill="#a84a1e"/>
<circle cx="200" cy="200" r="0.8" fill="#a84a1e"/>
<circle cx="0" cy="200" r="0.8" fill="#a84a1e"/>
<circle cx="240" cy="8.432" r="0.8" fill="#3e68a8"/>
<circle cx="240" cy="191.568" r="0.8" fill="#3e68a8"/>
<circle cx="180" cy="0" r="0.8" fill="#3e68a8"/>
<circle cx="180" cy="200" r="0.8" fill="#3e68a8"/>
<circle cx="120" cy="0" r="0.8" fill="#3e68a8"/>
<circle cx="120" cy="200" r="0.8" fill="#3e68a8"/>
<circle cx="60" cy="0" r="0.8" fill="#3e68a8"/>
<circle cx="60" cy="200" r="0.8" fill="#3e68a8"/>
<circle cx="293.639" cy="135" r="0.8" fill="#3e68a8"/>
<circle cx="0" cy="135" r="0.8" fill="#3e68a8"/>
<circle cx="240" cy="135" r="0.8" fill="#3e68a8"/>
<circle cx="180" cy="135" r="0.8" fill="#3e68a8"/>
<circle cx="120" cy="135" r="0.8" fill="#3e68a8"/>
<circle cx="60" cy="135" r="0.8" fill="#3e68a8"/>
<circle cx="0" cy="50" r="0.8" fill="#3e68a8"/>
<circle cx="60" cy="50" r="0.8" fill="#3e68a8"/>
<circle cx="120" cy="50" r="0.8" fill="#3e68a8"/>
<circle cx="180" cy="50" r="0.8" fill="#3e68a8"/>
<circle cx="240" cy="50" r="0.8" fill="#3e68a8"/>
<circle cx="0" cy="150" r="0.8" fill="#3e68a8"/>
<circle cx="60" cy="150" r="0.8" fill="#3e68a8"/>
<circle cx="120" cy="150" r="0.8" fill="#3e68a8"/>
<circle cx="180" cy="150" r="0.8" fill="#3e68a8"/>
<circle cx="240" cy="150" r="0.8" fill="#3e68a8"/>
</g>
</g>
</svg>
