<svg xmlns="http://www.w3.org/2000/svg" width="1031.595" height="810.789" viewBox="-62.890 -52.979 515.797 405.394" preserveAspectRatio="xMidYMid meet">
<style>polygon,polyline,line,path{vector-effect:non-scaling-stroke}</style>
<defs><marker id="arrow-i" viewBox="0 0 10 10" refX="10" refY="5" markerWidth="6" markerHeight="6" orient="auto-start-reverse"><path d="M0 0L10 5L0 10z" fill="#3e68a8"/></marker><marker id="arrow-p" viewBox="0 0 10 10" refX="10" refY="5" markerWidth="6" markerHeight="6" orient="auto-start-reverse"><path d="M0 0L10 5L0 10z" fill="#a84a1e"/></marker></defs>
<g transform="translate(0,299.437) scale(1,-1)">
<g id="islands" fill="#9fbf8a" fill-rule="evenodd" stroke="none">
<path d="M-39.398 301.500 L-39.445 300.905 L-39.432 300.309 L-37.803 277.512 L-21.934 278.645 L-21.970 279.145 L-22.831 291.208 L-22.834 291.351 L-22.693 291.365 L-15.461 291.736 L-16.276 307.625 L-33.754 306.728 L-34.347 306.668 L-34.932 306.550 L-35.502 306.374 L-36.051 306.142 L-36.575 305.857 L-37.068 305.521 L-37.525 305.138 L-37.941 304.711 L-38.314 304.245 L-38.638 303.745 L-38.911 303.215 L-39.130 302.660 L-39.293 302.087 Z"/>
<path d="M-1.985 -0.643 L-17.854 -1.777 L-16.269 -23.962 L-16.198 -24.549 L-16.070 -25.126 L-15.885 -25.687 L-15.647 -26.228 L-15.356 -26.742 L-15.016 -27.225 L-14.630 -27.673 L-14.202 -28.080 L-13.736 -28.443 L-13.236 -28.759 L-12.708 -29.024 L-12.157 -29.235 L-11.587 -29.392 L-11.004 -29.492 L-10.415 -29.534 L-9.824 -29.517 L10.674 -27.940 L9.454 -12.077 L-0.962 -12.879 L-1.103 -12.883 L-1.120 -12.743 L-1.970 -0.855 L-1.970 -0.855 Z"/>
<path d="M399.961 328.970 L362.226 327.035 L363.041 311.146 L379.385 311.984 L390.946 312.577 L391.094 312.577 L391.112 312.431 L391.967 300.886 L392.012 300.279 L407.879 301.454 L406.251 323.421 L406.174 324.035 L406.034 324.638 L405.832 325.223 L405.571 325.785 L405.254 326.316 L404.883 326.812 L404.464 327.267 L403.999 327.677 L403.496 328.036 L402.957 328.342 L402.390 328.590 L401.801 328.779 L401.195 328.906 L400.580 328.970 Z"/>
<path d="M412.705 18.942 L405.285 18.371 L406.505 2.508 L423.924 3.848 L424.507 3.922 L425.080 4.052 L425.638 4.238 L426.175 4.478 L426.685 4.768 L427.165 5.108 L427.609 5.493 L428.014 5.919 L428.375 6.383 L428.689 6.880 L428.952 7.405 L429.163 7.954 L429.319 8.521 L429.419 9.100 L429.462 9.686 L429.448 10.274 L427.898 31.195 L412.031 30.019 L412.840 19.100 L412.844 18.959 Z"/>
<path d="M12 172.919 L12 169.352 L31.799 149.553 L31.799 149.553 L43.820 137.532 L43.820 172.919 L43.791 173.507 L43.705 174.089 L43.561 174.661 L43.363 175.215 L43.111 175.747 L42.809 176.252 L42.458 176.725 L42.062 177.161 L41.626 177.557 L41.153 177.908 L40.648 178.210 L40.116 178.462 L39.562 178.660 L38.990 178.804 L38.408 178.890 L37.820 178.919 L18 178.919 L17.412 178.890 L16.829 178.804 L16.258 178.660 L15.704 178.462 L15.172 178.210 L14.667 177.908 L14.194 177.557 L13.757 177.161 L13.362 176.725 L13.011 176.252 L12.708 175.747 L12.457 175.215 L12.258 174.661 L12.115 174.089 L12.029 173.507 Z"/>
<path d="M12.821 128.933 L20.680 18.908 L20.751 18.321 L20.880 17.744 L21.064 17.183 L21.303 16.643 L21.594 16.128 L21.934 15.645 L22.320 15.198 L22.748 14.790 L23.214 14.427 L23.713 14.111 L24.241 13.846 L24.793 13.635 L25.363 13.478 L25.945 13.378 L26.534 13.337 L27.125 13.353 L38.280 14.211 L38.873 14.286 L39.455 14.420 L40.021 14.611 L40.565 14.858 L41.082 15.157 L41.566 15.507 L42.014 15.902 L42.420 16.341 L42.780 16.817 L43.091 17.327 L43.350 17.865 L43.554 18.427 L43.701 19.006 L43.790 19.597 L43.820 20.193 L43.820 21.567 L24.021 41.366 L30.385 47.730 L24.021 54.094 L30.385 60.458 L24.021 66.822 L30.385 73.186 L24.021 79.550 L30.385 85.913 L24.021 92.277 L30.385 98.641 L24.021 105.005 L30.385 111.369 L24.728 117.026 Z"/>
<path d="M12 263.412 L12 208.919 L12.029 208.331 L12.115 207.748 L12.258 207.177 L12.457 206.623 L12.708 206.090 L13.011 205.585 L13.362 205.112 L13.757 204.676 L14.194 204.281 L14.667 203.930 L15.172 203.627 L15.704 203.376 L16.258 203.177 L16.829 203.034 L17.412 202.948 L18 202.919 L37.820 202.919 L38.408 202.948 L38.990 203.034 L39.562 203.177 L40.116 203.376 L40.648 203.627 L41.153 203.930 L41.626 204.281 L42.062 204.676 L42.458 205.112 L42.809 205.585 L43.111 206.090 L43.363 206.623 L43.561 207.177 L43.705 207.748 L43.791 208.331 L43.820 208.919 L43.820 264.429 L43.789 265.036 L43.697 265.637 L43.544 266.225 L43.333 266.796 L43.065 267.341 L42.744 267.857 L42.371 268.338 L41.952 268.779 L41.491 269.174 L40.992 269.522 L40.460 269.816 L39.901 270.056 L39.321 270.238 L38.725 270.360 L38.121 270.421 L37.513 270.421 L17.693 269.404 L17.088 269.343 L16.493 269.220 L15.914 269.038 L15.355 268.798 L14.824 268.503 L14.326 268.156 L13.865 267.760 L13.446 267.319 L13.075 266.839 L12.753 266.323 L12.486 265.778 L12.275 265.208 L12.123 264.620 L12.031 264.019 Z"/>
<path d="M67.820 53.387 L67.820 22.962 L67.852 22.346 L67.947 21.735 L68.104 21.138 L68.322 20.560 L68.598 20.008 L68.929 19.487 L69.312 19.002 L69.743 18.560 L70.217 18.164 L70.730 17.819 L71.275 17.529 L71.847 17.296 L72.439 17.123 L73.047 17.012 L73.663 16.964 L74.280 16.980 L94.100 18.505 L94.692 18.580 L95.275 18.714 L95.840 18.905 L96.385 19.152 L96.902 19.451 L97.386 19.800 L97.834 20.196 L98.239 20.634 L98.600 21.111 L98.911 21.621 L99.130 22.076 L79.841 41.366 Z"/>
<path d="M67.820 172.919 L67.820 169.352 L99.640 137.532 L99.640 172.919 L99.611 173.507 L99.524 174.089 L99.381 174.661 L99.183 175.215 L98.931 175.747 L98.628 176.252 L98.278 176.725 L97.882 177.161 L97.446 177.557 L96.973 177.908 L96.468 178.210 L95.936 178.462 L95.381 178.660 L94.810 178.804 L94.228 178.890 L93.640 178.919 L73.820 178.919 L73.232 178.890 L72.649 178.804 L72.078 178.660 L71.524 178.462 L70.991 178.210 L70.486 177.908 L70.013 177.557 L69.577 177.161 L69.182 176.725 L68.831 176.252 L68.528 175.747 L68.277 175.215 L68.078 174.661 L67.935 174.089 L67.849 173.507 Z"/>
<path d="M67.820 266.275 L67.820 208.919 L67.849 208.331 L67.935 207.748 L68.078 207.177 L68.277 206.623 L68.528 206.090 L68.831 205.585 L69.182 205.112 L69.577 204.676 L70.013 204.281 L70.486 203.930 L70.991 203.627 L71.524 203.376 L72.078 203.177 L72.649 203.034 L73.232 202.948 L73.820 202.919 L93.640 202.919 L94.228 202.948 L94.810 203.034 L95.381 203.177 L95.936 203.376 L96.468 203.627 L96.973 203.930 L97.446 204.281 L97.882 204.676 L98.278 205.112 L98.628 205.585 L98.931 206.090 L99.183 206.623 L99.381 207.177 L99.524 207.748 L99.611 208.331 L99.640 208.919 L99.640 267.291 L99.609 267.898 L99.517 268.499 L99.364 269.088 L99.153 269.658 L98.885 270.204 L98.563 270.720 L98.191 271.201 L97.772 271.641 L97.311 272.037 L96.812 272.384 L96.280 272.679 L95.721 272.919 L95.141 273.100 L94.545 273.222 L93.940 273.284 L93.332 273.283 L73.513 272.267 L72.908 272.205 L72.313 272.083 L71.733 271.900 L71.175 271.661 L70.644 271.365 L70.146 271.018 L69.685 270.622 L69.266 270.182 L68.894 269.701 L68.573 269.186 L68.306 268.640 L68.095 268.070 L67.943 267.482 L67.851 266.882 Z"/>
<path d="M123.640 53.387 L123.640 27.256 L123.671 26.639 L123.766 26.029 L123.924 25.432 L124.141 24.854 L124.417 24.302 L124.749 23.781 L125.132 23.296 L125.563 22.854 L126.037 22.458 L126.549 22.113 L127.094 21.823 L127.666 21.590 L128.259 21.417 L128.867 21.306 L129.482 21.258 L130.100 21.274 L149.920 22.798 L150.512 22.874 L151.094 23.008 L151.660 23.199 L152.204 23.446 L152.721 23.745 L153.206 24.094 L153.653 24.490 L154.059 24.928 L154.420 25.405 L154.731 25.915 L154.989 26.453 L155.194 27.015 L155.341 27.593 L155.430 28.184 L155.459 28.781 L155.459 34.295 L142.731 47.023 L136.368 40.659 Z"/>
<path d="M123.640 172.919 L123.640 169.352 L155.459 137.532 L155.459 172.919 L155.431 173.507 L155.344 174.089 L155.201 174.661 L155.003 175.215 L154.751 175.747 L154.448 176.252 L154.097 176.725 L153.702 177.161 L153.266 177.557 L152.793 177.908 L152.288 178.210 L151.756 178.462 L151.201 178.660 L150.630 178.804 L150.048 178.890 L149.459 178.919 L129.640 178.919 L129.052 178.890 L128.469 178.804 L127.898 178.660 L127.344 178.462 L126.811 178.210 L126.306 177.908 L125.833 177.557 L125.397 177.161 L125.002 176.725 L124.651 176.252 L124.348 175.747 L124.096 175.215 L123.898 174.661 L123.755 174.089 L123.669 173.507 Z"/>
<path d="M123.640 269.137 L123.640 208.919 L123.669 208.331 L123.755 207.748 L123.898 207.177 L124.096 206.623 L124.348 206.090 L124.651 205.585 L125.002 205.112 L125.397 204.676 L125.833 204.281 L126.306 203.930 L126.811 203.627 L127.344 203.376 L127.898 203.177 L128.469 203.034 L129.052 202.948 L129.640 202.919 L149.459 202.919 L150.048 202.948 L150.630 203.034 L151.201 203.177 L151.756 203.376 L152.288 203.627 L152.793 203.930 L153.266 204.281 L153.702 204.676 L154.097 205.112 L154.448 205.585 L154.751 206.090 L155.003 206.623 L155.201 207.177 L155.344 207.748 L155.431 208.331 L155.459 208.919 L155.459 270.154 L155.429 270.761 L155.337 271.362 L155.184 271.951 L154.973 272.521 L154.705 273.066 L154.383 273.582 L154.011 274.063 L153.592 274.504 L153.131 274.900 L152.631 275.247 L152.100 275.542 L151.541 275.781 L150.961 275.963 L150.365 276.085 L149.760 276.146 L149.152 276.146 L129.332 275.129 L128.728 275.068 L128.133 274.945 L127.553 274.763 L126.995 274.523 L126.464 274.228 L125.965 273.881 L125.504 273.485 L125.086 273.044 L124.714 272.564 L124.393 272.048 L124.126 271.503 L123.915 270.933 L123.762 270.345 L123.670 269.744 Z"/>
<path d="M179.459 66.114 L179.459 31.550 L179.491 30.933 L179.586 30.323 L179.743 29.726 L179.961 29.148 L180.237 28.596 L180.569 28.074 L180.952 27.590 L181.383 27.148 L181.857 26.752 L182.369 26.407 L182.914 26.117 L183.486 25.884 L184.079 25.711 L184.687 25.600 L185.302 25.552 L185.920 25.568 L205.739 27.092 L206.332 27.168 L206.914 27.302 L207.480 27.493 L208.024 27.739 L208.541 28.039 L209.026 28.388 L209.473 28.784 L209.879 29.222 L210.239 29.699 L210.550 30.209 L210.809 30.747 L211.013 31.308 L211.161 31.887 L211.249 32.478 L211.279 33.075 L211.279 34.295 Z"/>
<path d="M179.459 172.919 L179.459 169.352 L211.279 137.532 L211.279 172.919 L211.250 173.507 L211.164 174.089 L211.021 174.661 L210.822 175.215 L210.571 175.747 L210.268 176.252 L209.917 176.725 L209.522 177.161 L209.086 177.557 L208.613 177.908 L208.108 178.210 L207.575 178.462 L207.021 178.660 L206.450 178.804 L205.867 178.890 L205.279 178.919 L185.459 178.919 L184.871 178.890 L184.289 178.804 L183.718 178.660 L183.163 178.462 L182.631 178.210 L182.126 177.908 L181.653 177.557 L181.217 177.161 L180.821 176.725 L180.471 176.252 L180.168 175.747 L179.916 175.215 L179.718 174.661 L179.575 174.089 L179.488 173.507 Z"/>
<path d="M179.459 272 L179.459 208.919 L179.488 208.331 L179.575 207.748 L179.718 207.177 L179.916 206.623 L180.168 206.090 L180.471 205.585 L180.821 205.112 L181.217 204.676 L181.653 204.281 L182.126 203.930 L182.631 203.627 L183.163 203.376 L183.718 203.177 L184.289 203.034 L184.871 202.948 L185.459 202.919 L205.279 202.919 L205.867 202.948 L206.450 203.034 L207.021 203.177 L207.575 203.376 L208.108 203.627 L208.613 203.930 L209.086 204.281 L209.522 204.676 L209.917 205.112 L210.268 205.585 L210.571 206.090 L210.822 206.623 L211.021 207.177 L211.164 207.748 L211.250 208.331 L211.279 208.919 L211.279 273.016 L211.248 273.624 L211.156 274.225 L211.004 274.813 L210.793 275.383 L210.525 275.929 L210.203 276.445 L209.831 276.926 L209.412 277.366 L208.950 277.762 L208.451 278.109 L207.919 278.404 L207.361 278.644 L206.780 278.825 L206.185 278.948 L205.580 279.009 L204.972 279.008 L185.152 277.992 L184.548 277.930 L183.953 277.808 L183.373 277.625 L182.815 277.386 L182.284 277.091 L181.785 276.743 L181.324 276.347 L180.906 275.907 L180.534 275.426 L180.213 274.911 L179.945 274.365 L179.734 273.795 L179.582 273.207 L179.490 272.607 Z"/>
<path d="M235.279 66.114 L235.279 35.844 L235.311 35.227 L235.406 34.617 L235.563 34.020 L235.781 33.442 L236.057 32.889 L236.388 32.368 L236.772 31.884 L237.203 31.442 L237.677 31.046 L238.189 30.701 L238.734 30.411 L239.306 30.178 L239.899 30.005 L240.506 29.894 L241.122 29.846 L241.739 29.862 L261.559 31.386 L262.152 31.462 L262.734 31.596 L263.300 31.787 L263.844 32.033 L264.361 32.333 L264.846 32.682 L265.293 33.078 L265.699 33.516 L266.059 33.992 L266.370 34.502 L266.539 34.854 Z"/>
<path d="M235.279 172.919 L235.279 169.352 L267.099 137.532 L267.099 172.919 L267.070 173.507 L266.984 174.089 L266.841 174.661 L266.642 175.215 L266.391 175.747 L266.088 176.252 L265.737 176.725 L265.342 177.161 L264.905 177.557 L264.432 177.908 L263.927 178.210 L263.395 178.462 L262.841 178.660 L262.270 178.804 L261.687 178.890 L261.099 178.919 L241.279 178.919 L240.691 178.890 L240.109 178.804 L239.538 178.660 L238.983 178.462 L238.451 178.210 L237.946 177.908 L237.473 177.557 L237.037 177.161 L236.641 176.725 L236.290 176.252 L235.988 175.747 L235.736 175.215 L235.538 174.661 L235.395 174.089 L235.308 173.507 Z"/>
<path d="M235.279 274.862 L235.279 208.919 L235.308 208.331 L235.395 207.748 L235.538 207.177 L235.736 206.623 L235.988 206.090 L236.290 205.585 L236.641 205.112 L237.037 204.676 L237.473 204.281 L237.946 203.930 L238.451 203.627 L238.983 203.376 L239.538 203.177 L240.109 203.034 L240.691 202.948 L241.279 202.919 L261.099 202.919 L261.687 202.948 L262.270 203.034 L262.841 203.177 L263.395 203.376 L263.927 203.627 L264.432 203.930 L264.905 204.281 L265.342 204.676 L265.737 205.112 L266.088 205.585 L266.391 206.090 L266.642 206.623 L266.841 207.177 L266.984 207.748 L267.070 208.331 L267.099 208.919 L267.099 275.879 L267.068 276.486 L266.976 277.087 L266.824 277.676 L266.612 278.246 L266.345 278.792 L266.023 279.308 L265.651 279.788 L265.232 280.229 L264.770 280.625 L264.271 280.972 L263.739 281.267 L263.180 281.506 L262.600 281.688 L262.005 281.810 L261.400 281.871 L260.792 281.871 L240.972 280.855 L240.368 280.793 L239.772 280.670 L239.193 280.488 L238.635 280.248 L238.104 279.953 L237.605 279.606 L237.144 279.210 L236.726 278.769 L236.354 278.289 L236.033 277.773 L235.765 277.228 L235.554 276.658 L235.402 276.070 L235.310 275.469 Z"/>
<path d="M291.099 66.114 L291.099 40.138 L291.131 39.521 L291.226 38.911 L291.383 38.314 L291.601 37.736 L291.877 37.183 L292.208 36.662 L292.591 36.178 L293.022 35.735 L293.496 35.340 L294.009 34.995 L294.554 34.704 L295.126 34.471 L295.719 34.299 L296.326 34.188 L296.942 34.140 L297.559 34.155 L317.379 35.680 L317.972 35.755 L318.554 35.889 L319.120 36.081 L319.664 36.327 L320.181 36.626 L320.665 36.976 L321.113 37.372 L321.519 37.810 L321.879 38.286 L322.190 38.796 L322.449 39.335 L322.653 39.896 L322.800 40.475 L322.889 41.066 L322.919 41.662 L322.919 47.023 L310.191 59.751 L303.827 53.387 Z"/>
<path d="M291.099 172.919 L291.099 169.352 L322.919 137.532 L322.919 172.919 L322.890 173.507 L322.804 174.089 L322.660 174.661 L322.462 175.215 L322.210 175.747 L321.908 176.252 L321.557 176.725 L321.161 177.161 L320.725 177.557 L320.252 177.908 L319.747 178.210 L319.215 178.462 L318.661 178.660 L318.089 178.804 L317.507 178.890 L316.919 178.919 L297.099 178.919 L296.511 178.890 L295.928 178.804 L295.357 178.660 L294.803 178.462 L294.271 178.210 L293.766 177.908 L293.293 177.557 L292.856 177.161 L292.461 176.725 L292.110 176.252 L291.807 175.747 L291.556 175.215 L291.357 174.661 L291.214 174.089 L291.128 173.507 Z"/>
<path d="M291.099 244.305 L291.099 208.919 L291.128 208.331 L291.214 207.748 L291.357 207.177 L291.556 206.623 L291.807 206.090 L292.110 205.585 L292.461 205.112 L292.856 204.676 L293.293 204.281 L293.766 203.930 L294.271 203.627 L294.803 203.376 L295.357 203.177 L295.928 203.034 L296.511 202.948 L297.099 202.919 L316.919 202.919 L317.507 202.948 L318.089 203.034 L318.661 203.177 L319.215 203.376 L319.747 203.627 L320.252 203.930 L320.725 204.281 L321.161 204.676 L321.557 205.112 L321.908 205.585 L322.210 206.090 L322.462 206.623 L322.660 207.177 L322.804 207.748 L322.890 208.331 L322.919 208.919 L322.919 212.486 L303.120 232.285 Z"/>
<path d="M292.964 282.073 L292.947 282.055 L322.919 252.084 L322.919 278.741 L322.888 279.349 L322.796 279.950 L322.643 280.538 L322.432 281.108 L322.164 281.654 L321.843 282.170 L321.470 282.651 L321.051 283.091 L320.590 283.487 L320.091 283.834 L319.559 284.129 L319 284.369 L318.420 284.551 L317.824 284.673 L317.220 284.734 L316.612 284.734 L296.792 283.717 L296.187 283.655 L295.592 283.533 L295.013 283.351 L294.454 283.111 L293.923 282.816 L293.425 282.468 Z"/>
<path d="M346.919 78.842 L346.919 44.432 L346.951 43.815 L347.046 43.205 L347.203 42.607 L347.421 42.029 L347.697 41.477 L348.028 40.956 L348.411 40.472 L348.842 40.029 L349.316 39.633 L349.829 39.289 L350.374 38.998 L350.946 38.765 L351.538 38.592 L352.146 38.482 L352.762 38.434 L353.379 38.449 L373.199 39.974 L373.791 40.049 L374.374 40.183 L374.939 40.374 L375.484 40.621 L376.001 40.920 L376.485 41.270 L376.933 41.665 L377.338 42.104 L377.699 42.580 L378.010 43.090 L378.269 43.628 L378.473 44.190 L378.620 44.769 L378.709 45.360 L378.739 45.956 L378.739 47.023 Z"/>
<path d="M346.919 172.919 L346.919 169.352 L359.647 156.624 L366.011 162.988 L378.739 150.260 L378.739 154.363 L378.722 154.806 L377.348 173.362 L377.274 173.956 L377.141 174.540 L376.951 175.107 L376.705 175.653 L376.406 176.171 L376.057 176.657 L375.661 177.106 L375.223 177.514 L374.746 177.875 L374.235 178.187 L373.696 178.447 L373.134 178.652 L372.554 178.800 L371.962 178.889 L371.364 178.919 L352.919 178.919 L352.331 178.890 L351.748 178.804 L351.177 178.660 L350.623 178.462 L350.090 178.210 L349.585 177.908 L349.112 177.557 L348.676 177.161 L348.281 176.725 L347.930 176.252 L347.627 175.747 L347.376 175.215 L347.177 174.661 L347.034 174.089 L346.948 173.507 Z"/>
<path d="M346.919 244.305 L346.919 208.919 L346.948 208.331 L347.034 207.748 L347.177 207.177 L347.376 206.623 L347.627 206.090 L347.930 205.585 L348.281 205.112 L348.676 204.676 L349.112 204.281 L349.585 203.930 L350.090 203.627 L350.623 203.376 L351.177 203.177 L351.748 203.034 L352.331 202.948 L352.919 202.919 L368.697 202.919 L369.313 202.951 L369.922 203.045 L370.519 203.202 L371.096 203.419 L371.647 203.694 L372.168 204.024 L372.652 204.406 L373.094 204.836 L373.490 205.309 L373.835 205.819 L374.126 206.363 L374.359 206.934 L374.533 207.525 L374.646 208.131 L374.695 208.746 L374.681 209.362 L369.333 281.566 L369.255 282.180 L369.115 282.783 L368.913 283.368 L368.652 283.929 L368.335 284.460 L367.964 284.956 L367.545 285.411 L367.081 285.821 L366.577 286.180 L366.038 286.486 L365.472 286.734 L364.882 286.923 L364.276 287.050 L363.661 287.114 L363.042 287.115 L352.612 286.580 L352.007 286.518 L351.412 286.395 L350.832 286.213 L350.274 285.973 L349.743 285.678 L349.245 285.331 L348.784 284.935 L348.365 284.495 L347.993 284.014 L347.672 283.498 L347.558 283.265 L366.718 264.104 L360.354 257.740 L366.718 251.376 L360.354 245.012 L366.718 238.649 L359.647 231.577 Z"/>
</g>
<g id="stalls" stroke="none">
</g>
<g id="paint" fill="none" stroke="#2a2a2a" stroke-width="0.4" stroke-linecap="round" stroke-linejoin="round">
<polyline points="9.953,-12.039 11.173,-27.902 20.146,-27.212 18.926,-11.349"/>
<polyline points="18.926,-11.349 20.146,-27.212 29.120,-26.522 27.900,-10.659"/>
<polyline points="27.900,-10.659 29.120,-26.522 38.093,-25.831 36.873,-9.968"/>
<polyline points="47.067,-25.141 45.847,-9.278 36.873,-9.968 38.093,-25.831"/>
<polyline points="45.847,-9.278 47.067,-25.141 56.040,-24.451 54.820,-8.588"/>
<polyline points="54.820,-8.588 56.040,-24.451 65.014,-23.761 63.794,-7.897"/>
<polyline points="63.794,-7.897 65.014,-23.761 73.987,-23.070 72.767,-7.207"/>
<polyline points="72.767,-7.207 73.987,-23.070 82.961,-22.380 81.741,-6.517"/>
<polyline points="81.741,-6.517 82.961,-22.380 91.934,-21.690 90.714,-5.827"/>
<polyline points="90.714,-5.827 91.934,-21.690 100.908,-20.999 99.688,-5.136"/>
<polyline points="99.688,-5.136 100.908,-20.999 109.881,-20.309 108.661,-4.446"/>
<polyline points="118.855,-19.619 117.635,-3.756 108.661,-4.446 109.881,-20.309"/>
<polyline points="117.635,-3.756 118.855,-19.619 127.828,-18.929 126.608,-3.066"/>
<polyline points="126.608,-3.066 127.828,-18.929 136.802,-18.238 135.582,-2.375"/>
<polyline points="135.582,-2.375 136.802,-18.238 145.775,-17.548 144.555,-1.685"/>
<polyline points="144.555,-1.685 145.775,-17.548 154.749,-16.858 153.529,-0.995"/>
<polyline points="153.529,-0.995 154.749,-16.858 163.722,-16.168 162.502,-0.305"/>
<polyline points="162.502,-0.305 163.722,-16.168 172.696,-15.477 171.475,0.386"/>
<polyline points="171.475,0.386 172.696,-15.477 181.669,-14.787 180.449,1.076"/>
<polyline points="190.643,-14.097 189.422,1.766 180.449,1.076 181.669,-14.787"/>
<polyline points="189.422,1.766 190.643,-14.097 199.616,-13.406 198.396,2.457"/>
<polyline points="198.396,2.457 199.616,-13.406 208.590,-12.716 207.369,3.147"/>
<polyline points="207.369,3.147 208.590,-12.716 217.563,-12.026 216.343,3.837"/>
<polyline points="216.343,3.837 217.563,-12.026 226.537,-11.336 225.316,4.527"/>
<polyline points="225.316,4.527 226.537,-11.336 235.510,-10.645 234.290,5.218"/>
<polyline points="234.290,5.218 235.510,-10.645 244.484,-9.955 243.263,5.908"/>
<polyline points="243.263,5.908 244.484,-9.955 253.457,-9.265 252.237,6.598"/>
<polyline points="262.431,-8.575 261.210,7.288 252.237,6.598 253.457,-9.265"/>
<polyline points="261.210,7.288 262.431,-8.575 271.404,-7.884 270.184,7.979"/>
<polyline points="270.184,7.979 271.404,-7.884 280.378,-7.194 279.157,8.669"/>
<polyline points="279.157,8.669 280.378,-7.194 289.351,-6.504 288.131,9.359"/>
<polyline points="288.131,9.359 289.351,-6.504 298.325,-5.814 297.104,10.050"/>
<polyline points="297.104,10.050 298.325,-5.814 307.298,-5.123 306.078,10.740"/>
<polyline points="306.078,10.740 307.298,-5.123 316.272,-4.433 315.051,11.430"/>
<polyline points="315.051,11.430 316.272,-4.433 325.245,-3.743 324.025,12.120"/>
<polyline points="334.219,-3.052 332.998,12.811 324.025,12.120 325.245,-3.743"/>
<polyline points="332.998,12.811 334.219,-3.052 343.192,-2.362 341.972,13.501"/>
<polyline points="341.972,13.501 343.192,-2.362 352.166,-1.672 350.945,14.191"/>
<polyline points="350.945,14.191 352.166,-1.672 361.139,-0.982 359.919,14.881"/>
<polyline points="359.919,14.881 361.139,-0.982 370.113,-0.291 368.892,15.572"/>
<polyline points="368.892,15.572 370.113,-0.291 379.086,0.399 377.866,16.262"/>
<polyline points="377.866,16.262 379.086,0.399 388.060,1.089 386.839,16.952"/>
<polyline points="386.839,16.952 388.060,1.089 397.033,1.779 395.813,17.642"/>
<polyline points="406.006,2.470 404.786,18.333 395.813,17.642 397.033,1.779"/>
<polyline points="362.542,311.120 361.727,327.010 352.739,326.549 353.554,310.660"/>
<polyline points="353.554,310.660 352.739,326.549 343.751,326.088 344.565,310.199"/>
<polyline points="344.565,310.199 343.751,326.088 334.762,325.627 335.577,309.738"/>
<polyline points="335.577,309.738 334.762,325.627 325.774,325.166 326.589,309.277"/>
<polyline points="326.589,309.277 325.774,325.166 316.786,324.705 317.601,308.816"/>
<polyline points="317.601,308.816 316.786,324.705 307.798,324.244 308.613,308.355"/>
<polyline points="298.810,323.783 299.624,307.894 308.613,308.355 307.798,324.244"/>
<polyline points="299.624,307.894 298.810,323.783 289.821,323.322 290.636,307.433"/>
<polyline points="290.636,307.433 289.821,323.322 280.833,322.861 281.648,306.972"/>
<polyline points="281.648,306.972 280.833,322.861 271.845,322.400 272.660,306.511"/>
<polyline points="272.660,306.511 271.845,322.400 262.857,321.939 263.672,306.050"/>
<polyline points="263.672,306.050 262.857,321.939 253.869,321.478 254.684,305.589"/>
<polyline points="254.684,305.589 253.869,321.478 244.881,321.017 245.695,305.128"/>
<polyline points="245.695,305.128 244.881,321.017 235.892,320.556 236.707,304.667"/>
<polyline points="226.904,320.096 227.719,304.206 236.707,304.667 235.892,320.556"/>
<polyline points="227.719,304.206 226.904,320.096 217.916,319.635 218.731,303.746"/>
<polyline points="218.731,303.746 217.916,319.635 208.928,319.174 209.743,303.285"/>
<polyline points="209.743,303.285 208.928,319.174 199.940,318.713 200.754,302.824"/>
<polyline points="200.754,302.824 199.940,318.713 190.951,318.252 191.766,302.363"/>
<polyline points="191.766,302.363 190.951,318.252 181.963,317.791 182.778,301.902"/>
<polyline points="182.778,301.902 181.963,317.791 172.975,317.330 173.790,301.441"/>
<polyline points="173.790,301.441 172.975,317.330 163.987,316.869 164.802,300.980"/>
<polyline points="154.999,316.408 155.813,300.519 164.802,300.980 163.987,316.869"/>
<polyline points="155.813,300.519 154.999,316.408 146.010,315.947 146.825,300.058"/>
<polyline points="146.825,300.058 146.010,315.947 137.022,315.486 137.837,299.597"/>
<polyline points="137.837,299.597 137.022,315.486 128.034,315.025 128.849,299.136"/>
<polyline points="128.849,299.136 128.034,315.025 119.046,314.564 119.861,298.675"/>
<polyline points="119.861,298.675 119.046,314.564 110.058,314.103 110.873,298.214"/>
<polyline points="110.873,298.214 110.058,314.103 101.070,313.642 101.884,297.753"/>
<polyline points="101.884,297.753 101.070,313.642 92.081,313.182 92.896,297.292"/>
<polyline points="83.093,312.721 83.908,296.832 92.896,297.292 92.081,313.182"/>
<polyline points="83.908,296.832 83.093,312.721 74.105,312.260 74.920,296.371"/>
<polyline points="74.920,296.371 74.105,312.260 65.117,311.799 65.932,295.910"/>
<polyline points="65.932,295.910 65.117,311.799 56.129,311.338 56.943,295.449"/>
<polyline points="56.943,295.449 56.129,311.338 47.140,310.877 47.955,294.988"/>
<polyline points="47.955,294.988 47.140,310.877 38.152,310.416 38.967,294.527"/>
<polyline points="38.967,294.527 38.152,310.416 29.164,309.955 29.979,294.066"/>
<polyline points="29.979,294.066 29.164,309.955 20.176,309.494 20.991,293.605"/>
<polyline points="11.188,309.033 12.002,293.144 20.991,293.605 20.176,309.494"/>
<polyline points="12.002,293.144 11.188,309.033 2.199,308.572 3.014,292.683"/>
<polyline points="3.014,292.683 2.199,308.572 -6.789,308.111 -5.974,292.222"/>
<polyline points="-5.974,292.222 -6.789,308.111 -15.777,307.650 -14.962,291.761"/>
<polyline points="-21.898,278.147 -37.768,277.013 -37.126,268.036 -21.257,269.170"/>
<polyline points="-21.257,269.170 -37.126,268.036 -36.485,259.059 -20.616,260.192"/>
<polyline points="-20.616,260.192 -36.485,259.059 -35.844,250.082 -19.975,251.215"/>
<polyline points="-35.203,241.105 -19.333,242.238 -19.975,251.215 -35.844,250.082"/>
<polyline points="-19.333,242.238 -35.203,241.105 -34.562,232.127 -18.692,233.261"/>
<polyline points="-18.692,233.261 -34.562,232.127 -33.920,223.150 -18.051,224.284"/>
<polyline points="-18.051,224.284 -33.920,223.150 -33.279,214.173 -17.410,215.307"/>
<polyline points="-17.410,215.307 -33.279,214.173 -32.638,205.196 -16.768,206.330"/>
<polyline points="-16.768,206.330 -32.638,205.196 -31.997,196.219 -16.127,197.353"/>
<polyline points="-16.127,197.353 -31.997,196.219 -31.355,187.242 -15.486,188.375"/>
<polyline points="-15.486,188.375 -31.355,187.242 -30.714,178.265 -14.845,179.398"/>
<polyline points="-30.073,169.288 -14.204,170.421 -14.845,179.398 -30.714,178.265"/>
<polyline points="-14.204,170.421 -30.073,169.288 -29.432,160.310 -13.562,161.444"/>
<polyline points="-13.562,161.444 -29.432,160.310 -28.791,151.333 -12.921,152.467"/>
<polyline points="-12.921,152.467 -28.791,151.333 -28.149,142.356 -12.280,143.490"/>
<polyline points="-12.280,143.490 -28.149,142.356 -27.508,133.379 -11.639,134.513"/>
<polyline points="-11.639,134.513 -27.508,133.379 -26.867,124.402 -10.997,125.535"/>
<polyline points="-10.997,125.535 -26.867,124.402 -26.226,115.425 -10.356,116.558"/>
<polyline points="-10.356,116.558 -26.226,115.425 -25.584,106.448 -9.715,107.581"/>
<polyline points="-24.943,97.471 -9.074,98.604 -9.715,107.581 -25.584,106.448"/>
<polyline points="-9.074,98.604 -24.943,97.471 -24.302,88.493 -8.433,89.627"/>
<polyline points="-8.433,89.627 -24.302,88.493 -23.661,79.516 -7.791,80.650"/>
<polyline points="-7.791,80.650 -23.661,79.516 -23.020,70.539 -7.150,71.673"/>
<polyline points="-7.150,71.673 -23.020,70.539 -22.378,61.562 -6.509,62.696"/>
<polyline points="-6.509,62.696 -22.378,61.562 -21.737,52.585 -5.868,53.718"/>
<polyline points="-5.868,53.718 -21.737,52.585 -21.096,43.608 -5.226,44.741"/>
<polyline points="-5.226,44.741 -21.096,43.608 -20.455,34.631 -4.585,35.764"/>
<polyline points="-19.813,25.654 -3.944,26.787 -4.585,35.764 -20.455,34.631"/>
<polyline points="-3.944,26.787 -19.813,25.654 -19.172,16.676 -3.303,17.810"/>
<polyline points="-3.303,17.810 -19.172,16.676 -18.531,7.699 -2.661,8.833"/>
<polyline points="-2.661,8.833 -18.531,7.699 -17.890,-1.278 -2.020,-0.144"/>
<polyline points="411.994,30.518 427.861,31.693 427.196,40.669 411.330,39.494"/>
<polyline points="411.330,39.494 427.196,40.669 426.531,49.644 410.665,48.469"/>
<polyline points="410.665,48.469 426.531,49.644 425.866,58.620 410,57.444"/>
<polyline points="410,57.444 425.866,58.620 425.202,67.595 409.335,66.420"/>
<polyline points="424.537,76.570 408.670,75.395 409.335,66.420 425.202,67.595"/>
<polyline points="408.670,75.395 424.537,76.570 423.872,85.546 408.005,84.371"/>
<polyline points="408.005,84.371 423.872,85.546 423.207,94.521 407.341,93.346"/>
<polyline points="407.341,93.346 423.207,94.521 422.542,103.497 406.676,102.321"/>
<polyline points="406.676,102.321 422.542,103.497 421.877,112.472 406.011,111.297"/>
<polyline points="406.011,111.297 421.877,112.472 421.212,121.447 405.346,120.272"/>
<polyline points="405.346,120.272 421.212,121.447 420.548,130.423 404.681,129.248"/>
<polyline points="404.681,129.248 420.548,130.423 419.883,139.398 404.016,138.223"/>
<polyline points="419.218,148.374 403.352,147.198 404.016,138.223 419.883,139.398"/>
<polyline points="403.352,147.198 419.218,148.374 418.553,157.349 402.687,156.174"/>
<polyline points="402.687,156.174 418.553,157.349 417.888,166.325 402.022,165.149"/>
<polyline points="402.022,165.149 417.888,166.325 417.223,175.300 401.357,174.125"/>
<polyline points="401.357,174.125 417.223,175.300 416.559,184.275 400.692,183.100"/>
<polyline points="400.692,183.100 416.559,184.275 415.894,193.251 400.027,192.075"/>
<polyline points="400.027,192.075 415.894,193.251 415.229,202.226 399.362,201.051"/>
<polyline points="399.362,201.051 415.229,202.226 414.564,211.202 398.698,210.026"/>
<polyline points="413.899,220.177 398.033,219.002 398.698,210.026 414.564,211.202"/>
<polyline points="398.033,219.002 413.899,220.177 413.234,229.152 397.368,227.977"/>
<polyline points="397.368,227.977 413.234,229.152 412.569,238.128 396.703,236.953"/>
<polyline points="396.703,236.953 412.569,238.128 411.905,247.103 396.038,245.928"/>
<polyline points="396.038,245.928 411.905,247.103 411.240,256.079 395.373,254.903"/>
<polyline points="395.373,254.903 411.240,256.079 410.575,265.054 394.709,263.879"/>
<polyline points="394.709,263.879 410.575,265.054 409.910,274.029 394.044,272.854"/>
<polyline points="394.044,272.854 409.910,274.029 409.245,283.005 393.379,281.830"/>
<polyline points="408.580,291.980 392.714,290.805 393.379,281.830 409.245,283.005"/>
<polyline points="392.714,290.805 408.580,291.980 407.916,300.956 392.049,299.780"/>
<polyline points="43.820,136.825 31.092,149.553 24.728,143.189 43.820,124.097"/>
<polyline points="43.820,124.097 31.092,136.825 24.728,130.461 43.820,111.369"/>
<polyline points="43.820,111.369 31.092,124.097 24.728,117.733 43.820,98.641"/>
<polyline points="43.820,98.641 31.092,111.369 24.728,105.005 43.820,85.913"/>
<polyline points="43.820,85.913 31.092,98.641 24.728,92.277 43.820,73.186"/>
<polyline points="43.820,73.186 31.092,85.913 24.728,79.550 43.820,60.458"/>
<polyline points="43.820,60.458 31.092,73.186 24.728,66.822 43.820,47.730"/>
<polyline points="24.728,54.094 43.820,35.002 43.820,47.730 31.092,60.458"/>
<polyline points="43.820,35.002 31.092,47.730 24.728,41.366 43.820,22.274"/>
<polyline points="99.640,136.825 86.912,149.553 80.548,143.189 99.640,124.097"/>
<polyline points="99.640,124.097 86.912,136.825 80.548,130.461 99.640,111.369"/>
<polyline points="99.640,111.369 86.912,124.097 80.548,117.733 99.640,98.641"/>
<polyline points="99.640,98.641 86.912,111.369 80.548,105.005 99.640,85.913"/>
<polyline points="99.640,85.913 86.912,98.641 80.548,92.277 99.640,73.186"/>
<polyline points="99.640,73.186 86.912,85.913 80.548,79.550 99.640,60.458"/>
<polyline points="99.640,60.458 86.912,73.186 80.548,66.822 99.640,47.730"/>
<polyline points="99.640,47.730 86.912,60.458 80.548,54.094 99.640,35.002"/>
<polyline points="99.640,35.002 86.912,47.730 80.548,41.366 99.640,22.274"/>
<polyline points="67.820,54.094 80.548,41.366 86.912,47.730 67.820,66.822"/>
<polyline points="67.820,66.822 80.548,54.094 86.912,60.458 67.820,79.550"/>
<polyline points="67.820,79.550 80.548,66.822 86.912,73.186 67.820,92.277"/>
<polyline points="67.820,92.277 80.548,79.550 86.912,85.913 67.820,105.005"/>
<polyline points="67.820,105.005 80.548,92.277 86.912,98.641 67.820,117.733"/>
<polyline points="67.820,117.733 80.548,105.005 86.912,111.369 67.820,130.461"/>
<polyline points="67.820,130.461 80.548,117.733 86.912,124.097 67.820,143.189"/>
<polyline points="67.820,143.189 80.548,130.461 86.912,136.825 67.820,155.917"/>
<polyline points="67.820,155.917 80.548,143.189 86.912,149.553 67.820,168.645"/>
<polyline points="155.459,136.825 142.731,149.553 136.368,143.189 155.459,124.097"/>
<polyline points="155.459,124.097 142.731,136.825 136.368,130.461 155.459,111.369"/>
<polyline points="155.459,111.369 142.731,124.097 136.368,117.733 155.459,98.641"/>
<polyline points="155.459,98.641 142.731,111.369 136.368,105.005 155.459,85.913"/>
<polyline points="155.459,85.913 142.731,98.641 136.368,92.277 155.459,73.186"/>
<polyline points="155.459,73.186 142.731,85.913 136.368,79.550 155.459,60.458"/>
<polyline points="155.459,60.458 142.731,73.186 136.368,66.822 155.459,47.730"/>
<polyline points="155.459,47.730 142.731,60.458 136.368,54.094 155.459,35.002"/>
<polyline points="123.640,54.094 136.368,41.366 142.731,47.730 123.640,66.822"/>
<polyline points="123.640,66.822 136.368,54.094 142.731,60.458 123.640,79.550"/>
<polyline points="123.640,79.550 136.368,66.822 142.731,73.186 123.640,92.277"/>
<polyline points="123.640,92.277 136.368,79.550 142.731,85.913 123.640,105.005"/>
<polyline points="123.640,105.005 136.368,92.277 142.731,98.641 123.640,117.733"/>
<polyline points="123.640,117.733 136.368,105.005 142.731,111.369 123.640,130.461"/>
<polyline points="123.640,130.461 136.368,117.733 142.731,124.097 123.640,143.189"/>
<polyline points="123.640,143.189 136.368,130.461 142.731,136.825 123.640,155.917"/>
<polyline points="123.640,155.917 136.368,143.189 142.731,149.553 123.640,168.645"/>
<polyline points="211.279,136.825 198.551,149.553 192.187,143.189 211.279,124.097"/>
<polyline points="211.279,124.097 198.551,136.825 192.187,130.461 211.279,111.369"/>
<polyline points="211.279,111.369 198.551,124.097 192.187,117.733 211.279,98.641"/>
<polyline points="211.279,98.641 198.551,111.369 192.187,105.005 211.279,85.913"/>
<polyline points="211.279,85.913 198.551,98.641 192.187,92.277 211.279,73.186"/>
<polyline points="211.279,73.186 198.551,85.913 192.187,79.550 211.279,60.458"/>
<polyline points="211.279,60.458 198.551,73.186 192.187,66.822 211.279,47.730"/>
<polyline points="211.279,47.730 198.551,60.458 192.187,54.094 211.279,35.002"/>
<polyline points="179.459,66.822 192.187,54.094 198.551,60.458 179.459,79.550"/>
<polyline points="179.459,79.550 192.187,66.822 198.551,73.186 179.459,92.277"/>
<polyline points="179.459,92.277 192.187,79.550 198.551,85.913 179.459,105.005"/>
<polyline points="179.459,105.005 192.187,92.277 198.551,98.641 179.459,117.733"/>
<polyline points="179.459,117.733 192.187,105.005 198.551,111.369 179.459,130.461"/>
<polyline points="179.459,130.461 192.187,117.733 198.551,124.097 179.459,143.189"/>
<polyline points="179.459,143.189 192.187,130.461 198.551,136.825 179.459,155.917"/>
<polyline points="179.459,155.917 192.187,143.189 198.551,149.553 179.459,168.645"/>
<polyline points="267.099,136.825 254.371,149.553 248.007,143.189 267.099,124.097"/>
<polyline points="267.099,124.097 254.371,136.825 248.007,130.461 267.099,111.369"/>
<polyline points="267.099,111.369 254.371,124.097 248.007,117.733 267.099,98.641"/>
<polyline points="267.099,98.641 254.371,111.369 248.007,105.005 267.099,85.913"/>
<polyline points="267.099,85.913 254.371,98.641 248.007,92.277 267.099,73.186"/>
<polyline points="267.099,73.186 254.371,85.913 248.007,79.550 267.099,60.458"/>
<polyline points="267.099,60.458 254.371,73.186 248.007,66.822 267.099,47.730"/>
<polyline points="267.099,47.730 254.371,60.458 248.007,54.094 267.099,35.002"/>
<polyline points="235.279,66.822 248.007,54.094 254.371,60.458 235.279,79.550"/>
<polyline points="235.279,79.550 248.007,66.822 254.371,73.186 235.279,92.277"/>
<polyline points="235.279,92.277 248.007,79.550 254.371,85.913 235.279,105.005"/>
<polyline points="235.279,105.005 248.007,92.277 254.371,98.641 235.279,117.733"/>
<polyline points="235.279,117.733 248.007,105.005 254.371,111.369 235.279,130.461"/>
<polyline points="235.279,130.461 248.007,117.733 254.371,124.097 235.279,143.189"/>
<polyline points="235.279,143.189 248.007,130.461 254.371,136.825 235.279,155.917"/>
<polyline points="235.279,155.917 248.007,143.189 254.371,149.553 235.279,168.645"/>
<polyline points="322.919,136.825 310.191,149.553 303.827,143.189 322.919,124.097"/>
<polyline points="322.919,124.097 310.191,136.825 303.827,130.461 322.919,111.369"/>
<polyline points="322.919,111.369 310.191,124.097 303.827,117.733 322.919,98.641"/>
<polyline points="322.919,98.641 310.191,111.369 303.827,105.005 322.919,85.913"/>
<polyline points="322.919,85.913 310.191,98.641 303.827,92.277 322.919,73.186"/>
<polyline points="322.919,73.186 310.191,85.913 303.827,79.550 322.919,60.458"/>
<polyline points="322.919,60.458 310.191,73.186 303.827,66.822 322.919,47.730"/>
<polyline points="291.099,66.822 303.827,54.094 310.191,60.458 291.099,79.550"/>
<polyline points="291.099,79.550 303.827,66.822 310.191,73.186 291.099,92.277"/>
<polyline points="291.099,92.277 303.827,79.550 310.191,85.913 291.099,105.005"/>
<polyline points="291.099,105.005 303.827,92.277 310.191,98.641 291.099,117.733"/>
<polyline points="291.099,117.733 303.827,105.005 310.191,111.369 291.099,130.461"/>
<polyline points="291.099,130.461 303.827,117.733 310.191,124.097 291.099,143.189"/>
<polyline points="291.099,143.189 303.827,130.461 310.191,136.825 291.099,155.917"/>
<polyline points="291.099,155.917 303.827,143.189 310.191,149.553 291.099,168.645"/>
<polyline points="378.739,149.553 366.011,162.281 359.647,155.917 378.739,136.825"/>
<polyline points="378.739,136.825 366.011,149.553 359.647,143.189 378.739,124.097"/>
<polyline points="378.739,124.097 366.011,136.825 359.647,130.461 378.739,111.369"/>
<polyline points="378.739,111.369 366.011,124.097 359.647,117.733 378.739,98.641"/>
<polyline points="378.739,98.641 366.011,111.369 359.647,105.005 378.739,85.913"/>
<polyline points="378.739,85.913 366.011,98.641 359.647,92.277 378.739,73.186"/>
<polyline points="378.739,73.186 366.011,85.913 359.647,79.550 378.739,60.458"/>
<polyline points="378.739,60.458 366.011,73.186 359.647,66.822 378.739,47.730"/>
<polyline points="346.919,79.550 359.647,66.822 366.011,73.186 346.919,92.277"/>
<polyline points="346.919,92.277 359.647,79.550 366.011,85.913 346.919,105.005"/>
<polyline points="346.919,105.005 359.647,92.277 366.011,98.641 346.919,117.733"/>
<polyline points="346.919,117.733 359.647,105.005 366.011,111.369 346.919,130.461"/>
<polyline points="346.919,130.461 359.647,117.733 366.011,124.097 346.919,143.189"/>
<polyline points="346.919,143.189 359.647,130.461 366.011,136.825 346.919,155.917"/>
<polyline points="346.919,155.917 359.647,143.189 366.011,149.553 346.919,168.645"/>
<polyline points="12,130.461 24.728,117.733 31.092,124.097 12,143.189"/>
<polyline points="12,143.189 24.728,130.461 31.092,136.825 12,155.917"/>
<polyline points="12,155.917 24.728,143.189 31.092,149.553 12,168.645"/>
<polyline points="346.919,245.012 359.647,232.285 366.011,238.649 346.919,257.740"/>
<polyline points="346.919,257.740 359.647,245.012 366.011,251.376 346.919,270.468"/>
<polyline points="346.919,270.468 359.647,257.740 366.011,264.104 346.919,283.196"/>
<polyline points="291.099,245.012 303.827,232.285 310.191,238.649 291.099,257.740"/>
<polyline points="291.099,257.740 303.827,245.012 310.191,251.376 291.099,270.468"/>
<polyline points="291.099,270.468 303.827,257.740 310.191,264.104 291.099,283.196"/>
<polyline points="322.919,251.376 310.191,264.104 303.827,257.740 322.919,238.649"/>
<polyline points="322.919,238.649 310.191,251.376 303.827,245.012 322.919,225.921"/>
<polyline points="322.919,225.921 310.191,238.649 303.827,232.285 322.919,213.193"/>
<line x1="45.519" y1="-25.260" x2="46.948" y2="-23.594"/>
<line x1="41.289" y1="-25.585" x2="46.622" y2="-19.364"/>
<line x1="38.014" y1="-24.797" x2="46.297" y2="-15.133"/>
<line x1="37.688" y1="-20.567" x2="45.972" y2="-10.903"/>
<line x1="37.363" y1="-16.337" x2="43.242" y2="-9.478"/>
<line x1="37.038" y1="-12.107" x2="39.012" y2="-9.804"/>
<line x1="117.432" y1="-19.728" x2="118.745" y2="-18.196"/>
<line x1="113.202" y1="-20.054" x2="118.420" y2="-13.966"/>
<line x1="109.811" y1="-19.400" x2="118.095" y2="-9.736"/>
<line x1="109.486" y1="-15.169" x2="117.769" y2="-5.506"/>
<line x1="109.161" y1="-10.939" x2="115.154" y2="-3.947"/>
<line x1="108.835" y1="-6.709" x2="110.924" y2="-4.272"/>
<line x1="189.344" y1="-14.197" x2="190.543" y2="-12.798"/>
<line x1="185.114" y1="-14.522" x2="190.217" y2="-8.568"/>
<line x1="181.609" y1="-14.002" x2="189.892" y2="-4.338"/>
<line x1="181.283" y1="-9.772" x2="189.567" y2="-0.108"/>
<line x1="180.958" y1="-5.542" x2="187.067" y2="1.585"/>
<line x1="180.633" y1="-1.311" x2="182.836" y2="1.260"/>
<line x1="261.257" y1="-8.665" x2="262.340" y2="-7.401"/>
<line x1="257.027" y1="-8.990" x2="262.015" y2="-3.171"/>
<line x1="253.406" y1="-8.604" x2="261.690" y2="1.060"/>
<line x1="253.081" y1="-4.374" x2="261.364" y2="5.290"/>
<line x1="252.756" y1="-0.144" x2="258.979" y2="7.117"/>
<line x1="252.430" y1="4.086" x2="254.749" y2="6.791"/>
<line x1="333.169" y1="-3.133" x2="334.138" y2="-2.003"/>
<line x1="328.939" y1="-3.459" x2="333.812" y2="2.227"/>
<line x1="325.204" y1="-3.207" x2="333.487" y2="6.457"/>
<line x1="324.878" y1="1.024" x2="333.162" y2="10.687"/>
<line x1="324.553" y1="5.254" x2="330.891" y2="12.649"/>
<line x1="324.228" y1="9.484" x2="326.661" y2="12.323"/>
<line x1="405.082" y1="2.399" x2="405.935" y2="3.394"/>
<line x1="400.852" y1="2.073" x2="405.610" y2="7.625"/>
<line x1="397.001" y1="2.191" x2="405.285" y2="11.855"/>
<line x1="396.676" y1="6.421" x2="404.959" y2="16.085"/>
<line x1="396.351" y1="10.651" x2="402.804" y2="18.180"/>
<line x1="396.025" y1="14.881" x2="398.574" y2="17.855"/>
<line x1="300.348" y1="323.862" x2="298.889" y2="322.245"/>
<line x1="304.585" y1="324.079" x2="299.106" y2="318.008"/>
<line x1="307.850" y1="323.220" x2="299.323" y2="313.771"/>
<line x1="308.068" y1="318.983" x2="299.540" y2="309.534"/>
<line x1="308.285" y1="314.746" x2="302.222" y2="308.027"/>
<line x1="308.502" y1="310.509" x2="306.459" y2="308.244"/>
<line x1="228.317" y1="320.168" x2="226.977" y2="318.682"/>
<line x1="232.554" y1="320.385" x2="227.194" y2="314.445"/>
<line x1="235.938" y1="319.657" x2="227.411" y2="310.208"/>
<line x1="236.156" y1="315.420" x2="227.628" y2="305.971"/>
<line x1="236.373" y1="311.183" x2="230.191" y2="304.333"/>
<line x1="236.590" y1="306.946" x2="234.428" y2="304.551"/>
<line x1="156.287" y1="316.474" x2="155.065" y2="315.120"/>
<line x1="160.524" y1="316.691" x2="155.282" y2="310.883"/>
<line x1="164.027" y1="316.095" x2="155.499" y2="306.646"/>
<line x1="164.244" y1="311.858" x2="155.717" y2="302.408"/>
<line x1="164.461" y1="307.620" x2="158.161" y2="300.639"/>
<line x1="164.678" y1="303.383" x2="162.398" y2="300.857"/>
<line x1="84.257" y1="312.780" x2="83.153" y2="311.557"/>
<line x1="88.494" y1="312.998" x2="83.370" y2="307.320"/>
<line x1="92.115" y1="312.532" x2="83.587" y2="303.083"/>
<line x1="92.332" y1="308.295" x2="83.805" y2="298.846"/>
<line x1="92.549" y1="304.058" x2="86.131" y2="296.946"/>
<line x1="92.766" y1="299.821" x2="90.368" y2="297.163"/>
<line x1="12.227" y1="309.086" x2="11.241" y2="307.994"/>
<line x1="16.464" y1="309.304" x2="11.458" y2="303.757"/>
<line x1="20.203" y1="308.969" x2="11.675" y2="299.520"/>
<line x1="20.420" y1="304.732" x2="11.893" y2="295.283"/>
<line x1="20.637" y1="300.495" x2="14.101" y2="293.252"/>
<line x1="20.855" y1="296.258" x2="18.338" y2="293.469"/>
<line x1="-35.490" y1="245.132" x2="-31.175" y2="241.392"/>
<line x1="-35.793" y1="249.364" x2="-26.943" y2="241.695"/>
<line x1="-32.330" y1="250.333" x2="-22.711" y2="241.997"/>
<line x1="-28.098" y1="250.635" x2="-19.394" y2="243.092"/>
<line x1="-23.866" y1="250.937" x2="-19.697" y2="247.324"/>
<line x1="-30.352" y1="173.191" x2="-26.170" y2="169.566"/>
<line x1="-30.654" y1="177.423" x2="-21.938" y2="169.869"/>
<line x1="-27.325" y1="178.507" x2="-17.706" y2="170.171"/>
<line x1="-23.093" y1="178.809" x2="-14.256" y2="171.150"/>
<line x1="-18.861" y1="179.111" x2="-14.558" y2="175.382"/>
<line x1="-25.213" y1="101.249" x2="-21.165" y2="97.740"/>
<line x1="-25.515" y1="105.481" x2="-16.933" y2="98.043"/>
<line x1="-22.319" y1="106.681" x2="-12.701" y2="98.345"/>
<line x1="-18.087" y1="106.983" x2="-9.117" y2="99.209"/>
<line x1="-13.856" y1="107.285" x2="-9.419" y2="103.441"/>
<line x1="-20.074" y1="29.307" x2="-16.159" y2="25.915"/>
<line x1="-20.377" y1="33.539" x2="-11.928" y2="26.217"/>
<line x1="-17.314" y1="34.855" x2="-7.696" y2="26.519"/>
<line x1="-13.082" y1="35.157" x2="-3.978" y2="27.267"/>
<line x1="-8.850" y1="35.460" x2="-4.281" y2="31.499"/>
<line x1="-4.619" y1="35.762" x2="-4.583" y2="35.731"/>
<line x1="424.766" y1="73.479" x2="421.445" y2="76.341"/>
<line x1="425.079" y1="69.248" x2="417.214" y2="76.028"/>
<line x1="422.623" y1="67.404" x2="412.983" y2="75.715"/>
<line x1="418.392" y1="67.091" x2="408.752" y2="75.401"/>
<line x1="414.161" y1="66.777" x2="408.978" y2="71.246"/>
<line x1="409.930" y1="66.464" x2="409.291" y2="67.015"/>
<line x1="419.438" y1="145.407" x2="416.251" y2="148.154"/>
<line x1="419.751" y1="141.176" x2="412.020" y2="147.841"/>
<line x1="417.429" y1="139.217" x2="407.789" y2="147.527"/>
<line x1="413.198" y1="138.903" x2="403.558" y2="147.214"/>
<line x1="408.967" y1="138.590" x2="403.650" y2="143.174"/>
<line x1="404.736" y1="138.276" x2="403.963" y2="138.943"/>
<line x1="414.110" y1="217.335" x2="411.057" y2="219.966"/>
<line x1="414.423" y1="213.103" x2="406.826" y2="219.653"/>
<line x1="412.235" y1="211.029" x2="402.595" y2="219.340"/>
<line x1="408.004" y1="210.716" x2="398.364" y2="219.026"/>
<line x1="403.773" y1="210.402" x2="398.322" y2="215.101"/>
<line x1="399.542" y1="210.089" x2="398.635" y2="210.870"/>
<line x1="408.782" y1="289.262" x2="405.863" y2="291.779"/>
<line x1="409.095" y1="285.031" x2="401.631" y2="291.466"/>
<line x1="407.041" y1="282.842" x2="397.400" y2="291.152"/>
<line x1="402.810" y1="282.528" x2="393.169" y2="290.839"/>
<line x1="398.579" y1="282.215" x2="392.994" y2="287.029"/>
<line x1="394.348" y1="281.901" x2="393.307" y2="282.798"/>
<line x1="27" y1="56.366" x2="27" y2="51.822"/>
<line x1="30" y1="59.366" x2="30" y2="48.822"/>
<line x1="33" y1="58.550" x2="33" y2="45.822"/>
<line x1="36" y1="55.550" x2="36" y2="42.822"/>
<line x1="39" y1="52.550" x2="39" y2="39.822"/>
<line x1="42" y1="49.550" x2="42" y2="36.822"/>
<path d="M-39.398 301.500 L-39.445 300.905 L-39.432 300.309 L-37.803 277.512 L-21.934 278.645 L-21.970 279.145 L-22.831 291.208 L-22.834 291.351 L-22.693 291.365 L-15.461 291.736 L-16.276 307.625 L-33.754 306.728 L-34.347 306.668 L-34.932 306.550 L-35.502 306.374 L-36.051 306.142 L-36.575 305.857 L-37.068 305.521 L-37.525 305.138 L-37.941 304.711 L-38.314 304.245 L-38.638 303.745 L-38.911 303.215 L-39.130 302.660 L-39.293 302.087 Z"/>
<path d="M-1.985 -0.643 L-17.854 -1.777 L-16.269 -23.962 L-16.198 -24.549 L-16.070 -25.126 L-15.885 -25.687 L-15.647 -26.228 L-15.356 -26.742 L-15.016 -27.225 L-14.630 -27.673 L-14.202 -28.080 L-13.736 -28.443 L-13.236 -28.759 L-12.708 -29.024 L-12.157 -29.235 L-11.587 -29.392 L-11.004 -29.492 L-10.415 -29.534 L-9.824 -29.517 L10.674 -27.940 L9.454 -12.077 L-0.962 -12.879 L-1.103 -12.883 L-1.120 -12.743 L-1.970 -0.855 L-1.970 -0.855 Z"/>
<path d="M399.961 328.970 L362.226 327.035 L363.041 311.146 L379.385 311.984 L390.946 312.577 L391.094 312.577 L391.112 312.431 L391.967 300.886 L392.012 300.279 L407.879 301.454 L406.251 323.421 L406.174 324.035 L406.034 324.638 L405.832 325.223 L405.571 325.785 L405.254 326.316 L404.883 326.812 L404.464 327.267 L403.999 327.677 L403.496 328.036 L402.957 328.342 L402.390 328.590 L401.801 328.779 L401.195 328.906 L400.580 328.970 Z"/>
<path d="M412.705 18.942 L405.285 18.371 L406.505 2.508 L423.924 3.848 L424.507 3.922 L425.080 4.052 L425.638 4.238 L426.175 4.478 L426.685 4.768 L427.165 5.108 L427.609 5.493 L428.014 5.919 L428.375 6.383 L428.689 6.880 L428.952 7.405 L429.163 7.954 L429.319 8.521 L429.419 9.100 L429.462 9.686 L429.448 10.274 L427.898 31.195 L412.031 30.019 L412.840 19.100 L412.844 18.959 Z"/>
<path d="M12 172.919 L12 169.352 L31.799 149.553 L31.799 149.553 L43.820 137.532 L43.820 172.919 L43.791 173.507 L43.705 174.089 L43.561 174.661 L43.363 175.215 L43.111 175.747 L42.809 176.252 L42.458 176.725 L42.062 177.161 L41.626 177.557 L41.153 177.908 L40.648 178.210 L40.116 178.462 L39.562 178.660 L38.990 178.804 L38.408 178.890 L37.820 178.919 L18 178.919 L17.412 178.890 L16.829 178.804 L16.258 178.660 L15.704 178.462 L15.172 178.210 L14.667 177.908 L14.194 177.557 L13.757 177.161 L13.362 176.725 L13.011 176.252 L12.708 175.747 L12.457 175.215 L12.258 174.661 L12.115 174.089 L12.029 173.507 Z"/>
<path d="M12.821 128.933 L20.680 18.908 L20.751 18.321 L20.880 17.744 L21.064 17.183 L21.303 16.643 L21.594 16.128 L21.934 15.645 L22.320 15.198 L22.748 14.790 L23.214 14.427 L23.713 14.111 L24.241 13.846 L24.793 13.635 L25.363 13.478 L25.945 13.378 L26.534 13.337 L27.125 13.353 L38.280 14.211 L38.873 14.286 L39.455 14.420 L40.021 14.611 L40.565 14.858 L41.082 15.157 L41.566 15.507 L42.014 15.902 L42.420 16.341 L42.780 16.817 L43.091 17.327 L43.350 17.865 L43.554 18.427 L43.701 19.006 L43.790 19.597 L43.820 20.193 L43.820 21.567 L24.021 41.366 L30.385 47.730 L24.021 54.094 L30.385 60.458 L24.021 66.822 L30.385 73.186 L24.021 79.550 L30.385 85.913 L24.021 92.277 L30.385 98.641 L24.021 105.005 L30.385 111.369 L24.728 117.026 Z"/>
<path d="M12 263.412 L12 208.919 L12.029 208.331 L12.115 207.748 L12.258 207.177 L12.457 206.623 L12.708 206.090 L13.011 205.585 L13.362 205.112 L13.757 204.676 L14.194 204.281 L14.667 203.930 L15.172 203.627 L15.704 203.376 L16.258 203.177 L16.829 203.034 L17.412 202.948 L18 202.919 L37.820 202.919 L38.408 202.948 L38.990 203.034 L39.562 203.177 L40.116 203.376 L40.648 203.627 L41.153 203.930 L41.626 204.281 L42.062 204.676 L42.458 205.112 L42.809 205.585 L43.111 206.090 L43.363 206.623 L43.561 207.177 L43.705 207.748 L43.791 208.331 L43.820 208.919 L43.820 264.429 L43.789 265.036 L43.697 265.637 L43.544 266.225 L43.333 266.796 L43.065 267.341 L42.744 267.857 L42.371 268.338 L41.952 268.779 L41.491 269.174 L40.992 269.522 L40.460 269.816 L39.901 270.056 L39.321 270.238 L38.725 270.360 L38.121 270.421 L37.513 270.421 L17.693 269.404 L17.088 269.343 L16.493 269.220 L15.914 269.038 L15.355 268.798 L14.824 268.503 L14.326 268.156 L13.865 267.760 L13.446 267.319 L13.075 266.839 L12.753 266.323 L12.486 265.778 L12.275 265.208 L12.123 264.620 L12.031 264.019 Z"/>
<path d="M67.820 53.387 L67.820 22.962 L67.852 22.346 L67.947 21.735 L68.104 21.138 L68.322 20.560 L68.598 20.008 L68.929 19.487 L69.312 19.002 L69.743 18.560 L70.217 18.164 L70.730 17.819 L71.275 17.529 L71.847 17.296 L72.439 17.123 L73.047 17.012 L73.663 16.964 L74.280 16.980 L94.100 18.505 L94.692 18.580 L95.275 18.714 L95.840 18.905 L96.385 19.152 L96.902 19.451 L97.386 19.800 L97.834 20.196 L98.239 20.634 L98.600 21.111 L98.911 21.621 L99.130 22.076 L79.841 41.366 Z"/>
<path d="M67.820 172.919 L67.820 169.352 L99.640 137.532 L99.640 172.919 L99.611 173.507 L99.524 174.089 L99.381 174.661 L99.183 175.215 L98.931 175.747 L98.628 176.252 L98.278 176.725 L97.882 177.161 L97.446 177.557 L96.973 177.908 L96.468 178.210 L95.936 178.462 L95.381 178.660 L94.810 178.804 L94.228 178.890 L93.640 178.919 L73.820 178.919 L73.232 178.890 L72.649 178.804 L72.078 178.660 L71.524 178.462 L70.991 178.210 L70.486 177.908 L70.013 177.557 L69.577 177.161 L69.182 176.725 L68.831 176.252 L68.528 175.747 L68.277 175.215 L68.078 174.661 L67.935 174.089 L67.849 173.507 Z"/>
<path d="M67.820 266.275 L67.820 208.919 L67.849 208.331 L67.935 207.748 L68.078 207.177 L68.277 206.623 L68.528 206.090 L68.831 205.585 L69.182 205.112 L69.577 204.676 L70.013 204.281 L70.486 203.930 L70.991 203.627 L71.524 203.376 L72.078 203.177 L72.649 203.034 L73.232 202.948 L73.820 202.919 L93.640 202.919 L94.228 202.948 L94.810 203.034 L95.381 203.177 L95.936 203.376 L96.468 203.627 L96.973 203.930 L97.446 204.281 L97.882 204.676 L98.278 205.112 L98.628 205.585 L98.931 206.090 L99.183 206.623 L99.381 207.177 L99.524 207.748 L99.611 208.331 L99.640 208.919 L99.640 267.291 L99.609 267.898 L99.517 268.499 L99.364 269.088 L99.153 269.658 L98.885 270.204 L98.563 270.720 L98.191 271.201 L97.772 271.641 L97.311 272.037 L96.812 272.384 L96.280 272.679 L95.721 272.919 L95.141 273.100 L94.545 273.222 L93.940 273.284 L93.332 273.283 L73.513 272.267 L72.908 272.205 L72.313 272.083 L71.733 271.900 L71.175 271.661 L70.644 271.365 L70.146 271.018 L69.685 270.622 L69.266 270.182 L68.894 269.701 L68.573 269.186 L68.306 268.640 L68.095 268.070 L67.943 267.482 L67.851 266.882 Z"/>
<path d="M123.640 53.387 L123.640 27.256 L123.671 26.639 L123.766 26.029 L123.924 25.432 L124.141 24.854 L124.417 24.302 L124.749 23.781 L125.132 23.296 L125.563 22.854 L126.037 22.458 L126.549 22.113 L127.094 21.823 L127.666 21.590 L128.259 21.417 L128.867 21.306 L129.482 21.258 L130.100 21.274 L149.920 22.798 L150.512 22.874 L151.094 23.008 L151.660 23.199 L152.204 23.446 L152.721 23.745 L153.206 24.094 L153.653 24.490 L154.059 24.928 L154.420 25.405 L154.731 25.915 L154.989 26.453 L155.194 27.015 L155.341 27.593 L155.430 28.184 L155.459 28.781 L155.459 34.295 L142.731 47.023 L136.368 40.659 Z"/>
<path d="M123.640 172.919 L123.640 169.352 L155.459 137.532 L155.459 172.919 L155.431 173.507 L155.344 174.089 L155.201 174.661 L155.003 175.215 L154.751 175.747 L154.448 176.252 L154.097 176.725 L153.702 177.161 L153.266 177.557 L152.793 177.908 L152.288 178.210 L151.756 178.462 L151.201 178.660 L150.630 178.804 L150.048 178.890 L149.459 178.919 L129.640 178.919 L129.052 178.890 L128.469 178.804 L127.898 178.660 L127.344 178.462 L126.811 178.210 L126.306 177.908 L125.833 177.557 L125.397 177.161 L125.002 176.725 L124.651 176.252 L124.348 175.747 L124.096 175.215 L123.898 174.661 L123.755 174.089 L123.669 173.507 Z"/>
<path d="M123.640 269.137 L123.640 208.919 L123.669 208.331 L123.755 207.748 L123.898 207.177 L124.096 206.623 L124.348 206.090 L124.651 205.585 L125.002 205.112 L125.397 204.676 L125.833 204.281 L126.306 203.930 L126.811 203.627 L127.344 203.376 L127.898 203.177 L128.469 203.034 L129.052 202.948 L129.640 202.919 L149.459 202.919 L150.048 202.948 L150.630 203.034 L151.201 203.177 L151.756 203.376 L152.288 203.627 L152.793 203.930 L153.266 204.281 L153.702 204.676 L154.097 205.112 L154.448 205.585 L154.751 206.090 L155.003 206.623 L155.201 207.177 L155.344 207.748 L155.431 208.331 L155.459 208.919 L155.459 270.154 L155.429 270.761 L155.337 271.362 L155.184 271.951 L154.973 272.521 L154.705 273.066 L154.383 273.582 L154.011 274.063 L153.592 274.504 L153.131 274.900 L152.631 275.247 L152.100 275.542 L151.541 275.781 L150.961 275.963 L150.365 276.085 L149.760 276.146 L149.152 276.146 L129.332 275.129 L128.728 275.068 L128.133 274.945 L127.553 274.763 L126.995 274.523 L126.464 274.228 L125.965 273.881 L125.504 273.485 L125.086 273.044 L124.714 272.564 L124.393 272.048 L124.126 271.503 L123.915 270.933 L123.762 270.345 L123.670 269.744 Z"/>
<path d="M179.459 66.114 L179.459 31.550 L179.491 30.933 L179.586 30.323 L179.743 29.726 L179.961 29.148 L180.237 28.596 L180.569 28.074 L180.952 27.590 L181.383 27.148 L181.857 26.752 L182.369 26.407 L182.914 26.117 L183.486 25.884 L184.079 25.711 L184.687 25.600 L185.302 25.552 L185.920 25.568 L205.739 27.092 L206.332 27.168 L206.914 27.302 L207.480 27.493 L208.024 27.739 L208.541 28.039 L209.026 28.388 L209.473 28.784 L209.879 29.222 L210.239 29.699 L210.550 30.209 L210.809 30.747 L211.013 31.308 L211.161 31.887 L211.249 32.478 L211.279 33.075 L211.279 34.295 Z"/>
<path d="M179.459 172.919 L179.459 169.352 L211.279 137.532 L211.279 172.919 L211.250 173.507 L211.164 174.089 L211.021 174.661 L210.822 175.215 L210.571 175.747 L210.268 176.252 L209.917 176.725 L209.522 177.161 L209.086 177.557 L208.613 177.908 L208.108 178.210 L207.575 178.462 L207.021 178.660 L206.450 178.804 L205.867 178.890 L205.279 178.919 L185.459 178.919 L184.871 178.890 L184.289 178.804 L183.718 178.660 L183.163 178.462 L182.631 178.210 L182.126 177.908 L181.653 177.557 L181.217 177.161 L180.821 176.725 L180.471 176.252 L180.168 175.747 L179.916 175.215 L179.718 174.661 L179.575 174.089 L179.488 173.507 Z"/>
<path d="M179.459 272 L179.459 208.919 L179.488 208.331 L179.575 207.748 L179.718 207.177 L179.916 206.623 L180.168 206.090 L180.471 205.585 L180.821 205.112 L181.217 204.676 L181.653 204.281 L182.126 203.930 L182.631 203.627 L183.163 203.376 L183.718 203.177 L184.289 203.034 L184.871 202.948 L185.459 202.919 L205.279 202.919 L205.867 202.948 L206.450 203.034 L207.021 203.177 L207.575 203.376 L208.108 203.627 L208.613 203.930 L209.086 204.281 L209.522 204.676 L209.917 205.112 L210.268 205.585 L210.571 206.090 L210.822 206.623 L211.021 207.177 L211.164 207.748 L211.250 208.331 L211.279 208.919 L211.279 273.016 L211.248 273.624 L211.156 274.225 L211.004 274.813 L210.793 275.383 L210.525 275.929 L210.203 276.445 L209.831 276.926 L209.412 277.366 L208.950 277.762 L208.451 278.109 L207.919 278.404 L207.361 278.644 L206.780 278.825 L206.185 278.948 L205.580 279.009 L204.972 279.008 L185.152 277.992 L184.548 277.930 L183.953 277.808 L183.373 277.625 L182.815 277.386 L182.284 277.091 L181.785 276.743 L181.324 276.347 L180.906 275.907 L180.534 275.426 L180.213 274.911 L179.945 274.365 L179.734 273.795 L179.582 273.207 L179.490 272.607 Z"/>
<path d="M235.279 66.114 L235.279 35.844 L235.311 35.227 L235.406 34.617 L235.563 34.020 L235.781 33.442 L236.057 32.889 L236.388 32.368 L236.772 31.884 L237.203 31.442 L237.677 31.046 L238.189 30.701 L238.734 30.411 L239.306 30.178 L239.899 30.005 L240.506 29.894 L241.122 29.846 L241.739 29.862 L261.559 31.386 L262.152 31.462 L262.734 31.596 L263.300 31.787 L263.844 32.033 L264.361 32.333 L264.846 32.682 L265.293 33.078 L265.699 33.516 L266.059 33.992 L266.370 34.502 L266.539 34.854 Z"/>
<path d="M235.279 172.919 L235.279 169.352 L267.099 137.532 L267.099 172.919 L267.070 173.507 L266.984 174.089 L266.841 174.661 L266.642 175.215 L266.391 175.747 L266.088 176.252 L265.737 176.725 L265.342 177.161 L264.905 177.557 L264.432 177.908 L263.927 178.210 L263.395 178.462 L262.841 178.660 L262.270 178.804 L261.687 178.890 L261.099 178.919 L241.279 178.919 L240.691 178.890 L240.109 178.804 L239.538 178.660 L238.983 178.462 L238.451 178.210 L237.946 177.908 L237.473 177.557 L237.037 177.161 L236.641 176.725 L236.290 176.252 L235.988 175.747 L235.736 175.215 L235.538 174.661 L235.395 174.089 L235.308 173.507 Z"/>
<path d="M235.279 274.862 L235.279 208.919 L235.308 208.331 L235.395 207.748 L235.538 207.177 L235.736 206.623 L235.988 206.090 L236.290 205.585 L236.641 205.112 L237.037 204.676 L237.473 204.281 L237.946 203.930 L238.451 203.627 L238.983 203.376 L239.538 203.177 L240.109 203.034 L240.691 202.948 L241.279 202.919 L261.099 202.919 L261.687 202.948 L262.270 203.034 L262.841 203.177 L263.395 203.376 L263.927 203.627 L264.432 203.930 L264.905 204.281 L265.342 204.676 L265.737 205.112 L266.088 205.585 L266.391 206.090 L266.642 206.623 L266.841 207.177 L266.984 207.748 L267.070 208.331 L267.099 208.919 L267.099 275.879 L267.068 276.486 L266.976 277.087 L266.824 277.676 L266.612 278.246 L266.345 278.792 L266.023 279.308 L265.651 279.788 L265.232 280.229 L264.770 280.625 L264.271 280.972 L263.739 281.267 L263.180 281.506 L262.600 281.688 L262.005 281.810 L261.400 281.871 L260.792 281.871 L240.972 280.855 L240.368 280.793 L239.772 280.670 L239.193 280.488 L238.635 280.248 L238.104 279.953 L237.605 279.606 L237.144 279.210 L236.726 278.769 L236.354 278.289 L236.033 277.773 L235.765 277.228 L235.554 276.658 L235.402 276.070 L235.310 275.469 Z"/>
<path d="M291.099 66.114 L291.099 40.138 L291.131 39.521 L291.226 38.911 L291.383 38.314 L291.601 37.736 L291.877 37.183 L292.208 36.662 L292.591 36.178 L293.022 35.735 L293.496 35.340 L294.009 34.995 L294.554 34.704 L295.126 34.471 L295.719 34.299 L296.326 34.188 L296.942 34.140 L297.559 34.155 L317.379 35.680 L317.972 35.755 L318.554 35.889 L319.120 36.081 L319.664 36.327 L320.181 36.626 L320.665 36.976 L321.113 37.372 L321.519 37.810 L321.879 38.286 L322.190 38.796 L322.449 39.335 L322.653 39.896 L322.800 40.475 L322.889 41.066 L322.919 41.662 L322.919 47.023 L310.191 59.751 L303.827 53.387 Z"/>
<path d="M291.099 172.919 L291.099 169.352 L322.919 137.532 L322.919 172.919 L322.890 173.507 L322.804 174.089 L322.660 174.661 L322.462 175.215 L322.210 175.747 L321.908 176.252 L321.557 176.725 L321.161 177.161 L320.725 177.557 L320.252 177.908 L319.747 178.210 L319.215 178.462 L318.661 178.660 L318.089 178.804 L317.507 178.890 L316.919 178.919 L297.099 178.919 L296.511 178.890 L295.928 178.804 L295.357 178.660 L294.803 178.462 L294.271 178.210 L293.766 177.908 L293.293 177.557 L292.856 177.161 L292.461 176.725 L292.110 176.252 L291.807 175.747 L291.556 175.215 L291.357 174.661 L291.214 174.089 L291.128 173.507 Z"/>
<path d="M291.099 244.305 L291.099 208.919 L291.128 208.331 L291.214 207.748 L291.357 207.177 L291.556 206.623 L291.807 206.090 L292.110 205.585 L292.461 205.112 L292.856 204.676 L293.293 204.281 L293.766 203.930 L294.271 203.627 L294.803 203.376 L295.357 203.177 L295.928 203.034 L296.511 202.948 L297.099 202.919 L316.919 202.919 L317.507 202.948 L318.089 203.034 L318.661 203.177 L319.215 203.376 L319.747 203.627 L320.252 203.930 L320.725 204.281 L321.161 204.676 L321.557 205.112 L321.908 205.585 L322.210 206.090 L322.462 206.623 L322.660 207.177 L322.804 207.748 L322.890 208.331 L322.919 208.919 L322.919 212.486 L303.120 232.285 Z"/>
<path d="M292.964 282.073 L292.947 282.055 L322.919 252.084 L322.919 278.741 L322.888 279.349 L322.796 279.950 L322.643 280.538 L322.432 281.108 L322.164 281.654 L321.843 282.170 L321.470 282.651 L321.051 283.091 L320.590 283.487 L320.091 283.834 L319.559 284.129 L319 284.369 L318.420 284.551 L317.824 284.673 L317.220 284.734 L316.612 284.734 L296.792 283.717 L296.187 283.655 L295.592 283.533 L295.013 283.351 L294.454 283.111 L293.923 282.816 L293.425 282.468 Z"/>
<path d="M346.919 78.842 L346.919 44.432 L346.951 43.815 L347.046 43.205 L347.203 42.607 L347.421 42.029 L347.697 41.477 L348.028 40.956 L348.411 40.472 L348.842 40.029 L349.316 39.633 L349.829 39.289 L350.374 38.998 L350.946 38.765 L351.538 38.592 L352.146 38.482 L352.762 38.434 L353.379 38.449 L373.199 39.974 L373.791 40.049 L374.374 40.183 L374.939 40.374 L375.484 40.621 L376.001 40.920 L376.485 41.270 L376.933 41.665 L377.338 42.104 L377.699 42.580 L378.010 43.090 L378.269 43.628 L378.473 44.190 L378.620 44.769 L378.709 45.360 L378.739 45.956 L378.739 47.023 Z"/>
<path d="M346.919 172.919 L346.919 169.352 L359.647 156.624 L366.011 162.988 L378.739 150.260 L378.739 154.363 L378.722 154.806 L377.348 173.362 L377.274 173.956 L377.141 174.540 L376.951 175.107 L376.705 175.653 L376.406 176.171 L376.057 176.657 L375.661 177.106 L375.223 177.514 L374.746 177.875 L374.235 178.187 L373.696 178.447 L373.134 178.652 L372.554 178.800 L371.962 178.889 L371.364 178.919 L352.919 178.919 L352.331 178.890 L351.748 178.804 L351.177 178.660 L350.623 178.462 L350.090 178.210 L349.585 177.908 L349.112 177.557 L348.676 177.161 L348.281 176.725 L347.930 176.252 L347.627 175.747 L347.376 175.215 L347.177 174.661 L347.034 174.089 L346.948 173.507 Z"/>
<path d="M346.919 244.305 L346.919 208.919 L346.948 208.331 L347.034 207.748 L347.177 207.177 L347.376 206.623 L347.627 206.090 L347.930 205.585 L348.281 205.112 L348.676 204.676 L349.112 204.281 L349.585 203.930 L350.090 203.627 L350.623 203.376 L351.177 203.177 L351.748 203.034 L352.331 202.948 L352.919 202.919 L368.697 202.919 L369.313 202.951 L369.922 203.045 L370.519 203.202 L371.096 203.419 L371.647 203.694 L372.168 204.024 L372.652 204.406 L373.094 204.836 L373.490 205.309 L373.835 205.819 L374.126 206.363 L374.359 206.934 L374.533 207.525 L374.646 208.131 L374.695 208.746 L374.681 209.362 L369.333 281.566 L369.255 282.180 L369.115 282.783 L368.913 283.368 L368.652 283.929 L368.335 284.460 L367.964 284.956 L367.545 285.411 L367.081 285.821 L366.577 286.180 L366.038 286.486 L365.472 286.734 L364.882 286.923 L364.276 287.050 L363.661 287.114 L363.042 287.115 L352.612 286.580 L352.007 286.518 L351.412 286.395 L350.832 286.213 L350.274 285.973 L349.743 285.678 L349.245 285.331 L348.784 284.935 L348.365 284.495 L347.993 284.014 L347.672 283.498 L347.558 283.265 L366.718 264.104 L360.354 257.740 L366.718 251.376 L360.354 245.012 L366.718 238.649 L359.647 231.577 Z"/>
</g>
<g id="graph">
<line x1="10" y1="0" x2="55.820" y2="3.525" stroke="#a84a1e" stroke-width="0.6" stroke-dasharray="8 5"/>
<line x1="55.820" y1="3.525" x2="111.640" y2="7.818" stroke="#a84a1e" stroke-width="0.6" stroke-dasharray="8 5"/>
<line x1="111.640" y1="7.818" x2="167.459" y2="12.112" stroke="#a84a1e" stroke-width="0.6" stroke-dasharray="8 5"/>
<line x1="167.459" y1="12.112" x2="223.279" y2="16.406" stroke="#a84a1e" stroke-width="0.6" stroke-dasharray="8 5"/>
<line x1="223.279" y1="16.406" x2="279.099" y2="20.700" stroke="#a84a1e" stroke-width="0.6" stroke-dasharray="8 5"/>
<line x1="279.099" y1="20.700" x2="334.919" y2="24.994" stroke="#a84a1e" stroke-width="0.6" stroke-dasharray="8 5"/>
<line x1="334.919" y1="24.994" x2="390.739" y2="29.288" stroke="#a84a1e" stroke-width="0.6" stroke-dasharray="8 5"/>
<line x1="390.739" y1="29.288" x2="400" y2="30" stroke="#a84a1e" stroke-width="0.6" stroke-dasharray="8 5"/>
<line x1="400" y1="30" x2="390.739" y2="155.028" stroke="#a84a1e" stroke-width="0.6" stroke-dasharray="8 5"/>
<line x1="390.739" y1="155.028" x2="388.080" y2="190.919" stroke="#a84a1e" stroke-width="0.6" stroke-dasharray="8 5"/>
<line x1="388.080" y1="190.919" x2="380" y2="300" stroke="#a84a1e" stroke-width="0.6" stroke-dasharray="8 5"/>
<line x1="380" y1="300" x2="334.919" y2="297.688" stroke="#a84a1e" stroke-width="0.6" stroke-dasharray="8 5"/>
<line x1="334.919" y1="297.688" x2="279.099" y2="294.826" stroke="#a84a1e" stroke-width="0.6" stroke-dasharray="8 5"/>
<line x1="279.099" y1="294.826" x2="223.279" y2="291.963" stroke="#a84a1e" stroke-width="0.6" stroke-dasharray="8 5"/>
<line x1="223.279" y1="291.963" x2="167.459" y2="289.100" stroke="#a84a1e" stroke-width="0.6" stroke-dasharray="8 5"/>
<line x1="167.459" y1="289.100" x2="111.640" y2="286.238" stroke="#a84a1e" stroke-width="0.6" stroke-dasharray="8 5"/>
<line x1="111.640" y1="286.238" x2="55.820" y2="283.375" stroke="#a84a1e" stroke-width="0.6" stroke-dasharray="8 5"/>
<line x1="55.820" y1="283.375" x2="0" y2="280.513" stroke="#a84a1e" stroke-width="0.6" stroke-dasharray="8 5"/>
<line x1="0" y1="280.513" x2="-10" y2="280" stroke="#a84a1e" stroke-width="0.6" stroke-dasharray="8 5"/>
<line x1="-10" y1="280" x2="-3.637" y2="190.919" stroke="#a84a1e" stroke-width="0.6" stroke-dasharray="8 5"/>
<line x1="-3.637" y1="190.919" x2="0" y2="140" stroke="#a84a1e" stroke-width="0.6" stroke-dasharray="8 5"/>
<line x1="0" y1="140" x2="10" y2="0" stroke="#a84a1e" stroke-width="0.6" stroke-dasharray="8 5"/>
<line x1="390.739" y1="29.288" x2="390.739" y2="155.028" stroke="#3e68a8" stroke-width="0.6" stroke-dasharray="8 5"/>
<line x1="334.919" y1="24.994" x2="334.919" y2="190.919" stroke="#3e68a8" stroke-width="0.6" stroke-dasharray="8 5"/>
<line x1="334.919" y1="190.919" x2="334.919" y2="297.688" stroke="#3e68a8" stroke-width="0.6" stroke-dasharray="8 5"/>
<line x1="279.099" y1="20.700" x2="279.099" y2="190.919" stroke="#3e68a8" stroke-width="0.6" stroke-dasharray="8 5"/>
<line x1="279.099" y1="190.919" x2="279.099" y2="294.826" stroke="#3e68a8" stroke-width="0.6" stroke-dasharray="8 5"/>
<line x1="223.279" y1="16.406" x2="223.279" y2="190.919" stroke="#3e68a8" stroke-width="0.6" stroke-dasharray="8 5"/>
<line x1="223.279" y1="190.919" x2="223.279" y2="291.963" stroke="#3e68a8" stroke-width="0.6" stroke-dasharray="8 5"/>
<line x1="167.459" y1="12.112" x2="167.459" y2="190.919" stroke="#3e68a8" stroke-width="0.6" stroke-dasharray="8 5"/>
<line x1="167.459" y1="190.919" x2="167.459" y2="289.100" stroke="#3e68a8" stroke-width="0.6" stroke-dasharray="8 5"/>
<line x1="111.640" y1="7.818" x2="111.640" y2="190.919" stroke="#3e68a8" stroke-width="0.6" stroke-dasharray="8 5"/>
<line x1="111.640" y1="190.919" x2="111.640" y2="286.238" stroke="#3e68a8" stroke-width="0.6" stroke-dasharray="8 5"/>
<line x1="55.820" y1="3.525" x2="55.820" y2="190.919" stroke="#3e68a8" stroke-width="0.6" stroke-dasharray="8 5"/>
<line x1="55.820" y1="190.919" x2="55.820" y2="283.375" stroke="#3e68a8" stroke-width="0.6" stroke-dasharray="8 5"/>
<line x1="0" y1="140" x2="0" y2="190.919" stroke="#3e68a8" stroke-width="0.6" stroke-dasharray="8 5"/>
<line x1="0" y1="190.919" x2="0" y2="280.513" stroke="#3e68a8" stroke-width="0.6" stroke-dasharray="8 5"/>
<line x1="388.080" y1="190.919" x2="334.919" y2="190.919" stroke="#3e68a8" stroke-width="0.6" stroke-dasharray="8 5"/>
<line x1="334.919" y1="190.919" x2="279.099" y2="190.919" stroke="#3e68a8" stroke-width="0.6" stroke-dasharray="8 5"/>
<line x1="279.099" y1="190.919" x2="223.279" y2="190.919" stroke="#3e68a8" stroke-width="0.6" stroke-dasharray="8 5"/>
<line x1="223.279" y1="190.919" x2="167.459" y2="190.919" stroke="#3e68a8" stroke-width="0.6" stroke-dasharray="8 5"/>
<line x1="167.459" y1="190.919" x2="111.640" y2="190.919" stroke="#3e68a8" stroke-width="0.6" stroke-dasharray="8 5"/>
<line x1="111.640" y1="190.919" x2="55.820" y2="190.919" stroke="#3e68a8" stroke-width="0.6" stroke-dasharray="8 5"/>
<line x1="55.820" y1="190.919" x2="0" y2="190.919" stroke="#3e68a8" stroke-width="0.6" stroke-dasharray="8 5"/>
<line x1="0" y1="190.919" x2="-3.637" y2="190.919" stroke="#3e68a8" stroke-width="0.6" stroke-dasharray="8 5"/>
<circle cx="10" cy="0" r="0.8" fill="#a84a1e"/>
<circle cx="400" cy="30" r="0.8" fill="#a84a1e"/>
<circle cx="380" cy="300" r="0.8" fill="#a84a1e"/>
<circle cx="-10" cy="280" r="0.8" fill="#a84a1e"/>
<circle cx="390.739" cy="29.288" r="0.8" fill="#3e68a8"/>
<circle cx="390.739" cy="155.028" r="0.8" fill="#3e68a8"/>
<circle cx="334.919" cy="24.994" r="0.8" fill="#3e68a8"/>
<circle cx="334.919" cy="297.688" r="0.8" fill="#3e68a8"/>
<circle cx="279.099" cy="20.700" r="0.8" fill="#3e68a8"/>
<circle cx="279.099" cy="294.826" r="0.8" fill="#3e68a8"/>
<circle cx="223.279" cy="16.406" r="0.8" fill="#3e68a8"/>
<circle cx="223.279" cy="291.963" r="0.8" fill="#3e68a8"/>
<circle cx="167.459" cy="12.112" r="0.8" fill="#3e68a8"/>
<circle cx="167.459" cy="289.100" r="0.8" fill="#3e68a8"/>
<circle cx="111.640" cy="7.818" r="0.8" fill="#3e68a8"/>
<circle cx="111.640" cy="286.238" r="0.8" fill="#3e68a8"/>
<circle cx="55.820" cy="3.525" r="0.8" fill="#3e68a8"/>
<circle cx="55.820" cy="283.375" r="0.8" fill="#3e68a8"/>
<circle cx="0" cy="140" r="0.8" fill="#3e68a8"/>
<circle cx="0" cy="280.513" r="0.8" fill="#3e68a8"/>
<circle cx="388.080" cy="190.919" r="0.8" fill="#3e68a8"/>
<circle cx="-3.637" cy="190.919" r="0.8" fill="#3e68a8"/>
<circle cx="334.919" cy="190.919" r="0.8" fill="#3e68a8"/>
<circle cx="279.099" cy="190.919" r="0.8" fill="#3e68a8"/>
<circle cx="223.279" cy="190.919" r="0.8" fill="#3e68a8"/>
<circle cx="167.459" cy="190.919" r="0.8" fill="#3e68a8"/>
<circle cx="111.640" cy="190.919" r="0.8" fill="#3e68a8"/>
<circle cx="55.820" cy="190.919" r="0.8" fill="#3e68a8"/>
<circle cx="0" cy="190.919" r="0.8" fill="#3e68a8"/>
</g>
</g>
</svg>
