<svg xmlns="http://www.w3.org/2000/svg" width="660" height="500" viewBox="-45 -45 330 250" preserveAspectRatio="xMidYMid meet">
<style>polygon,line{vector-effect:non-scaling-stroke}</style>
<g transform="translate(0,160) scale(1,-1)">
<g id="boundary" fill="none" stroke="#222" stroke-width="0.5">
<polygon points="0,0 240,0 240,160 0,160"/>
</g>
<g id="holes" fill="#e5e5e5" stroke="#666" stroke-width="0.5">
<polygon points="90,60 150,60 150,100 90,100"/>
</g>
<g id="stalls" stroke="#1f5f1a" stroke-width="0.25">
<polygon points="9,-30 18,-30 18,-12 9,-12" fill="#8fc98a"/>
<polygon points="18,-30 27,-30 27,-12 18,-12" fill="#8fc98a"/>
<polygon points="27,-30 36,-30 36,-12 27,-12" fill="#8fc98a"/>
<polygon points="36,-30 45,-30 45,-12 36,-12" fill="#a1b885"/>
<polygon points="45,-30 54,-30 54,-12 45,-12" fill="#8fc98a"/>
<polygon points="54,-30 63,-30 63,-12 54,-12" fill="#8fc98a"/>
<polygon points="63,-30 72,-30 72,-12 63,-12" fill="#8fc98a"/>
<polygon points="72,-30 81,-30 81,-12 72,-12" fill="#8fc98a"/>
<polygon points="81,-30 90,-30 90,-12 81,-12" fill="#8fc98a"/>
<polygon points="90,-30 99,-30 99,-12 90,-12" fill="#8fc98a"/>
<polygon points="99,-30 108,-30 108,-12 99,-12" fill="#8fc98a"/>
<polygon points="108,-30 117,-30 117,-12 108,-12" fill="#a1b885"/>
<polygon points="117,-30 126,-30 126,-12 117,-12" fill="#8fc98a"/>
<polygon points="126,-30 135,-30 135,-12 126,-12" fill="#8fc98a"/>
<polygon points="135,-30 144,-30 144,-12 135,-12" fill="#8fc98a"/>
<polygon points="144,-30 153,-30 153,-12 144,-12" fill="#8fc98a"/>
<polygon points="153,-30 162,-30 162,-12 153,-12" fill="#8fc98a"/>
<polygon points="162,-30 171,-30 171,-12 162,-12" fill="#8fc98a"/>
<polygon points="171,-30 180,-30 180,-12 171,-12" fill="#8fc98a"/>
<polygon points="180,-30 189,-30 189,-12 180,-12" fill="#a1b885"/>
<polygon points="189,-30 198,-30 198,-12 189,-12" fill="#8fc98a"/>
<polygon points="198,-30 207,-30 207,-12 198,-12" fill="#8fc98a"/>
<polygon points="207,-30 216,-30 216,-12 207,-12" fill="#8fc98a"/>
<polygon points="216,-30 225,-30 225,-12 216,-12" fill="#8fc98a"/>
<polygon points="225,-30 234,-30 234,-12 225,-12" fill="#8fc98a"/>
<polygon points="234,190 225,190 225,172 234,172" fill="#8fc98a"/>
<polygon points="225,190 216,190 216,172 225,172" fill="#8fc98a"/>
<polygon points="216,190 207,190 207,172 216,172" fill="#8fc98a"/>
<polygon points="207,190 198,190 198,172 207,172" fill="#8fc98a"/>
<polygon points="198,190 189,190 189,172 198,172" fill="#8fc98a"/>
<polygon points="189,190 180,190 180,172 189,172" fill="#8fc98a"/>
<polygon points="180,190 171,190 171,172 180,172" fill="#a1b885"/>
<polygon points="171,190 162,190 162,172 171,172" fill="#8fc98a"/>
<polygon points="162,190 153,190 153,172 162,172" fill="#8fc98a"/>
<polygon points="153,190 144,190 144,172 153,172" fill="#8fc98a"/>
<polygon points="144,190 135,190 135,172 144,172" fill="#8fc98a"/>
<polygon points="135,190 126,190 126,172 135,172" fill="#8fc98a"/>
<polygon points="126,190 117,190 117,172 126,172" fill="#8fc98a"/>
<polygon points="117,190 108,190 108,172 117,172" fill="#8fc98a"/>
<polygon points="108,190 99,190 99,172 108,172" fill="#a1b885"/>
<polygon points="99,190 90,190 90,172 99,172" fill="#8fc98a"/>
<polygon points="90,190 81,190 81,172 90,172" fill="#8fc98a"/>
<polygon points="81,190 72,190 72,172 81,172" fill="#8fc98a"/>
<polygon points="72,190 63,190 63,172 72,172" fill="#8fc98a"/>
<polygon points="63,190 54,190 54,172 63,172" fill="#8fc98a"/>
<polygon points="54,190 45,190 45,172 54,172" fill="#8fc98a"/>
<polygon points="45,190 36,190 36,172 45,172" fill="#8fc98a"/>
<polygon points="36,190 27,190 27,172 36,172" fill="#a1b885"/>
<polygon points="27,190 18,190 18,172 27,172" fill="#8fc98a"/>
<polygon points="18,190 9,190 9,172 18,172" fill="#8fc98a"/>
<polygon points="270,9 270,18 252,18 252,9" fill="#8fc98a"/>
<polygon points="270,18 270,27 252,27 252,18" fill="#8fc98a"/>
<polygon points="270,27 270,36 252,36 252,27" fill="#8fc98a"/>
<polygon points="270,36 270,45 252,45 252,36" fill="#a1b885"/>
<polygon points="270,45 270,54 252,54 252,45" fill="#8fc98a"/>
<polygon points="270,54 270,63 252,63 252,54" fill="#8fc98a"/>
<polygon points="270,63 270,72 252,72 252,63" fill="#8fc98a"/>
<polygon points="270,72 270,81 252,81 252,72" fill="#8fc98a"/>
<polygon points="270,81 270,90 252,90 252,81" fill="#8fc98a"/>
<polygon points="270,90 270,99 252,99 252,90" fill="#8fc98a"/>
<polygon points="270,99 270,108 252,108 252,99" fill="#8fc98a"/>
<polygon points="270,108 270,117 252,117 252,108" fill="#a1b885"/>
<polygon points="270,117 270,126 252,126 252,117" fill="#8fc98a"/>
<polygon points="270,126 270,135 252,135 252,126" fill="#8fc98a"/>
<polygon points="270,135 270,144 252,144 252,135" fill="#8fc98a"/>
<polygon points="270,144 270,153 252,153 252,144" fill="#8fc98a"/>
<polygon points="-30,153 -30,144 -12,144 -12,153" fill="#8fc98a"/>
<polygon points="-30,144 -30,135 -12,135 -12,144" fill="#8fc98a"/>
<polygon points="-30,135 -30,126 -12,126 -12,135" fill="#8fc98a"/>
<polygon points="-30,126 -30,117 -12,117 -12,126" fill="#8fc98a"/>
<polygon points="-30,117 -30,108 -12,108 -12,117" fill="#8fc98a"/>
<polygon points="-30,108 -30,99 -12,99 -12,108" fill="#a1b885"/>
<polygon points="-30,99 -30,90 -12,90 -12,99" fill="#8fc98a"/>
<polygon points="-30,90 -30,81 -12,81 -12,90" fill="#8fc98a"/>
<polygon points="-30,81 -30,72 -12,72 -12,81" fill="#8fc98a"/>
<polygon points="-30,72 -30,63 -12,63 -12,72" fill="#8fc98a"/>
<polygon points="-30,63 -30,54 -12,54 -12,63" fill="#8fc98a"/>
<polygon points="-30,54 -30,45 -12,45 -12,54" fill="#8fc98a"/>
<polygon points="-30,45 -30,36 -12,36 -12,45" fill="#8fc98a"/>
<polygon points="-30,36 -30,27 -12,27 -12,36" fill="#a1b885"/>
<polygon points="-30,27 -30,18 -12,18 -12,27" fill="#8fc98a"/>
<polygon points="-30,18 -30,9 -12,9 -12,18" fill="#8fc98a"/>
<polygon points="30,108 30,99 48,99 48,108" fill="#8fc98a"/>
<polygon points="30,99 30,90 48,90 48,99" fill="#8fc98a"/>
<polygon points="30,90 30,81 48,81 48,90" fill="#8fc98a"/>
<polygon points="30,81 30,72 48,72 48,81" fill="#8fc98a"/>
<polygon points="30,72 30,63 48,63 48,72" fill="#8fc98a"/>
<polygon points="30,63 30,54 48,54 48,63" fill="#8fc98a"/>
<polygon points="30,54 30,45 48,45 48,54" fill="#8fc98a"/>
<polygon points="30,45 30,36 48,36 48,45" fill="#8fc98a"/>
<polygon points="30,36 30,27 48,27 48,36" fill="#8fc98a"/>
<polygon points="30,27 30,36 12,36 12,27" fill="#8fc98a"/>
<polygon points="30,36 30,45 12,45 12,36" fill="#a1b885"/>
<polygon points="30,45 30,54 12,54 12,45" fill="#8fc98a"/>
<polygon points="30,54 30,63 12,63 12,54" fill="#8fc98a"/>
<polygon points="30,63 30,72 12,72 12,63" fill="#8fc98a"/>
<polygon points="30,72 30,81 12,81 12,72" fill="#8fc98a"/>
<polygon points="30,81 30,90 12,90 12,81" fill="#8fc98a"/>
<polygon points="30,90 30,99 12,99 12,90" fill="#8fc98a"/>
<polygon points="30,99 30,108 12,108 12,99" fill="#8fc98a"/>
<polygon points="210,108 210,99 228,99 228,108" fill="#8fc98a"/>
<polygon points="210,99 210,90 228,90 228,99" fill="#8fc98a"/>
<polygon points="210,90 210,81 228,81 228,90" fill="#8fc98a"/>
<polygon points="210,81 210,72 228,72 228,81" fill="#8fc98a"/>
<polygon points="210,72 210,63 228,63 228,72" fill="#8fc98a"/>
<polygon points="210,63 210,54 228,54 228,63" fill="#8fc98a"/>
<polygon points="210,54 210,45 228,45 228,54" fill="#8fc98a"/>
<polygon points="210,45 210,36 228,36 228,45" fill="#8fc98a"/>
<polygon points="210,36 210,27 228,27 228,36" fill="#8fc98a"/>
<polygon points="210,27 210,36 192,36 192,27" fill="#8fc98a"/>
<polygon points="210,36 210,45 192,45 192,36" fill="#a1b885"/>
<polygon points="210,45 210,54 192,54 192,45" fill="#8fc98a"/>
<polygon points="210,54 210,63 192,63 192,54" fill="#8fc98a"/>
<polygon points="210,63 210,72 192,72 192,63" fill="#8fc98a"/>
<polygon points="210,72 210,81 192,81 192,72" fill="#8fc98a"/>
<polygon points="210,81 210,90 192,90 192,81" fill="#8fc98a"/>
<polygon points="210,90 210,99 192,99 192,90" fill="#8fc98a"/>
<polygon points="210,99 210,108 192,108 192,99" fill="#8fc98a"/>
</g>
<g id="graph">
<line x1="0" y1="0" x2="60" y2="0" stroke="#a84a1e" stroke-width="0.6"/>
<line x1="60" y1="0" x2="0" y2="0" stroke="#a84a1e" stroke-width="0.6"/>
<line x1="60" y1="0" x2="120" y2="0" stroke="#a84a1e" stroke-width="0.6"/>
<line x1="120" y1="0" x2="60" y2="0" stroke="#a84a1e" stroke-width="0.6"/>
<line x1="120" y1="0" x2="180" y2="0" stroke="#a84a1e" stroke-width="0.6"/>
<line x1="180" y1="0" x2="120" y2="0" stroke="#a84a1e" stroke-width="0.6"/>
<line x1="180" y1="0" x2="240" y2="0" stroke="#a84a1e" stroke-width="0.6"/>
<line x1="240" y1="0" x2="180" y2="0" stroke="#a84a1e" stroke-width="0.6"/>
<line x1="240" y1="0" x2="240" y2="135" stroke="#a84a1e" stroke-width="0.6"/>
<line x1="240" y1="135" x2="240" y2="0" stroke="#a84a1e" stroke-width="0.6"/>
<line x1="240" y1="135" x2="240" y2="160" stroke="#a84a1e" stroke-width="0.6"/>
<line x1="240" y1="160" x2="240" y2="135" stroke="#a84a1e" stroke-width="0.6"/>
<line x1="240" y1="160" x2="180" y2="160" stroke="#a84a1e" stroke-width="0.6"/>
<line x1="180" y1="160" x2="240" y2="160" stroke="#a84a1e" stroke-width="0.6"/>
<line x1="180" y1="160" x2="120" y2="160" stroke="#a84a1e" stroke-width="0.6"/>
<line x1="120" y1="160" x2="180" y2="160" stroke="#a84a1e" stroke-width="0.6"/>
<line x1="120" y1="160" x2="60" y2="160" stroke="#a84a1e" stroke-width="0.6"/>
<line x1="60" y1="160" x2="120" y2="160" stroke="#a84a1e" stroke-width="0.6"/>
<line x1="60" y1="160" x2="0" y2="160" stroke="#a84a1e" stroke-width="0.6"/>
<line x1="0" y1="160" x2="60" y2="160" stroke="#a84a1e" stroke-width="0.6"/>
<line x1="0" y1="160" x2="0" y2="135" stroke="#a84a1e" stroke-width="0.6"/>
<line x1="0" y1="135" x2="0" y2="160" stroke="#a84a1e" stroke-width="0.6"/>
<line x1="0" y1="135" x2="0" y2="0" stroke="#a84a1e" stroke-width="0.6"/>
<line x1="0" y1="0" x2="0" y2="135" stroke="#a84a1e" stroke-width="0.6"/>
<line x1="90" y1="60" x2="120" y2="60" stroke="#a84a1e" stroke-width="0.6"/>
<line x1="120" y1="60" x2="90" y2="60" stroke="#a84a1e" stroke-width="0.6"/>
<line x1="120" y1="60" x2="150" y2="60" stroke="#a84a1e" stroke-width="0.6"/>
<line x1="150" y1="60" x2="120" y2="60" stroke="#a84a1e" stroke-width="0.6"/>
<line x1="150" y1="60" x2="150" y2="100" stroke="#a84a1e" stroke-width="0.6"/>
<line x1="150" y1="100" x2="150" y2="60" stroke="#a84a1e" stroke-width="0.6"/>
<line x1="150" y1="100" x2="120" y2="100" stroke="#a84a1e" stroke-width="0.6"/>
<line x1="120" y1="100" x2="150" y2="100" stroke="#a84a1e" stroke-width="0.6"/>
<line x1="120" y1="100" x2="90" y2="100" stroke="#a84a1e" stroke-width="0.6"/>
<line x1="90" y1="100" x2="120" y2="100" stroke="#a84a1e" stroke-width="0.6"/>
<line x1="90" y1="100" x2="90" y2="60" stroke="#a84a1e" stroke-width="0.6"/>
<line x1="90" y1="60" x2="90" y2="100" stroke="#a84a1e" stroke-width="0.6"/>
<line x1="180" y1="0" x2="180" y2="135" stroke="#3e68a8" stroke-width="0.6"/>
<line x1="180" y1="135" x2="180" y2="0" stroke="#3e68a8" stroke-width="0.6"/>
<line x1="180" y1="135" x2="180" y2="160" stroke="#3e68a8" stroke-width="0.6"/>
<line x1="180" y1="160" x2="180" y2="135" stroke="#3e68a8" stroke-width="0.6"/>
<line x1="120" y1="0" x2="120" y2="60" stroke="#3e68a8" stroke-width="0.6"/>
<line x1="120" y1="60" x2="120" y2="0" stroke="#3e68a8" stroke-width="0.6"/>
<line x1="120" y1="100" x2="120" y2="135" stroke="#3e68a8" stroke-width="0.6"/>
<line x1="120" y1="135" x2="120" y2="100" stroke="#3e68a8" stroke-width="0.6"/>
<line x1="120" y1="135" x2="120" y2="160" stroke="#3e68a8" stroke-width="0.6"/>
<line x1="120" y1="160" x2="120" y2="135" stroke="#3e68a8" stroke-width="0.6"/>
<line x1="60" y1="0" x2="60" y2="135" stroke="#3e68a8" stroke-width="0.6"/>
<line x1="60" y1="135" x2="60" y2="0" stroke="#3e68a8" stroke-width="0.6"/>
<line x1="60" y1="135" x2="60" y2="160" stroke="#3e68a8" stroke-width="0.6"/>
<line x1="60" y1="160" x2="60" y2="135" stroke="#3e68a8" stroke-width="0.6"/>
<line x1="240" y1="135" x2="180" y2="135" stroke="#3e68a8" stroke-width="0.6"/>
<line x1="180" y1="135" x2="240" y2="135" stroke="#3e68a8" stroke-width="0.6"/>
<line x1="180" y1="135" x2="120" y2="135" stroke="#3e68a8" stroke-width="0.6"/>
<line x1="120" y1="135" x2="180" y2="135" stroke="#3e68a8" stroke-width="0.6"/>
<line x1="120" y1="135" x2="60" y2="135" stroke="#3e68a8" stroke-width="0.6"/>
<line x1="60" y1="135" x2="120" y2="135" stroke="#3e68a8" stroke-width="0.6"/>
<line x1="60" y1="135" x2="0" y2="135" stroke="#3e68a8" stroke-width="0.6"/>
<line x1="0" y1="135" x2="60" y2="135" stroke="#3e68a8" stroke-width="0.6"/>
<circle cx="0" cy="0" r="0.8" fill="#a84a1e"/>
<circle cx="240" cy="0" r="0.8" fill="#a84a1e"/>
<circle cx="240" cy="160" r="0.8" fill="#a84a1e"/>
<circle cx="0" cy="160" r="0.8" fill="#a84a1e"/>
<circle cx="90" cy="60" r="0.8" fill="#a84a1e"/>
<circle cx="150" cy="60" r="0.8" fill="#a84a1e"/>
<circle cx="150" cy="100" r="0.8" fill="#a84a1e"/>
<circle cx="90" cy="100" r="0.8" fill="#a84a1e"/>
<circle cx="180" cy="0" r="0.8" fill="#3e68a8"/>
<circle cx="180" cy="160" r="0.8" fill="#3e68a8"/>
<circle cx="120" cy="0" r="0.8" fill="#3e68a8"/>
<circle cx="120" cy="160" r="0.8" fill="#3e68a8"/>
<circle cx="120" cy="60" r="0.8" fill="#3e68a8"/>
<circle cx="120" cy="100" r="0.8" fill="#3e68a8"/>
<circle cx="60" cy="0" r="0.8" fill="#3e68a8"/>
<circle cx="60" cy="160" r="0.8" fill="#3e68a8"/>
<circle cx="240" cy="135" r="0.8" fill="#3e68a8"/>
<circle cx="0" cy="135" r="0.8" fill="#3e68a8"/>
<circle cx="180" cy="135" r="0.8" fill="#3e68a8"/>
<circle cx="120" cy="135" r="0.8" fill="#3e68a8"/>
<circle cx="60" cy="135" r="0.8" fill="#3e68a8"/>
</g>
</g>
</svg>
